M48
; DRILL file {KiCad (6.99.0-1912-g359c99991b)} date Mon Aug 15 10:18:18 2022
; FORMAT={-:-/ absolute / metric / decimal}
; #@! TF.CreationDate,2022-08-15T10:18:18+07:00
; #@! TF.GenerationSoftware,Kicad,Pcbnew,(6.99.0-1912-g359c99991b)
; #@! TF.FileFunction,MixedPlating,1,2
FMAT,2
METRIC
; #@! TA.AperFunction,Plated,PTH,ViaDrill
T1C0.250
; #@! TA.AperFunction,Plated,PTH,ComponentDrill
T2C0.350
; #@! TA.AperFunction,Plated,PTH,ComponentDrill
T3C1.000
%
G90
G05
T1
X3.35Y-15.65
X4.05Y-15.05
X4.7Y-11.45
X5.3Y-16.65
X5.561Y-5.266
X5.6Y-7.9
X5.7Y-2.8
X5.718Y-6.534
X5.95Y-17.0
X6.5Y-17.55
X7.1Y-17.85
X7.2Y-19.85
X7.4Y-5.8
X7.75Y-21.65
X8.1Y-7.5
X8.2Y-16.6
X9.3Y-10.2
X10.0Y-11.0
X10.05Y-11.7
X10.05Y-12.4
X10.4Y-15.8
X10.9Y-2.8
X10.9Y-11.2
X11.1Y-15.7
X11.65Y-10.95
X12.4Y-15.95
X12.4Y-20.05
X12.55Y-6.05
X12.7Y-4.7
X13.25Y-15.7
X13.35Y-8.55
X13.9Y-15.65
X14.15Y-10.95
X14.55Y-15.7
X14.75Y-15.05
X14.8Y-6.35
X14.8Y-13.75
X14.95Y-11.05
X16.25Y-6.4
X16.4Y-8.65
X17.0Y-2.6
X17.45Y-16.75
X17.6Y-6.4
X17.9Y-8.8
X17.95Y-14.4
X18.35Y-18.55
X18.9Y-3.3
X19.2Y-18.6
X19.2Y-21.75
X19.75Y-7.9
X19.75Y-20.0
X19.8Y-20.75
X20.5Y-15.05
X20.6Y-2.7
X20.75Y-14.15
X21.7Y-4.2
X21.7Y-5.7
X21.7Y-7.7
X22.25Y-12.25
X22.35Y-18.45
T2
X11.225Y-12.225
X11.225Y-13.5
X11.225Y-14.775
X12.5Y-12.225
X12.5Y-13.5
X12.5Y-14.775
X13.775Y-12.225
X13.775Y-13.5
X13.775Y-14.775
T3
X0.1Y-3.5
X0.1Y-5.5
X0.1Y-7.5
X0.1Y-9.5
X0.1Y-11.5
X0.1Y-13.5
X0.1Y-15.5
X0.1Y-17.5
X0.1Y-19.5
X0.1Y-21.5
X1.5Y-3.5
X1.5Y-5.5
X1.5Y-7.5
X1.5Y-9.5
X1.5Y-11.5
X1.5Y-13.5
X1.5Y-15.5
X1.5Y-17.5
X1.5Y-19.5
X1.5Y-21.5
X3.5Y-0.1
X3.5Y-1.5
X3.5Y-23.5
X3.5Y-24.9
X5.5Y-0.1
X5.5Y-1.5
X5.5Y-23.5
X5.5Y-24.9
X7.5Y-0.1
X7.5Y-1.5
X7.5Y-23.5
X7.5Y-24.9
X9.5Y-0.1
X9.5Y-1.5
X9.5Y-23.5
X9.5Y-24.9
X11.5Y-0.1
X11.5Y-1.5
X11.5Y-23.5
X11.5Y-24.9
X13.5Y-0.1
X13.5Y-1.5
X13.5Y-23.5
X13.5Y-24.9
X15.5Y-0.1
X15.5Y-1.5
X15.5Y-23.5
X15.5Y-24.9
X17.5Y-0.1
X17.5Y-1.5
X17.5Y-23.5
X17.5Y-24.9
X19.5Y-0.1
X19.5Y-1.5
X19.5Y-23.5
X19.5Y-24.9
X21.5Y-0.1
X21.5Y-1.5
X21.5Y-23.5
X21.5Y-24.9
X23.5Y-3.5
X23.5Y-5.5
X23.5Y-7.5
X23.5Y-9.5
X23.5Y-11.5
X23.5Y-13.5
X23.5Y-15.5
X23.5Y-17.5
X23.5Y-19.5
X23.5Y-21.5
X24.9Y-3.5
X24.9Y-5.5
X24.9Y-7.5
X24.9Y-9.5
X24.9Y-11.5
X24.9Y-13.5
X24.9Y-15.5
X24.9Y-17.5
X24.9Y-19.5
X24.9Y-21.5
T0
M30
