G04 #@! TF.GenerationSoftware,KiCad,Pcbnew,(6.99.0-1912-g359c99991b)*
G04 #@! TF.CreationDate,2022-08-15T10:18:15+07:00*
G04 #@! TF.ProjectId,rp2040_bento,72703230-3430-45f6-9265-6e746f2e6b69,1*
G04 #@! TF.SameCoordinates,Original*
G04 #@! TF.FileFunction,Copper,L2,Bot*
G04 #@! TF.FilePolarity,Positive*
%FSLAX46Y46*%
G04 Gerber Fmt 4.6, Leading zero omitted, Abs format (unit mm)*
G04 Created by KiCad (PCBNEW (6.99.0-1912-g359c99991b)) date 2022-08-15 10:18:15*
%MOMM*%
%LPD*%
G01*
G04 APERTURE LIST*
G04 #@! TA.AperFunction,CastellatedPad*
%ADD10C,1.500000*%
G04 #@! TD*
G04 #@! TA.AperFunction,ComponentPad*
%ADD11O,1.500000X2.800000*%
G04 #@! TD*
G04 #@! TA.AperFunction,ComponentPad*
%ADD12O,2.800000X1.500000*%
G04 #@! TD*
G04 #@! TA.AperFunction,ComponentPad*
%ADD13C,0.600000*%
G04 #@! TD*
G04 #@! TA.AperFunction,ViaPad*
%ADD14C,0.500000*%
G04 #@! TD*
G04 #@! TA.AperFunction,Conductor*
%ADD15C,0.200000*%
G04 #@! TD*
G04 #@! TA.AperFunction,Conductor*
%ADD16C,0.400000*%
G04 #@! TD*
G04 #@! TA.AperFunction,Profile*
%ADD17C,0.100000*%
G04 #@! TD*
G04 APERTURE END LIST*
D10*
X21500000Y-100000D03*
D11*
X21499999Y-799999D03*
D10*
X19500000Y-100000D03*
D11*
X19499999Y-799999D03*
D10*
X17500000Y-100000D03*
D11*
X17499999Y-799999D03*
D10*
X15500000Y-100000D03*
D11*
X15499999Y-799999D03*
D10*
X13500000Y-100000D03*
D11*
X13499999Y-799999D03*
D10*
X11500000Y-100000D03*
D11*
X11499999Y-799999D03*
D10*
X9500000Y-100000D03*
D11*
X9499999Y-799999D03*
D10*
X7500000Y-100000D03*
D11*
X7499999Y-799999D03*
D10*
X5500000Y-100000D03*
D11*
X5499999Y-799999D03*
D10*
X3500000Y-100000D03*
D11*
X3499999Y-799999D03*
D10*
X100000Y-3500000D03*
D12*
X799999Y-3499999D03*
D10*
X100000Y-5500000D03*
D12*
X799999Y-5499999D03*
D10*
X100000Y-7500000D03*
D12*
X799999Y-7499999D03*
D10*
X100000Y-9500000D03*
D12*
X799999Y-9499999D03*
D10*
X100000Y-11500000D03*
D12*
X799999Y-11499999D03*
D10*
X100000Y-13500000D03*
D12*
X799999Y-13499999D03*
D10*
X100000Y-15500000D03*
D12*
X799999Y-15499999D03*
D10*
X100000Y-17500000D03*
D12*
X799999Y-17499999D03*
D10*
X100000Y-19500000D03*
D12*
X799999Y-19499999D03*
D10*
X100000Y-21500000D03*
D12*
X799999Y-21499999D03*
D10*
X24900000Y-21500000D03*
D12*
X24199999Y-21499999D03*
D10*
X24900000Y-19500000D03*
D12*
X24199999Y-19499999D03*
D10*
X24900000Y-17500000D03*
D12*
X24199999Y-17499999D03*
D10*
X24900000Y-15500000D03*
D12*
X24199999Y-15499999D03*
D10*
X24900000Y-13500000D03*
D12*
X24199999Y-13499999D03*
D10*
X24900000Y-11500000D03*
D12*
X24199999Y-11499999D03*
D10*
X24900000Y-9500000D03*
D12*
X24199999Y-9499999D03*
D10*
X24900000Y-7500000D03*
D12*
X24199999Y-7499999D03*
D10*
X24900000Y-5500000D03*
D12*
X24199999Y-5499999D03*
D10*
X24900000Y-3500000D03*
D12*
X24199999Y-3499999D03*
D13*
X11225000Y-12225000D03*
X11225000Y-13500000D03*
X11225000Y-14775000D03*
X12500000Y-12225000D03*
X12500000Y-13500000D03*
X12500000Y-14775000D03*
X13775000Y-12225000D03*
X13775000Y-13500000D03*
X13775000Y-14775000D03*
D10*
X3500000Y-24900000D03*
D11*
X3499999Y-24199999D03*
D10*
X5500000Y-24900000D03*
D11*
X5499999Y-24199999D03*
D10*
X7500000Y-24900000D03*
D11*
X7499999Y-24199999D03*
D10*
X9500000Y-24900000D03*
D11*
X9499999Y-24199999D03*
D10*
X11500000Y-24900000D03*
D11*
X11499999Y-24199999D03*
D10*
X13500000Y-24900000D03*
D11*
X13499999Y-24199999D03*
D10*
X15500000Y-24900000D03*
D11*
X15499999Y-24199999D03*
D10*
X17500000Y-24900000D03*
D11*
X17499999Y-24199999D03*
D10*
X19500000Y-24900000D03*
D11*
X19499999Y-24199999D03*
D10*
X21500000Y-24900000D03*
D11*
X21499999Y-24199999D03*
D14*
X5600000Y-7900000D03*
X5561337Y-5265776D03*
X7400000Y-5800000D03*
X5717785Y-6533998D03*
X8100000Y-7500000D03*
X20750000Y-14150000D03*
X14800000Y-6350000D03*
X18900000Y-3300000D03*
X17900000Y-8800000D03*
X21700000Y-7700000D03*
X17000000Y-2600000D03*
X19800000Y-20750000D03*
X10900000Y-2800000D03*
X4700000Y-11450000D03*
X16250000Y-6400000D03*
X5700000Y-2800000D03*
X22350000Y-18450000D03*
X12400000Y-20050000D03*
X3350000Y-15650000D03*
X16400000Y-8650000D03*
X14800000Y-13750000D03*
X14150000Y-10950000D03*
X18350000Y-18550000D03*
X12400000Y-15950000D03*
X10000000Y-11000000D03*
X21700000Y-4200000D03*
X21700000Y-5700000D03*
X19200000Y-21750000D03*
X10050000Y-11700000D03*
X20600000Y-2700000D03*
X22250000Y-12250000D03*
X10050000Y-12400000D03*
X5950000Y-17000000D03*
X6500000Y-17550000D03*
X7100000Y-17850000D03*
X8200000Y-16600000D03*
X7200000Y-19850000D03*
X7750000Y-21650000D03*
X10400000Y-15800000D03*
X11100000Y-15700000D03*
X17450000Y-16750000D03*
X14750000Y-15050000D03*
X19750000Y-20000000D03*
X13350000Y-8550000D03*
X19200000Y-18600000D03*
X14950000Y-11050000D03*
X5300000Y-16650000D03*
X9300000Y-10200000D03*
X10900000Y-11200000D03*
X17600000Y-6400000D03*
X20500000Y-15050000D03*
X17950000Y-14400000D03*
X12700000Y-4700000D03*
X4050000Y-15050000D03*
X13250000Y-15700000D03*
X14550000Y-15700000D03*
X19750000Y-7900000D03*
X13900000Y-15650000D03*
X12550000Y-6050000D03*
X11650000Y-10950000D03*
D15*
X3898560Y-6698560D02*
X3898560Y-1898560D01*
X4300000Y-7100000D02*
X3898560Y-6698560D01*
X5300000Y-7100000D02*
X4300000Y-7100000D01*
X5600000Y-7400000D02*
X5300000Y-7100000D01*
X5600000Y-7900000D02*
X5600000Y-7400000D01*
X3898560Y-1898560D02*
X3500000Y-1500000D01*
X6865776Y-5265776D02*
X7400000Y-5800000D01*
X5561337Y-5265776D02*
X6865776Y-5265776D01*
X7833998Y-6533998D02*
X8100000Y-6800000D01*
X8100000Y-6800000D02*
X8100000Y-7500000D01*
X5717785Y-6533998D02*
X7833998Y-6533998D01*
D16*
X16800000Y-2800000D02*
X17000000Y-2600000D01*
X10900000Y-2800000D02*
X16800000Y-2800000D01*
X14600000Y-9150000D02*
X14150000Y-9600000D01*
D15*
X14800000Y-13750000D02*
X14407750Y-14142250D01*
X14950000Y-17750000D02*
X15750000Y-18550000D01*
D16*
X15900000Y-9150000D02*
X14600000Y-9150000D01*
D15*
X12400000Y-15800000D02*
X12400000Y-15950000D01*
X13407750Y-14142250D02*
X13139667Y-14410333D01*
X13139667Y-14410333D02*
X13139667Y-15060333D01*
X15750000Y-18550000D02*
X18350000Y-18550000D01*
X12800000Y-17450000D02*
X13100000Y-17750000D01*
X12400000Y-15950000D02*
X12800000Y-16350000D01*
X14407750Y-14142250D02*
X13407750Y-14142250D01*
D16*
X14150000Y-9600000D02*
X14150000Y-10950000D01*
D15*
X13139667Y-15060333D02*
X12400000Y-15800000D01*
X12800000Y-16350000D02*
X12800000Y-17450000D01*
X13100000Y-17750000D02*
X14950000Y-17750000D01*
D16*
X16400000Y-8650000D02*
X15900000Y-9150000D01*
D15*
X3549040Y-5549040D02*
X3549040Y-9460448D01*
X3549040Y-9460448D02*
X3988592Y-9900000D01*
X1500000Y-3500000D02*
X3549040Y-5549040D01*
X3988592Y-9900000D02*
X8150000Y-9900000D01*
X8150000Y-9900000D02*
X9250000Y-11000000D01*
X9250000Y-11000000D02*
X10000000Y-11000000D01*
D16*
X19200000Y-21750000D02*
X20600000Y-21750000D01*
X21600000Y-20750000D02*
X21600000Y-13400000D01*
X21700000Y-5700000D02*
X21700000Y-4200000D01*
X21600000Y-13400000D02*
X21099039Y-12899039D01*
X21100000Y-7498078D02*
X21100000Y-6800000D01*
X21100000Y-6800000D02*
X21700000Y-6200000D01*
X21099039Y-12899039D02*
X21099039Y-7499039D01*
X21099039Y-7499039D02*
X21100000Y-7498078D01*
X21700000Y-6200000D02*
X21700000Y-5700000D01*
X20600000Y-21750000D02*
X21600000Y-20750000D01*
D15*
X3199520Y-9605224D02*
X3843816Y-10249520D01*
X1500000Y-5500000D02*
X3199520Y-7199520D01*
X3843816Y-10249520D02*
X8000000Y-10249520D01*
X9450480Y-11700000D02*
X10050000Y-11700000D01*
X3199520Y-7199520D02*
X3199520Y-9605224D01*
X8000000Y-10249520D02*
X9450480Y-11700000D01*
X22250000Y-12250000D02*
X22250000Y-3150000D01*
X21800000Y-2700000D02*
X20600000Y-2700000D01*
X22250000Y-3150000D02*
X21800000Y-2700000D01*
X9500000Y-12400000D02*
X10050000Y-12400000D01*
X1500000Y-7500000D02*
X1900000Y-7500000D01*
X3700000Y-10600000D02*
X4359490Y-10600000D01*
X1900000Y-7500000D02*
X2850000Y-8450000D01*
X7699040Y-10599040D02*
X9500000Y-12400000D01*
X2850000Y-9750000D02*
X3700000Y-10600000D01*
X2850000Y-8450000D02*
X2850000Y-9750000D01*
X4359490Y-10600000D02*
X4360450Y-10599040D01*
X4360450Y-10599040D02*
X7699040Y-10599040D01*
X5950000Y-17000000D02*
X5048560Y-17901440D01*
X1500000Y-19500000D02*
X3098560Y-17901440D01*
X3098560Y-17901440D02*
X5048560Y-17901440D01*
X5799040Y-18250960D02*
X6500000Y-17550000D01*
X4749040Y-18250960D02*
X5799040Y-18250960D01*
X1500000Y-21500000D02*
X4749040Y-18250960D01*
X7100000Y-17850000D02*
X3500000Y-21450000D01*
X3500000Y-21450000D02*
X3500000Y-23500000D01*
X5500000Y-20205705D02*
X5500000Y-23500000D01*
X8200000Y-17505704D02*
X8200000Y-16600000D01*
X5500000Y-20205705D02*
X8200000Y-17505704D01*
X7200000Y-23200000D02*
X7500000Y-23500000D01*
X7200000Y-19850000D02*
X7200000Y-23200000D01*
X9049040Y-22049040D02*
X8149040Y-22049040D01*
X8149040Y-22049040D02*
X7750000Y-21650000D01*
X9500000Y-22500000D02*
X9500000Y-23500000D01*
X9500000Y-22500000D02*
X9049040Y-22049040D01*
X8605225Y-17950480D02*
X9305224Y-17950480D01*
X8605223Y-21699519D02*
X7800480Y-20894776D01*
X10949520Y-22349520D02*
X9905223Y-22349519D01*
X7800480Y-20894776D02*
X7800481Y-18755223D01*
X10400000Y-16855704D02*
X10400000Y-15800000D01*
X9905223Y-22349519D02*
X9255224Y-21699520D01*
X10949520Y-22349520D02*
X11500000Y-22900000D01*
X9305224Y-17950480D02*
X10400000Y-16855704D01*
X7800481Y-18755223D02*
X8605225Y-17950480D01*
X11500000Y-22900000D02*
X11500000Y-23500000D01*
X9255224Y-21699520D02*
X8605223Y-21699519D01*
X8750000Y-18300000D02*
X8150000Y-18900000D01*
X8750000Y-21350000D02*
X9400000Y-21350000D01*
X11100000Y-15700000D02*
X11100000Y-16650000D01*
X11100000Y-16650000D02*
X9450000Y-18300000D01*
X9450000Y-18300000D02*
X8750000Y-18300000D01*
X8150000Y-20750000D02*
X8750000Y-21350000D01*
X13500000Y-22700000D02*
X13500000Y-23500000D01*
X8150000Y-18900000D02*
X8150000Y-20750000D01*
X10050000Y-22000000D02*
X12800000Y-22000000D01*
X9400000Y-21350000D02*
X10050000Y-22000000D01*
X12800000Y-22000000D02*
X13500000Y-22700000D01*
X15050000Y-15350000D02*
X15050000Y-15868073D01*
X17431926Y-16734037D02*
X17415963Y-16734037D01*
X14750000Y-15050000D02*
X15050000Y-15350000D01*
X17400000Y-16734037D02*
X17450000Y-16750000D01*
X17450000Y-16750000D02*
X17431926Y-16734037D01*
X15050000Y-15868073D02*
X15915964Y-16734037D01*
X15915964Y-16734037D02*
X17400000Y-16734037D01*
X17500000Y-21200000D02*
X17500000Y-23500000D01*
X18175000Y-20525000D02*
X17500000Y-21200000D01*
X19225000Y-20525000D02*
X18175000Y-20525000D01*
X19750000Y-20000000D02*
X19225000Y-20525000D01*
X12700000Y-10950000D02*
X12700000Y-9200000D01*
X12200489Y-11449511D02*
X12700000Y-10950000D01*
X17600000Y-14050000D02*
X17600000Y-11500000D01*
X10200000Y-10200000D02*
X10700000Y-10700000D01*
D16*
X4050000Y-16250000D02*
X4450000Y-16650000D01*
X17000000Y-4700000D02*
X17600000Y-5300000D01*
D15*
X11149511Y-11449511D02*
X12200489Y-11449511D01*
X19200000Y-18600000D02*
X20344295Y-18600000D01*
D16*
X17600000Y-5300000D02*
X17600000Y-6400000D01*
D15*
X20900000Y-15450000D02*
X20900000Y-18044295D01*
X10700000Y-11000000D02*
X11149511Y-11449511D01*
X9300000Y-10200000D02*
X10200000Y-10200000D01*
X14550489Y-11449511D02*
X14950000Y-11050000D01*
D16*
X4450000Y-16650000D02*
X5300000Y-16650000D01*
D15*
X20900000Y-18044295D02*
X20344295Y-18600000D01*
X10700000Y-10700000D02*
X10700000Y-11000000D01*
X12700000Y-9200000D02*
X13350000Y-8550000D01*
X17150000Y-11050000D02*
X14950000Y-11050000D01*
X20900000Y-15450000D02*
X20500000Y-15050000D01*
X12200489Y-11449511D02*
X14550489Y-11449511D01*
D16*
X4050000Y-15050000D02*
X4050000Y-16250000D01*
D15*
X17950000Y-14400000D02*
X17600000Y-14050000D01*
X17600000Y-11500000D02*
X17150000Y-11050000D01*
D16*
X12700000Y-4700000D02*
X17000000Y-4700000D01*
D15*
X19049520Y-4760930D02*
X19049520Y-5705224D01*
X13700480Y-17400480D02*
X13250000Y-16950000D01*
X13250000Y-16950000D02*
X13250000Y-15700000D01*
X20649519Y-7305223D02*
X20649520Y-10439071D01*
X17738593Y-3450001D02*
X19049520Y-4760930D01*
X19849040Y-16689550D02*
X18538594Y-17999998D01*
X19849040Y-11239552D02*
X19849040Y-16689550D01*
X9500000Y-2500000D02*
X10450000Y-3450000D01*
X10450000Y-3450000D02*
X17738593Y-3450001D01*
X15099520Y-17405224D02*
X15099520Y-17400480D01*
X15099520Y-17400480D02*
X13700480Y-17400480D01*
X20649520Y-10439071D02*
X19849040Y-11239552D01*
X9500000Y-1500000D02*
X9500000Y-2500000D01*
X18538594Y-17999998D02*
X15694296Y-18000000D01*
X19049520Y-5705224D02*
X20649519Y-7305223D01*
X15694296Y-18000000D02*
X15099520Y-17405224D01*
X15988591Y-17300960D02*
X18249040Y-17300960D01*
X19150000Y-8500000D02*
X19750000Y-7900000D01*
X5506416Y-1500000D02*
X5500000Y-1500000D01*
X17449039Y-4149039D02*
X8155455Y-4149039D01*
X14851440Y-16701440D02*
X15389072Y-16701441D01*
X18300000Y-5000000D02*
X17449039Y-4149039D01*
X19150000Y-16400000D02*
X19150000Y-8500000D01*
X14550000Y-16400000D02*
X14851440Y-16701440D01*
X15389072Y-16701441D02*
X15988591Y-17300960D01*
X8155455Y-4149039D02*
X5506416Y-1500000D01*
X19750000Y-7900000D02*
X19750000Y-7394296D01*
X18249040Y-17300960D02*
X19150000Y-16400000D01*
X18300000Y-5944296D02*
X18300000Y-5000000D01*
X14550000Y-15700000D02*
X14550000Y-16400000D01*
X19750000Y-7394296D02*
X18300000Y-5944296D01*
X9799519Y-3799519D02*
X7500000Y-1500000D01*
X20300000Y-7450000D02*
X18700000Y-5850000D01*
X18700000Y-4905705D02*
X17593816Y-3799520D01*
X18700000Y-5850000D02*
X18700000Y-4905705D01*
X14350960Y-17050960D02*
X15244295Y-17050960D01*
X15244295Y-17050960D02*
X15843815Y-17650480D01*
X13900000Y-16600000D02*
X14350960Y-17050960D01*
X18393817Y-17650479D02*
X19499520Y-16544775D01*
X19499520Y-16544775D02*
X19499520Y-11094776D01*
X15843815Y-17650480D02*
X18393817Y-17650479D01*
X13900000Y-15650000D02*
X13900000Y-16600000D01*
X20300000Y-10294296D02*
X20300000Y-7450000D01*
X19499520Y-11094776D02*
X20300000Y-10294296D01*
X17593816Y-3799520D02*
X9799519Y-3799519D01*
X12550000Y-6050000D02*
X12550000Y-8450000D01*
X11900000Y-9100000D02*
X11900000Y-10650000D01*
X11900000Y-10650000D02*
X11650000Y-10900000D01*
X11650000Y-10950000D02*
X11600000Y-10950000D01*
X11650000Y-10900000D02*
X11650000Y-10950000D01*
X12550000Y-8450000D02*
X11900000Y-9100000D01*
X11600000Y-10950000D02*
X11650000Y-10900000D01*
G04 #@! TA.AperFunction,Conductor*
G36*
X2522833Y-9920616D02*
G01*
X2553484Y-9950623D01*
X2557501Y-9958840D01*
X2562808Y-9964147D01*
X2566381Y-9970749D01*
X2581395Y-9984570D01*
X2602584Y-10004076D01*
X2606342Y-10007681D01*
X3012364Y-10413702D01*
X3414091Y-10815429D01*
X3428603Y-10833300D01*
X3429867Y-10834673D01*
X3435579Y-10843416D01*
X3443818Y-10849828D01*
X3443820Y-10849831D01*
X3459466Y-10862008D01*
X3463520Y-10865300D01*
X3466411Y-10867749D01*
X3470104Y-10871442D01*
X3474347Y-10874471D01*
X3474351Y-10874475D01*
X3485939Y-10882749D01*
X3490085Y-10885840D01*
X3528944Y-10916085D01*
X3536043Y-10918522D01*
X3542152Y-10922884D01*
X3552160Y-10925863D01*
X3552163Y-10925865D01*
X3589332Y-10936930D01*
X3594283Y-10938516D01*
X3640844Y-10954500D01*
X3648350Y-10954500D01*
X3655545Y-10956642D01*
X3704724Y-10954608D01*
X3709932Y-10954500D01*
X4309656Y-10954500D01*
X4332571Y-10956876D01*
X4334418Y-10956952D01*
X4344637Y-10959095D01*
X4354995Y-10957804D01*
X4354998Y-10957804D01*
X4373743Y-10955467D01*
X4374637Y-10955356D01*
X4379817Y-10954818D01*
X4383656Y-10954500D01*
X4388867Y-10954500D01*
X4392698Y-10953861D01*
X4400456Y-10953540D01*
X7500011Y-10953540D01*
X7568132Y-10973542D01*
X7589106Y-10990445D01*
X9214091Y-12615430D01*
X9228602Y-12633299D01*
X9229867Y-12634674D01*
X9235579Y-12643416D01*
X9243817Y-12649828D01*
X9243820Y-12649831D01*
X9259456Y-12662001D01*
X9263498Y-12665283D01*
X9266411Y-12667750D01*
X9270103Y-12671442D01*
X9274353Y-12674476D01*
X9274355Y-12674478D01*
X9285927Y-12682740D01*
X9290098Y-12685850D01*
X9328944Y-12716085D01*
X9336042Y-12718522D01*
X9342152Y-12722884D01*
X9389345Y-12736934D01*
X9394286Y-12738517D01*
X9440844Y-12754500D01*
X9448349Y-12754500D01*
X9455544Y-12756642D01*
X9504714Y-12754608D01*
X9509922Y-12754500D01*
X9510460Y-12754500D01*
X9534518Y-12757545D01*
X9534567Y-12757226D01*
X9540690Y-12758174D01*
X9546681Y-12759715D01*
X9552855Y-12760057D01*
X9552859Y-12760058D01*
X9579608Y-12761541D01*
X9607188Y-12763071D01*
X9628657Y-12766131D01*
X9633046Y-12767149D01*
X9655808Y-12774773D01*
X9671066Y-12781562D01*
X9678663Y-12785253D01*
X9735854Y-12815455D01*
X9741707Y-12818452D01*
X9742221Y-12818707D01*
X9745046Y-12820060D01*
X9748239Y-12821590D01*
X9748311Y-12821624D01*
X9748683Y-12821802D01*
X9834448Y-12861439D01*
X9835092Y-12861588D01*
X9838268Y-12863629D01*
X9846916Y-12866168D01*
X9846920Y-12866170D01*
X9968819Y-12901962D01*
X9968821Y-12901962D01*
X9977464Y-12904500D01*
X10122536Y-12904500D01*
X10131179Y-12901962D01*
X10131181Y-12901962D01*
X10253086Y-12866168D01*
X10253088Y-12866167D01*
X10261732Y-12863629D01*
X10326526Y-12821988D01*
X10376195Y-12790068D01*
X10376198Y-12790066D01*
X10383775Y-12785196D01*
X10478777Y-12675558D01*
X10483036Y-12666232D01*
X10522748Y-12579276D01*
X10548266Y-12542524D01*
X11135905Y-11954885D01*
X11198217Y-11920859D01*
X11269032Y-11925924D01*
X11314095Y-11954885D01*
X11495115Y-12135905D01*
X11529141Y-12198217D01*
X11524076Y-12269032D01*
X11495115Y-12314095D01*
X10959520Y-12849690D01*
X10951908Y-12863630D01*
X10952040Y-12865466D01*
X10956291Y-12872081D01*
X11495115Y-13410905D01*
X11529141Y-13473217D01*
X11524076Y-13544032D01*
X11495115Y-13589095D01*
X11225000Y-13859210D01*
X10959523Y-14124688D01*
X10951909Y-14138632D01*
X10952040Y-14140467D01*
X10956288Y-14147077D01*
X11225000Y-14415790D01*
X11849689Y-15040478D01*
X11863632Y-15048091D01*
X11865467Y-15047960D01*
X11872080Y-15043710D01*
X12410905Y-14504885D01*
X12473217Y-14470859D01*
X12544032Y-14475924D01*
X12589095Y-14504885D01*
X12748262Y-14664052D01*
X12782288Y-14726364D01*
X12785167Y-14753147D01*
X12785167Y-14796852D01*
X12765165Y-14864973D01*
X12748263Y-14885947D01*
X12134696Y-15499515D01*
X12128914Y-15506935D01*
X12066724Y-15564483D01*
X12066225Y-15564804D01*
X12065608Y-15565517D01*
X12055865Y-15574532D01*
X12050384Y-15582222D01*
X12043017Y-15591587D01*
X11971223Y-15674442D01*
X11967481Y-15682636D01*
X11967479Y-15682639D01*
X11917955Y-15791083D01*
X11910958Y-15806404D01*
X11890312Y-15950000D01*
X11910958Y-16093596D01*
X11914701Y-16101792D01*
X11959457Y-16199793D01*
X11971223Y-16225558D01*
X11977123Y-16232367D01*
X11977125Y-16232370D01*
X12057000Y-16324550D01*
X12066225Y-16335196D01*
X12073802Y-16340066D01*
X12073805Y-16340068D01*
X12135220Y-16379537D01*
X12188268Y-16413629D01*
X12198867Y-16416741D01*
X12218247Y-16424215D01*
X12220844Y-16425472D01*
X12226134Y-16428706D01*
X12314792Y-16461317D01*
X12315148Y-16461442D01*
X12315199Y-16461461D01*
X12319614Y-16463018D01*
X12321304Y-16463614D01*
X12321887Y-16463811D01*
X12322243Y-16463926D01*
X12322267Y-16463934D01*
X12324217Y-16464564D01*
X12328390Y-16465913D01*
X12328821Y-16466046D01*
X12356679Y-16474649D01*
X12415865Y-16513861D01*
X12444455Y-16578847D01*
X12445500Y-16595039D01*
X12445500Y-17400166D01*
X12443124Y-17423081D01*
X12443048Y-17424928D01*
X12440905Y-17435147D01*
X12442196Y-17445505D01*
X12442196Y-17445508D01*
X12444644Y-17465144D01*
X12445181Y-17470321D01*
X12445500Y-17474171D01*
X12445500Y-17479377D01*
X12446357Y-17484512D01*
X12446357Y-17484513D01*
X12448697Y-17498533D01*
X12449449Y-17503688D01*
X12455539Y-17552551D01*
X12458836Y-17559294D01*
X12460071Y-17566698D01*
X12465040Y-17575879D01*
X12465040Y-17575880D01*
X12483498Y-17609986D01*
X12485883Y-17614619D01*
X12500187Y-17643878D01*
X12507501Y-17658840D01*
X12512808Y-17664147D01*
X12516381Y-17670749D01*
X12544806Y-17696916D01*
X12552597Y-17704088D01*
X12556355Y-17707694D01*
X12814091Y-17965430D01*
X12828602Y-17983299D01*
X12829867Y-17984674D01*
X12835579Y-17993416D01*
X12843817Y-17999828D01*
X12843820Y-17999831D01*
X12859456Y-18012001D01*
X12863498Y-18015283D01*
X12866411Y-18017750D01*
X12870103Y-18021442D01*
X12874353Y-18024476D01*
X12874355Y-18024478D01*
X12885927Y-18032740D01*
X12890098Y-18035850D01*
X12928944Y-18066085D01*
X12936042Y-18068522D01*
X12942152Y-18072884D01*
X12989345Y-18086934D01*
X12994286Y-18088517D01*
X13040844Y-18104500D01*
X13048349Y-18104500D01*
X13055544Y-18106642D01*
X13104714Y-18104608D01*
X13109922Y-18104500D01*
X14750971Y-18104500D01*
X14819092Y-18124502D01*
X14840066Y-18141405D01*
X15464091Y-18765430D01*
X15478602Y-18783299D01*
X15479867Y-18784674D01*
X15485579Y-18793416D01*
X15493817Y-18799828D01*
X15493820Y-18799831D01*
X15509456Y-18812001D01*
X15513498Y-18815283D01*
X15516411Y-18817750D01*
X15520103Y-18821442D01*
X15524353Y-18824476D01*
X15524355Y-18824478D01*
X15535927Y-18832740D01*
X15540098Y-18835850D01*
X15578944Y-18866085D01*
X15586042Y-18868522D01*
X15592152Y-18872884D01*
X15639345Y-18886934D01*
X15644286Y-18888517D01*
X15690844Y-18904500D01*
X15698349Y-18904500D01*
X15705544Y-18906642D01*
X15754714Y-18904608D01*
X15759922Y-18904500D01*
X17810460Y-18904500D01*
X17834518Y-18907545D01*
X17834567Y-18907226D01*
X17840690Y-18908174D01*
X17846681Y-18909715D01*
X17852855Y-18910057D01*
X17852859Y-18910058D01*
X17879608Y-18911541D01*
X17907188Y-18913071D01*
X17928657Y-18916131D01*
X17933046Y-18917149D01*
X17955808Y-18924773D01*
X17971066Y-18931562D01*
X17978663Y-18935253D01*
X18035854Y-18965455D01*
X18041707Y-18968452D01*
X18042221Y-18968707D01*
X18044645Y-18969868D01*
X18048239Y-18971590D01*
X18048311Y-18971624D01*
X18048683Y-18971802D01*
X18134448Y-19011439D01*
X18135092Y-19011588D01*
X18138268Y-19013629D01*
X18146916Y-19016168D01*
X18146920Y-19016170D01*
X18268819Y-19051962D01*
X18268821Y-19051962D01*
X18277464Y-19054500D01*
X18422536Y-19054500D01*
X18431179Y-19051962D01*
X18431181Y-19051962D01*
X18553086Y-19016168D01*
X18553088Y-19016167D01*
X18561732Y-19013629D01*
X18626526Y-18971988D01*
X18681289Y-18936794D01*
X18749410Y-18916792D01*
X18817531Y-18936794D01*
X18844634Y-18960279D01*
X18851716Y-18968452D01*
X18866225Y-18985196D01*
X18873802Y-18990066D01*
X18873805Y-18990068D01*
X18950764Y-19039527D01*
X18988268Y-19063629D01*
X18996912Y-19066167D01*
X18996914Y-19066168D01*
X19118819Y-19101962D01*
X19118821Y-19101962D01*
X19127464Y-19104500D01*
X19272536Y-19104500D01*
X19281179Y-19101962D01*
X19281181Y-19101962D01*
X19403085Y-19066168D01*
X19411732Y-19063629D01*
X19414893Y-19061597D01*
X19415554Y-19061438D01*
X19462456Y-19039761D01*
X19500898Y-19021995D01*
X19500930Y-19021980D01*
X19501315Y-19021802D01*
X19501705Y-19021615D01*
X19501735Y-19021601D01*
X19503866Y-19020580D01*
X19507799Y-19018695D01*
X19508331Y-19018431D01*
X19509039Y-19018068D01*
X19513826Y-19015618D01*
X19513880Y-19015590D01*
X19514161Y-19015446D01*
X19571331Y-18985254D01*
X19578925Y-18981565D01*
X19594192Y-18974772D01*
X19616959Y-18967146D01*
X19621343Y-18966130D01*
X19642802Y-18963072D01*
X19703319Y-18959715D01*
X19708898Y-18958362D01*
X19708905Y-18958361D01*
X19710190Y-18958049D01*
X19714506Y-18957533D01*
X19714602Y-18957519D01*
X19714602Y-18957522D01*
X19739885Y-18954500D01*
X20294461Y-18954500D01*
X20317376Y-18956876D01*
X20319223Y-18956952D01*
X20329442Y-18959095D01*
X20339800Y-18957804D01*
X20339803Y-18957804D01*
X20359439Y-18955356D01*
X20364616Y-18954819D01*
X20368466Y-18954500D01*
X20373672Y-18954500D01*
X20378807Y-18953643D01*
X20378808Y-18953643D01*
X20383221Y-18952907D01*
X20392839Y-18951301D01*
X20397985Y-18950551D01*
X20436481Y-18945753D01*
X20436482Y-18945753D01*
X20446846Y-18944461D01*
X20453589Y-18941164D01*
X20460993Y-18939929D01*
X20476467Y-18931555D01*
X20504281Y-18916502D01*
X20508914Y-18914117D01*
X20543755Y-18897085D01*
X20543757Y-18897084D01*
X20553135Y-18892499D01*
X20558442Y-18887192D01*
X20565044Y-18883619D01*
X20598395Y-18847389D01*
X20602003Y-18843630D01*
X20930405Y-18515228D01*
X20992717Y-18481202D01*
X21063532Y-18486267D01*
X21120368Y-18528814D01*
X21145179Y-18595334D01*
X21145500Y-18604323D01*
X21145500Y-20509549D01*
X21125498Y-20577670D01*
X21108595Y-20598645D01*
X20448643Y-21258596D01*
X20386331Y-21292621D01*
X20359548Y-21295500D01*
X19736297Y-21295500D01*
X19711779Y-21292567D01*
X19711777Y-21292583D01*
X19710989Y-21292472D01*
X19706572Y-21291944D01*
X19699630Y-21290258D01*
X19693441Y-21289999D01*
X19693439Y-21289999D01*
X19605463Y-21286321D01*
X19593124Y-21285195D01*
X19534173Y-21276871D01*
X19527646Y-21275772D01*
X19462311Y-21262989D01*
X19459628Y-21262498D01*
X19456432Y-21261913D01*
X19456036Y-21261841D01*
X19455431Y-21261738D01*
X19448157Y-21260605D01*
X19447815Y-21260557D01*
X19447770Y-21260550D01*
X19361983Y-21248438D01*
X19361972Y-21248437D01*
X19361210Y-21248329D01*
X19354712Y-21247573D01*
X19349414Y-21246956D01*
X19349385Y-21246953D01*
X19348629Y-21246865D01*
X19347484Y-21246760D01*
X19334621Y-21245902D01*
X19326811Y-21245576D01*
X19323662Y-21245444D01*
X19323661Y-21245444D01*
X19323656Y-21245445D01*
X19262049Y-21242869D01*
X19229465Y-21241506D01*
X19229464Y-21241506D01*
X19222981Y-21241235D01*
X19207429Y-21243809D01*
X19186855Y-21245500D01*
X19127464Y-21245500D01*
X19118821Y-21248038D01*
X19118819Y-21248038D01*
X18996914Y-21283832D01*
X18996912Y-21283833D01*
X18988268Y-21286371D01*
X18963703Y-21302158D01*
X18873805Y-21359932D01*
X18873802Y-21359934D01*
X18866225Y-21364804D01*
X18860324Y-21371614D01*
X18777125Y-21467630D01*
X18777123Y-21467633D01*
X18771223Y-21474442D01*
X18710958Y-21606404D01*
X18690312Y-21750000D01*
X18710958Y-21893596D01*
X18714701Y-21901792D01*
X18760037Y-22001063D01*
X18771223Y-22025558D01*
X18777123Y-22032367D01*
X18777125Y-22032370D01*
X18853966Y-22121048D01*
X18866225Y-22135196D01*
X18873802Y-22140066D01*
X18873805Y-22140068D01*
X18910750Y-22163811D01*
X18988268Y-22213629D01*
X18996912Y-22216167D01*
X18996914Y-22216168D01*
X19118819Y-22251962D01*
X19118821Y-22251962D01*
X19127464Y-22254500D01*
X19185850Y-22254500D01*
X19205246Y-22256002D01*
X19222981Y-22258765D01*
X19323655Y-22254555D01*
X19323661Y-22254556D01*
X19323662Y-22254556D01*
X19325001Y-22254500D01*
X19334621Y-22254098D01*
X19342823Y-22253551D01*
X19346670Y-22253295D01*
X19346681Y-22253294D01*
X19347463Y-22253242D01*
X19348609Y-22253137D01*
X19352029Y-22252739D01*
X19360491Y-22251754D01*
X19360506Y-22251752D01*
X19361211Y-22251670D01*
X19391659Y-22247371D01*
X19447784Y-22239447D01*
X19447830Y-22239440D01*
X19448157Y-22239394D01*
X19448522Y-22239337D01*
X19448538Y-22239335D01*
X19454800Y-22238364D01*
X19454874Y-22238352D01*
X19455222Y-22238298D01*
X19455830Y-22238195D01*
X19459961Y-22237441D01*
X19461927Y-22237082D01*
X19461948Y-22237078D01*
X19462315Y-22237011D01*
X19527651Y-22224228D01*
X19534212Y-22223124D01*
X19593110Y-22214807D01*
X19605465Y-22213679D01*
X19693772Y-22209987D01*
X19693773Y-22209987D01*
X19699630Y-22209742D01*
X19705336Y-22208420D01*
X19705348Y-22208418D01*
X19708211Y-22207754D01*
X19736659Y-22204500D01*
X20567391Y-22204500D01*
X20581499Y-22205292D01*
X20617186Y-22209313D01*
X20626461Y-22207558D01*
X20626463Y-22207558D01*
X20673837Y-22198595D01*
X20678479Y-22197807D01*
X20726137Y-22190623D01*
X20726142Y-22190621D01*
X20735479Y-22189214D01*
X20743290Y-22185453D01*
X20751807Y-22183841D01*
X20760153Y-22179430D01*
X20760156Y-22179429D01*
X20802771Y-22156906D01*
X20806976Y-22154783D01*
X20837531Y-22140068D01*
X20858921Y-22129767D01*
X20865276Y-22123871D01*
X20872940Y-22119820D01*
X20913682Y-22079078D01*
X20917075Y-22075808D01*
X20952435Y-22042999D01*
X20952436Y-22042998D01*
X20959356Y-22036577D01*
X20962860Y-22030507D01*
X20967969Y-22024791D01*
X21898316Y-21094444D01*
X21908851Y-21085028D01*
X21929557Y-21068516D01*
X21929559Y-21068514D01*
X21936936Y-21062631D01*
X21950706Y-21042435D01*
X21969424Y-21014981D01*
X21972151Y-21011138D01*
X21984406Y-20994533D01*
X22006370Y-20964773D01*
X22009234Y-20956589D01*
X22014116Y-20949428D01*
X22031103Y-20894358D01*
X22032575Y-20889885D01*
X22048502Y-20844366D01*
X22048502Y-20844364D01*
X22051621Y-20835451D01*
X22051945Y-20826788D01*
X22054500Y-20818505D01*
X22054500Y-20760868D01*
X22054588Y-20756157D01*
X22056391Y-20707974D01*
X22056391Y-20707973D01*
X22056744Y-20698537D01*
X22054930Y-20691765D01*
X22054500Y-20684113D01*
X22054500Y-13432609D01*
X22055292Y-13418502D01*
X22058256Y-13392195D01*
X22059313Y-13382814D01*
X22057194Y-13371614D01*
X22048595Y-13326163D01*
X22047807Y-13321521D01*
X22040623Y-13273863D01*
X22040621Y-13273858D01*
X22039214Y-13264521D01*
X22035453Y-13256710D01*
X22033841Y-13248193D01*
X22029430Y-13239847D01*
X22029429Y-13239844D01*
X22006906Y-13197229D01*
X22004783Y-13193024D01*
X21992853Y-13168252D01*
X21979767Y-13141079D01*
X21973871Y-13134724D01*
X21969820Y-13127060D01*
X21929077Y-13086317D01*
X21925807Y-13082924D01*
X21892999Y-13047565D01*
X21892998Y-13047564D01*
X21886577Y-13040644D01*
X21880508Y-13037140D01*
X21874795Y-13032035D01*
X21590443Y-12747682D01*
X21556418Y-12685370D01*
X21553539Y-12658587D01*
X21553539Y-12518625D01*
X21573541Y-12450504D01*
X21627197Y-12404011D01*
X21697471Y-12393907D01*
X21762051Y-12423401D01*
X21794153Y-12466283D01*
X21810448Y-12501963D01*
X21821223Y-12525558D01*
X21827123Y-12532367D01*
X21827125Y-12532370D01*
X21900623Y-12617190D01*
X21916225Y-12635196D01*
X21923802Y-12640066D01*
X21923805Y-12640068D01*
X21995053Y-12685856D01*
X22038268Y-12713629D01*
X22046912Y-12716167D01*
X22046914Y-12716168D01*
X22168819Y-12751962D01*
X22168821Y-12751962D01*
X22177464Y-12754500D01*
X22322536Y-12754500D01*
X22331179Y-12751962D01*
X22331181Y-12751962D01*
X22453086Y-12716168D01*
X22453088Y-12716167D01*
X22461732Y-12713629D01*
X22504947Y-12685856D01*
X22576195Y-12640068D01*
X22576198Y-12640066D01*
X22583775Y-12635196D01*
X22599377Y-12617190D01*
X22672875Y-12532370D01*
X22672877Y-12532367D01*
X22678777Y-12525558D01*
X22689553Y-12501963D01*
X22735299Y-12401792D01*
X22739042Y-12393596D01*
X22740324Y-12384678D01*
X22740326Y-12384672D01*
X22740584Y-12382878D01*
X22741337Y-12381229D01*
X22742864Y-12376029D01*
X22743612Y-12376249D01*
X22770078Y-12318297D01*
X22829804Y-12279914D01*
X22900801Y-12279915D01*
X22937280Y-12297394D01*
X23060000Y-12382810D01*
X23065875Y-12385331D01*
X23068118Y-12386294D01*
X23069157Y-12387153D01*
X23071461Y-12388432D01*
X23071223Y-12388862D01*
X23122829Y-12431540D01*
X23144394Y-12499182D01*
X23125965Y-12567745D01*
X23079575Y-12612250D01*
X22978788Y-12668191D01*
X22978784Y-12668194D01*
X22973202Y-12671292D01*
X22818191Y-12804364D01*
X22807286Y-12818452D01*
X22724424Y-12925502D01*
X22693141Y-12965916D01*
X22690326Y-12971655D01*
X22690324Y-12971658D01*
X22649275Y-13055343D01*
X22603170Y-13149333D01*
X22601569Y-13155515D01*
X22601569Y-13155516D01*
X22557386Y-13326163D01*
X22551963Y-13347106D01*
X22541616Y-13551139D01*
X22572552Y-13753079D01*
X22574770Y-13759067D01*
X22574770Y-13759068D01*
X22625770Y-13896770D01*
X22643505Y-13944657D01*
X22751570Y-14118031D01*
X22755970Y-14122660D01*
X22755971Y-14122661D01*
X22887922Y-14261475D01*
X22887926Y-14261479D01*
X22892322Y-14266103D01*
X22897561Y-14269750D01*
X22897564Y-14269752D01*
X23025334Y-14358682D01*
X23060000Y-14382810D01*
X23065875Y-14385331D01*
X23068118Y-14386294D01*
X23069157Y-14387153D01*
X23071461Y-14388432D01*
X23071223Y-14388862D01*
X23122829Y-14431540D01*
X23144394Y-14499182D01*
X23125965Y-14567745D01*
X23079575Y-14612250D01*
X22978788Y-14668191D01*
X22978784Y-14668194D01*
X22973202Y-14671292D01*
X22818191Y-14804364D01*
X22776967Y-14857621D01*
X22706312Y-14948901D01*
X22693141Y-14965916D01*
X22690326Y-14971655D01*
X22690324Y-14971658D01*
X22650420Y-15053008D01*
X22603170Y-15149333D01*
X22601569Y-15155515D01*
X22601569Y-15155516D01*
X22555135Y-15334856D01*
X22551963Y-15347106D01*
X22541616Y-15551139D01*
X22542583Y-15557451D01*
X22542583Y-15557452D01*
X22543246Y-15561778D01*
X22572552Y-15753079D01*
X22574770Y-15759067D01*
X22574770Y-15759068D01*
X22630388Y-15909239D01*
X22643505Y-15944657D01*
X22695666Y-16028342D01*
X22736340Y-16093596D01*
X22751570Y-16118031D01*
X22755970Y-16122660D01*
X22755971Y-16122661D01*
X22887922Y-16261475D01*
X22887926Y-16261479D01*
X22892322Y-16266103D01*
X22897561Y-16269750D01*
X22897564Y-16269752D01*
X23026560Y-16359535D01*
X23060000Y-16382810D01*
X23065875Y-16385331D01*
X23068118Y-16386294D01*
X23069157Y-16387153D01*
X23071461Y-16388432D01*
X23071223Y-16388862D01*
X23122829Y-16431540D01*
X23144394Y-16499182D01*
X23125965Y-16567745D01*
X23079575Y-16612250D01*
X22978788Y-16668191D01*
X22978784Y-16668194D01*
X22973202Y-16671292D01*
X22818191Y-16804364D01*
X22805185Y-16821166D01*
X22698610Y-16958851D01*
X22693141Y-16965916D01*
X22690326Y-16971655D01*
X22690324Y-16971658D01*
X22668992Y-17015146D01*
X22603170Y-17149333D01*
X22601569Y-17155515D01*
X22601569Y-17155516D01*
X22557558Y-17325498D01*
X22551963Y-17347106D01*
X22541616Y-17551139D01*
X22542583Y-17557451D01*
X22542583Y-17557452D01*
X22544040Y-17566963D01*
X22572552Y-17753079D01*
X22574770Y-17759067D01*
X22574770Y-17759068D01*
X22619709Y-17880405D01*
X22643505Y-17944657D01*
X22646886Y-17950081D01*
X22743106Y-18104451D01*
X22751570Y-18118031D01*
X22755970Y-18122660D01*
X22755971Y-18122661D01*
X22887922Y-18261475D01*
X22887926Y-18261479D01*
X22892322Y-18266103D01*
X22897561Y-18269750D01*
X22897564Y-18269752D01*
X22971143Y-18320964D01*
X23060000Y-18382810D01*
X23065875Y-18385331D01*
X23068118Y-18386294D01*
X23069157Y-18387153D01*
X23071461Y-18388432D01*
X23071223Y-18388862D01*
X23122829Y-18431540D01*
X23144394Y-18499182D01*
X23125965Y-18567745D01*
X23079575Y-18612250D01*
X22978788Y-18668191D01*
X22978784Y-18668194D01*
X22973202Y-18671292D01*
X22818191Y-18804364D01*
X22787797Y-18843630D01*
X22697695Y-18960033D01*
X22693141Y-18965916D01*
X22690326Y-18971655D01*
X22690324Y-18971658D01*
X22646285Y-19061438D01*
X22603170Y-19149333D01*
X22601569Y-19155515D01*
X22601569Y-19155516D01*
X22557558Y-19325498D01*
X22551963Y-19347106D01*
X22541616Y-19551139D01*
X22572552Y-19753079D01*
X22574770Y-19759067D01*
X22574770Y-19759068D01*
X22634716Y-19920925D01*
X22643505Y-19944657D01*
X22751570Y-20118031D01*
X22755970Y-20122660D01*
X22755971Y-20122661D01*
X22887922Y-20261475D01*
X22887926Y-20261479D01*
X22892322Y-20266103D01*
X22897561Y-20269750D01*
X22897564Y-20269752D01*
X23017633Y-20353322D01*
X23060000Y-20382810D01*
X23065875Y-20385331D01*
X23068118Y-20386294D01*
X23069157Y-20387153D01*
X23071461Y-20388432D01*
X23071223Y-20388862D01*
X23122829Y-20431540D01*
X23144394Y-20499182D01*
X23125965Y-20567745D01*
X23079575Y-20612250D01*
X22978788Y-20668191D01*
X22978784Y-20668194D01*
X22973202Y-20671292D01*
X22818191Y-20804364D01*
X22797123Y-20831582D01*
X22698808Y-20958595D01*
X22693141Y-20965916D01*
X22690326Y-20971655D01*
X22690324Y-20971658D01*
X22665636Y-21021988D01*
X22603170Y-21149333D01*
X22601569Y-21155515D01*
X22601569Y-21155516D01*
X22553975Y-21339336D01*
X22551963Y-21347106D01*
X22541616Y-21551139D01*
X22572552Y-21753079D01*
X22643505Y-21944657D01*
X22751570Y-22118031D01*
X22755970Y-22122660D01*
X22755971Y-22122661D01*
X22887922Y-22261475D01*
X22887926Y-22261479D01*
X22892322Y-22266103D01*
X22897561Y-22269750D01*
X22897564Y-22269752D01*
X23051293Y-22376750D01*
X23060000Y-22382810D01*
X23247739Y-22463375D01*
X23253997Y-22464661D01*
X23254000Y-22464662D01*
X23308393Y-22475840D01*
X23447852Y-22504500D01*
X24773500Y-22504500D01*
X24841621Y-22524502D01*
X24888114Y-22578158D01*
X24899500Y-22630500D01*
X24899500Y-22995879D01*
X24899230Y-23004120D01*
X24883790Y-23239691D01*
X24881639Y-23256032D01*
X24836386Y-23483531D01*
X24832120Y-23499450D01*
X24757564Y-23719085D01*
X24751257Y-23734312D01*
X24648668Y-23942342D01*
X24640427Y-23956616D01*
X24511565Y-24149472D01*
X24501532Y-24162548D01*
X24348594Y-24336940D01*
X24336940Y-24348594D01*
X24162548Y-24501532D01*
X24149472Y-24511565D01*
X23956616Y-24640427D01*
X23942342Y-24648668D01*
X23734312Y-24751257D01*
X23719085Y-24757564D01*
X23499450Y-24832120D01*
X23483531Y-24836386D01*
X23256032Y-24881639D01*
X23239691Y-24883790D01*
X23004120Y-24899230D01*
X22995879Y-24899500D01*
X22630500Y-24899500D01*
X22562379Y-24879498D01*
X22515886Y-24825842D01*
X22504500Y-24773500D01*
X22504500Y-23499060D01*
X22489012Y-23346753D01*
X22455421Y-23239691D01*
X22429767Y-23157927D01*
X22429767Y-23157926D01*
X22427853Y-23151827D01*
X22421189Y-23139821D01*
X22331809Y-22978788D01*
X22331806Y-22978784D01*
X22328708Y-22973202D01*
X22195636Y-22818191D01*
X22115254Y-22755971D01*
X22039141Y-22697055D01*
X22039138Y-22697053D01*
X22034084Y-22693141D01*
X22028345Y-22690326D01*
X22028342Y-22690324D01*
X21928371Y-22641286D01*
X21850667Y-22603170D01*
X21844484Y-22601569D01*
X21659075Y-22553563D01*
X21659071Y-22553562D01*
X21652894Y-22551963D01*
X21448861Y-22541616D01*
X21442549Y-22542583D01*
X21442548Y-22542583D01*
X21415948Y-22546658D01*
X21246921Y-22572552D01*
X21240933Y-22574770D01*
X21240932Y-22574770D01*
X21116338Y-22620915D01*
X21055343Y-22643505D01*
X20881969Y-22751570D01*
X20877340Y-22755970D01*
X20877339Y-22755971D01*
X20738525Y-22887922D01*
X20738521Y-22887926D01*
X20733897Y-22892322D01*
X20730250Y-22897561D01*
X20730248Y-22897564D01*
X20643643Y-23021994D01*
X20617190Y-23060000D01*
X20614670Y-23065873D01*
X20614669Y-23065875D01*
X20613706Y-23068118D01*
X20612847Y-23069157D01*
X20611568Y-23071461D01*
X20611138Y-23071223D01*
X20568460Y-23122829D01*
X20500818Y-23144394D01*
X20432255Y-23125965D01*
X20387750Y-23079575D01*
X20331809Y-22978788D01*
X20331806Y-22978784D01*
X20328708Y-22973202D01*
X20195636Y-22818191D01*
X20115254Y-22755971D01*
X20039141Y-22697055D01*
X20039138Y-22697053D01*
X20034084Y-22693141D01*
X20028345Y-22690326D01*
X20028342Y-22690324D01*
X19928371Y-22641286D01*
X19850667Y-22603170D01*
X19844484Y-22601569D01*
X19659075Y-22553563D01*
X19659071Y-22553562D01*
X19652894Y-22551963D01*
X19448861Y-22541616D01*
X19442549Y-22542583D01*
X19442548Y-22542583D01*
X19415948Y-22546658D01*
X19246921Y-22572552D01*
X19240933Y-22574770D01*
X19240932Y-22574770D01*
X19116338Y-22620915D01*
X19055343Y-22643505D01*
X18881969Y-22751570D01*
X18877340Y-22755970D01*
X18877339Y-22755971D01*
X18738525Y-22887922D01*
X18738521Y-22887926D01*
X18733897Y-22892322D01*
X18730250Y-22897561D01*
X18730248Y-22897564D01*
X18643643Y-23021994D01*
X18617190Y-23060000D01*
X18614670Y-23065873D01*
X18614669Y-23065875D01*
X18613706Y-23068118D01*
X18612847Y-23069157D01*
X18611568Y-23071461D01*
X18611138Y-23071223D01*
X18568460Y-23122829D01*
X18500818Y-23144394D01*
X18432255Y-23125965D01*
X18387750Y-23079575D01*
X18331806Y-22978784D01*
X18328708Y-22973202D01*
X18252264Y-22884156D01*
X18238989Y-22865498D01*
X18231319Y-22852328D01*
X18187040Y-22776304D01*
X18182722Y-22768227D01*
X18075054Y-22547957D01*
X18072130Y-22541525D01*
X17961052Y-22277748D01*
X17959001Y-22272558D01*
X17862325Y-22011185D01*
X17854500Y-21967475D01*
X17854500Y-21399029D01*
X17874502Y-21330908D01*
X17891405Y-21309934D01*
X18284934Y-20916405D01*
X18347246Y-20882379D01*
X18374029Y-20879500D01*
X19175166Y-20879500D01*
X19198081Y-20881876D01*
X19199928Y-20881952D01*
X19210147Y-20884095D01*
X19220505Y-20882804D01*
X19220508Y-20882804D01*
X19240144Y-20880356D01*
X19245321Y-20879819D01*
X19249171Y-20879500D01*
X19254377Y-20879500D01*
X19259512Y-20878643D01*
X19259513Y-20878643D01*
X19263926Y-20877907D01*
X19273544Y-20876301D01*
X19278690Y-20875551D01*
X19317186Y-20870753D01*
X19317187Y-20870753D01*
X19327551Y-20869461D01*
X19334294Y-20866164D01*
X19341698Y-20864929D01*
X19384987Y-20841501D01*
X19389619Y-20839117D01*
X19424460Y-20822085D01*
X19424462Y-20822084D01*
X19433840Y-20817499D01*
X19439147Y-20812192D01*
X19445749Y-20808619D01*
X19479088Y-20772403D01*
X19482694Y-20768645D01*
X19619159Y-20632180D01*
X19638325Y-20617319D01*
X19638134Y-20617059D01*
X19643122Y-20613408D01*
X19648456Y-20610257D01*
X19653072Y-20606127D01*
X19653075Y-20606124D01*
X19693616Y-20569844D01*
X19710949Y-20556834D01*
X19714780Y-20554445D01*
X19736269Y-20543738D01*
X19751860Y-20537750D01*
X19759842Y-20534988D01*
X19761358Y-20534520D01*
X19765341Y-20533290D01*
X19821290Y-20516012D01*
X19821352Y-20515992D01*
X19821609Y-20515913D01*
X19828111Y-20513811D01*
X19828694Y-20513614D01*
X19829025Y-20513497D01*
X19829075Y-20513480D01*
X19834815Y-20511455D01*
X19834869Y-20511436D01*
X19835205Y-20511317D01*
X19835559Y-20511187D01*
X19835625Y-20511163D01*
X19917786Y-20480942D01*
X19917789Y-20480941D01*
X19923864Y-20478706D01*
X19929355Y-20475279D01*
X19930672Y-20474634D01*
X19950568Y-20466907D01*
X19951810Y-20466542D01*
X19961732Y-20463629D01*
X20053374Y-20404734D01*
X20076195Y-20390068D01*
X20076198Y-20390066D01*
X20083775Y-20385196D01*
X20123586Y-20339252D01*
X20172875Y-20282370D01*
X20172877Y-20282367D01*
X20178777Y-20275558D01*
X20185209Y-20261475D01*
X20235299Y-20151792D01*
X20239042Y-20143596D01*
X20254625Y-20035211D01*
X20258406Y-20008917D01*
X20259688Y-20000000D01*
X20250870Y-19938666D01*
X20247505Y-19915265D01*
X20239042Y-19856404D01*
X20178777Y-19724442D01*
X20172877Y-19717633D01*
X20172875Y-19717630D01*
X20089676Y-19621614D01*
X20083775Y-19614804D01*
X20076198Y-19609934D01*
X20076195Y-19609932D01*
X19969311Y-19541242D01*
X19961732Y-19536371D01*
X19953088Y-19533833D01*
X19953086Y-19533832D01*
X19831181Y-19498038D01*
X19831179Y-19498038D01*
X19822536Y-19495500D01*
X19677464Y-19495500D01*
X19668821Y-19498038D01*
X19668819Y-19498038D01*
X19546914Y-19533832D01*
X19546912Y-19533833D01*
X19538268Y-19536371D01*
X19530689Y-19541242D01*
X19423805Y-19609932D01*
X19423802Y-19609934D01*
X19416225Y-19614804D01*
X19410324Y-19621614D01*
X19327125Y-19717630D01*
X19327123Y-19717633D01*
X19321223Y-19724442D01*
X19317479Y-19732639D01*
X19317479Y-19732640D01*
X19288228Y-19796691D01*
X19281108Y-19810083D01*
X19274526Y-19820846D01*
X19274524Y-19820850D01*
X19271294Y-19826132D01*
X19238682Y-19914789D01*
X19236384Y-19921304D01*
X19236187Y-19921887D01*
X19234084Y-19928393D01*
X19233954Y-19928815D01*
X19215010Y-19990161D01*
X19212249Y-19998139D01*
X19206261Y-20013728D01*
X19195563Y-20035204D01*
X19193161Y-20039054D01*
X19180150Y-20056390D01*
X19139739Y-20101549D01*
X19136746Y-20106459D01*
X19136745Y-20106460D01*
X19136063Y-20107579D01*
X19133400Y-20110965D01*
X19133313Y-20111082D01*
X19133310Y-20111080D01*
X19117573Y-20131088D01*
X19115066Y-20133595D01*
X19052754Y-20167621D01*
X19025971Y-20170500D01*
X18224834Y-20170500D01*
X18201919Y-20168124D01*
X18200072Y-20168048D01*
X18189853Y-20165905D01*
X18179495Y-20167196D01*
X18179492Y-20167196D01*
X18159856Y-20169644D01*
X18154679Y-20170181D01*
X18150829Y-20170500D01*
X18145623Y-20170500D01*
X18140488Y-20171357D01*
X18140487Y-20171357D01*
X18136074Y-20172093D01*
X18126456Y-20173699D01*
X18121310Y-20174449D01*
X18082814Y-20179247D01*
X18082813Y-20179247D01*
X18072449Y-20180539D01*
X18065706Y-20183836D01*
X18058302Y-20185071D01*
X18049121Y-20190040D01*
X18049120Y-20190040D01*
X18015014Y-20208498D01*
X18010381Y-20210883D01*
X17975540Y-20227915D01*
X17975538Y-20227916D01*
X17966160Y-20232501D01*
X17960853Y-20237808D01*
X17954251Y-20241381D01*
X17931493Y-20266103D01*
X17920912Y-20277597D01*
X17917306Y-20281355D01*
X17284570Y-20914091D01*
X17266701Y-20928602D01*
X17265326Y-20929867D01*
X17256584Y-20935579D01*
X17250172Y-20943817D01*
X17250169Y-20943820D01*
X17237999Y-20959456D01*
X17234717Y-20963498D01*
X17232250Y-20966411D01*
X17228558Y-20970103D01*
X17225524Y-20974353D01*
X17225522Y-20974355D01*
X17217260Y-20985927D01*
X17214150Y-20990098D01*
X17208898Y-20996847D01*
X17196850Y-21012326D01*
X17183915Y-21028944D01*
X17181478Y-21036042D01*
X17177116Y-21042152D01*
X17174137Y-21052159D01*
X17163073Y-21089323D01*
X17161484Y-21094284D01*
X17145500Y-21140844D01*
X17145500Y-21148349D01*
X17143358Y-21155544D01*
X17144941Y-21193820D01*
X17145392Y-21204714D01*
X17145500Y-21209922D01*
X17145500Y-21967474D01*
X17137675Y-22011185D01*
X17132359Y-22025558D01*
X17045098Y-22261475D01*
X17041001Y-22272551D01*
X17038955Y-22277729D01*
X16986987Y-22401137D01*
X16927865Y-22541532D01*
X16924941Y-22547963D01*
X16817279Y-22768221D01*
X16812958Y-22776304D01*
X16768679Y-22852328D01*
X16746611Y-22880235D01*
X16738531Y-22887916D01*
X16738526Y-22887922D01*
X16733897Y-22892322D01*
X16730250Y-22897561D01*
X16730248Y-22897564D01*
X16643643Y-23021994D01*
X16617190Y-23060000D01*
X16614670Y-23065873D01*
X16614669Y-23065875D01*
X16613706Y-23068118D01*
X16612847Y-23069157D01*
X16611568Y-23071461D01*
X16611138Y-23071223D01*
X16568460Y-23122829D01*
X16500818Y-23144394D01*
X16432255Y-23125965D01*
X16387750Y-23079575D01*
X16331809Y-22978788D01*
X16331806Y-22978784D01*
X16328708Y-22973202D01*
X16195636Y-22818191D01*
X16115254Y-22755971D01*
X16039141Y-22697055D01*
X16039138Y-22697053D01*
X16034084Y-22693141D01*
X16028345Y-22690326D01*
X16028342Y-22690324D01*
X15928371Y-22641286D01*
X15850667Y-22603170D01*
X15844484Y-22601569D01*
X15659075Y-22553563D01*
X15659071Y-22553562D01*
X15652894Y-22551963D01*
X15448861Y-22541616D01*
X15442549Y-22542583D01*
X15442548Y-22542583D01*
X15415948Y-22546658D01*
X15246921Y-22572552D01*
X15240933Y-22574770D01*
X15240932Y-22574770D01*
X15116338Y-22620915D01*
X15055343Y-22643505D01*
X14881969Y-22751570D01*
X14877340Y-22755970D01*
X14877339Y-22755971D01*
X14738525Y-22887922D01*
X14738521Y-22887926D01*
X14733897Y-22892322D01*
X14730250Y-22897561D01*
X14730248Y-22897564D01*
X14643643Y-23021994D01*
X14617190Y-23060000D01*
X14614670Y-23065873D01*
X14614669Y-23065875D01*
X14613706Y-23068118D01*
X14612847Y-23069157D01*
X14611568Y-23071461D01*
X14611138Y-23071223D01*
X14568460Y-23122829D01*
X14500818Y-23144394D01*
X14432255Y-23125965D01*
X14387750Y-23079575D01*
X14331809Y-22978788D01*
X14331806Y-22978784D01*
X14328708Y-22973202D01*
X14195636Y-22818191D01*
X14115254Y-22755971D01*
X14039141Y-22697055D01*
X14039138Y-22697053D01*
X14034084Y-22693141D01*
X14028345Y-22690326D01*
X14028342Y-22690324D01*
X13886843Y-22620915D01*
X13831519Y-22567761D01*
X13816493Y-22539995D01*
X13814110Y-22535366D01*
X13808799Y-22524502D01*
X13792499Y-22491160D01*
X13787192Y-22485853D01*
X13783619Y-22479251D01*
X13747403Y-22445912D01*
X13743645Y-22442306D01*
X13334401Y-22033062D01*
X13325445Y-22023100D01*
X13315911Y-22011287D01*
X13315205Y-22010412D01*
X13314118Y-22009159D01*
X13301597Y-21995719D01*
X13295522Y-21991659D01*
X13289958Y-21986926D01*
X13290081Y-21986781D01*
X13279140Y-21977801D01*
X13085909Y-21784570D01*
X13071398Y-21766701D01*
X13070133Y-21765326D01*
X13064421Y-21756584D01*
X13056183Y-21750172D01*
X13056180Y-21750169D01*
X13040544Y-21737999D01*
X13036502Y-21734717D01*
X13033589Y-21732250D01*
X13029897Y-21728558D01*
X13025645Y-21725522D01*
X13014073Y-21717260D01*
X13009893Y-21714144D01*
X12979293Y-21690326D01*
X12979292Y-21690325D01*
X12971056Y-21683915D01*
X12963958Y-21681478D01*
X12957848Y-21677116D01*
X12910655Y-21663066D01*
X12905714Y-21661483D01*
X12859156Y-21645500D01*
X12851651Y-21645500D01*
X12844456Y-21643358D01*
X12795286Y-21645392D01*
X12790078Y-21645500D01*
X10249029Y-21645500D01*
X10180908Y-21625498D01*
X10159934Y-21608595D01*
X9685909Y-21134570D01*
X9671398Y-21116701D01*
X9670133Y-21115326D01*
X9664421Y-21106584D01*
X9656183Y-21100172D01*
X9656180Y-21100169D01*
X9640544Y-21087999D01*
X9636502Y-21084717D01*
X9633589Y-21082250D01*
X9629897Y-21078558D01*
X9615832Y-21068516D01*
X9614073Y-21067260D01*
X9609893Y-21064144D01*
X9607950Y-21062631D01*
X9587559Y-21046760D01*
X9579293Y-21040326D01*
X9579292Y-21040325D01*
X9571056Y-21033915D01*
X9563958Y-21031478D01*
X9557848Y-21027116D01*
X9510655Y-21013066D01*
X9505714Y-21011483D01*
X9459156Y-20995500D01*
X9451651Y-20995500D01*
X9444456Y-20993358D01*
X9395286Y-20995392D01*
X9390078Y-20995500D01*
X8949029Y-20995500D01*
X8880908Y-20975498D01*
X8859934Y-20958595D01*
X8541405Y-20640066D01*
X8507379Y-20577754D01*
X8504500Y-20550971D01*
X8504500Y-19099029D01*
X8524502Y-19030908D01*
X8541405Y-19009934D01*
X8859934Y-18691405D01*
X8922246Y-18657379D01*
X8949029Y-18654500D01*
X9400166Y-18654500D01*
X9423081Y-18656876D01*
X9424928Y-18656952D01*
X9435147Y-18659095D01*
X9445505Y-18657804D01*
X9445508Y-18657804D01*
X9465144Y-18655356D01*
X9470321Y-18654819D01*
X9474171Y-18654500D01*
X9479377Y-18654500D01*
X9484512Y-18653643D01*
X9484513Y-18653643D01*
X9488926Y-18652907D01*
X9498544Y-18651301D01*
X9503690Y-18650551D01*
X9542186Y-18645753D01*
X9542187Y-18645753D01*
X9552551Y-18644461D01*
X9559294Y-18641164D01*
X9566698Y-18639929D01*
X9609987Y-18616501D01*
X9614619Y-18614117D01*
X9649460Y-18597085D01*
X9649462Y-18597084D01*
X9658840Y-18592499D01*
X9664147Y-18587192D01*
X9670749Y-18583619D01*
X9704088Y-18547403D01*
X9707694Y-18543645D01*
X11315430Y-16935909D01*
X11333299Y-16921398D01*
X11334674Y-16920133D01*
X11343416Y-16914421D01*
X11349828Y-16906183D01*
X11349831Y-16906180D01*
X11362001Y-16890544D01*
X11365283Y-16886502D01*
X11367750Y-16883589D01*
X11371442Y-16879897D01*
X11374478Y-16875645D01*
X11382740Y-16864073D01*
X11385856Y-16859893D01*
X11409674Y-16829293D01*
X11409675Y-16829292D01*
X11416085Y-16821056D01*
X11418522Y-16813958D01*
X11422884Y-16807848D01*
X11426633Y-16795257D01*
X11436931Y-16760664D01*
X11438520Y-16755704D01*
X11454500Y-16709156D01*
X11454500Y-16701651D01*
X11456642Y-16694456D01*
X11454608Y-16645286D01*
X11454500Y-16640078D01*
X11454500Y-16239540D01*
X11457545Y-16215481D01*
X11457226Y-16215432D01*
X11458174Y-16209311D01*
X11459715Y-16203319D01*
X11460149Y-16195500D01*
X11463072Y-16142807D01*
X11466127Y-16121364D01*
X11467140Y-16116989D01*
X11474773Y-16094190D01*
X11481559Y-16078939D01*
X11485258Y-16071327D01*
X11515251Y-16014531D01*
X11515447Y-16014160D01*
X11518510Y-16008174D01*
X11518779Y-16007631D01*
X11521807Y-16001304D01*
X11526494Y-15991164D01*
X11558719Y-15921437D01*
X11561438Y-15915554D01*
X11562900Y-15909239D01*
X11563978Y-15904582D01*
X11572118Y-15880658D01*
X11585297Y-15851798D01*
X11585298Y-15851794D01*
X11589042Y-15843596D01*
X11609688Y-15700000D01*
X11602915Y-15652894D01*
X11590324Y-15565319D01*
X11590324Y-15565318D01*
X11589042Y-15556404D01*
X11588002Y-15554127D01*
X11584651Y-15503674D01*
X11585163Y-15500351D01*
X11580382Y-15489593D01*
X11556239Y-15465450D01*
X11538312Y-15439630D01*
X11537393Y-15440221D01*
X11532520Y-15432638D01*
X11528777Y-15424442D01*
X11522877Y-15417633D01*
X11522875Y-15417630D01*
X11439676Y-15321614D01*
X11433775Y-15314804D01*
X11426198Y-15309934D01*
X11426195Y-15309932D01*
X11366303Y-15271442D01*
X11345328Y-15254539D01*
X10865790Y-14775000D01*
X10513164Y-14422375D01*
X10500785Y-14415616D01*
X10494025Y-14420676D01*
X10490075Y-14428880D01*
X10434611Y-14587383D01*
X10431480Y-14601099D01*
X10412679Y-14767971D01*
X10412679Y-14782029D01*
X10431480Y-14948901D01*
X10434611Y-14962617D01*
X10492411Y-15127797D01*
X10489338Y-15128872D01*
X10498596Y-15184764D01*
X10470489Y-15249960D01*
X10411596Y-15289610D01*
X10373524Y-15295500D01*
X10327464Y-15295500D01*
X10318821Y-15298038D01*
X10318819Y-15298038D01*
X10196914Y-15333832D01*
X10196912Y-15333833D01*
X10188268Y-15336371D01*
X10180689Y-15341242D01*
X10073805Y-15409932D01*
X10073802Y-15409934D01*
X10066225Y-15414804D01*
X10060324Y-15421614D01*
X9977125Y-15517630D01*
X9977123Y-15517633D01*
X9971223Y-15524442D01*
X9967479Y-15532639D01*
X9967479Y-15532640D01*
X9961397Y-15545958D01*
X9910958Y-15656404D01*
X9890312Y-15800000D01*
X9910958Y-15943596D01*
X9914702Y-15951794D01*
X9927645Y-15980135D01*
X9935523Y-16002948D01*
X9938561Y-16015552D01*
X9941156Y-16021166D01*
X9976683Y-16098038D01*
X9978191Y-16101302D01*
X9981208Y-16107605D01*
X9981469Y-16108132D01*
X9984543Y-16114142D01*
X10014747Y-16171337D01*
X10018431Y-16178919D01*
X10024361Y-16192246D01*
X10025226Y-16194190D01*
X10032856Y-16216977D01*
X10032945Y-16217360D01*
X10033871Y-16221357D01*
X10036926Y-16242805D01*
X10039965Y-16297573D01*
X10039967Y-16297584D01*
X10040285Y-16303322D01*
X10041639Y-16308907D01*
X10041640Y-16308911D01*
X10041951Y-16310193D01*
X10042466Y-16314499D01*
X10042481Y-16314603D01*
X10042478Y-16314603D01*
X10045500Y-16339888D01*
X10045500Y-16656675D01*
X10025498Y-16724796D01*
X10008595Y-16745770D01*
X9195290Y-17559075D01*
X9132978Y-17593101D01*
X9106195Y-17595980D01*
X8680500Y-17595980D01*
X8612379Y-17575978D01*
X8565886Y-17522322D01*
X8554500Y-17469980D01*
X8554500Y-17139540D01*
X8557545Y-17115481D01*
X8557226Y-17115432D01*
X8558174Y-17109311D01*
X8559715Y-17103319D01*
X8560865Y-17082587D01*
X8563072Y-17042807D01*
X8566127Y-17021364D01*
X8567140Y-17016989D01*
X8574773Y-16994190D01*
X8581562Y-16978932D01*
X8585258Y-16971327D01*
X8615251Y-16914531D01*
X8615255Y-16914524D01*
X8615447Y-16914160D01*
X8615665Y-16913735D01*
X8618327Y-16908531D01*
X8618510Y-16908174D01*
X8618779Y-16907631D01*
X8621807Y-16901304D01*
X8625370Y-16893596D01*
X8658719Y-16821437D01*
X8661438Y-16815554D01*
X8663288Y-16807561D01*
X8663978Y-16804582D01*
X8672118Y-16780658D01*
X8685297Y-16751798D01*
X8685298Y-16751794D01*
X8689042Y-16743596D01*
X8706691Y-16620842D01*
X8708406Y-16608917D01*
X8709688Y-16600000D01*
X8689042Y-16456404D01*
X8655433Y-16382810D01*
X8632521Y-16332640D01*
X8632521Y-16332639D01*
X8628777Y-16324442D01*
X8622877Y-16317633D01*
X8622875Y-16317630D01*
X8539676Y-16221614D01*
X8533775Y-16214804D01*
X8526198Y-16209934D01*
X8526195Y-16209932D01*
X8428061Y-16146865D01*
X8411732Y-16136371D01*
X8403088Y-16133833D01*
X8403086Y-16133832D01*
X8281181Y-16098038D01*
X8281179Y-16098038D01*
X8272536Y-16095500D01*
X8127464Y-16095500D01*
X8118821Y-16098038D01*
X8118819Y-16098038D01*
X7996914Y-16133832D01*
X7996912Y-16133833D01*
X7988268Y-16136371D01*
X7971939Y-16146865D01*
X7873805Y-16209932D01*
X7873802Y-16209934D01*
X7866225Y-16214804D01*
X7860324Y-16221614D01*
X7777125Y-16317630D01*
X7777123Y-16317633D01*
X7771223Y-16324442D01*
X7767479Y-16332639D01*
X7767479Y-16332640D01*
X7744567Y-16382810D01*
X7710958Y-16456404D01*
X7690312Y-16600000D01*
X7691594Y-16608917D01*
X7692896Y-16617969D01*
X7710958Y-16743596D01*
X7714702Y-16751794D01*
X7727645Y-16780135D01*
X7735523Y-16802948D01*
X7738561Y-16815552D01*
X7756102Y-16853507D01*
X7774630Y-16893596D01*
X7778191Y-16901302D01*
X7781208Y-16907605D01*
X7781469Y-16908132D01*
X7784543Y-16914142D01*
X7814747Y-16971337D01*
X7818431Y-16978919D01*
X7818440Y-16978939D01*
X7825226Y-16994190D01*
X7832856Y-17016977D01*
X7832859Y-17016989D01*
X7833871Y-17021357D01*
X7836926Y-17042805D01*
X7839965Y-17097573D01*
X7839967Y-17097584D01*
X7840285Y-17103322D01*
X7841639Y-17108907D01*
X7841640Y-17108911D01*
X7841951Y-17110193D01*
X7842466Y-17114499D01*
X7842481Y-17114603D01*
X7842478Y-17114603D01*
X7845500Y-17139888D01*
X7845500Y-17306675D01*
X7825498Y-17374796D01*
X7808595Y-17395770D01*
X7671428Y-17532937D01*
X7609116Y-17566963D01*
X7538301Y-17561898D01*
X7487108Y-17526354D01*
X7483615Y-17522322D01*
X7433775Y-17464804D01*
X7426198Y-17459934D01*
X7426195Y-17459932D01*
X7319311Y-17391242D01*
X7311732Y-17386371D01*
X7303088Y-17383833D01*
X7303086Y-17383832D01*
X7181181Y-17348038D01*
X7181179Y-17348038D01*
X7172536Y-17345500D01*
X7041721Y-17345500D01*
X6973600Y-17325498D01*
X6935725Y-17287624D01*
X6932519Y-17282636D01*
X6928777Y-17274442D01*
X6833775Y-17164804D01*
X6826198Y-17159934D01*
X6826195Y-17159932D01*
X6738103Y-17103319D01*
X6711732Y-17086371D01*
X6703088Y-17083833D01*
X6703086Y-17083832D01*
X6581181Y-17048038D01*
X6581179Y-17048038D01*
X6572536Y-17045500D01*
X6563528Y-17045500D01*
X6557539Y-17044639D01*
X6492958Y-17015146D01*
X6454575Y-16955420D01*
X6450754Y-16937854D01*
X6440326Y-16865328D01*
X6440324Y-16865322D01*
X6439042Y-16856404D01*
X6418504Y-16811432D01*
X6382521Y-16732640D01*
X6382521Y-16732639D01*
X6378777Y-16724442D01*
X6372877Y-16717633D01*
X6372875Y-16717630D01*
X6289676Y-16621614D01*
X6283775Y-16614804D01*
X6276198Y-16609934D01*
X6276195Y-16609932D01*
X6169311Y-16541242D01*
X6161732Y-16536371D01*
X6153088Y-16533833D01*
X6153086Y-16533832D01*
X6031181Y-16498038D01*
X6031179Y-16498038D01*
X6022536Y-16495500D01*
X5877464Y-16495500D01*
X5877464Y-16494992D01*
X5813467Y-16485793D01*
X5759809Y-16439303D01*
X5751191Y-16423520D01*
X5732523Y-16382643D01*
X5732520Y-16382639D01*
X5728777Y-16374442D01*
X5722877Y-16367633D01*
X5722875Y-16367630D01*
X5639676Y-16271614D01*
X5633775Y-16264804D01*
X5626198Y-16259934D01*
X5626195Y-16259932D01*
X5532617Y-16199793D01*
X5511732Y-16186371D01*
X5503088Y-16183833D01*
X5503086Y-16183832D01*
X5381181Y-16148038D01*
X5381179Y-16148038D01*
X5372536Y-16145500D01*
X5314150Y-16145500D01*
X5294755Y-16143998D01*
X5293512Y-16143804D01*
X5277019Y-16141235D01*
X5176220Y-16145450D01*
X5176215Y-16145449D01*
X5176213Y-16145449D01*
X5166135Y-16145870D01*
X5166112Y-16145871D01*
X5165376Y-16145902D01*
X5164648Y-16145951D01*
X5164640Y-16145951D01*
X5153278Y-16146709D01*
X5153275Y-16146709D01*
X5152514Y-16146760D01*
X5151369Y-16146865D01*
X5138788Y-16148330D01*
X5051842Y-16160606D01*
X5051368Y-16160680D01*
X5051326Y-16160686D01*
X5045978Y-16161519D01*
X5044568Y-16161738D01*
X5043963Y-16161841D01*
X5043637Y-16161901D01*
X5043567Y-16161913D01*
X5040371Y-16162498D01*
X5037688Y-16162989D01*
X4972358Y-16175771D01*
X4965822Y-16176872D01*
X4906873Y-16185195D01*
X4894540Y-16186320D01*
X4820319Y-16189424D01*
X4806226Y-16190013D01*
X4806225Y-16190013D01*
X4800369Y-16190258D01*
X4794665Y-16191580D01*
X4794650Y-16191582D01*
X4791787Y-16192246D01*
X4763339Y-16195500D01*
X4690451Y-16195500D01*
X4622330Y-16175498D01*
X4601355Y-16158595D01*
X4541404Y-16098643D01*
X4507379Y-16036330D01*
X4504500Y-16009548D01*
X4504500Y-15586299D01*
X4507433Y-15561780D01*
X4507418Y-15561778D01*
X4507523Y-15561031D01*
X4508056Y-15556574D01*
X4508283Y-15555641D01*
X4508284Y-15555636D01*
X4509742Y-15549629D01*
X4510000Y-15543451D01*
X4510001Y-15543446D01*
X4513679Y-15455463D01*
X4514806Y-15443116D01*
X4523129Y-15384173D01*
X4524230Y-15377632D01*
X4524234Y-15377616D01*
X4533613Y-15329678D01*
X4536924Y-15312757D01*
X4536931Y-15312717D01*
X4537011Y-15312311D01*
X4537278Y-15310852D01*
X4538111Y-15306285D01*
X4538195Y-15305827D01*
X4538298Y-15305219D01*
X4539394Y-15298155D01*
X4551670Y-15211212D01*
X4553138Y-15198589D01*
X4553243Y-15197442D01*
X4554097Y-15184626D01*
X4554772Y-15168502D01*
X4558494Y-15079463D01*
X4558765Y-15072981D01*
X4558598Y-15071975D01*
X4558764Y-15067930D01*
X4558406Y-15067930D01*
X4558406Y-15058917D01*
X4559688Y-15050000D01*
X4555928Y-15023845D01*
X4540324Y-14915321D01*
X4539042Y-14906404D01*
X4491065Y-14801349D01*
X4482521Y-14782640D01*
X4482521Y-14782639D01*
X4478777Y-14774442D01*
X4472877Y-14767633D01*
X4472875Y-14767630D01*
X4389676Y-14671614D01*
X4389675Y-14671613D01*
X4383775Y-14664804D01*
X4376198Y-14659934D01*
X4376195Y-14659932D01*
X4269311Y-14591242D01*
X4261732Y-14586371D01*
X4253088Y-14583833D01*
X4253086Y-14583832D01*
X4131181Y-14548038D01*
X4131179Y-14548038D01*
X4122536Y-14545500D01*
X3977464Y-14545500D01*
X3968821Y-14548038D01*
X3968819Y-14548038D01*
X3846914Y-14583832D01*
X3846912Y-14583833D01*
X3838268Y-14586371D01*
X3830689Y-14591242D01*
X3723805Y-14659932D01*
X3723802Y-14659934D01*
X3716225Y-14664804D01*
X3710325Y-14671613D01*
X3710324Y-14671614D01*
X3627125Y-14767630D01*
X3627123Y-14767633D01*
X3621223Y-14774442D01*
X3617479Y-14782639D01*
X3617479Y-14782640D01*
X3608935Y-14801349D01*
X3560958Y-14906404D01*
X3559676Y-14915321D01*
X3544073Y-15023845D01*
X3540312Y-15050000D01*
X3541594Y-15058918D01*
X3541594Y-15067929D01*
X3541255Y-15067929D01*
X3541421Y-15071784D01*
X3541235Y-15072981D01*
X3541493Y-15079158D01*
X3541493Y-15079163D01*
X3545273Y-15169567D01*
X3545903Y-15184626D01*
X3546757Y-15197442D01*
X3546862Y-15198589D01*
X3548330Y-15211212D01*
X3560606Y-15298155D01*
X3561702Y-15305219D01*
X3561805Y-15305827D01*
X3561889Y-15306285D01*
X3562723Y-15310852D01*
X3562989Y-15312311D01*
X3563069Y-15312717D01*
X3563076Y-15312757D01*
X3566387Y-15329678D01*
X3575770Y-15377632D01*
X3576873Y-15384183D01*
X3585114Y-15442548D01*
X3585194Y-15443116D01*
X3586320Y-15455458D01*
X3588183Y-15500000D01*
X3589548Y-15532640D01*
X3590258Y-15549630D01*
X3591580Y-15555333D01*
X3591580Y-15555336D01*
X3592247Y-15558212D01*
X3595500Y-15586657D01*
X3595500Y-16217391D01*
X3594708Y-16231498D01*
X3590687Y-16267186D01*
X3592442Y-16276461D01*
X3592442Y-16276463D01*
X3601405Y-16323837D01*
X3602193Y-16328479D01*
X3609377Y-16376137D01*
X3609379Y-16376142D01*
X3610786Y-16385479D01*
X3614547Y-16393290D01*
X3616159Y-16401807D01*
X3620570Y-16410153D01*
X3620571Y-16410156D01*
X3643094Y-16452771D01*
X3645217Y-16456976D01*
X3670233Y-16508921D01*
X3676129Y-16515276D01*
X3680180Y-16522940D01*
X3720922Y-16563682D01*
X3724192Y-16567075D01*
X3763423Y-16609356D01*
X3769493Y-16612860D01*
X3775209Y-16617969D01*
X4105556Y-16948316D01*
X4114972Y-16958851D01*
X4130992Y-16978939D01*
X4137369Y-16986936D01*
X4145169Y-16992254D01*
X4145170Y-16992255D01*
X4185025Y-17019428D01*
X4188828Y-17022126D01*
X4235227Y-17056369D01*
X4243408Y-17059232D01*
X4250572Y-17064116D01*
X4259593Y-17066899D01*
X4259594Y-17066899D01*
X4305681Y-17081115D01*
X4310144Y-17082583D01*
X4364549Y-17101620D01*
X4373209Y-17101944D01*
X4381495Y-17104500D01*
X4439158Y-17104500D01*
X4443869Y-17104588D01*
X4492026Y-17106390D01*
X4501462Y-17106743D01*
X4508231Y-17104929D01*
X4515878Y-17104500D01*
X4763703Y-17104500D01*
X4788221Y-17107433D01*
X4788223Y-17107417D01*
X4789011Y-17107528D01*
X4793428Y-17108056D01*
X4800370Y-17109742D01*
X4806559Y-17110001D01*
X4806561Y-17110001D01*
X4894534Y-17113679D01*
X4906887Y-17114807D01*
X4965787Y-17123124D01*
X4972363Y-17124231D01*
X5034601Y-17136408D01*
X5097614Y-17169117D01*
X5132939Y-17230702D01*
X5129362Y-17301608D01*
X5099503Y-17349158D01*
X4938626Y-17510035D01*
X4876314Y-17544061D01*
X4849531Y-17546940D01*
X3148394Y-17546940D01*
X3125479Y-17544564D01*
X3123632Y-17544488D01*
X3113413Y-17542345D01*
X3103055Y-17543636D01*
X3103052Y-17543636D01*
X3083416Y-17546084D01*
X3078239Y-17546621D01*
X3074389Y-17546940D01*
X3069183Y-17546940D01*
X3064048Y-17547797D01*
X3064047Y-17547797D01*
X3059634Y-17548533D01*
X3050016Y-17550139D01*
X3044870Y-17550889D01*
X3006374Y-17555687D01*
X3006373Y-17555687D01*
X2996009Y-17556979D01*
X2989266Y-17560276D01*
X2981862Y-17561511D01*
X2972681Y-17566480D01*
X2972680Y-17566480D01*
X2938574Y-17584938D01*
X2933941Y-17587323D01*
X2899100Y-17604355D01*
X2899098Y-17604356D01*
X2889720Y-17608941D01*
X2884413Y-17614248D01*
X2877811Y-17617821D01*
X2846762Y-17651549D01*
X2844472Y-17654037D01*
X2840866Y-17657795D01*
X2636058Y-17862603D01*
X2573746Y-17896629D01*
X2502931Y-17891564D01*
X2446095Y-17849017D01*
X2421284Y-17782497D01*
X2424985Y-17741926D01*
X2446437Y-17659075D01*
X2446438Y-17659071D01*
X2448037Y-17652894D01*
X2458384Y-17448861D01*
X2427448Y-17246921D01*
X2399557Y-17171614D01*
X2358714Y-17061334D01*
X2358713Y-17061333D01*
X2356495Y-17055343D01*
X2248430Y-16881969D01*
X2231419Y-16864073D01*
X2112078Y-16738525D01*
X2112074Y-16738521D01*
X2107678Y-16733897D01*
X2102439Y-16730250D01*
X2102436Y-16730248D01*
X1945247Y-16620842D01*
X1940000Y-16617190D01*
X1933354Y-16614338D01*
X1931882Y-16613706D01*
X1930843Y-16612847D01*
X1928539Y-16611568D01*
X1928777Y-16611138D01*
X1877171Y-16568460D01*
X1855606Y-16500818D01*
X1874035Y-16432255D01*
X1920425Y-16387750D01*
X2021212Y-16331809D01*
X2021216Y-16331806D01*
X2026798Y-16328708D01*
X2181809Y-16195636D01*
X2239300Y-16121364D01*
X2302945Y-16039141D01*
X2302947Y-16039138D01*
X2306859Y-16034084D01*
X2315950Y-16015552D01*
X2379368Y-15886265D01*
X2396830Y-15850667D01*
X2407640Y-15808917D01*
X2446437Y-15659075D01*
X2446438Y-15659071D01*
X2448037Y-15652894D01*
X2458384Y-15448861D01*
X2457061Y-15440221D01*
X2449279Y-15389425D01*
X2427448Y-15246921D01*
X2409123Y-15197442D01*
X2358714Y-15061334D01*
X2358713Y-15061333D01*
X2356495Y-15055343D01*
X2276088Y-14926342D01*
X2251809Y-14887390D01*
X2248430Y-14881969D01*
X2244029Y-14877339D01*
X2112078Y-14738525D01*
X2112074Y-14738521D01*
X2107678Y-14733897D01*
X2102439Y-14730250D01*
X2102436Y-14730248D01*
X1945247Y-14620842D01*
X1940000Y-14617190D01*
X1933354Y-14614338D01*
X1931882Y-14613706D01*
X1930843Y-14612847D01*
X1928539Y-14611568D01*
X1928777Y-14611138D01*
X1877171Y-14568460D01*
X1855606Y-14500818D01*
X1874035Y-14432255D01*
X1920425Y-14387750D01*
X2021212Y-14331809D01*
X2021216Y-14331806D01*
X2026798Y-14328708D01*
X2181809Y-14195636D01*
X2238296Y-14122661D01*
X2302945Y-14039141D01*
X2302947Y-14039138D01*
X2306859Y-14034084D01*
X2311042Y-14025558D01*
X2380146Y-13884679D01*
X2396830Y-13850667D01*
X2409348Y-13802321D01*
X2446437Y-13659075D01*
X2446438Y-13659071D01*
X2448037Y-13652894D01*
X2455434Y-13507029D01*
X10412679Y-13507029D01*
X10431480Y-13673901D01*
X10434611Y-13687617D01*
X10490075Y-13846120D01*
X10492936Y-13852062D01*
X10501278Y-13859440D01*
X10510407Y-13855382D01*
X10852979Y-13512811D01*
X10860592Y-13498868D01*
X10860461Y-13497034D01*
X10856210Y-13490421D01*
X10513161Y-13147372D01*
X10500786Y-13140615D01*
X10494026Y-13145675D01*
X10490075Y-13153880D01*
X10434611Y-13312383D01*
X10431480Y-13326099D01*
X10412679Y-13492971D01*
X10412679Y-13507029D01*
X2455434Y-13507029D01*
X2458384Y-13448861D01*
X2427448Y-13246921D01*
X2403357Y-13181874D01*
X2358714Y-13061334D01*
X2358713Y-13061333D01*
X2356495Y-13055343D01*
X2248430Y-12881969D01*
X2228915Y-12861439D01*
X2112078Y-12738525D01*
X2112072Y-12738520D01*
X2107678Y-12733897D01*
X2102439Y-12730250D01*
X2102436Y-12730248D01*
X1945247Y-12620842D01*
X1940000Y-12617190D01*
X1933354Y-12614338D01*
X1931882Y-12613706D01*
X1930843Y-12612847D01*
X1928539Y-12611568D01*
X1928777Y-12611138D01*
X1877171Y-12568460D01*
X1855606Y-12500818D01*
X1874035Y-12432255D01*
X1920425Y-12387750D01*
X2021212Y-12331809D01*
X2021216Y-12331806D01*
X2026798Y-12328708D01*
X2181809Y-12195636D01*
X2236917Y-12124442D01*
X2302945Y-12039141D01*
X2302947Y-12039138D01*
X2306859Y-12034084D01*
X2312364Y-12022863D01*
X2384932Y-11874923D01*
X2396830Y-11850667D01*
X2405275Y-11818050D01*
X2446437Y-11659075D01*
X2446438Y-11659071D01*
X2448037Y-11652894D01*
X2458384Y-11448861D01*
X2427448Y-11246921D01*
X2378121Y-11113735D01*
X2358714Y-11061334D01*
X2358713Y-11061333D01*
X2356495Y-11055343D01*
X2248430Y-10881969D01*
X2244029Y-10877339D01*
X2112078Y-10738525D01*
X2112074Y-10738521D01*
X2107678Y-10733897D01*
X2102439Y-10730250D01*
X2102436Y-10730248D01*
X1945247Y-10620842D01*
X1940000Y-10617190D01*
X1933354Y-10614338D01*
X1931882Y-10613706D01*
X1930843Y-10612847D01*
X1928539Y-10611568D01*
X1928777Y-10611138D01*
X1877171Y-10568460D01*
X1855606Y-10500818D01*
X1874035Y-10432255D01*
X1920425Y-10387750D01*
X2021212Y-10331809D01*
X2021216Y-10331806D01*
X2026798Y-10328708D01*
X2181809Y-10195636D01*
X2225262Y-10139500D01*
X2302945Y-10039141D01*
X2302947Y-10039138D01*
X2306859Y-10034084D01*
X2319811Y-10007681D01*
X2338686Y-9969201D01*
X2386644Y-9916851D01*
X2455292Y-9898739D01*
X2522833Y-9920616D01*
G37*
G04 #@! TD.AperFunction*
G04 #@! TA.AperFunction,Conductor*
G36*
X4557806Y-1890161D02*
G01*
X4615993Y-1930839D01*
X4627795Y-1948432D01*
X4647148Y-1983299D01*
X4668191Y-2021212D01*
X4668194Y-2021216D01*
X4671292Y-2026798D01*
X4804364Y-2181809D01*
X4860500Y-2225262D01*
X4960859Y-2302945D01*
X4960862Y-2302947D01*
X4965916Y-2306859D01*
X4971655Y-2309674D01*
X4971658Y-2309676D01*
X5060761Y-2353383D01*
X5149333Y-2396830D01*
X5155515Y-2398431D01*
X5155516Y-2398431D01*
X5340925Y-2446437D01*
X5340929Y-2446438D01*
X5347106Y-2448037D01*
X5551139Y-2458384D01*
X5557449Y-2457417D01*
X5557456Y-2457417D01*
X5580740Y-2453850D01*
X5625547Y-2455052D01*
X5628405Y-2455648D01*
X5633127Y-2456633D01*
X5650546Y-2461596D01*
X5851003Y-2534660D01*
X5866019Y-2541271D01*
X6074213Y-2649613D01*
X6086633Y-2657011D01*
X6309736Y-2807891D01*
X6328246Y-2823169D01*
X7869546Y-4364469D01*
X7884057Y-4382338D01*
X7885322Y-4383713D01*
X7891034Y-4392455D01*
X7899272Y-4398867D01*
X7899275Y-4398870D01*
X7914911Y-4411040D01*
X7918953Y-4414322D01*
X7921866Y-4416789D01*
X7925558Y-4420481D01*
X7929808Y-4423515D01*
X7929810Y-4423517D01*
X7941382Y-4431779D01*
X7945562Y-4434895D01*
X7972104Y-4455554D01*
X7984399Y-4465124D01*
X7991497Y-4467561D01*
X7997607Y-4471923D01*
X8044800Y-4485973D01*
X8049741Y-4487556D01*
X8096299Y-4503539D01*
X8103804Y-4503539D01*
X8110999Y-4505681D01*
X8160169Y-4503647D01*
X8165377Y-4503539D01*
X12073147Y-4503539D01*
X12141268Y-4523541D01*
X12187761Y-4577197D01*
X12197864Y-4647472D01*
X12191594Y-4691078D01*
X12191594Y-4691083D01*
X12190312Y-4700000D01*
X12210958Y-4843596D01*
X12214701Y-4851792D01*
X12254633Y-4939230D01*
X12271223Y-4975558D01*
X12277123Y-4982367D01*
X12277125Y-4982370D01*
X12328019Y-5041104D01*
X12366225Y-5085196D01*
X12373802Y-5090066D01*
X12373805Y-5090068D01*
X12431000Y-5126825D01*
X12488268Y-5163629D01*
X12496912Y-5166167D01*
X12496914Y-5166168D01*
X12618819Y-5201962D01*
X12618821Y-5201962D01*
X12627464Y-5204500D01*
X12685850Y-5204500D01*
X12705246Y-5206002D01*
X12722981Y-5208765D01*
X12823655Y-5204555D01*
X12823661Y-5204556D01*
X12823662Y-5204556D01*
X12825001Y-5204500D01*
X12834621Y-5204098D01*
X12842823Y-5203551D01*
X12846670Y-5203295D01*
X12846681Y-5203294D01*
X12847463Y-5203242D01*
X12848609Y-5203137D01*
X12852029Y-5202739D01*
X12860491Y-5201754D01*
X12860506Y-5201752D01*
X12861211Y-5201670D01*
X12891659Y-5197371D01*
X12947784Y-5189447D01*
X12947830Y-5189440D01*
X12948157Y-5189394D01*
X12948522Y-5189337D01*
X12948538Y-5189335D01*
X12954800Y-5188364D01*
X12954874Y-5188352D01*
X12955222Y-5188298D01*
X12955830Y-5188195D01*
X12959961Y-5187441D01*
X12961927Y-5187082D01*
X12961948Y-5187078D01*
X12962315Y-5187011D01*
X13027651Y-5174228D01*
X13034212Y-5173124D01*
X13093110Y-5164807D01*
X13105465Y-5163679D01*
X13193772Y-5159987D01*
X13193773Y-5159987D01*
X13199630Y-5159742D01*
X13205336Y-5158420D01*
X13205348Y-5158418D01*
X13208211Y-5157754D01*
X13236659Y-5154500D01*
X16759550Y-5154500D01*
X16827671Y-5174502D01*
X16848645Y-5191405D01*
X17108595Y-5451355D01*
X17142621Y-5513667D01*
X17145500Y-5540450D01*
X17145500Y-5863702D01*
X17142566Y-5888221D01*
X17142582Y-5888223D01*
X17142477Y-5888970D01*
X17141944Y-5893427D01*
X17140258Y-5900369D01*
X17140000Y-5906546D01*
X17139999Y-5906551D01*
X17136320Y-5994539D01*
X17135194Y-6006877D01*
X17126871Y-6065822D01*
X17125772Y-6072349D01*
X17112989Y-6137684D01*
X17111770Y-6144376D01*
X17111667Y-6144987D01*
X17110606Y-6151843D01*
X17110543Y-6152290D01*
X17110538Y-6152323D01*
X17099478Y-6230658D01*
X17098330Y-6238785D01*
X17096862Y-6251409D01*
X17096757Y-6252556D01*
X17095903Y-6265373D01*
X17095871Y-6266142D01*
X17095869Y-6266176D01*
X17092034Y-6357907D01*
X17091235Y-6377020D01*
X17091401Y-6378026D01*
X17091236Y-6382070D01*
X17091594Y-6382070D01*
X17091594Y-6391083D01*
X17090312Y-6400000D01*
X17091594Y-6408917D01*
X17093917Y-6425071D01*
X17110958Y-6543596D01*
X17114701Y-6551792D01*
X17164460Y-6660748D01*
X17171223Y-6675558D01*
X17177123Y-6682367D01*
X17177125Y-6682370D01*
X17249147Y-6765487D01*
X17266225Y-6785196D01*
X17273802Y-6790066D01*
X17273805Y-6790068D01*
X17341222Y-6833394D01*
X17388268Y-6863629D01*
X17396912Y-6866167D01*
X17396914Y-6866168D01*
X17518819Y-6901962D01*
X17518821Y-6901962D01*
X17527464Y-6904500D01*
X17672536Y-6904500D01*
X17681179Y-6901962D01*
X17681181Y-6901962D01*
X17803086Y-6866168D01*
X17803088Y-6866167D01*
X17811732Y-6863629D01*
X17858778Y-6833394D01*
X17926195Y-6790068D01*
X17926198Y-6790066D01*
X17933775Y-6785196D01*
X17950853Y-6765487D01*
X18022875Y-6682370D01*
X18022877Y-6682367D01*
X18028777Y-6675558D01*
X18035541Y-6660748D01*
X18085299Y-6551792D01*
X18089042Y-6543596D01*
X18090324Y-6534678D01*
X18090326Y-6534672D01*
X18092053Y-6522662D01*
X18121547Y-6458081D01*
X18181273Y-6419698D01*
X18252270Y-6419699D01*
X18305865Y-6451500D01*
X19305556Y-7451190D01*
X19339581Y-7513502D01*
X19334517Y-7584317D01*
X19330099Y-7594711D01*
X19328196Y-7598685D01*
X19328026Y-7599054D01*
X19328017Y-7599072D01*
X19283947Y-7694430D01*
X19283928Y-7694472D01*
X19283667Y-7695037D01*
X19283406Y-7695633D01*
X19283403Y-7695640D01*
X19282786Y-7697051D01*
X19279446Y-7704681D01*
X19279348Y-7704918D01*
X19279346Y-7704921D01*
X19279166Y-7705355D01*
X19275323Y-7715182D01*
X19238683Y-7814788D01*
X19236384Y-7821304D01*
X19236187Y-7821887D01*
X19234084Y-7828393D01*
X19218646Y-7878386D01*
X19215010Y-7890161D01*
X19212249Y-7898139D01*
X19206261Y-7913728D01*
X19195563Y-7935204D01*
X19193161Y-7939054D01*
X19180150Y-7956390D01*
X19139739Y-8001549D01*
X19136746Y-8006459D01*
X19136745Y-8006460D01*
X19136063Y-8007579D01*
X19133400Y-8010965D01*
X19133313Y-8011082D01*
X19133310Y-8011080D01*
X19117573Y-8031088D01*
X18934570Y-8214091D01*
X18916701Y-8228602D01*
X18915326Y-8229867D01*
X18906584Y-8235579D01*
X18900172Y-8243817D01*
X18900169Y-8243820D01*
X18887999Y-8259456D01*
X18884717Y-8263498D01*
X18882250Y-8266411D01*
X18878558Y-8270103D01*
X18875524Y-8274353D01*
X18875522Y-8274355D01*
X18867260Y-8285927D01*
X18864150Y-8290098D01*
X18833915Y-8328944D01*
X18831478Y-8336042D01*
X18827116Y-8342152D01*
X18813975Y-8386294D01*
X18813069Y-8389336D01*
X18811483Y-8394286D01*
X18795500Y-8440844D01*
X18795500Y-8448349D01*
X18793358Y-8455544D01*
X18794815Y-8490758D01*
X18795392Y-8504714D01*
X18795500Y-8509922D01*
X18795500Y-16200971D01*
X18775498Y-16269092D01*
X18758595Y-16290066D01*
X18170456Y-16878205D01*
X18108144Y-16912231D01*
X18037329Y-16907166D01*
X17980493Y-16864619D01*
X17955682Y-16798099D01*
X17956644Y-16771178D01*
X17958406Y-16758923D01*
X17958406Y-16758917D01*
X17959688Y-16750000D01*
X17957417Y-16734201D01*
X17940324Y-16615321D01*
X17939042Y-16606404D01*
X17907059Y-16536371D01*
X17882521Y-16482640D01*
X17882521Y-16482639D01*
X17878777Y-16474442D01*
X17872877Y-16467633D01*
X17872875Y-16467630D01*
X17789676Y-16371614D01*
X17783775Y-16364804D01*
X17776198Y-16359934D01*
X17776195Y-16359932D01*
X17669311Y-16291242D01*
X17661732Y-16286371D01*
X17653088Y-16283833D01*
X17653086Y-16283832D01*
X17531181Y-16248038D01*
X17531179Y-16248038D01*
X17522536Y-16245500D01*
X17377464Y-16245500D01*
X17368821Y-16248038D01*
X17368819Y-16248038D01*
X17277934Y-16274724D01*
X17238268Y-16286371D01*
X17236874Y-16287267D01*
X17153148Y-16324550D01*
X17150121Y-16325921D01*
X17149930Y-16326009D01*
X17149903Y-16326022D01*
X17149878Y-16326033D01*
X17147923Y-16326945D01*
X17147813Y-16326996D01*
X17094334Y-16352191D01*
X17084359Y-16356377D01*
X17070564Y-16361481D01*
X17049398Y-16367274D01*
X17036343Y-16369649D01*
X17019026Y-16371575D01*
X16959470Y-16374051D01*
X16959466Y-16374051D01*
X16953610Y-16374295D01*
X16947902Y-16375617D01*
X16947892Y-16375618D01*
X16944995Y-16376289D01*
X16916572Y-16379537D01*
X16114993Y-16379537D01*
X16046872Y-16359535D01*
X16025898Y-16342632D01*
X15441405Y-15758139D01*
X15407379Y-15695827D01*
X15404500Y-15669044D01*
X15404500Y-15431190D01*
X15405535Y-15415072D01*
X15407255Y-15401734D01*
X15408047Y-15395596D01*
X15407306Y-15384720D01*
X15407164Y-15374063D01*
X15409095Y-15364853D01*
X15406113Y-15340925D01*
X15405356Y-15334856D01*
X15404819Y-15329678D01*
X15404500Y-15325829D01*
X15404500Y-15320623D01*
X15402868Y-15310847D01*
X15401441Y-15298673D01*
X15400708Y-15287912D01*
X15400708Y-15287910D01*
X15400599Y-15286313D01*
X15397475Y-15260145D01*
X15397074Y-15257804D01*
X15391297Y-15232040D01*
X15368419Y-15149837D01*
X15359968Y-15124571D01*
X15359092Y-15122340D01*
X15348117Y-15098117D01*
X15312569Y-15029278D01*
X15309440Y-15023404D01*
X15309156Y-15022887D01*
X15305999Y-15017304D01*
X15267523Y-14951189D01*
X15262732Y-14942128D01*
X15245666Y-14906404D01*
X15219888Y-14852443D01*
X15212486Y-14842244D01*
X15199847Y-14820578D01*
X15182522Y-14782642D01*
X15182521Y-14782640D01*
X15178777Y-14774442D01*
X15083775Y-14664804D01*
X15076198Y-14659934D01*
X15076195Y-14659932D01*
X14969311Y-14591242D01*
X14961732Y-14586371D01*
X14953088Y-14583833D01*
X14953086Y-14583832D01*
X14831181Y-14548038D01*
X14831179Y-14548038D01*
X14822536Y-14545500D01*
X14813528Y-14545500D01*
X14804604Y-14544217D01*
X14805099Y-14540772D01*
X14753079Y-14525498D01*
X14706586Y-14471842D01*
X14696482Y-14401568D01*
X14725976Y-14336988D01*
X14737176Y-14325607D01*
X14743617Y-14319843D01*
X14760949Y-14306834D01*
X14764780Y-14304445D01*
X14786269Y-14293738D01*
X14801860Y-14287750D01*
X14809842Y-14284988D01*
X14871290Y-14266012D01*
X14871352Y-14265992D01*
X14871609Y-14265913D01*
X14878111Y-14263811D01*
X14878694Y-14263614D01*
X14879025Y-14263497D01*
X14879075Y-14263480D01*
X14884815Y-14261455D01*
X14884869Y-14261436D01*
X14885205Y-14261317D01*
X14885559Y-14261187D01*
X14885625Y-14261163D01*
X14967786Y-14230942D01*
X14967789Y-14230941D01*
X14973864Y-14228706D01*
X14979355Y-14225279D01*
X14980672Y-14224634D01*
X15000568Y-14216907D01*
X15001810Y-14216542D01*
X15011732Y-14213629D01*
X15071488Y-14175226D01*
X15126195Y-14140068D01*
X15126198Y-14140066D01*
X15133775Y-14135196D01*
X15142880Y-14124688D01*
X15222875Y-14032370D01*
X15222877Y-14032367D01*
X15228777Y-14025558D01*
X15289042Y-13893596D01*
X15309688Y-13750000D01*
X15289042Y-13606404D01*
X15239932Y-13498868D01*
X15232521Y-13482640D01*
X15232521Y-13482639D01*
X15228777Y-13474442D01*
X15222877Y-13467633D01*
X15222875Y-13467630D01*
X15139676Y-13371614D01*
X15133775Y-13364804D01*
X15126198Y-13359934D01*
X15126195Y-13359932D01*
X15019311Y-13291242D01*
X15011732Y-13286371D01*
X15003088Y-13283833D01*
X15003086Y-13283832D01*
X14881181Y-13248038D01*
X14881179Y-13248038D01*
X14872536Y-13245500D01*
X14727464Y-13245500D01*
X14674147Y-13261155D01*
X14603152Y-13261155D01*
X14543426Y-13222771D01*
X14519721Y-13181874D01*
X14509926Y-13153883D01*
X14507063Y-13147938D01*
X14498722Y-13140560D01*
X14489593Y-13144618D01*
X13883364Y-13750846D01*
X13821052Y-13784871D01*
X13794269Y-13787750D01*
X13755730Y-13787750D01*
X13687609Y-13767748D01*
X13666635Y-13750845D01*
X13504885Y-13589095D01*
X13470859Y-13526783D01*
X13475924Y-13455968D01*
X13504885Y-13410905D01*
X14040480Y-12875310D01*
X14048092Y-12861370D01*
X14047960Y-12859534D01*
X14043709Y-12852919D01*
X13504885Y-12314095D01*
X13470859Y-12251783D01*
X13475924Y-12180968D01*
X13504885Y-12135905D01*
X13685905Y-11954885D01*
X13748217Y-11920859D01*
X13819032Y-11925924D01*
X13864095Y-11954885D01*
X14486837Y-12577627D01*
X14499214Y-12584385D01*
X14505974Y-12579325D01*
X14509925Y-12571120D01*
X14565389Y-12412617D01*
X14568520Y-12398901D01*
X14587321Y-12232029D01*
X14587321Y-12217971D01*
X14568520Y-12051099D01*
X14565389Y-12037383D01*
X14538995Y-11961955D01*
X14535375Y-11891050D01*
X14570664Y-11829445D01*
X14633657Y-11796698D01*
X14642336Y-11795307D01*
X14642670Y-11795265D01*
X14642673Y-11795264D01*
X14653040Y-11793972D01*
X14659783Y-11790675D01*
X14667187Y-11789440D01*
X14698683Y-11772395D01*
X14710475Y-11766013D01*
X14715108Y-11763628D01*
X14749949Y-11746596D01*
X14749951Y-11746595D01*
X14759329Y-11742010D01*
X14764636Y-11736703D01*
X14771238Y-11733130D01*
X14804577Y-11696914D01*
X14808183Y-11693156D01*
X14819159Y-11682180D01*
X14838325Y-11667319D01*
X14838134Y-11667059D01*
X14843122Y-11663408D01*
X14848456Y-11660257D01*
X14853072Y-11656127D01*
X14853075Y-11656124D01*
X14893616Y-11619844D01*
X14910949Y-11606834D01*
X14914780Y-11604445D01*
X14936269Y-11593738D01*
X14951860Y-11587750D01*
X14959842Y-11584988D01*
X15021290Y-11566012D01*
X15021352Y-11565992D01*
X15021609Y-11565913D01*
X15028111Y-11563811D01*
X15028694Y-11563614D01*
X15029051Y-11563488D01*
X15029083Y-11563477D01*
X15034787Y-11561464D01*
X15035204Y-11561317D01*
X15134812Y-11524679D01*
X15139886Y-11522695D01*
X15144096Y-11521049D01*
X15144123Y-11521038D01*
X15144645Y-11520834D01*
X15145079Y-11520654D01*
X15145080Y-11520653D01*
X15145151Y-11520624D01*
X15154963Y-11516333D01*
X15155510Y-11516080D01*
X15155546Y-11516064D01*
X15155908Y-11515896D01*
X15155907Y-11515896D01*
X15159214Y-11514368D01*
X15161732Y-11513629D01*
X15164083Y-11512118D01*
X15167285Y-11510638D01*
X15167286Y-11510638D01*
X15250898Y-11471995D01*
X15250930Y-11471980D01*
X15251315Y-11471802D01*
X15251705Y-11471615D01*
X15251735Y-11471601D01*
X15253866Y-11470580D01*
X15257799Y-11468695D01*
X15258331Y-11468431D01*
X15259039Y-11468068D01*
X15263826Y-11465618D01*
X15263880Y-11465590D01*
X15264161Y-11465446D01*
X15321331Y-11435254D01*
X15328925Y-11431565D01*
X15344192Y-11424772D01*
X15366959Y-11417146D01*
X15371343Y-11416130D01*
X15392802Y-11413072D01*
X15453319Y-11409715D01*
X15458898Y-11408362D01*
X15458905Y-11408361D01*
X15460190Y-11408049D01*
X15464506Y-11407533D01*
X15464602Y-11407519D01*
X15464602Y-11407522D01*
X15489885Y-11404500D01*
X16950971Y-11404500D01*
X17019092Y-11424502D01*
X17040066Y-11441405D01*
X17208595Y-11609934D01*
X17242621Y-11672246D01*
X17245500Y-11699029D01*
X17245500Y-14000166D01*
X17243124Y-14023081D01*
X17243048Y-14024928D01*
X17240905Y-14035147D01*
X17243481Y-14055810D01*
X17243852Y-14074590D01*
X17244020Y-14074588D01*
X17244104Y-14080776D01*
X17243582Y-14086942D01*
X17244272Y-14093085D01*
X17244272Y-14093090D01*
X17253497Y-14175226D01*
X17255489Y-14192963D01*
X17255954Y-14195380D01*
X17255956Y-14195391D01*
X17256804Y-14199793D01*
X17263167Y-14232845D01*
X17264135Y-14236363D01*
X17277916Y-14274504D01*
X17278929Y-14276742D01*
X17278932Y-14276750D01*
X17290433Y-14302164D01*
X17312462Y-14350845D01*
X17327517Y-14379278D01*
X17329028Y-14381748D01*
X17347495Y-14408109D01*
X17391561Y-14463375D01*
X17396901Y-14470072D01*
X17397323Y-14470604D01*
X17415065Y-14493121D01*
X17434403Y-14517663D01*
X17446602Y-14536334D01*
X17450808Y-14544217D01*
X17485100Y-14608492D01*
X17488408Y-14612744D01*
X17488410Y-14612747D01*
X17489364Y-14613973D01*
X17504524Y-14638994D01*
X17517477Y-14667357D01*
X17517479Y-14667360D01*
X17521223Y-14675558D01*
X17527123Y-14682367D01*
X17527125Y-14682370D01*
X17607390Y-14775000D01*
X17616225Y-14785196D01*
X17623802Y-14790066D01*
X17623805Y-14790068D01*
X17657081Y-14811453D01*
X17738268Y-14863629D01*
X17746912Y-14866167D01*
X17746914Y-14866168D01*
X17868819Y-14901962D01*
X17868821Y-14901962D01*
X17877464Y-14904500D01*
X18022536Y-14904500D01*
X18031179Y-14901962D01*
X18031181Y-14901962D01*
X18153086Y-14866168D01*
X18153088Y-14866167D01*
X18161732Y-14863629D01*
X18242919Y-14811453D01*
X18276195Y-14790068D01*
X18276198Y-14790066D01*
X18283775Y-14785196D01*
X18292610Y-14775000D01*
X18372875Y-14682370D01*
X18372877Y-14682367D01*
X18378777Y-14675558D01*
X18385541Y-14660748D01*
X18435299Y-14551792D01*
X18439042Y-14543596D01*
X18459688Y-14400000D01*
X18457217Y-14382810D01*
X18445621Y-14302164D01*
X18439042Y-14256404D01*
X18411178Y-14195391D01*
X18382521Y-14132640D01*
X18382521Y-14132639D01*
X18378777Y-14124442D01*
X18372877Y-14117633D01*
X18372875Y-14117630D01*
X18289676Y-14021614D01*
X18283775Y-14014804D01*
X18276198Y-14009934D01*
X18276195Y-14009932D01*
X18169311Y-13941242D01*
X18161732Y-13936371D01*
X18109924Y-13921159D01*
X18094859Y-13915672D01*
X18087851Y-13912601D01*
X18063819Y-13907310D01*
X18055420Y-13905155D01*
X18051171Y-13903907D01*
X18045006Y-13902098D01*
X17985279Y-13863717D01*
X17955783Y-13799138D01*
X17954500Y-13781200D01*
X17954500Y-11549834D01*
X17956876Y-11526919D01*
X17956952Y-11525072D01*
X17959095Y-11514853D01*
X17955356Y-11484853D01*
X17954818Y-11479675D01*
X17954500Y-11475838D01*
X17954500Y-11470623D01*
X17951295Y-11451412D01*
X17950548Y-11446287D01*
X17945753Y-11407814D01*
X17945753Y-11407813D01*
X17944461Y-11397449D01*
X17941164Y-11390706D01*
X17939929Y-11383302D01*
X17916501Y-11340013D01*
X17914117Y-11335381D01*
X17897085Y-11300540D01*
X17897084Y-11300538D01*
X17892499Y-11291160D01*
X17887192Y-11285853D01*
X17883619Y-11279251D01*
X17847403Y-11245912D01*
X17843645Y-11242306D01*
X17435909Y-10834570D01*
X17421398Y-10816701D01*
X17420133Y-10815326D01*
X17414421Y-10806584D01*
X17406183Y-10800172D01*
X17406180Y-10800169D01*
X17390544Y-10787999D01*
X17386502Y-10784717D01*
X17383589Y-10782250D01*
X17379897Y-10778558D01*
X17375645Y-10775522D01*
X17364073Y-10767260D01*
X17359893Y-10764144D01*
X17329293Y-10740326D01*
X17329292Y-10740325D01*
X17321056Y-10733915D01*
X17313958Y-10731478D01*
X17307848Y-10727116D01*
X17260655Y-10713066D01*
X17255714Y-10711483D01*
X17209156Y-10695500D01*
X17201651Y-10695500D01*
X17194456Y-10693358D01*
X17145286Y-10695392D01*
X17140078Y-10695500D01*
X15489540Y-10695500D01*
X15465481Y-10692455D01*
X15465432Y-10692774D01*
X15459316Y-10691827D01*
X15453322Y-10690285D01*
X15447149Y-10689943D01*
X15447145Y-10689942D01*
X15406430Y-10687684D01*
X15392814Y-10686929D01*
X15371353Y-10683870D01*
X15366968Y-10682854D01*
X15344188Y-10675225D01*
X15328920Y-10668431D01*
X15321337Y-10664747D01*
X15264142Y-10634543D01*
X15258291Y-10631547D01*
X15257777Y-10631292D01*
X15254952Y-10629939D01*
X15251759Y-10628409D01*
X15251687Y-10628375D01*
X15251315Y-10628197D01*
X15165552Y-10588561D01*
X15164908Y-10588412D01*
X15161732Y-10586371D01*
X15153084Y-10583832D01*
X15153080Y-10583830D01*
X15031181Y-10548038D01*
X15031179Y-10548038D01*
X15022536Y-10545500D01*
X14877464Y-10545500D01*
X14868821Y-10548038D01*
X14868819Y-10548038D01*
X14771573Y-10576592D01*
X14700576Y-10576592D01*
X14640850Y-10538208D01*
X14611357Y-10473627D01*
X14610185Y-10460962D01*
X14609987Y-10456226D01*
X14609987Y-10456225D01*
X14609742Y-10450369D01*
X14608420Y-10444665D01*
X14608418Y-10444650D01*
X14607754Y-10441787D01*
X14604500Y-10413339D01*
X14604500Y-9840450D01*
X14624502Y-9772329D01*
X14641405Y-9751355D01*
X14751355Y-9641405D01*
X14813667Y-9607379D01*
X14840450Y-9604500D01*
X15867391Y-9604500D01*
X15881499Y-9605292D01*
X15917186Y-9609313D01*
X15926461Y-9607558D01*
X15926463Y-9607558D01*
X15973837Y-9598595D01*
X15978479Y-9597807D01*
X16026137Y-9590623D01*
X16026142Y-9590621D01*
X16035479Y-9589214D01*
X16043290Y-9585453D01*
X16051807Y-9583841D01*
X16060153Y-9579430D01*
X16060156Y-9579429D01*
X16102771Y-9556906D01*
X16106976Y-9554783D01*
X16158921Y-9529767D01*
X16165276Y-9523871D01*
X16172940Y-9519820D01*
X16213682Y-9479078D01*
X16217075Y-9475808D01*
X16252435Y-9442999D01*
X16252436Y-9442998D01*
X16259356Y-9436577D01*
X16262860Y-9430507D01*
X16267969Y-9424791D01*
X16342158Y-9350602D01*
X16361579Y-9335330D01*
X16361570Y-9335319D01*
X16362119Y-9334906D01*
X16365683Y-9332103D01*
X16366509Y-9331600D01*
X16366512Y-9331598D01*
X16371797Y-9328377D01*
X16441164Y-9264577D01*
X16450696Y-9256639D01*
X16498221Y-9220874D01*
X16503656Y-9217005D01*
X16558552Y-9180076D01*
X16558891Y-9179848D01*
X16564638Y-9175869D01*
X16565139Y-9175512D01*
X16568313Y-9173187D01*
X16570358Y-9171690D01*
X16570401Y-9171658D01*
X16570584Y-9171524D01*
X16585556Y-9160257D01*
X16640133Y-9119186D01*
X16640157Y-9119168D01*
X16640741Y-9118728D01*
X16641286Y-9118296D01*
X16641328Y-9118264D01*
X16650217Y-9111224D01*
X16650219Y-9111222D01*
X16650765Y-9110790D01*
X16651650Y-9110053D01*
X16652168Y-9109599D01*
X16652198Y-9109574D01*
X16660677Y-9102152D01*
X16660686Y-9102144D01*
X16661256Y-9101645D01*
X16732881Y-9035771D01*
X16733775Y-9035196D01*
X16734832Y-9033976D01*
X16743500Y-9026004D01*
X16748483Y-9019046D01*
X16755696Y-9009898D01*
X16769216Y-8994296D01*
X16828777Y-8925558D01*
X16832519Y-8917364D01*
X16832521Y-8917361D01*
X16885299Y-8801792D01*
X16889042Y-8793596D01*
X16907073Y-8668191D01*
X16908406Y-8658917D01*
X16909688Y-8650000D01*
X16889042Y-8506404D01*
X16853257Y-8428046D01*
X16832521Y-8382640D01*
X16832521Y-8382639D01*
X16828777Y-8374442D01*
X16822877Y-8367633D01*
X16822875Y-8367630D01*
X16739676Y-8271614D01*
X16739675Y-8271613D01*
X16733775Y-8264804D01*
X16726198Y-8259934D01*
X16726195Y-8259932D01*
X16619311Y-8191242D01*
X16611732Y-8186371D01*
X16603088Y-8183833D01*
X16603086Y-8183832D01*
X16481181Y-8148038D01*
X16481179Y-8148038D01*
X16472536Y-8145500D01*
X16327464Y-8145500D01*
X16318821Y-8148038D01*
X16318819Y-8148038D01*
X16196914Y-8183832D01*
X16196912Y-8183833D01*
X16188268Y-8186371D01*
X16180689Y-8191242D01*
X16073805Y-8259932D01*
X16073802Y-8259934D01*
X16066225Y-8264804D01*
X16049976Y-8283557D01*
X16033559Y-8298663D01*
X16033613Y-8298724D01*
X16029516Y-8302383D01*
X16029077Y-8302787D01*
X16029004Y-8302840D01*
X16029000Y-8302844D01*
X16024001Y-8306495D01*
X15948363Y-8388732D01*
X15947877Y-8389287D01*
X15947858Y-8389308D01*
X15943489Y-8394296D01*
X15940062Y-8398209D01*
X15939324Y-8399094D01*
X15931274Y-8409252D01*
X15878474Y-8479415D01*
X15874487Y-8484859D01*
X15874130Y-8485360D01*
X15873932Y-8485646D01*
X15870392Y-8490758D01*
X15870353Y-8490815D01*
X15870151Y-8491107D01*
X15832990Y-8546347D01*
X15829131Y-8551768D01*
X15793359Y-8599303D01*
X15785422Y-8608834D01*
X15743151Y-8654795D01*
X15682315Y-8691394D01*
X15650411Y-8695500D01*
X14632607Y-8695500D01*
X14618499Y-8694708D01*
X14592195Y-8691744D01*
X14582814Y-8690687D01*
X14573539Y-8692442D01*
X14573537Y-8692442D01*
X14526163Y-8701405D01*
X14521521Y-8702193D01*
X14473863Y-8709377D01*
X14473858Y-8709379D01*
X14464521Y-8710786D01*
X14456710Y-8714547D01*
X14448193Y-8716159D01*
X14439847Y-8720570D01*
X14439844Y-8720571D01*
X14397229Y-8743094D01*
X14393024Y-8745217D01*
X14341079Y-8770233D01*
X14334724Y-8776129D01*
X14327060Y-8780180D01*
X14286317Y-8820923D01*
X14282924Y-8824193D01*
X14240644Y-8863423D01*
X14237140Y-8869492D01*
X14232035Y-8875205D01*
X13851674Y-9255565D01*
X13841139Y-9264980D01*
X13820444Y-9281483D01*
X13820442Y-9281486D01*
X13813064Y-9287369D01*
X13782566Y-9332103D01*
X13780582Y-9335013D01*
X13777883Y-9338817D01*
X13743631Y-9385227D01*
X13740768Y-9393408D01*
X13735884Y-9400572D01*
X13733101Y-9409594D01*
X13718890Y-9455666D01*
X13717421Y-9460130D01*
X13698379Y-9514549D01*
X13698055Y-9523212D01*
X13695500Y-9531495D01*
X13695500Y-9589132D01*
X13695412Y-9593843D01*
X13694593Y-9615744D01*
X13693256Y-9651463D01*
X13695070Y-9658235D01*
X13695500Y-9665887D01*
X13695500Y-10413702D01*
X13692566Y-10438221D01*
X13692582Y-10438223D01*
X13692477Y-10438970D01*
X13691944Y-10443427D01*
X13690258Y-10450369D01*
X13690000Y-10456546D01*
X13689999Y-10456551D01*
X13686320Y-10544539D01*
X13685194Y-10556877D01*
X13676871Y-10615822D01*
X13675772Y-10622349D01*
X13662989Y-10687684D01*
X13662913Y-10688100D01*
X13662903Y-10688154D01*
X13662515Y-10690285D01*
X13661770Y-10694376D01*
X13661667Y-10694987D01*
X13661605Y-10695389D01*
X13661597Y-10695437D01*
X13661580Y-10695549D01*
X13660606Y-10701843D01*
X13660543Y-10702290D01*
X13660538Y-10702323D01*
X13650034Y-10776719D01*
X13648330Y-10788785D01*
X13646862Y-10801409D01*
X13646757Y-10802556D01*
X13645903Y-10815373D01*
X13645871Y-10816142D01*
X13645869Y-10816176D01*
X13643086Y-10882749D01*
X13641235Y-10927020D01*
X13641401Y-10928026D01*
X13641236Y-10932070D01*
X13641594Y-10932070D01*
X13641594Y-10941083D01*
X13640312Y-10950000D01*
X13641594Y-10958917D01*
X13641594Y-10967932D01*
X13638046Y-10967932D01*
X13630356Y-11021368D01*
X13583857Y-11075017D01*
X13515749Y-11095011D01*
X13181697Y-11095011D01*
X13113576Y-11075009D01*
X13067083Y-11021353D01*
X13055805Y-10974219D01*
X13054608Y-10945286D01*
X13054500Y-10940078D01*
X13054500Y-9399029D01*
X13074502Y-9330908D01*
X13091405Y-9309934D01*
X13219159Y-9182180D01*
X13238325Y-9167319D01*
X13238134Y-9167059D01*
X13243122Y-9163408D01*
X13248456Y-9160257D01*
X13253072Y-9156127D01*
X13253075Y-9156124D01*
X13293616Y-9119844D01*
X13310949Y-9106834D01*
X13314780Y-9104445D01*
X13336269Y-9093738D01*
X13351860Y-9087750D01*
X13359842Y-9084988D01*
X13421290Y-9066012D01*
X13421352Y-9065992D01*
X13421609Y-9065913D01*
X13428111Y-9063811D01*
X13428694Y-9063614D01*
X13429025Y-9063497D01*
X13429075Y-9063480D01*
X13434815Y-9061455D01*
X13434869Y-9061436D01*
X13435205Y-9061317D01*
X13435559Y-9061187D01*
X13435625Y-9061163D01*
X13517786Y-9030942D01*
X13517789Y-9030941D01*
X13523864Y-9028706D01*
X13529355Y-9025279D01*
X13530672Y-9024634D01*
X13550568Y-9016907D01*
X13551810Y-9016542D01*
X13561732Y-9013629D01*
X13599532Y-8989336D01*
X13676195Y-8940068D01*
X13676198Y-8940066D01*
X13683775Y-8935196D01*
X13699229Y-8917361D01*
X13772875Y-8832370D01*
X13772877Y-8832367D01*
X13778777Y-8825558D01*
X13788694Y-8803844D01*
X13835299Y-8701792D01*
X13839042Y-8693596D01*
X13859688Y-8550000D01*
X13852606Y-8500740D01*
X13845073Y-8448349D01*
X13839042Y-8406404D01*
X13809699Y-8342152D01*
X13782521Y-8282640D01*
X13782521Y-8282639D01*
X13778777Y-8274442D01*
X13772877Y-8267633D01*
X13772875Y-8267630D01*
X13689676Y-8171614D01*
X13683775Y-8164804D01*
X13676198Y-8159934D01*
X13676195Y-8159932D01*
X13569311Y-8091242D01*
X13561732Y-8086371D01*
X13553088Y-8083833D01*
X13553086Y-8083832D01*
X13431181Y-8048038D01*
X13431179Y-8048038D01*
X13422536Y-8045500D01*
X13277464Y-8045500D01*
X13268821Y-8048038D01*
X13268819Y-8048038D01*
X13146914Y-8083832D01*
X13146912Y-8083833D01*
X13138268Y-8086371D01*
X13130689Y-8091242D01*
X13130687Y-8091243D01*
X13098622Y-8111850D01*
X13030501Y-8131853D01*
X12962380Y-8111851D01*
X12915887Y-8058196D01*
X12904500Y-8005853D01*
X12904500Y-6589540D01*
X12907545Y-6565481D01*
X12907226Y-6565432D01*
X12908174Y-6559311D01*
X12909715Y-6553319D01*
X12910058Y-6547140D01*
X12913072Y-6492807D01*
X12916127Y-6471364D01*
X12917140Y-6466989D01*
X12924773Y-6444190D01*
X12931562Y-6428932D01*
X12935258Y-6421327D01*
X12965251Y-6364531D01*
X12965255Y-6364524D01*
X12965447Y-6364160D01*
X12965665Y-6363735D01*
X12968327Y-6358531D01*
X12968510Y-6358174D01*
X12968779Y-6357631D01*
X12971807Y-6351304D01*
X12986798Y-6318869D01*
X13008719Y-6271437D01*
X13011438Y-6265554D01*
X13013085Y-6258440D01*
X13013978Y-6254582D01*
X13022118Y-6230658D01*
X13035297Y-6201798D01*
X13035298Y-6201794D01*
X13039042Y-6193596D01*
X13050772Y-6112009D01*
X13058406Y-6058917D01*
X13059688Y-6050000D01*
X13056934Y-6030842D01*
X13040324Y-5915321D01*
X13039042Y-5906404D01*
X12986377Y-5791083D01*
X12982521Y-5782640D01*
X12982521Y-5782639D01*
X12978777Y-5774442D01*
X12972877Y-5767633D01*
X12972875Y-5767630D01*
X12889676Y-5671614D01*
X12883775Y-5664804D01*
X12876198Y-5659934D01*
X12876195Y-5659932D01*
X12769311Y-5591242D01*
X12761732Y-5586371D01*
X12753088Y-5583833D01*
X12753086Y-5583832D01*
X12631181Y-5548038D01*
X12631179Y-5548038D01*
X12622536Y-5545500D01*
X12477464Y-5545500D01*
X12468821Y-5548038D01*
X12468819Y-5548038D01*
X12346914Y-5583832D01*
X12346912Y-5583833D01*
X12338268Y-5586371D01*
X12330689Y-5591242D01*
X12223805Y-5659932D01*
X12223802Y-5659934D01*
X12216225Y-5664804D01*
X12210324Y-5671614D01*
X12127125Y-5767630D01*
X12127123Y-5767633D01*
X12121223Y-5774442D01*
X12117479Y-5782639D01*
X12117479Y-5782640D01*
X12113623Y-5791083D01*
X12060958Y-5906404D01*
X12059676Y-5915321D01*
X12043067Y-6030842D01*
X12040312Y-6050000D01*
X12060958Y-6193596D01*
X12064702Y-6201794D01*
X12077645Y-6230135D01*
X12085523Y-6252948D01*
X12088561Y-6265552D01*
X12128191Y-6351302D01*
X12131208Y-6357605D01*
X12131469Y-6358132D01*
X12134543Y-6364142D01*
X12164747Y-6421337D01*
X12168431Y-6428919D01*
X12175223Y-6444184D01*
X12175226Y-6444190D01*
X12182856Y-6466977D01*
X12182859Y-6466989D01*
X12183871Y-6471357D01*
X12186926Y-6492805D01*
X12189965Y-6547573D01*
X12189967Y-6547584D01*
X12190285Y-6553322D01*
X12191639Y-6558907D01*
X12191640Y-6558911D01*
X12191951Y-6560193D01*
X12192466Y-6564499D01*
X12192481Y-6564603D01*
X12192478Y-6564603D01*
X12195500Y-6589888D01*
X12195500Y-8250971D01*
X12175498Y-8319092D01*
X12158595Y-8340066D01*
X11684570Y-8814091D01*
X11666701Y-8828602D01*
X11665326Y-8829867D01*
X11656584Y-8835579D01*
X11650172Y-8843817D01*
X11650169Y-8843820D01*
X11637999Y-8859456D01*
X11634717Y-8863498D01*
X11632250Y-8866411D01*
X11628558Y-8870103D01*
X11625524Y-8874353D01*
X11625522Y-8874355D01*
X11617260Y-8885927D01*
X11614144Y-8890107D01*
X11592931Y-8917361D01*
X11583915Y-8928944D01*
X11581478Y-8936042D01*
X11577116Y-8942152D01*
X11574137Y-8952157D01*
X11574137Y-8952158D01*
X11563069Y-8989336D01*
X11561483Y-8994286D01*
X11545500Y-9040844D01*
X11545500Y-9048349D01*
X11543358Y-9055544D01*
X11544938Y-9093735D01*
X11545392Y-9104714D01*
X11545500Y-9109922D01*
X11545500Y-10357039D01*
X11525498Y-10425160D01*
X11471842Y-10471653D01*
X11463198Y-10475219D01*
X11454415Y-10478466D01*
X11451127Y-10479981D01*
X11441263Y-10485492D01*
X11440391Y-10483931D01*
X11437974Y-10485900D01*
X11438274Y-10486367D01*
X11438268Y-10486371D01*
X11430687Y-10491243D01*
X11430271Y-10491433D01*
X11425414Y-10494346D01*
X11418110Y-10498426D01*
X11418104Y-10498430D01*
X11415968Y-10499623D01*
X11369219Y-10530730D01*
X11367732Y-10531702D01*
X11316225Y-10564804D01*
X11310325Y-10571613D01*
X11310324Y-10571614D01*
X11306011Y-10576592D01*
X11301818Y-10581431D01*
X11300337Y-10582766D01*
X11299216Y-10584433D01*
X11258270Y-10631688D01*
X11255826Y-10634508D01*
X11196100Y-10672892D01*
X11125103Y-10672892D01*
X11065377Y-10634509D01*
X11044918Y-10597211D01*
X11044455Y-10597437D01*
X11042881Y-10594217D01*
X11041664Y-10591279D01*
X11041083Y-10590219D01*
X11039929Y-10583302D01*
X11016501Y-10540013D01*
X11014117Y-10535381D01*
X10997085Y-10500540D01*
X10997084Y-10500538D01*
X10992499Y-10491160D01*
X10987192Y-10485853D01*
X10983619Y-10479251D01*
X10947403Y-10445912D01*
X10943645Y-10442306D01*
X10485909Y-9984570D01*
X10471398Y-9966701D01*
X10470133Y-9965326D01*
X10464421Y-9956584D01*
X10456183Y-9950172D01*
X10456180Y-9950169D01*
X10440544Y-9937999D01*
X10436502Y-9934717D01*
X10433589Y-9932250D01*
X10429897Y-9928558D01*
X10424132Y-9924442D01*
X10414073Y-9917260D01*
X10409893Y-9914144D01*
X10379293Y-9890326D01*
X10379292Y-9890325D01*
X10371056Y-9883915D01*
X10363958Y-9881478D01*
X10357848Y-9877116D01*
X10310655Y-9863066D01*
X10305714Y-9861483D01*
X10259156Y-9845500D01*
X10251651Y-9845500D01*
X10244456Y-9843358D01*
X10195286Y-9845392D01*
X10190078Y-9845500D01*
X9839540Y-9845500D01*
X9815481Y-9842455D01*
X9815432Y-9842774D01*
X9809316Y-9841827D01*
X9803322Y-9840285D01*
X9797149Y-9839943D01*
X9797145Y-9839942D01*
X9759839Y-9837873D01*
X9742814Y-9836929D01*
X9721353Y-9833870D01*
X9716968Y-9832854D01*
X9694188Y-9825225D01*
X9678920Y-9818431D01*
X9671337Y-9814747D01*
X9614142Y-9784543D01*
X9608291Y-9781547D01*
X9607777Y-9781292D01*
X9603779Y-9779377D01*
X9601759Y-9778409D01*
X9601687Y-9778375D01*
X9601315Y-9778197D01*
X9515552Y-9738561D01*
X9514908Y-9738412D01*
X9511732Y-9736371D01*
X9503084Y-9733832D01*
X9503080Y-9733830D01*
X9381181Y-9698038D01*
X9381179Y-9698038D01*
X9372536Y-9695500D01*
X9227464Y-9695500D01*
X9218821Y-9698038D01*
X9218819Y-9698038D01*
X9096914Y-9733832D01*
X9096912Y-9733833D01*
X9088268Y-9736371D01*
X9080689Y-9741242D01*
X8973805Y-9809932D01*
X8973802Y-9809934D01*
X8966225Y-9814804D01*
X8960324Y-9821614D01*
X8914813Y-9874137D01*
X8871223Y-9924442D01*
X8869014Y-9922528D01*
X8826544Y-9959316D01*
X8756268Y-9969407D01*
X8691693Y-9939903D01*
X8685127Y-9933788D01*
X8435909Y-9684570D01*
X8421398Y-9666701D01*
X8420133Y-9665326D01*
X8414421Y-9656584D01*
X8406183Y-9650172D01*
X8406180Y-9650169D01*
X8390544Y-9637999D01*
X8386502Y-9634717D01*
X8383589Y-9632250D01*
X8379897Y-9628558D01*
X8375645Y-9625522D01*
X8364073Y-9617260D01*
X8359893Y-9614144D01*
X8353687Y-9609313D01*
X8343779Y-9601602D01*
X8329293Y-9590326D01*
X8329292Y-9590325D01*
X8321056Y-9583915D01*
X8313958Y-9581478D01*
X8307848Y-9577116D01*
X8260655Y-9563066D01*
X8255714Y-9561483D01*
X8209156Y-9545500D01*
X8201651Y-9545500D01*
X8194456Y-9543358D01*
X8145286Y-9545392D01*
X8140078Y-9545500D01*
X4187621Y-9545500D01*
X4119500Y-9525498D01*
X4098526Y-9508595D01*
X3940445Y-9350514D01*
X3906419Y-9288202D01*
X3903540Y-9261419D01*
X3903540Y-7498383D01*
X3923542Y-7430262D01*
X3977198Y-7383769D01*
X4047472Y-7373665D01*
X4106932Y-7398952D01*
X4128944Y-7416085D01*
X4136042Y-7418522D01*
X4142152Y-7422884D01*
X4189345Y-7436934D01*
X4194286Y-7438517D01*
X4240844Y-7454500D01*
X4248349Y-7454500D01*
X4255544Y-7456642D01*
X4304714Y-7454608D01*
X4309922Y-7454500D01*
X5047796Y-7454500D01*
X5115917Y-7474502D01*
X5162410Y-7528158D01*
X5172514Y-7598432D01*
X5162174Y-7633354D01*
X5138560Y-7684450D01*
X5137099Y-7690763D01*
X5136021Y-7695420D01*
X5127880Y-7719348D01*
X5114702Y-7748205D01*
X5110958Y-7756404D01*
X5090312Y-7900000D01*
X5091594Y-7908917D01*
X5095375Y-7935211D01*
X5110958Y-8043596D01*
X5114701Y-8051792D01*
X5142129Y-8111850D01*
X5171223Y-8175558D01*
X5177123Y-8182367D01*
X5177125Y-8182370D01*
X5260324Y-8278386D01*
X5266225Y-8285196D01*
X5273802Y-8290066D01*
X5273805Y-8290068D01*
X5335891Y-8329968D01*
X5388268Y-8363629D01*
X5396912Y-8366167D01*
X5396914Y-8366168D01*
X5518819Y-8401962D01*
X5518821Y-8401962D01*
X5527464Y-8404500D01*
X5672536Y-8404500D01*
X5681179Y-8401962D01*
X5681181Y-8401962D01*
X5803086Y-8366168D01*
X5803088Y-8366167D01*
X5811732Y-8363629D01*
X5864109Y-8329968D01*
X5926195Y-8290068D01*
X5926198Y-8290066D01*
X5933775Y-8285196D01*
X5939676Y-8278386D01*
X6022875Y-8182370D01*
X6022877Y-8182367D01*
X6028777Y-8175558D01*
X6057872Y-8111850D01*
X6085299Y-8051792D01*
X6089042Y-8043596D01*
X6104625Y-7935211D01*
X6108406Y-7908917D01*
X6109688Y-7900000D01*
X6089042Y-7756404D01*
X6072355Y-7719865D01*
X6064477Y-7697051D01*
X6061439Y-7684448D01*
X6021802Y-7598683D01*
X6021624Y-7598311D01*
X6021590Y-7598239D01*
X6018923Y-7592673D01*
X6018707Y-7592221D01*
X6018452Y-7591707D01*
X6015455Y-7585854D01*
X5985253Y-7528663D01*
X5981555Y-7521051D01*
X5974776Y-7505816D01*
X5967145Y-7483027D01*
X5966127Y-7478635D01*
X5963072Y-7457190D01*
X5960033Y-7402418D01*
X5959715Y-7396681D01*
X5958361Y-7391099D01*
X5958360Y-7391090D01*
X5956726Y-7384353D01*
X5954506Y-7370623D01*
X5954500Y-7370624D01*
X5951303Y-7351467D01*
X5950551Y-7346310D01*
X5945753Y-7307814D01*
X5945753Y-7307813D01*
X5944461Y-7297449D01*
X5941164Y-7290706D01*
X5939929Y-7283302D01*
X5916501Y-7240013D01*
X5914117Y-7235381D01*
X5897085Y-7200540D01*
X5897084Y-7200538D01*
X5892499Y-7191160D01*
X5887192Y-7185853D01*
X5883619Y-7179251D01*
X5882934Y-7178621D01*
X5861046Y-7115659D01*
X5877689Y-7046640D01*
X5934034Y-6995115D01*
X6018683Y-6955993D01*
X6018715Y-6955978D01*
X6019100Y-6955800D01*
X6019490Y-6955613D01*
X6019520Y-6955599D01*
X6021651Y-6954578D01*
X6025584Y-6952693D01*
X6026116Y-6952429D01*
X6028214Y-6951355D01*
X6031611Y-6949616D01*
X6031665Y-6949588D01*
X6031946Y-6949444D01*
X6089116Y-6919252D01*
X6096710Y-6915563D01*
X6111977Y-6908770D01*
X6134744Y-6901144D01*
X6139128Y-6900128D01*
X6160587Y-6897070D01*
X6221104Y-6893713D01*
X6226683Y-6892360D01*
X6226690Y-6892359D01*
X6227975Y-6892047D01*
X6232291Y-6891531D01*
X6232387Y-6891517D01*
X6232387Y-6891520D01*
X6257670Y-6888498D01*
X7613102Y-6888498D01*
X7681223Y-6908500D01*
X7727716Y-6962156D01*
X7738909Y-7021474D01*
X7736929Y-7057184D01*
X7733867Y-7078661D01*
X7732851Y-7083044D01*
X7725226Y-7105808D01*
X7718437Y-7121066D01*
X7714746Y-7128663D01*
X7684544Y-7185854D01*
X7681547Y-7191707D01*
X7681292Y-7192221D01*
X7681127Y-7192565D01*
X7681116Y-7192588D01*
X7678373Y-7198315D01*
X7678196Y-7198685D01*
X7638560Y-7284450D01*
X7637099Y-7290763D01*
X7636021Y-7295420D01*
X7627880Y-7319348D01*
X7615545Y-7346359D01*
X7610958Y-7356404D01*
X7606940Y-7384353D01*
X7592754Y-7483019D01*
X7590312Y-7500000D01*
X7591594Y-7508917D01*
X7594434Y-7528667D01*
X7610958Y-7643596D01*
X7614701Y-7651792D01*
X7632361Y-7690461D01*
X7671223Y-7775558D01*
X7677123Y-7782367D01*
X7677125Y-7782370D01*
X7726491Y-7839341D01*
X7766225Y-7885196D01*
X7773802Y-7890066D01*
X7773805Y-7890068D01*
X7837198Y-7930808D01*
X7888268Y-7963629D01*
X7896912Y-7966167D01*
X7896914Y-7966168D01*
X8018819Y-8001962D01*
X8018821Y-8001962D01*
X8027464Y-8004500D01*
X8172536Y-8004500D01*
X8181179Y-8001962D01*
X8181181Y-8001962D01*
X8303086Y-7966168D01*
X8303088Y-7966167D01*
X8311732Y-7963629D01*
X8362802Y-7930808D01*
X8426195Y-7890068D01*
X8426198Y-7890066D01*
X8433775Y-7885196D01*
X8473509Y-7839341D01*
X8522875Y-7782370D01*
X8522877Y-7782367D01*
X8528777Y-7775558D01*
X8567640Y-7690461D01*
X8585299Y-7651792D01*
X8589042Y-7643596D01*
X8605566Y-7528667D01*
X8608406Y-7508917D01*
X8609688Y-7500000D01*
X8607247Y-7483019D01*
X8601967Y-7446300D01*
X8589042Y-7356404D01*
X8572355Y-7319865D01*
X8564477Y-7297051D01*
X8564084Y-7295420D01*
X8561439Y-7284448D01*
X8521802Y-7198683D01*
X8521624Y-7198311D01*
X8521590Y-7198239D01*
X8518923Y-7192673D01*
X8518707Y-7192221D01*
X8518452Y-7191707D01*
X8515455Y-7185854D01*
X8485253Y-7128663D01*
X8481557Y-7121054D01*
X8474775Y-7105814D01*
X8467145Y-7083027D01*
X8466127Y-7078635D01*
X8463072Y-7057190D01*
X8460033Y-7002418D01*
X8459715Y-6996681D01*
X8458049Y-6989810D01*
X8457534Y-6985499D01*
X8457519Y-6985399D01*
X8457522Y-6985399D01*
X8454500Y-6960115D01*
X8454500Y-6849834D01*
X8456876Y-6826919D01*
X8456952Y-6825072D01*
X8459095Y-6814853D01*
X8457429Y-6801481D01*
X8455356Y-6784856D01*
X8454819Y-6779679D01*
X8454500Y-6775829D01*
X8454500Y-6770623D01*
X8451301Y-6751456D01*
X8450551Y-6746310D01*
X8445753Y-6707814D01*
X8445753Y-6707813D01*
X8444461Y-6697449D01*
X8441164Y-6690706D01*
X8439929Y-6683302D01*
X8416480Y-6639971D01*
X8414134Y-6635415D01*
X8392499Y-6591161D01*
X8387193Y-6585855D01*
X8383619Y-6579251D01*
X8347394Y-6545903D01*
X8343637Y-6542298D01*
X8232879Y-6431540D01*
X8119908Y-6318570D01*
X8105384Y-6300685D01*
X8104127Y-6299320D01*
X8098419Y-6290582D01*
X8090185Y-6284173D01*
X8090182Y-6284170D01*
X8074542Y-6271997D01*
X8070500Y-6268715D01*
X8067587Y-6266248D01*
X8063895Y-6262556D01*
X8058130Y-6258440D01*
X8048071Y-6251258D01*
X8043891Y-6248142D01*
X8013291Y-6224324D01*
X8013290Y-6224323D01*
X8005054Y-6217913D01*
X7997956Y-6215476D01*
X7991846Y-6211114D01*
X7944653Y-6197064D01*
X7939712Y-6195481D01*
X7927892Y-6191424D01*
X7869958Y-6150387D01*
X7843406Y-6084543D01*
X7854191Y-6019909D01*
X7885299Y-5951792D01*
X7889042Y-5943596D01*
X7900887Y-5861212D01*
X7908406Y-5808917D01*
X7909688Y-5800000D01*
X7907715Y-5786274D01*
X7890324Y-5665321D01*
X7889042Y-5656404D01*
X7857059Y-5586371D01*
X7832521Y-5532640D01*
X7832521Y-5532639D01*
X7828777Y-5524442D01*
X7822877Y-5517633D01*
X7822875Y-5517630D01*
X7739676Y-5421614D01*
X7733775Y-5414804D01*
X7726198Y-5409934D01*
X7726195Y-5409932D01*
X7619312Y-5341242D01*
X7619310Y-5341241D01*
X7611732Y-5336371D01*
X7602450Y-5333645D01*
X7601128Y-5333257D01*
X7581748Y-5325782D01*
X7579151Y-5324526D01*
X7573868Y-5321295D01*
X7485205Y-5288681D01*
X7478564Y-5286340D01*
X7477980Y-5286143D01*
X7477599Y-5286020D01*
X7477575Y-5286012D01*
X7471941Y-5284192D01*
X7471913Y-5284183D01*
X7471603Y-5284083D01*
X7471327Y-5283998D01*
X7471176Y-5283950D01*
X7409849Y-5265012D01*
X7401845Y-5262243D01*
X7386277Y-5256263D01*
X7364774Y-5245549D01*
X7360952Y-5243165D01*
X7343613Y-5230152D01*
X7319714Y-5208765D01*
X7298952Y-5190186D01*
X7298835Y-5190082D01*
X7298336Y-5189636D01*
X7293442Y-5186655D01*
X7293432Y-5186647D01*
X7292371Y-5186001D01*
X7289203Y-5183510D01*
X7288820Y-5183226D01*
X7288828Y-5183215D01*
X7268833Y-5167494D01*
X7151685Y-5050346D01*
X7137174Y-5032477D01*
X7135909Y-5031102D01*
X7130197Y-5022360D01*
X7121959Y-5015948D01*
X7121956Y-5015945D01*
X7106320Y-5003775D01*
X7102278Y-5000493D01*
X7099365Y-4998026D01*
X7095673Y-4994334D01*
X7080367Y-4983406D01*
X7079849Y-4983036D01*
X7075669Y-4979920D01*
X7045069Y-4956102D01*
X7045068Y-4956101D01*
X7036832Y-4949691D01*
X7029734Y-4947254D01*
X7023624Y-4942892D01*
X7011324Y-4939230D01*
X7001582Y-4936330D01*
X6976431Y-4928842D01*
X6971490Y-4927259D01*
X6924932Y-4911276D01*
X6917427Y-4911276D01*
X6910232Y-4909134D01*
X6861062Y-4911168D01*
X6855854Y-4911276D01*
X6100877Y-4911276D01*
X6076818Y-4908231D01*
X6076769Y-4908550D01*
X6070653Y-4907603D01*
X6064659Y-4906061D01*
X6058486Y-4905719D01*
X6058482Y-4905718D01*
X6021176Y-4903649D01*
X6004151Y-4902705D01*
X5982690Y-4899646D01*
X5978305Y-4898630D01*
X5955525Y-4891001D01*
X5940257Y-4884207D01*
X5932674Y-4880523D01*
X5875479Y-4850319D01*
X5869628Y-4847323D01*
X5869114Y-4847068D01*
X5866289Y-4845715D01*
X5863096Y-4844185D01*
X5863024Y-4844151D01*
X5862652Y-4843973D01*
X5776889Y-4804337D01*
X5776245Y-4804188D01*
X5773069Y-4802147D01*
X5764421Y-4799608D01*
X5764417Y-4799606D01*
X5642518Y-4763814D01*
X5642516Y-4763814D01*
X5633873Y-4761276D01*
X5488801Y-4761276D01*
X5480158Y-4763814D01*
X5480156Y-4763814D01*
X5358251Y-4799608D01*
X5358249Y-4799609D01*
X5349605Y-4802147D01*
X5342026Y-4807018D01*
X5235142Y-4875708D01*
X5235139Y-4875710D01*
X5227562Y-4880580D01*
X5221661Y-4887390D01*
X5138462Y-4983406D01*
X5138460Y-4983409D01*
X5132560Y-4990218D01*
X5128816Y-4998415D01*
X5128816Y-4998416D01*
X5126369Y-5003775D01*
X5072295Y-5122180D01*
X5062815Y-5188114D01*
X5053735Y-5251271D01*
X5051649Y-5265776D01*
X5072295Y-5409372D01*
X5076038Y-5417568D01*
X5128590Y-5532640D01*
X5132560Y-5541334D01*
X5138460Y-5548143D01*
X5138462Y-5548146D01*
X5218531Y-5640550D01*
X5227562Y-5650972D01*
X5235139Y-5655842D01*
X5235142Y-5655844D01*
X5308627Y-5703070D01*
X5349605Y-5729405D01*
X5358249Y-5731943D01*
X5358251Y-5731944D01*
X5480156Y-5767738D01*
X5480158Y-5767738D01*
X5488801Y-5770276D01*
X5633873Y-5770276D01*
X5642516Y-5767738D01*
X5642518Y-5767738D01*
X5764422Y-5731944D01*
X5773069Y-5729405D01*
X5776230Y-5727373D01*
X5776891Y-5727214D01*
X5832291Y-5701610D01*
X5862235Y-5687771D01*
X5862267Y-5687756D01*
X5862652Y-5687578D01*
X5863042Y-5687391D01*
X5863072Y-5687377D01*
X5865203Y-5686356D01*
X5869136Y-5684471D01*
X5869668Y-5684207D01*
X5870376Y-5683844D01*
X5875163Y-5681394D01*
X5875217Y-5681366D01*
X5875498Y-5681222D01*
X5932668Y-5651030D01*
X5940262Y-5647341D01*
X5955529Y-5640548D01*
X5978296Y-5632922D01*
X5982680Y-5631906D01*
X6004139Y-5628848D01*
X6064656Y-5625491D01*
X6070235Y-5624138D01*
X6070242Y-5624137D01*
X6071527Y-5623825D01*
X6075843Y-5623309D01*
X6075939Y-5623295D01*
X6075939Y-5623298D01*
X6101222Y-5620276D01*
X6666747Y-5620276D01*
X6734868Y-5640278D01*
X6755842Y-5657181D01*
X6767818Y-5669157D01*
X6782676Y-5688320D01*
X6782937Y-5688129D01*
X6786587Y-5693117D01*
X6789740Y-5698453D01*
X6800690Y-5710689D01*
X6830153Y-5743614D01*
X6843171Y-5760960D01*
X6845554Y-5764781D01*
X6856261Y-5786272D01*
X6861535Y-5800000D01*
X6862244Y-5801846D01*
X6865014Y-5809852D01*
X6884083Y-5871603D01*
X6886143Y-5877980D01*
X6886340Y-5878564D01*
X6888681Y-5885204D01*
X6921294Y-5973866D01*
X6929358Y-5986786D01*
X6948457Y-6055163D01*
X6927557Y-6123013D01*
X6873292Y-6168793D01*
X6822468Y-6179498D01*
X6257325Y-6179498D01*
X6233266Y-6176453D01*
X6233217Y-6176772D01*
X6227101Y-6175825D01*
X6221107Y-6174283D01*
X6214934Y-6173941D01*
X6214930Y-6173940D01*
X6177624Y-6171871D01*
X6160599Y-6170927D01*
X6139138Y-6167868D01*
X6134753Y-6166852D01*
X6111973Y-6159223D01*
X6096705Y-6152429D01*
X6089122Y-6148745D01*
X6031927Y-6118541D01*
X6026076Y-6115545D01*
X6025562Y-6115290D01*
X6022737Y-6113937D01*
X6019544Y-6112407D01*
X6019472Y-6112373D01*
X6019100Y-6112195D01*
X5933337Y-6072559D01*
X5932693Y-6072410D01*
X5929517Y-6070369D01*
X5920869Y-6067830D01*
X5920865Y-6067828D01*
X5798966Y-6032036D01*
X5798964Y-6032036D01*
X5790321Y-6029498D01*
X5645249Y-6029498D01*
X5636606Y-6032036D01*
X5636604Y-6032036D01*
X5514699Y-6067830D01*
X5514697Y-6067831D01*
X5506053Y-6070369D01*
X5498474Y-6075240D01*
X5391590Y-6143930D01*
X5391587Y-6143932D01*
X5384010Y-6148802D01*
X5378109Y-6155612D01*
X5294910Y-6251628D01*
X5294908Y-6251631D01*
X5289008Y-6258440D01*
X5285264Y-6266637D01*
X5285264Y-6266638D01*
X5274329Y-6290582D01*
X5228743Y-6390402D01*
X5223758Y-6425071D01*
X5215648Y-6481483D01*
X5208097Y-6533998D01*
X5209379Y-6542915D01*
X5209379Y-6542916D01*
X5217812Y-6601569D01*
X5207708Y-6671842D01*
X5161215Y-6725498D01*
X5093094Y-6745500D01*
X4499029Y-6745500D01*
X4430908Y-6725498D01*
X4409934Y-6708595D01*
X4289965Y-6588626D01*
X4255939Y-6526314D01*
X4253060Y-6499531D01*
X4253060Y-2873330D01*
X4256255Y-2846850D01*
X4256883Y-2845065D01*
X4259665Y-2825614D01*
X4284114Y-2654631D01*
X4305256Y-2506778D01*
X4305579Y-2504654D01*
X4306845Y-2496787D01*
X4354662Y-2199463D01*
X4355134Y-2196724D01*
X4355381Y-2195383D01*
X4385467Y-2031645D01*
X4393705Y-1986813D01*
X4425688Y-1923429D01*
X4486863Y-1887398D01*
X4557806Y-1890161D01*
G37*
G04 #@! TD.AperFunction*
G04 #@! TA.AperFunction,Conductor*
G36*
X20562571Y-11131526D02*
G01*
X20619407Y-11174073D01*
X20644218Y-11240593D01*
X20644539Y-11249582D01*
X20644539Y-12866430D01*
X20643747Y-12880537D01*
X20639726Y-12916225D01*
X20641481Y-12925500D01*
X20641481Y-12925502D01*
X20650444Y-12972876D01*
X20651232Y-12977518D01*
X20658416Y-13025176D01*
X20658418Y-13025181D01*
X20659825Y-13034518D01*
X20663586Y-13042329D01*
X20665198Y-13050846D01*
X20669609Y-13059192D01*
X20669610Y-13059195D01*
X20692133Y-13101810D01*
X20694256Y-13106015D01*
X20719272Y-13157960D01*
X20725168Y-13164315D01*
X20729219Y-13171979D01*
X20769961Y-13212721D01*
X20773231Y-13216114D01*
X20801816Y-13246921D01*
X20812462Y-13258395D01*
X20818532Y-13261899D01*
X20824248Y-13267008D01*
X21108595Y-13551355D01*
X21142621Y-13613667D01*
X21145500Y-13640450D01*
X21145500Y-14686735D01*
X21125498Y-14754856D01*
X21071842Y-14801349D01*
X21001568Y-14811453D01*
X20936988Y-14781959D01*
X20924279Y-14769251D01*
X20833775Y-14664804D01*
X20826198Y-14659934D01*
X20826195Y-14659932D01*
X20719311Y-14591242D01*
X20711732Y-14586371D01*
X20703088Y-14583833D01*
X20703086Y-14583832D01*
X20581181Y-14548038D01*
X20581179Y-14548038D01*
X20572536Y-14545500D01*
X20427464Y-14545500D01*
X20365037Y-14563830D01*
X20294042Y-14563830D01*
X20234316Y-14525447D01*
X20204823Y-14460866D01*
X20203540Y-14442934D01*
X20203540Y-11438582D01*
X20223542Y-11370461D01*
X20240444Y-11349487D01*
X20317752Y-11272179D01*
X20429444Y-11160486D01*
X20491755Y-11126462D01*
X20562571Y-11131526D01*
G37*
G04 #@! TD.AperFunction*
G04 #@! TA.AperFunction,Conductor*
G36*
X21813532Y-6833394D02*
G01*
X21870368Y-6875941D01*
X21895179Y-6942461D01*
X21895500Y-6951450D01*
X21895500Y-11710460D01*
X21892455Y-11734519D01*
X21892774Y-11734568D01*
X21891827Y-11740684D01*
X21890285Y-11746678D01*
X21889943Y-11752851D01*
X21889942Y-11752855D01*
X21889212Y-11766013D01*
X21887511Y-11796698D01*
X21886929Y-11807186D01*
X21883867Y-11828661D01*
X21882851Y-11833044D01*
X21875226Y-11855808D01*
X21868437Y-11871066D01*
X21864746Y-11878663D01*
X21834544Y-11935854D01*
X21831547Y-11941707D01*
X21831292Y-11942221D01*
X21828196Y-11948685D01*
X21828026Y-11949054D01*
X21828017Y-11949072D01*
X21793915Y-12022863D01*
X21747181Y-12076308D01*
X21678971Y-12096003D01*
X21610941Y-12075694D01*
X21564691Y-12021829D01*
X21553539Y-11970004D01*
X21553539Y-7572960D01*
X21553862Y-7568652D01*
X21554500Y-7566583D01*
X21554500Y-7508946D01*
X21554588Y-7504235D01*
X21556391Y-7456053D01*
X21556391Y-7456052D01*
X21556744Y-7446616D01*
X21554930Y-7439844D01*
X21554500Y-7432192D01*
X21554500Y-7040450D01*
X21574502Y-6972329D01*
X21591405Y-6951355D01*
X21680405Y-6862355D01*
X21742717Y-6828329D01*
X21813532Y-6833394D01*
G37*
G04 #@! TD.AperFunction*
G04 #@! TA.AperFunction,Conductor*
G36*
X12567745Y-1874035D02*
G01*
X12612250Y-1920425D01*
X12668191Y-2021212D01*
X12668194Y-2021216D01*
X12671292Y-2026798D01*
X12804364Y-2181809D01*
X12860500Y-2225262D01*
X12960859Y-2302945D01*
X12960862Y-2302947D01*
X12965916Y-2306859D01*
X12971655Y-2309674D01*
X12971658Y-2309676D01*
X13060761Y-2353383D01*
X13149333Y-2396830D01*
X13155515Y-2398431D01*
X13155516Y-2398431D01*
X13340925Y-2446437D01*
X13340929Y-2446438D01*
X13347106Y-2448037D01*
X13551139Y-2458384D01*
X13557451Y-2457417D01*
X13557452Y-2457417D01*
X13616572Y-2448360D01*
X13753079Y-2427448D01*
X13759068Y-2425230D01*
X13938666Y-2358714D01*
X13938667Y-2358713D01*
X13944657Y-2356495D01*
X14118031Y-2248430D01*
X14122662Y-2244028D01*
X14122667Y-2244024D01*
X14254600Y-2118614D01*
X14317754Y-2086178D01*
X14388419Y-2093036D01*
X14443345Y-2135877D01*
X14545482Y-2276456D01*
X14552896Y-2284942D01*
X14708390Y-2433611D01*
X14717200Y-2440637D01*
X14896737Y-2559147D01*
X14906673Y-2564494D01*
X15104477Y-2649039D01*
X15115203Y-2652524D01*
X15324935Y-2700395D01*
X15336107Y-2701908D01*
X15551017Y-2711559D01*
X15562271Y-2711054D01*
X15775461Y-2682176D01*
X15786441Y-2679669D01*
X15991046Y-2613189D01*
X16001404Y-2608762D01*
X16190848Y-2506818D01*
X16200251Y-2500612D01*
X16368450Y-2366477D01*
X16376587Y-2358696D01*
X16405233Y-2325908D01*
X16465115Y-2287768D01*
X16536111Y-2288057D01*
X16587195Y-2317736D01*
X16708390Y-2433611D01*
X16717200Y-2440637D01*
X16896737Y-2559147D01*
X16906673Y-2564494D01*
X17104477Y-2649039D01*
X17115203Y-2652524D01*
X17324935Y-2700395D01*
X17336107Y-2701908D01*
X17551017Y-2711559D01*
X17562271Y-2711054D01*
X17775461Y-2682176D01*
X17786441Y-2679669D01*
X17991046Y-2613189D01*
X18001404Y-2608762D01*
X18190848Y-2506818D01*
X18200251Y-2500612D01*
X18368450Y-2366477D01*
X18376594Y-2358690D01*
X18518131Y-2196687D01*
X18524760Y-2187564D01*
X18551761Y-2142372D01*
X18603871Y-2094153D01*
X18673778Y-2081761D01*
X18739287Y-2109130D01*
X18755530Y-2124924D01*
X18770509Y-2142372D01*
X18804364Y-2181809D01*
X18860500Y-2225262D01*
X18960859Y-2302945D01*
X18960862Y-2302947D01*
X18965916Y-2306859D01*
X18971655Y-2309674D01*
X18971658Y-2309676D01*
X19060761Y-2353383D01*
X19149333Y-2396830D01*
X19155515Y-2398431D01*
X19155516Y-2398431D01*
X19340925Y-2446437D01*
X19340929Y-2446438D01*
X19347106Y-2448037D01*
X19551139Y-2458384D01*
X19557451Y-2457417D01*
X19557452Y-2457417D01*
X19616572Y-2448360D01*
X19753079Y-2427448D01*
X19759068Y-2425230D01*
X19938666Y-2358714D01*
X19938667Y-2358713D01*
X19944657Y-2356495D01*
X19950080Y-2353115D01*
X19955816Y-2350301D01*
X19956399Y-2351489D01*
X20018082Y-2334303D01*
X20085918Y-2355248D01*
X20131663Y-2409543D01*
X20140791Y-2479951D01*
X20130947Y-2512634D01*
X20110958Y-2556404D01*
X20090312Y-2700000D01*
X20091594Y-2708917D01*
X20095186Y-2733897D01*
X20110958Y-2843596D01*
X20114701Y-2851792D01*
X20154633Y-2939230D01*
X20171223Y-2975558D01*
X20177123Y-2982367D01*
X20177125Y-2982370D01*
X20257194Y-3074774D01*
X20266225Y-3085196D01*
X20273802Y-3090066D01*
X20273805Y-3090068D01*
X20333709Y-3128566D01*
X20388268Y-3163629D01*
X20396912Y-3166167D01*
X20396914Y-3166168D01*
X20518819Y-3201962D01*
X20518821Y-3201962D01*
X20527464Y-3204500D01*
X20672536Y-3204500D01*
X20681179Y-3201962D01*
X20681181Y-3201962D01*
X20803085Y-3166168D01*
X20811732Y-3163629D01*
X20814893Y-3161597D01*
X20815554Y-3161438D01*
X20865975Y-3138135D01*
X20900898Y-3121995D01*
X20900930Y-3121980D01*
X20901315Y-3121802D01*
X20901705Y-3121615D01*
X20901735Y-3121601D01*
X20903866Y-3120580D01*
X20907799Y-3118695D01*
X20908331Y-3118431D01*
X20909039Y-3118068D01*
X20913826Y-3115618D01*
X20913880Y-3115590D01*
X20914161Y-3115446D01*
X20971331Y-3085254D01*
X20978925Y-3081565D01*
X20994192Y-3074772D01*
X21016959Y-3067146D01*
X21021343Y-3066130D01*
X21042802Y-3063072D01*
X21103319Y-3059715D01*
X21108898Y-3058362D01*
X21108905Y-3058361D01*
X21110190Y-3058049D01*
X21114506Y-3057533D01*
X21114602Y-3057519D01*
X21114602Y-3057522D01*
X21139885Y-3054500D01*
X21600971Y-3054500D01*
X21669092Y-3074502D01*
X21690066Y-3091405D01*
X21858595Y-3259934D01*
X21892621Y-3322246D01*
X21895500Y-3349029D01*
X21895500Y-3569500D01*
X21875498Y-3637621D01*
X21821842Y-3684114D01*
X21769500Y-3695500D01*
X21627464Y-3695500D01*
X21618821Y-3698038D01*
X21618819Y-3698038D01*
X21496914Y-3733832D01*
X21496912Y-3733833D01*
X21488268Y-3736371D01*
X21475380Y-3744654D01*
X21373805Y-3809932D01*
X21373802Y-3809934D01*
X21366225Y-3814804D01*
X21360324Y-3821614D01*
X21277125Y-3917630D01*
X21277123Y-3917633D01*
X21271223Y-3924442D01*
X21210958Y-4056404D01*
X21190312Y-4200000D01*
X21191594Y-4208918D01*
X21191594Y-4217929D01*
X21191255Y-4217929D01*
X21191421Y-4221784D01*
X21191235Y-4222981D01*
X21191493Y-4229158D01*
X21191493Y-4229163D01*
X21194556Y-4302413D01*
X21195903Y-4334626D01*
X21196757Y-4347442D01*
X21196862Y-4348589D01*
X21198330Y-4361212D01*
X21210606Y-4448155D01*
X21211702Y-4455219D01*
X21211805Y-4455827D01*
X21212989Y-4462311D01*
X21213069Y-4462717D01*
X21213076Y-4462757D01*
X21217342Y-4484557D01*
X21225770Y-4527635D01*
X21226873Y-4534183D01*
X21231612Y-4567745D01*
X21235194Y-4593116D01*
X21236320Y-4605458D01*
X21240258Y-4699630D01*
X21242022Y-4707240D01*
X21242247Y-4708212D01*
X21245500Y-4736657D01*
X21245500Y-5163702D01*
X21242566Y-5188221D01*
X21242582Y-5188223D01*
X21242477Y-5188970D01*
X21241944Y-5193427D01*
X21240258Y-5200369D01*
X21240000Y-5206546D01*
X21239999Y-5206551D01*
X21236320Y-5294539D01*
X21235194Y-5306877D01*
X21226871Y-5365822D01*
X21225772Y-5372349D01*
X21212989Y-5437684D01*
X21211770Y-5444376D01*
X21211667Y-5444987D01*
X21210606Y-5451843D01*
X21210543Y-5452290D01*
X21210538Y-5452323D01*
X21199128Y-5533136D01*
X21198330Y-5538785D01*
X21198239Y-5539567D01*
X21198237Y-5539583D01*
X21197549Y-5545500D01*
X21196862Y-5551409D01*
X21196757Y-5552556D01*
X21195903Y-5565371D01*
X21195870Y-5566164D01*
X21190785Y-5687771D01*
X21190747Y-5688669D01*
X21190543Y-5698390D01*
X21190312Y-5700000D01*
X21190543Y-5701610D01*
X21190747Y-5711331D01*
X21190772Y-5711930D01*
X21190773Y-5711961D01*
X21192251Y-5747294D01*
X21195903Y-5834627D01*
X21196757Y-5847442D01*
X21196862Y-5848589D01*
X21198330Y-5861212D01*
X21210606Y-5948155D01*
X21211702Y-5955219D01*
X21211805Y-5955827D01*
X21212989Y-5962311D01*
X21213516Y-5965002D01*
X21206962Y-6035696D01*
X21178954Y-6078286D01*
X20989473Y-6267766D01*
X20801674Y-6455565D01*
X20791139Y-6464980D01*
X20770444Y-6481483D01*
X20770442Y-6481486D01*
X20763064Y-6487369D01*
X20730582Y-6535013D01*
X20727883Y-6538817D01*
X20693631Y-6585227D01*
X20690768Y-6593408D01*
X20685884Y-6600572D01*
X20684455Y-6605203D01*
X20638511Y-6656096D01*
X20569998Y-6674709D01*
X20502298Y-6653326D01*
X20483465Y-6637830D01*
X19440925Y-5595290D01*
X19406899Y-5532978D01*
X19404020Y-5506195D01*
X19404020Y-4810764D01*
X19406396Y-4787849D01*
X19406472Y-4786002D01*
X19408615Y-4775783D01*
X19407124Y-4763814D01*
X19404876Y-4745786D01*
X19404339Y-4740609D01*
X19404020Y-4736759D01*
X19404020Y-4731553D01*
X19400821Y-4712386D01*
X19400071Y-4707240D01*
X19395273Y-4668744D01*
X19395273Y-4668743D01*
X19393981Y-4658379D01*
X19390684Y-4651636D01*
X19389449Y-4644232D01*
X19366021Y-4600943D01*
X19363637Y-4596311D01*
X19346605Y-4561470D01*
X19346604Y-4561468D01*
X19342019Y-4552090D01*
X19336712Y-4546783D01*
X19333139Y-4540181D01*
X19323063Y-4530905D01*
X19296924Y-4506843D01*
X19293165Y-4503236D01*
X18024499Y-3234568D01*
X18009986Y-3216697D01*
X18008727Y-3215329D01*
X18003014Y-3206585D01*
X17994776Y-3200173D01*
X17994773Y-3200170D01*
X17979137Y-3188000D01*
X17975095Y-3184718D01*
X17972182Y-3182251D01*
X17968490Y-3178559D01*
X17964238Y-3175523D01*
X17952666Y-3167261D01*
X17948486Y-3164145D01*
X17945213Y-3161597D01*
X17909649Y-3133916D01*
X17902551Y-3131479D01*
X17896441Y-3127117D01*
X17879237Y-3121995D01*
X17869045Y-3118961D01*
X17849248Y-3113067D01*
X17844307Y-3111484D01*
X17797749Y-3095501D01*
X17790244Y-3095501D01*
X17783049Y-3093359D01*
X17733879Y-3095393D01*
X17728671Y-3095501D01*
X17393084Y-3095501D01*
X10649029Y-3095500D01*
X10580908Y-3075498D01*
X10559934Y-3058595D01*
X10221882Y-2720543D01*
X10187856Y-2658231D01*
X10188159Y-2603312D01*
X10201395Y-2545534D01*
X10202270Y-2541952D01*
X10259826Y-2320671D01*
X10261111Y-2316089D01*
X10265065Y-2302945D01*
X10317009Y-2130290D01*
X10318978Y-2124296D01*
X10371973Y-1975740D01*
X10375237Y-1967516D01*
X10384993Y-1945247D01*
X10389219Y-1935600D01*
X10434874Y-1881233D01*
X10502676Y-1860177D01*
X10571099Y-1879121D01*
X10614797Y-1925014D01*
X10668191Y-2021212D01*
X10668194Y-2021216D01*
X10671292Y-2026798D01*
X10804364Y-2181809D01*
X10860500Y-2225262D01*
X10960859Y-2302945D01*
X10960862Y-2302947D01*
X10965916Y-2306859D01*
X10971655Y-2309674D01*
X10971658Y-2309676D01*
X11060761Y-2353383D01*
X11149333Y-2396830D01*
X11155515Y-2398431D01*
X11155516Y-2398431D01*
X11340925Y-2446437D01*
X11340929Y-2446438D01*
X11347106Y-2448037D01*
X11551139Y-2458384D01*
X11557451Y-2457417D01*
X11557452Y-2457417D01*
X11616572Y-2448360D01*
X11753079Y-2427448D01*
X11759068Y-2425230D01*
X11938666Y-2358714D01*
X11938667Y-2358713D01*
X11944657Y-2356495D01*
X12118031Y-2248430D01*
X12130717Y-2236371D01*
X12261475Y-2112078D01*
X12261479Y-2112074D01*
X12266103Y-2107678D01*
X12276295Y-2093036D01*
X12379158Y-1945247D01*
X12382810Y-1940000D01*
X12386294Y-1931882D01*
X12387153Y-1930843D01*
X12388432Y-1928539D01*
X12388862Y-1928777D01*
X12431540Y-1877171D01*
X12499182Y-1855606D01*
X12567745Y-1874035D01*
G37*
G04 #@! TD.AperFunction*
G04 #@! TA.AperFunction,Conductor*
G36*
X15875640Y-120502D02*
G01*
X15896614Y-137404D01*
X16292403Y-533192D01*
X16315859Y-546000D01*
X16676674Y-546000D01*
X16685948Y-543277D01*
X17420513Y-543277D01*
X17427814Y-546000D01*
X17568675Y-546000D01*
X17579700Y-542763D01*
X17576462Y-535672D01*
X17512812Y-472022D01*
X17498868Y-464408D01*
X17497035Y-464539D01*
X17490420Y-468790D01*
X17426022Y-533188D01*
X17420513Y-543277D01*
X16685948Y-543277D01*
X16702319Y-538470D01*
X17103386Y-137404D01*
X17165698Y-103379D01*
X17192481Y-100500D01*
X17807519Y-100500D01*
X17875640Y-120502D01*
X17896614Y-137404D01*
X18458595Y-699384D01*
X18492620Y-761697D01*
X18495500Y-788480D01*
X18495500Y-887960D01*
X18475498Y-956081D01*
X18458595Y-977055D01*
X18417825Y-1017825D01*
X18327314Y-1108335D01*
X18265002Y-1142361D01*
X18194187Y-1137296D01*
X18149124Y-1108335D01*
X17766812Y-726023D01*
X17756724Y-720514D01*
X17754000Y-727817D01*
X17754000Y-928000D01*
X17733998Y-996121D01*
X17680342Y-1042614D01*
X17628000Y-1054000D01*
X16923326Y-1054000D01*
X16897681Y-1061530D01*
X16850876Y-1108335D01*
X16788564Y-1142361D01*
X16717749Y-1137296D01*
X16672686Y-1108335D01*
X16631160Y-1066809D01*
X16607702Y-1054000D01*
X16399765Y-1054000D01*
X16374118Y-1061531D01*
X16327314Y-1108335D01*
X16265002Y-1142361D01*
X16194187Y-1137296D01*
X16149124Y-1108335D01*
X16107601Y-1066812D01*
X16084139Y-1054000D01*
X15028000Y-1054000D01*
X14959879Y-1033998D01*
X14913386Y-980342D01*
X14902000Y-928000D01*
X14902000Y-672000D01*
X14922002Y-603879D01*
X14975658Y-557386D01*
X15028000Y-546000D01*
X15568675Y-546000D01*
X15579700Y-542763D01*
X15576462Y-535672D01*
X15356385Y-315595D01*
X15322359Y-253283D01*
X15327424Y-182468D01*
X15369971Y-125632D01*
X15436491Y-100821D01*
X15445480Y-100500D01*
X15807519Y-100500D01*
X15875640Y-120502D01*
G37*
G04 #@! TD.AperFunction*
G04 #@! TA.AperFunction,Conductor*
G36*
X4242365Y-1453933D02*
G01*
X4246324Y-1461965D01*
X4245981Y-1465637D01*
X4199711Y-1645675D01*
X4149423Y-1880350D01*
X4149398Y-1880485D01*
X4149393Y-1880511D01*
X4099151Y-2153937D01*
X4099129Y-2154061D01*
X4048847Y-2466700D01*
X4048838Y-2466763D01*
X3999996Y-2808332D01*
X3995433Y-2816037D01*
X3988414Y-2818376D01*
X3804674Y-2818376D01*
X3796401Y-2814949D01*
X3795069Y-2813357D01*
X3632906Y-2580222D01*
X3632900Y-2580214D01*
X3632781Y-2580043D01*
X3467003Y-2377073D01*
X3301225Y-2209463D01*
X3231731Y-2154025D01*
X3135783Y-2077484D01*
X3135447Y-2077216D01*
X3135081Y-2077002D01*
X3135078Y-2077000D01*
X3072542Y-2040452D01*
X2983437Y-1988376D01*
X2978025Y-1981244D01*
X2979241Y-1972372D01*
X2981479Y-1969612D01*
X3496976Y-1501745D01*
X3504076Y-1498734D01*
X4233886Y-1451053D01*
X4242365Y-1453933D01*
G37*
G04 #@! TD.AperFunction*
G04 #@! TA.AperFunction,Conductor*
G36*
X5697204Y-7403427D02*
G01*
X5700613Y-7411052D01*
X5705813Y-7504804D01*
X5722680Y-7577582D01*
X5749737Y-7638392D01*
X5785987Y-7707035D01*
X5786242Y-7707549D01*
X5815189Y-7770183D01*
X5825879Y-7793314D01*
X5826239Y-7802261D01*
X5819776Y-7809014D01*
X5716446Y-7852262D01*
X5604517Y-7899109D01*
X5595483Y-7899109D01*
X5483554Y-7852262D01*
X5380224Y-7809014D01*
X5373916Y-7802660D01*
X5374121Y-7793314D01*
X5387960Y-7763368D01*
X5413757Y-7707549D01*
X5414012Y-7707035D01*
X5450262Y-7638392D01*
X5477319Y-7577582D01*
X5494186Y-7504804D01*
X5499387Y-7411052D01*
X5503267Y-7402981D01*
X5511069Y-7400000D01*
X5688931Y-7400000D01*
X5697204Y-7403427D01*
G37*
G04 #@! TD.AperFunction*
G04 #@! TA.AperFunction,Conductor*
G36*
X7125405Y-5383117D02*
G01*
X7125904Y-5383563D01*
X7195376Y-5445732D01*
X7258764Y-5485268D01*
X7259282Y-5485467D01*
X7259284Y-5485468D01*
X7286140Y-5495784D01*
X7320895Y-5509135D01*
X7321087Y-5509194D01*
X7321089Y-5509195D01*
X7395035Y-5532030D01*
X7395619Y-5532227D01*
X7484282Y-5564841D01*
X7490863Y-5570913D01*
X7491068Y-5580258D01*
X7402564Y-5796175D01*
X7396175Y-5802564D01*
X7180258Y-5891068D01*
X7171304Y-5891035D01*
X7164840Y-5884281D01*
X7134099Y-5800707D01*
X7132227Y-5795619D01*
X7132030Y-5795035D01*
X7109195Y-5721089D01*
X7109194Y-5721087D01*
X7109135Y-5720895D01*
X7085268Y-5658764D01*
X7045732Y-5595376D01*
X6989046Y-5532030D01*
X6983117Y-5525405D01*
X6980154Y-5516955D01*
X6983563Y-5509330D01*
X7109330Y-5383563D01*
X7117603Y-5380136D01*
X7125405Y-5383117D01*
G37*
G04 #@! TD.AperFunction*
G04 #@! TA.AperFunction,Conductor*
G36*
X5668023Y-5039897D02*
G01*
X5681231Y-5046001D01*
X5753786Y-5079533D01*
X5754300Y-5079788D01*
X5795126Y-5101348D01*
X5822767Y-5115945D01*
X5822778Y-5115950D01*
X5822944Y-5116038D01*
X5883753Y-5143095D01*
X5906608Y-5148392D01*
X5956043Y-5159849D01*
X5956047Y-5159850D01*
X5956532Y-5159962D01*
X5957034Y-5159990D01*
X5957035Y-5159990D01*
X6050285Y-5165163D01*
X6058356Y-5169043D01*
X6061337Y-5176845D01*
X6061337Y-5354707D01*
X6057910Y-5362980D01*
X6050285Y-5366389D01*
X5957035Y-5371561D01*
X5957034Y-5371561D01*
X5956532Y-5371589D01*
X5956047Y-5371701D01*
X5956043Y-5371702D01*
X5906608Y-5383159D01*
X5883753Y-5388456D01*
X5822944Y-5415513D01*
X5822778Y-5415601D01*
X5822767Y-5415606D01*
X5785453Y-5435312D01*
X5754316Y-5451755D01*
X5753784Y-5452019D01*
X5668023Y-5491655D01*
X5659076Y-5492015D01*
X5652322Y-5485551D01*
X5638237Y-5451897D01*
X5601021Y-5362980D01*
X5562228Y-5270293D01*
X5562228Y-5261259D01*
X5611684Y-5143095D01*
X5652323Y-5046000D01*
X5658677Y-5039692D01*
X5668023Y-5039897D01*
G37*
G04 #@! TD.AperFunction*
G04 #@! TA.AperFunction,Conductor*
G36*
X8197204Y-7003427D02*
G01*
X8200613Y-7011052D01*
X8205813Y-7104804D01*
X8222680Y-7177582D01*
X8249737Y-7238392D01*
X8285987Y-7307035D01*
X8286242Y-7307549D01*
X8315189Y-7370183D01*
X8325879Y-7393314D01*
X8326239Y-7402261D01*
X8319776Y-7409014D01*
X8216446Y-7452262D01*
X8104517Y-7499109D01*
X8095483Y-7499109D01*
X7983554Y-7452262D01*
X7880224Y-7409014D01*
X7873916Y-7402660D01*
X7874121Y-7393314D01*
X7887960Y-7363368D01*
X7913757Y-7307549D01*
X7914012Y-7307035D01*
X7950262Y-7238392D01*
X7977319Y-7177582D01*
X7994186Y-7104804D01*
X7999387Y-7011052D01*
X8003267Y-7002981D01*
X8011069Y-7000000D01*
X8188931Y-7000000D01*
X8197204Y-7003427D01*
G37*
G04 #@! TD.AperFunction*
G04 #@! TA.AperFunction,Conductor*
G36*
X5824471Y-6308119D02*
G01*
X5837679Y-6314223D01*
X5910234Y-6347755D01*
X5910748Y-6348010D01*
X5951574Y-6369570D01*
X5979215Y-6384167D01*
X5979226Y-6384172D01*
X5979392Y-6384260D01*
X6040201Y-6411317D01*
X6063056Y-6416614D01*
X6112491Y-6428071D01*
X6112495Y-6428072D01*
X6112980Y-6428184D01*
X6113482Y-6428212D01*
X6113483Y-6428212D01*
X6206733Y-6433385D01*
X6214804Y-6437265D01*
X6217785Y-6445067D01*
X6217785Y-6622929D01*
X6214358Y-6631202D01*
X6206733Y-6634611D01*
X6113483Y-6639783D01*
X6113482Y-6639783D01*
X6112980Y-6639811D01*
X6112495Y-6639923D01*
X6112491Y-6639924D01*
X6063056Y-6651381D01*
X6040201Y-6656678D01*
X5979392Y-6683735D01*
X5979226Y-6683823D01*
X5979215Y-6683828D01*
X5941901Y-6703534D01*
X5910764Y-6719977D01*
X5910232Y-6720241D01*
X5824471Y-6759877D01*
X5815524Y-6760237D01*
X5808770Y-6753773D01*
X5794685Y-6720119D01*
X5757469Y-6631202D01*
X5718676Y-6538515D01*
X5718676Y-6529481D01*
X5768132Y-6411317D01*
X5808771Y-6314222D01*
X5815125Y-6307914D01*
X5824471Y-6308119D01*
G37*
G04 #@! TD.AperFunction*
G04 #@! TA.AperFunction,Conductor*
G36*
X14796175Y-13747436D02*
G01*
X14802564Y-13753824D01*
X14803031Y-13754963D01*
X14884872Y-13954623D01*
X14891068Y-13969740D01*
X14891035Y-13978695D01*
X14884281Y-13985159D01*
X14795622Y-14017770D01*
X14795039Y-14017967D01*
X14720895Y-14040864D01*
X14658764Y-14064730D01*
X14595376Y-14104266D01*
X14594998Y-14104604D01*
X14594997Y-14104605D01*
X14525405Y-14166883D01*
X14516955Y-14169846D01*
X14509330Y-14166437D01*
X14383563Y-14040670D01*
X14380136Y-14032397D01*
X14383117Y-14024595D01*
X14445393Y-13955002D01*
X14445394Y-13955001D01*
X14445732Y-13954623D01*
X14485268Y-13891234D01*
X14509135Y-13829104D01*
X14532031Y-13754959D01*
X14532228Y-13754376D01*
X14564840Y-13665719D01*
X14570913Y-13659137D01*
X14580258Y-13658932D01*
X14796175Y-13747436D01*
G37*
G04 #@! TD.AperFunction*
G04 #@! TA.AperFunction,Conductor*
G36*
X18259014Y-18330224D02*
G01*
X18299653Y-18427319D01*
X18349109Y-18545483D01*
X18349109Y-18554517D01*
X18310513Y-18646733D01*
X18273046Y-18736252D01*
X18259015Y-18769775D01*
X18252660Y-18776084D01*
X18243314Y-18775879D01*
X18220183Y-18765189D01*
X18157549Y-18736242D01*
X18157035Y-18735987D01*
X18116207Y-18714426D01*
X18088569Y-18699830D01*
X18088558Y-18699825D01*
X18088392Y-18699737D01*
X18027582Y-18672680D01*
X18004622Y-18667359D01*
X17955293Y-18655926D01*
X17955289Y-18655925D01*
X17954804Y-18655813D01*
X17954302Y-18655785D01*
X17954301Y-18655785D01*
X17861052Y-18650613D01*
X17852981Y-18646733D01*
X17850000Y-18638931D01*
X17850000Y-18461069D01*
X17853427Y-18452796D01*
X17861052Y-18449387D01*
X17954301Y-18444214D01*
X17954302Y-18444214D01*
X17954804Y-18444186D01*
X17955289Y-18444074D01*
X17955293Y-18444073D01*
X18004622Y-18432640D01*
X18027582Y-18427319D01*
X18088392Y-18400262D01*
X18088558Y-18400174D01*
X18088569Y-18400169D01*
X18116207Y-18385573D01*
X18157035Y-18364012D01*
X18157549Y-18363757D01*
X18230106Y-18330225D01*
X18243314Y-18324121D01*
X18252261Y-18323761D01*
X18259014Y-18330224D01*
G37*
G04 #@! TD.AperFunction*
G04 #@! TA.AperFunction,Conductor*
G36*
X12658913Y-15930297D02*
G01*
X12667061Y-15952448D01*
X12667770Y-15954376D01*
X12667967Y-15954959D01*
X12690864Y-16029104D01*
X12714730Y-16091234D01*
X12754266Y-16154623D01*
X12754604Y-16155001D01*
X12754605Y-16155002D01*
X12816883Y-16224595D01*
X12819846Y-16233045D01*
X12816437Y-16240670D01*
X12690670Y-16366437D01*
X12682397Y-16369864D01*
X12674595Y-16366883D01*
X12605002Y-16304605D01*
X12605001Y-16304604D01*
X12604623Y-16304266D01*
X12541234Y-16264730D01*
X12479104Y-16240864D01*
X12404959Y-16217967D01*
X12404376Y-16217770D01*
X12315718Y-16185159D01*
X12309137Y-16179088D01*
X12308932Y-16169742D01*
X12398000Y-15952448D01*
X12398883Y-15950294D01*
X12399293Y-15949293D01*
X12630970Y-15854329D01*
X12658913Y-15930297D01*
G37*
G04 #@! TD.AperFunction*
G04 #@! TA.AperFunction,Conductor*
G36*
X14347052Y-10453427D02*
G01*
X14350469Y-10461210D01*
X14355200Y-10574358D01*
X14367600Y-10662179D01*
X14367630Y-10662330D01*
X14382340Y-10737513D01*
X14382443Y-10738124D01*
X14394719Y-10825066D01*
X14394824Y-10826213D01*
X14399492Y-10937860D01*
X14396414Y-10946269D01*
X14387850Y-10950049D01*
X14150000Y-10951000D01*
X13912150Y-10950049D01*
X13903892Y-10946589D01*
X13900508Y-10937860D01*
X13905176Y-10826213D01*
X13905281Y-10825066D01*
X13917557Y-10738124D01*
X13917660Y-10737513D01*
X13932370Y-10662330D01*
X13932400Y-10662179D01*
X13944800Y-10574358D01*
X13949531Y-10461210D01*
X13953301Y-10453088D01*
X13961221Y-10450000D01*
X14338779Y-10450000D01*
X14347052Y-10453427D01*
G37*
G04 #@! TD.AperFunction*
G04 #@! TA.AperFunction,Conductor*
G36*
X12597434Y-15477063D02*
G01*
X12723815Y-15603444D01*
X12727242Y-15611717D01*
X12724993Y-15618614D01*
X12668089Y-15696595D01*
X12652133Y-15772489D01*
X12652191Y-15773302D01*
X12652191Y-15773303D01*
X12657564Y-15848545D01*
X12657592Y-15849187D01*
X12659012Y-15936371D01*
X12630970Y-16045671D01*
X12399293Y-15950707D01*
X12231754Y-15781822D01*
X12228360Y-15773536D01*
X12232114Y-15764996D01*
X12309398Y-15693480D01*
X12310214Y-15692791D01*
X12376146Y-15642115D01*
X12376611Y-15641775D01*
X12421694Y-15610525D01*
X12436317Y-15600389D01*
X12461556Y-15580990D01*
X12502701Y-15549367D01*
X12502709Y-15549360D01*
X12502911Y-15549205D01*
X12503108Y-15549023D01*
X12581215Y-15476748D01*
X12589614Y-15473645D01*
X12597434Y-15477063D01*
G37*
G04 #@! TD.AperFunction*
G04 #@! TA.AperFunction,Conductor*
G36*
X16231849Y-8481780D02*
G01*
X16386754Y-8635451D01*
X16400674Y-8649260D01*
X16400740Y-8649326D01*
X16568219Y-8818151D01*
X16571613Y-8826438D01*
X16567833Y-8835003D01*
X16485589Y-8910644D01*
X16484704Y-8911381D01*
X16414547Y-8964177D01*
X16414046Y-8964534D01*
X16350346Y-9007386D01*
X16279479Y-9060716D01*
X16196494Y-9137041D01*
X16196127Y-9137379D01*
X16187718Y-9140458D01*
X16179934Y-9137041D01*
X15912959Y-8870066D01*
X15909532Y-8861793D01*
X15912619Y-8853875D01*
X15989283Y-8770519D01*
X15989449Y-8770298D01*
X15989456Y-8770290D01*
X16042518Y-8699778D01*
X16042613Y-8699652D01*
X16085465Y-8635952D01*
X16085822Y-8635451D01*
X16138622Y-8565288D01*
X16139360Y-8564403D01*
X16214998Y-8482166D01*
X16223120Y-8478396D01*
X16231849Y-8481780D01*
G37*
G04 #@! TD.AperFunction*
G04 #@! TA.AperFunction,Conductor*
G36*
X2145986Y-3224424D02*
G01*
X2146559Y-3226016D01*
X2234607Y-3540384D01*
X2326304Y-3828782D01*
X2418002Y-4078180D01*
X2509699Y-4288578D01*
X2509811Y-4288787D01*
X2597302Y-4452322D01*
X2598183Y-4461233D01*
X2595259Y-4466114D01*
X2466355Y-4595018D01*
X2458082Y-4598445D01*
X2452186Y-4596851D01*
X2206150Y-4453293D01*
X2206147Y-4453292D01*
X2205848Y-4453117D01*
X2205526Y-4452979D01*
X2205523Y-4452977D01*
X2098450Y-4406934D01*
X1951721Y-4343837D01*
X1951350Y-4343734D01*
X1951346Y-4343733D01*
X1698011Y-4273673D01*
X1698007Y-4273672D01*
X1697594Y-4273558D01*
X1697165Y-4273505D01*
X1697159Y-4273504D01*
X1443909Y-4242333D01*
X1443904Y-4242333D01*
X1443467Y-4242279D01*
X1443032Y-4242292D01*
X1443027Y-4242292D01*
X1207408Y-4249451D01*
X1199035Y-4246277D01*
X1195358Y-4238111D01*
X1196239Y-4233291D01*
X1497508Y-3503617D01*
X1503567Y-3497392D01*
X1835970Y-3349526D01*
X2130542Y-3218489D01*
X2139492Y-3218257D01*
X2145986Y-3224424D01*
G37*
G04 #@! TD.AperFunction*
G04 #@! TA.AperFunction,Conductor*
G36*
X9909014Y-10780224D02*
G01*
X9949653Y-10877319D01*
X9999109Y-10995483D01*
X9999109Y-11004517D01*
X9960513Y-11096733D01*
X9923046Y-11186252D01*
X9909015Y-11219775D01*
X9902660Y-11226084D01*
X9893314Y-11225879D01*
X9870183Y-11215189D01*
X9807549Y-11186242D01*
X9807035Y-11185987D01*
X9766207Y-11164426D01*
X9738569Y-11149830D01*
X9738558Y-11149825D01*
X9738392Y-11149737D01*
X9677582Y-11122680D01*
X9654622Y-11117359D01*
X9605293Y-11105926D01*
X9605289Y-11105925D01*
X9604804Y-11105813D01*
X9604302Y-11105785D01*
X9604301Y-11105785D01*
X9511052Y-11100613D01*
X9502981Y-11096733D01*
X9500000Y-11088931D01*
X9500000Y-10911069D01*
X9503427Y-10902796D01*
X9511052Y-10899387D01*
X9604301Y-10894214D01*
X9604302Y-10894214D01*
X9604804Y-10894186D01*
X9605289Y-10894074D01*
X9605293Y-10894073D01*
X9654622Y-10882640D01*
X9677582Y-10877319D01*
X9738392Y-10850262D01*
X9738558Y-10850174D01*
X9738569Y-10850169D01*
X9766207Y-10835573D01*
X9807035Y-10814012D01*
X9807549Y-10813757D01*
X9880106Y-10780225D01*
X9893314Y-10774121D01*
X9902261Y-10773761D01*
X9909014Y-10780224D01*
G37*
G04 #@! TD.AperFunction*
G04 #@! TA.AperFunction,Conductor*
G36*
X19312826Y-21504718D02*
G01*
X19323786Y-21505176D01*
X19324931Y-21505281D01*
X19411878Y-21517557D01*
X19412483Y-21517660D01*
X19487820Y-21532400D01*
X19575640Y-21544800D01*
X19575914Y-21544811D01*
X19575920Y-21544812D01*
X19640013Y-21547492D01*
X19688790Y-21549531D01*
X19696912Y-21553301D01*
X19700000Y-21561221D01*
X19700000Y-21938779D01*
X19696573Y-21947052D01*
X19688790Y-21950469D01*
X19640013Y-21952508D01*
X19575920Y-21955188D01*
X19575914Y-21955189D01*
X19575640Y-21955200D01*
X19487820Y-21967600D01*
X19412486Y-21982340D01*
X19411878Y-21982443D01*
X19324932Y-21994719D01*
X19323786Y-21994824D01*
X19312826Y-21995282D01*
X19212140Y-21999492D01*
X19203731Y-21996414D01*
X19199951Y-21987849D01*
X19199930Y-21982443D01*
X19199000Y-21750000D01*
X19199951Y-21512150D01*
X19203411Y-21503892D01*
X19212140Y-21500508D01*
X19312826Y-21504718D01*
G37*
G04 #@! TD.AperFunction*
G04 #@! TA.AperFunction,Conductor*
G36*
X21937850Y-4199951D02*
G01*
X21946108Y-4203411D01*
X21949492Y-4212140D01*
X21944824Y-4323785D01*
X21944719Y-4324932D01*
X21932443Y-4411875D01*
X21932340Y-4412483D01*
X21917600Y-4487820D01*
X21905200Y-4575640D01*
X21905189Y-4575914D01*
X21905188Y-4575920D01*
X21900469Y-4688789D01*
X21896699Y-4696912D01*
X21888779Y-4700000D01*
X21511221Y-4700000D01*
X21502948Y-4696573D01*
X21499531Y-4688789D01*
X21494812Y-4575920D01*
X21494811Y-4575914D01*
X21494800Y-4575640D01*
X21482400Y-4487820D01*
X21467660Y-4412483D01*
X21467557Y-4411875D01*
X21455281Y-4324932D01*
X21455176Y-4323785D01*
X21450508Y-4212140D01*
X21453586Y-4203731D01*
X21462150Y-4199951D01*
X21700000Y-4199000D01*
X21937850Y-4199951D01*
G37*
G04 #@! TD.AperFunction*
G04 #@! TA.AperFunction,Conductor*
G36*
X21897052Y-5203427D02*
G01*
X21900469Y-5211210D01*
X21905200Y-5324358D01*
X21917600Y-5412179D01*
X21917630Y-5412330D01*
X21932340Y-5487513D01*
X21932443Y-5488124D01*
X21944719Y-5575066D01*
X21944824Y-5576213D01*
X21949980Y-5699511D01*
X21949980Y-5700000D01*
X21700000Y-5701000D01*
X21450020Y-5700000D01*
X21450020Y-5699511D01*
X21455176Y-5576213D01*
X21455281Y-5575066D01*
X21467557Y-5488124D01*
X21467660Y-5487513D01*
X21482370Y-5412330D01*
X21482400Y-5412179D01*
X21494800Y-5324358D01*
X21499531Y-5211210D01*
X21503301Y-5203088D01*
X21511221Y-5200000D01*
X21888779Y-5200000D01*
X21897052Y-5203427D01*
G37*
G04 #@! TD.AperFunction*
G04 #@! TA.AperFunction,Conductor*
G36*
X21949980Y-5700000D02*
G01*
X21949980Y-5700489D01*
X21944824Y-5823785D01*
X21944719Y-5824932D01*
X21932443Y-5911875D01*
X21932340Y-5912483D01*
X21917600Y-5987820D01*
X21905200Y-6075640D01*
X21905189Y-6075914D01*
X21905188Y-6075920D01*
X21900469Y-6188789D01*
X21896699Y-6196912D01*
X21888779Y-6200000D01*
X21511221Y-6200000D01*
X21502948Y-6196573D01*
X21499531Y-6188789D01*
X21494812Y-6075920D01*
X21494811Y-6075914D01*
X21494800Y-6075640D01*
X21482400Y-5987820D01*
X21467660Y-5912483D01*
X21467557Y-5911875D01*
X21455281Y-5824932D01*
X21455176Y-5823785D01*
X21450020Y-5700489D01*
X21450020Y-5700000D01*
X21700000Y-5699000D01*
X21949980Y-5700000D01*
G37*
G04 #@! TD.AperFunction*
G04 #@! TA.AperFunction,Conductor*
G36*
X2145986Y-5224424D02*
G01*
X2146559Y-5226016D01*
X2234607Y-5540384D01*
X2326304Y-5828782D01*
X2418002Y-6078180D01*
X2509699Y-6288578D01*
X2509811Y-6288787D01*
X2597302Y-6452322D01*
X2598183Y-6461233D01*
X2595259Y-6466114D01*
X2466355Y-6595018D01*
X2458082Y-6598445D01*
X2452186Y-6596851D01*
X2206150Y-6453293D01*
X2206147Y-6453292D01*
X2205848Y-6453117D01*
X2205526Y-6452979D01*
X2205523Y-6452977D01*
X2098450Y-6406934D01*
X1951721Y-6343837D01*
X1951350Y-6343734D01*
X1951346Y-6343733D01*
X1698011Y-6273673D01*
X1698007Y-6273672D01*
X1697594Y-6273558D01*
X1697165Y-6273505D01*
X1697159Y-6273504D01*
X1443909Y-6242333D01*
X1443904Y-6242333D01*
X1443467Y-6242279D01*
X1443032Y-6242292D01*
X1443027Y-6242292D01*
X1207408Y-6249451D01*
X1199035Y-6246277D01*
X1195358Y-6238111D01*
X1196239Y-6233291D01*
X1497508Y-5503617D01*
X1503567Y-5497392D01*
X1835970Y-5349526D01*
X2130542Y-5218489D01*
X2139492Y-5218257D01*
X2145986Y-5224424D01*
G37*
G04 #@! TD.AperFunction*
G04 #@! TA.AperFunction,Conductor*
G36*
X9959014Y-11480224D02*
G01*
X9999653Y-11577319D01*
X10049109Y-11695483D01*
X10049109Y-11704517D01*
X10010513Y-11796733D01*
X9973046Y-11886252D01*
X9959015Y-11919775D01*
X9952660Y-11926084D01*
X9943314Y-11925879D01*
X9920183Y-11915189D01*
X9857549Y-11886242D01*
X9857035Y-11885987D01*
X9816207Y-11864426D01*
X9788569Y-11849830D01*
X9788558Y-11849825D01*
X9788392Y-11849737D01*
X9727582Y-11822680D01*
X9704622Y-11817359D01*
X9655293Y-11805926D01*
X9655289Y-11805925D01*
X9654804Y-11805813D01*
X9654302Y-11805785D01*
X9654301Y-11805785D01*
X9561052Y-11800613D01*
X9552981Y-11796733D01*
X9550000Y-11788931D01*
X9550000Y-11611069D01*
X9553427Y-11602796D01*
X9561052Y-11599387D01*
X9654301Y-11594214D01*
X9654302Y-11594214D01*
X9654804Y-11594186D01*
X9655289Y-11594074D01*
X9655293Y-11594073D01*
X9704622Y-11582640D01*
X9727582Y-11577319D01*
X9788392Y-11550262D01*
X9788558Y-11550174D01*
X9788569Y-11550169D01*
X9816207Y-11535573D01*
X9857035Y-11514012D01*
X9857549Y-11513757D01*
X9930106Y-11480225D01*
X9943314Y-11474121D01*
X9952261Y-11473761D01*
X9959014Y-11480224D01*
G37*
G04 #@! TD.AperFunction*
G04 #@! TA.AperFunction,Conductor*
G36*
X22347204Y-11753427D02*
G01*
X22350613Y-11761052D01*
X22355813Y-11854804D01*
X22372680Y-11927582D01*
X22399737Y-11988392D01*
X22435987Y-12057035D01*
X22436242Y-12057549D01*
X22465189Y-12120183D01*
X22475879Y-12143314D01*
X22476239Y-12152261D01*
X22469776Y-12159014D01*
X22366446Y-12202262D01*
X22254517Y-12249109D01*
X22245483Y-12249109D01*
X22133554Y-12202262D01*
X22030224Y-12159014D01*
X22023916Y-12152660D01*
X22024121Y-12143314D01*
X22037960Y-12113368D01*
X22063757Y-12057549D01*
X22064012Y-12057035D01*
X22100262Y-11988392D01*
X22127319Y-11927582D01*
X22144186Y-11854804D01*
X22149387Y-11761052D01*
X22153267Y-11752981D01*
X22161069Y-11750000D01*
X22338931Y-11750000D01*
X22347204Y-11753427D01*
G37*
G04 #@! TD.AperFunction*
G04 #@! TA.AperFunction,Conductor*
G36*
X20706686Y-2474121D02*
G01*
X20719894Y-2480225D01*
X20792449Y-2513757D01*
X20792963Y-2514012D01*
X20833789Y-2535572D01*
X20861430Y-2550169D01*
X20861441Y-2550174D01*
X20861607Y-2550262D01*
X20922416Y-2577319D01*
X20945271Y-2582616D01*
X20994706Y-2594073D01*
X20994710Y-2594074D01*
X20995195Y-2594186D01*
X20995697Y-2594214D01*
X20995698Y-2594214D01*
X21088948Y-2599387D01*
X21097019Y-2603267D01*
X21100000Y-2611069D01*
X21100000Y-2788931D01*
X21096573Y-2797204D01*
X21088948Y-2800613D01*
X20995698Y-2805785D01*
X20995697Y-2805785D01*
X20995195Y-2805813D01*
X20994710Y-2805925D01*
X20994706Y-2805926D01*
X20945271Y-2817383D01*
X20922416Y-2822680D01*
X20861607Y-2849737D01*
X20861441Y-2849825D01*
X20861430Y-2849830D01*
X20824116Y-2869536D01*
X20792979Y-2885979D01*
X20792447Y-2886243D01*
X20706686Y-2925879D01*
X20697739Y-2926239D01*
X20690985Y-2919775D01*
X20676900Y-2886121D01*
X20639684Y-2797204D01*
X20600891Y-2704517D01*
X20600891Y-2695483D01*
X20650347Y-2577319D01*
X20690986Y-2480224D01*
X20697340Y-2473916D01*
X20706686Y-2474121D01*
G37*
G04 #@! TD.AperFunction*
G04 #@! TA.AperFunction,Conductor*
G36*
X9959014Y-12180224D02*
G01*
X9999653Y-12277319D01*
X10049109Y-12395483D01*
X10049109Y-12404517D01*
X10010513Y-12496733D01*
X9973046Y-12586252D01*
X9959015Y-12619775D01*
X9952660Y-12626084D01*
X9943314Y-12625879D01*
X9920183Y-12615189D01*
X9857549Y-12586242D01*
X9857035Y-12585987D01*
X9816207Y-12564426D01*
X9788569Y-12549830D01*
X9788558Y-12549825D01*
X9788392Y-12549737D01*
X9727582Y-12522680D01*
X9704622Y-12517359D01*
X9655293Y-12505926D01*
X9655289Y-12505925D01*
X9654804Y-12505813D01*
X9654302Y-12505785D01*
X9654301Y-12505785D01*
X9561052Y-12500613D01*
X9552981Y-12496733D01*
X9550000Y-12488931D01*
X9550000Y-12311069D01*
X9553427Y-12302796D01*
X9561052Y-12299387D01*
X9654301Y-12294214D01*
X9654302Y-12294214D01*
X9654804Y-12294186D01*
X9655289Y-12294074D01*
X9655293Y-12294073D01*
X9704622Y-12282640D01*
X9727582Y-12277319D01*
X9788392Y-12250262D01*
X9788558Y-12250174D01*
X9788569Y-12250169D01*
X9816207Y-12235573D01*
X9857035Y-12214012D01*
X9857549Y-12213757D01*
X9930106Y-12180225D01*
X9943314Y-12174121D01*
X9952261Y-12173761D01*
X9959014Y-12180224D01*
G37*
G04 #@! TD.AperFunction*
G04 #@! TA.AperFunction,Conductor*
G36*
X2147698Y-7223591D02*
G01*
X2264581Y-7482428D01*
X2386252Y-7716834D01*
X2507923Y-7916206D01*
X2629595Y-8080543D01*
X2629827Y-8080789D01*
X2629829Y-8080792D01*
X2743489Y-8201581D01*
X2746663Y-8209955D01*
X2743241Y-8217872D01*
X2615137Y-8345976D01*
X2606864Y-8349403D01*
X2602824Y-8348683D01*
X2551969Y-8329970D01*
X2342832Y-8253013D01*
X2342447Y-8252927D01*
X2342445Y-8252927D01*
X2243754Y-8231026D01*
X2075820Y-8193759D01*
X2075400Y-8193727D01*
X2075399Y-8193727D01*
X2015863Y-8189211D01*
X1808807Y-8173506D01*
X1808380Y-8173536D01*
X1808376Y-8173536D01*
X1542218Y-8192223D01*
X1542215Y-8192223D01*
X1541794Y-8192253D01*
X1294138Y-8245814D01*
X1285329Y-8244213D01*
X1280230Y-8236851D01*
X1280457Y-8231026D01*
X1497752Y-7504445D01*
X1504205Y-7497108D01*
X1870848Y-7334011D01*
X2132280Y-7217716D01*
X2141231Y-7217484D01*
X2147698Y-7223591D01*
G37*
G04 #@! TD.AperFunction*
G04 #@! TA.AperFunction,Conductor*
G36*
X5946175Y-16997436D02*
G01*
X5952564Y-17003824D01*
X5953031Y-17004963D01*
X6034872Y-17204623D01*
X6041068Y-17219740D01*
X6041035Y-17228695D01*
X6034281Y-17235159D01*
X5945622Y-17267770D01*
X5945039Y-17267967D01*
X5870895Y-17290864D01*
X5808764Y-17314730D01*
X5745376Y-17354266D01*
X5744998Y-17354604D01*
X5744997Y-17354605D01*
X5675405Y-17416883D01*
X5666955Y-17419846D01*
X5659330Y-17416437D01*
X5533563Y-17290670D01*
X5530136Y-17282397D01*
X5533117Y-17274595D01*
X5595393Y-17205002D01*
X5595394Y-17205001D01*
X5595732Y-17204623D01*
X5635268Y-17141234D01*
X5659135Y-17079104D01*
X5682031Y-17004959D01*
X5682228Y-17004376D01*
X5714840Y-16915719D01*
X5720913Y-16909137D01*
X5730258Y-16908932D01*
X5946175Y-16997436D01*
G37*
G04 #@! TD.AperFunction*
G04 #@! TA.AperFunction,Conductor*
G36*
X2466355Y-18404982D02*
G01*
X2595259Y-18533886D01*
X2598686Y-18542159D01*
X2597302Y-18547678D01*
X2509699Y-18711421D01*
X2418002Y-18921819D01*
X2326304Y-19171217D01*
X2234607Y-19459615D01*
X2234582Y-19459703D01*
X2234577Y-19459721D01*
X2205199Y-19564613D01*
X2146561Y-19773977D01*
X2141031Y-19781019D01*
X2132141Y-19782087D01*
X2130541Y-19781511D01*
X2113603Y-19773976D01*
X1835970Y-19650474D01*
X1503567Y-19502608D01*
X1497508Y-19496383D01*
X1196239Y-18766709D01*
X1196249Y-18757754D01*
X1202588Y-18751430D01*
X1207408Y-18750549D01*
X1443027Y-18757707D01*
X1443032Y-18757707D01*
X1443467Y-18757720D01*
X1443904Y-18757666D01*
X1443909Y-18757666D01*
X1697159Y-18726494D01*
X1697165Y-18726493D01*
X1697594Y-18726440D01*
X1698007Y-18726326D01*
X1698011Y-18726325D01*
X1951346Y-18656265D01*
X1951350Y-18656264D01*
X1951721Y-18656161D01*
X2203997Y-18547678D01*
X2205523Y-18547022D01*
X2205526Y-18547020D01*
X2205848Y-18546882D01*
X2217602Y-18540024D01*
X2452186Y-18403149D01*
X2461058Y-18401940D01*
X2466355Y-18404982D01*
G37*
G04 #@! TD.AperFunction*
G04 #@! TA.AperFunction,Conductor*
G36*
X6496175Y-17547436D02*
G01*
X6502564Y-17553824D01*
X6503031Y-17554963D01*
X6584872Y-17754623D01*
X6591068Y-17769740D01*
X6591035Y-17778695D01*
X6584281Y-17785159D01*
X6495622Y-17817770D01*
X6495039Y-17817967D01*
X6420895Y-17840864D01*
X6358764Y-17864730D01*
X6295376Y-17904266D01*
X6294998Y-17904604D01*
X6294997Y-17904605D01*
X6225405Y-17966883D01*
X6216955Y-17969846D01*
X6209330Y-17966437D01*
X6083563Y-17840670D01*
X6080136Y-17832397D01*
X6083117Y-17824595D01*
X6145393Y-17755002D01*
X6145394Y-17755001D01*
X6145732Y-17754623D01*
X6185268Y-17691234D01*
X6209135Y-17629104D01*
X6232031Y-17554959D01*
X6232228Y-17554376D01*
X6264840Y-17465719D01*
X6270913Y-17459137D01*
X6280258Y-17458932D01*
X6496175Y-17547436D01*
G37*
G04 #@! TD.AperFunction*
G04 #@! TA.AperFunction,Conductor*
G36*
X2466355Y-20404982D02*
G01*
X2595259Y-20533886D01*
X2598686Y-20542159D01*
X2597302Y-20547678D01*
X2509699Y-20711421D01*
X2418002Y-20921819D01*
X2326304Y-21171217D01*
X2234607Y-21459615D01*
X2234582Y-21459703D01*
X2234577Y-21459721D01*
X2205199Y-21564613D01*
X2146561Y-21773977D01*
X2141031Y-21781019D01*
X2132141Y-21782087D01*
X2130541Y-21781511D01*
X2113603Y-21773976D01*
X1835970Y-21650474D01*
X1503567Y-21502608D01*
X1497508Y-21496383D01*
X1196239Y-20766709D01*
X1196249Y-20757754D01*
X1202588Y-20751430D01*
X1207408Y-20750549D01*
X1443027Y-20757707D01*
X1443032Y-20757707D01*
X1443467Y-20757720D01*
X1443904Y-20757666D01*
X1443909Y-20757666D01*
X1697159Y-20726494D01*
X1697165Y-20726493D01*
X1697594Y-20726440D01*
X1698007Y-20726326D01*
X1698011Y-20726325D01*
X1951346Y-20656265D01*
X1951350Y-20656264D01*
X1951721Y-20656161D01*
X2203997Y-20547678D01*
X2205523Y-20547022D01*
X2205526Y-20547020D01*
X2205848Y-20546882D01*
X2217602Y-20540024D01*
X2452186Y-20403149D01*
X2461058Y-20401940D01*
X2466355Y-20404982D01*
G37*
G04 #@! TD.AperFunction*
G04 #@! TA.AperFunction,Conductor*
G36*
X7096175Y-17847436D02*
G01*
X7102564Y-17853824D01*
X7103031Y-17854963D01*
X7184872Y-18054623D01*
X7191068Y-18069740D01*
X7191035Y-18078695D01*
X7184281Y-18085159D01*
X7095622Y-18117770D01*
X7095039Y-18117967D01*
X7020895Y-18140864D01*
X6958764Y-18164730D01*
X6895376Y-18204266D01*
X6894998Y-18204604D01*
X6894997Y-18204605D01*
X6825405Y-18266883D01*
X6816955Y-18269846D01*
X6809330Y-18266437D01*
X6683563Y-18140670D01*
X6680136Y-18132397D01*
X6683117Y-18124595D01*
X6745393Y-18055002D01*
X6745394Y-18055001D01*
X6745732Y-18054623D01*
X6785268Y-17991234D01*
X6809135Y-17929104D01*
X6832031Y-17854959D01*
X6832228Y-17854376D01*
X6864840Y-17765719D01*
X6870913Y-17759137D01*
X6880258Y-17758932D01*
X7096175Y-17847436D01*
G37*
G04 #@! TD.AperFunction*
G04 #@! TA.AperFunction,Conductor*
G36*
X3600126Y-22053427D02*
G01*
X3602826Y-22057641D01*
X3718581Y-22370597D01*
X3837163Y-22652194D01*
X3955745Y-22894792D01*
X4074327Y-23098389D01*
X4074493Y-23098619D01*
X4183699Y-23250202D01*
X4185755Y-23258918D01*
X4181045Y-23266534D01*
X4178007Y-23268106D01*
X3503801Y-23499694D01*
X3496199Y-23499694D01*
X2821993Y-23268106D01*
X2815282Y-23262178D01*
X2814729Y-23253240D01*
X2816301Y-23250202D01*
X2925505Y-23098619D01*
X2925671Y-23098389D01*
X3044253Y-22894792D01*
X3162835Y-22652194D01*
X3281417Y-22370597D01*
X3397174Y-22057641D01*
X3403258Y-22051071D01*
X3408147Y-22050000D01*
X3591853Y-22050000D01*
X3600126Y-22053427D01*
G37*
G04 #@! TD.AperFunction*
G04 #@! TA.AperFunction,Conductor*
G36*
X5600126Y-22053427D02*
G01*
X5602826Y-22057641D01*
X5718581Y-22370597D01*
X5837163Y-22652194D01*
X5955745Y-22894792D01*
X6074327Y-23098389D01*
X6074493Y-23098619D01*
X6183699Y-23250202D01*
X6185755Y-23258918D01*
X6181045Y-23266534D01*
X6178007Y-23268106D01*
X5503801Y-23499694D01*
X5496199Y-23499694D01*
X4821993Y-23268106D01*
X4815282Y-23262178D01*
X4814729Y-23253240D01*
X4816301Y-23250202D01*
X4925505Y-23098619D01*
X4925671Y-23098389D01*
X5044253Y-22894792D01*
X5162835Y-22652194D01*
X5281417Y-22370597D01*
X5397174Y-22057641D01*
X5403258Y-22051071D01*
X5408147Y-22050000D01*
X5591853Y-22050000D01*
X5600126Y-22053427D01*
G37*
G04 #@! TD.AperFunction*
G04 #@! TA.AperFunction,Conductor*
G36*
X8316446Y-16647738D02*
G01*
X8419776Y-16690986D01*
X8426084Y-16697340D01*
X8425879Y-16706686D01*
X8386252Y-16792428D01*
X8386248Y-16792436D01*
X8385979Y-16792979D01*
X8349737Y-16861607D01*
X8322680Y-16922416D01*
X8305813Y-16995195D01*
X8305785Y-16995697D01*
X8305785Y-16995698D01*
X8300613Y-17088948D01*
X8296733Y-17097019D01*
X8288931Y-17100000D01*
X8111069Y-17100000D01*
X8102796Y-17096573D01*
X8099387Y-17088948D01*
X8094214Y-16995698D01*
X8094214Y-16995697D01*
X8094186Y-16995195D01*
X8077319Y-16922416D01*
X8050262Y-16861607D01*
X8014012Y-16792963D01*
X8013751Y-16792436D01*
X7974121Y-16706686D01*
X7973761Y-16697739D01*
X7980224Y-16690986D01*
X8083554Y-16647738D01*
X8195483Y-16600891D01*
X8204517Y-16600891D01*
X8316446Y-16647738D01*
G37*
G04 #@! TD.AperFunction*
G04 #@! TA.AperFunction,Conductor*
G36*
X7316446Y-19897738D02*
G01*
X7419776Y-19940986D01*
X7426084Y-19947340D01*
X7425879Y-19956686D01*
X7386252Y-20042428D01*
X7386248Y-20042436D01*
X7385979Y-20042979D01*
X7349737Y-20111607D01*
X7322680Y-20172416D01*
X7305813Y-20245195D01*
X7305785Y-20245697D01*
X7305785Y-20245698D01*
X7300613Y-20338948D01*
X7296733Y-20347019D01*
X7288931Y-20350000D01*
X7111069Y-20350000D01*
X7102796Y-20346573D01*
X7099387Y-20338948D01*
X7094214Y-20245698D01*
X7094214Y-20245697D01*
X7094186Y-20245195D01*
X7077319Y-20172416D01*
X7050262Y-20111607D01*
X7014012Y-20042963D01*
X7013751Y-20042436D01*
X6974121Y-19956686D01*
X6973761Y-19947739D01*
X6980224Y-19940986D01*
X7083554Y-19897738D01*
X7195483Y-19850891D01*
X7204517Y-19850891D01*
X7316446Y-19897738D01*
G37*
G04 #@! TD.AperFunction*
G04 #@! TA.AperFunction,Conductor*
G36*
X7301552Y-22119195D02*
G01*
X7303386Y-22121575D01*
X7446065Y-22366272D01*
X7446178Y-22366439D01*
X7446185Y-22366450D01*
X7479919Y-22416252D01*
X7592131Y-22581914D01*
X7592279Y-22582097D01*
X7737999Y-22762451D01*
X7738007Y-22762460D01*
X7738197Y-22762695D01*
X7884263Y-22908613D01*
X8019126Y-23011152D01*
X8023638Y-23018886D01*
X8021359Y-23027546D01*
X8019908Y-23029129D01*
X7505121Y-23496352D01*
X7496693Y-23499374D01*
X7493458Y-23498753D01*
X6818417Y-23266878D01*
X6811706Y-23260950D01*
X6811244Y-23251755D01*
X6865606Y-23104759D01*
X6865607Y-23104756D01*
X6865671Y-23104583D01*
X6924253Y-22910660D01*
X6982835Y-22681216D01*
X7041417Y-22416252D01*
X7098156Y-22125228D01*
X7103102Y-22117765D01*
X7109639Y-22115768D01*
X7293279Y-22115768D01*
X7301552Y-22119195D01*
G37*
G04 #@! TD.AperFunction*
G04 #@! TA.AperFunction,Conductor*
G36*
X7978695Y-21558965D02*
G01*
X7985159Y-21565719D01*
X8017770Y-21654376D01*
X8017967Y-21654959D01*
X8040864Y-21729104D01*
X8064730Y-21791234D01*
X8104266Y-21854623D01*
X8104604Y-21855001D01*
X8104605Y-21855002D01*
X8166883Y-21924595D01*
X8169846Y-21933045D01*
X8166437Y-21940670D01*
X8040670Y-22066437D01*
X8032397Y-22069864D01*
X8024595Y-22066883D01*
X7955002Y-22004605D01*
X7955001Y-22004604D01*
X7954623Y-22004266D01*
X7891234Y-21964730D01*
X7829104Y-21940864D01*
X7754959Y-21917967D01*
X7754376Y-21917770D01*
X7665719Y-21885159D01*
X7659137Y-21879086D01*
X7658932Y-21869740D01*
X7665129Y-21854623D01*
X7746969Y-21654963D01*
X7747436Y-21653824D01*
X7753824Y-21647436D01*
X7886089Y-21593220D01*
X7969740Y-21558932D01*
X7978695Y-21558965D01*
G37*
G04 #@! TD.AperFunction*
G04 #@! TA.AperFunction,Conductor*
G36*
X9258572Y-22121579D02*
G01*
X9260268Y-22123728D01*
X9408076Y-22364569D01*
X9563639Y-22582166D01*
X9563803Y-22582357D01*
X9563808Y-22582364D01*
X9659297Y-22693905D01*
X9719202Y-22763882D01*
X9789229Y-22829529D01*
X9874473Y-22909442D01*
X9874478Y-22909446D01*
X9874766Y-22909716D01*
X9875097Y-22909950D01*
X10018426Y-23011256D01*
X10023204Y-23018829D01*
X10021227Y-23027563D01*
X10019539Y-23029471D01*
X9505825Y-23496058D01*
X9497397Y-23499084D01*
X9494166Y-23498465D01*
X8819114Y-23267108D01*
X8812398Y-23261184D01*
X8811839Y-23252247D01*
X8812190Y-23251345D01*
X8867811Y-23124385D01*
X8867814Y-23124378D01*
X8867890Y-23124204D01*
X8905480Y-23018829D01*
X8928648Y-22953883D01*
X8928649Y-22953880D01*
X8928690Y-22953765D01*
X8989491Y-22751670D01*
X9033529Y-22582364D01*
X9050263Y-22518027D01*
X9050265Y-22518021D01*
X9050291Y-22517919D01*
X9085384Y-22364731D01*
X9110341Y-22255792D01*
X9113473Y-22250132D01*
X9242026Y-22121579D01*
X9250299Y-22118152D01*
X9258572Y-22121579D01*
G37*
G04 #@! TD.AperFunction*
G04 #@! TA.AperFunction,Conductor*
G36*
X10516446Y-15847738D02*
G01*
X10619776Y-15890986D01*
X10626084Y-15897340D01*
X10625879Y-15906686D01*
X10586252Y-15992428D01*
X10586248Y-15992436D01*
X10585979Y-15992979D01*
X10549737Y-16061607D01*
X10522680Y-16122416D01*
X10505813Y-16195195D01*
X10505785Y-16195697D01*
X10505785Y-16195698D01*
X10500613Y-16288948D01*
X10496733Y-16297019D01*
X10488931Y-16300000D01*
X10311069Y-16300000D01*
X10302796Y-16296573D01*
X10299387Y-16288948D01*
X10294214Y-16195698D01*
X10294214Y-16195697D01*
X10294186Y-16195195D01*
X10277319Y-16122416D01*
X10250262Y-16061607D01*
X10214012Y-15992963D01*
X10213751Y-15992436D01*
X10174121Y-15906686D01*
X10173761Y-15897739D01*
X10180224Y-15890986D01*
X10283554Y-15847738D01*
X10395483Y-15800891D01*
X10404517Y-15800891D01*
X10516446Y-15847738D01*
G37*
G04 #@! TD.AperFunction*
G04 #@! TA.AperFunction,Conductor*
G36*
X10880090Y-22269835D02*
G01*
X11045254Y-22437336D01*
X11045262Y-22437343D01*
X11045449Y-22437533D01*
X11230840Y-22592296D01*
X11416231Y-22713810D01*
X11416595Y-22713983D01*
X11416598Y-22713985D01*
X11462782Y-22735973D01*
X11601622Y-22802074D01*
X11602052Y-22802202D01*
X11602053Y-22802202D01*
X11774233Y-22853298D01*
X11781189Y-22858937D01*
X11782121Y-22867844D01*
X11781594Y-22869271D01*
X11503868Y-23493551D01*
X11497374Y-23499717D01*
X11493955Y-23500469D01*
X10764405Y-23549041D01*
X10755923Y-23546171D01*
X10751954Y-23538144D01*
X10752046Y-23535709D01*
X10757091Y-23500469D01*
X10772011Y-23396261D01*
X10794023Y-23209344D01*
X10816034Y-22989248D01*
X10838046Y-22735973D01*
X10860058Y-22449519D01*
X10860059Y-22278050D01*
X10863486Y-22269777D01*
X10871759Y-22266350D01*
X10880090Y-22269835D01*
G37*
G04 #@! TD.AperFunction*
G04 #@! TA.AperFunction,Conductor*
G36*
X11216446Y-15747738D02*
G01*
X11319776Y-15790986D01*
X11326084Y-15797340D01*
X11325879Y-15806686D01*
X11286252Y-15892428D01*
X11286248Y-15892436D01*
X11285979Y-15892979D01*
X11249737Y-15961607D01*
X11222680Y-16022416D01*
X11205813Y-16095195D01*
X11205785Y-16095697D01*
X11205785Y-16095698D01*
X11200613Y-16188948D01*
X11196733Y-16197019D01*
X11188931Y-16200000D01*
X11011069Y-16200000D01*
X11002796Y-16196573D01*
X10999387Y-16188948D01*
X10994214Y-16095698D01*
X10994214Y-16095697D01*
X10994186Y-16095195D01*
X10977319Y-16022416D01*
X10950262Y-15961607D01*
X10914012Y-15892963D01*
X10913751Y-15892436D01*
X10874121Y-15806686D01*
X10873761Y-15797739D01*
X10880224Y-15790986D01*
X10983554Y-15747738D01*
X11095483Y-15700891D01*
X11104517Y-15700891D01*
X11216446Y-15747738D01*
G37*
G04 #@! TD.AperFunction*
G04 #@! TA.AperFunction,Conductor*
G36*
X13118099Y-22179209D02*
G01*
X13119186Y-22180462D01*
X13294939Y-22414789D01*
X13295082Y-22414951D01*
X13295089Y-22414959D01*
X13412781Y-22547830D01*
X13478786Y-22622348D01*
X13478999Y-22622545D01*
X13479001Y-22622547D01*
X13491784Y-22634367D01*
X13662634Y-22792348D01*
X13662921Y-22792555D01*
X13662925Y-22792558D01*
X13839580Y-22919817D01*
X13846482Y-22924789D01*
X14015356Y-23011942D01*
X14021136Y-23018781D01*
X14020387Y-23027705D01*
X14017857Y-23030999D01*
X13503730Y-23497962D01*
X13496633Y-23500974D01*
X12766087Y-23548944D01*
X12757608Y-23546066D01*
X12753646Y-23538036D01*
X12753984Y-23534378D01*
X12793894Y-23377863D01*
X12793933Y-23377712D01*
X12837867Y-23167677D01*
X12881801Y-22919895D01*
X12925735Y-22634367D01*
X12927342Y-22622547D01*
X12969139Y-22315000D01*
X12972459Y-22308303D01*
X13101553Y-22179209D01*
X13109826Y-22175782D01*
X13118099Y-22179209D01*
G37*
G04 #@! TD.AperFunction*
G04 #@! TA.AperFunction,Conductor*
G36*
X14979696Y-14958554D02*
G01*
X14985735Y-14964303D01*
X15035345Y-15068150D01*
X15081713Y-15147827D01*
X15081997Y-15148344D01*
X15117545Y-15217183D01*
X15118421Y-15219414D01*
X15141299Y-15301617D01*
X15141700Y-15303958D01*
X15149148Y-15413241D01*
X15146292Y-15421728D01*
X15137475Y-15425737D01*
X14959373Y-15425737D01*
X14951100Y-15422310D01*
X14947955Y-15416591D01*
X14934319Y-15355621D01*
X14933849Y-15353520D01*
X14889721Y-15321811D01*
X14875942Y-15319695D01*
X14824286Y-15311761D01*
X14824274Y-15311760D01*
X14824101Y-15311733D01*
X14766650Y-15306516D01*
X14744446Y-15304500D01*
X14742529Y-15304163D01*
X14703536Y-15293910D01*
X14667273Y-15284374D01*
X14660143Y-15278956D01*
X14658933Y-15270084D01*
X14659432Y-15268598D01*
X14748139Y-15053513D01*
X14754518Y-15047148D01*
X14970743Y-14958521D01*
X14979696Y-14958554D01*
G37*
G04 #@! TD.AperFunction*
G04 #@! TA.AperFunction,Conductor*
G36*
X17358949Y-16530069D02*
G01*
X17449109Y-16745483D01*
X17449109Y-16754517D01*
X17359088Y-16969600D01*
X17352733Y-16975909D01*
X17343223Y-16975626D01*
X17257789Y-16934518D01*
X17256902Y-16934042D01*
X17189387Y-16893935D01*
X17189290Y-16893883D01*
X17189277Y-16893876D01*
X17130358Y-16862499D01*
X17130359Y-16862499D01*
X17129823Y-16862214D01*
X17129242Y-16862046D01*
X17129239Y-16862045D01*
X17058563Y-16841640D01*
X17057974Y-16841470D01*
X16991451Y-16836752D01*
X16964047Y-16834808D01*
X16956037Y-16830804D01*
X16953175Y-16823137D01*
X16953175Y-16645261D01*
X16956602Y-16636988D01*
X16964389Y-16633571D01*
X17056112Y-16629758D01*
X17056117Y-16629757D01*
X17056512Y-16629741D01*
X17129001Y-16616551D01*
X17159082Y-16605422D01*
X17189700Y-16594095D01*
X17189706Y-16594092D01*
X17189937Y-16594007D01*
X17190163Y-16593900D01*
X17190169Y-16593898D01*
X17228358Y-16575906D01*
X17258519Y-16561697D01*
X17258710Y-16561609D01*
X17343397Y-16523898D01*
X17352348Y-16523663D01*
X17358949Y-16530069D01*
G37*
G04 #@! TD.AperFunction*
G04 #@! TA.AperFunction,Conductor*
G36*
X17600126Y-22053427D02*
G01*
X17602826Y-22057641D01*
X17718581Y-22370597D01*
X17837163Y-22652194D01*
X17955745Y-22894792D01*
X18074327Y-23098389D01*
X18074493Y-23098619D01*
X18183699Y-23250202D01*
X18185755Y-23258918D01*
X18181045Y-23266534D01*
X18178007Y-23268106D01*
X17503801Y-23499694D01*
X17496199Y-23499694D01*
X16821993Y-23268106D01*
X16815282Y-23262178D01*
X16814729Y-23253240D01*
X16816301Y-23250202D01*
X16925505Y-23098619D01*
X16925671Y-23098389D01*
X17044253Y-22894792D01*
X17162835Y-22652194D01*
X17281417Y-22370597D01*
X17397174Y-22057641D01*
X17403258Y-22051071D01*
X17408147Y-22050000D01*
X17591853Y-22050000D01*
X17600126Y-22053427D01*
G37*
G04 #@! TD.AperFunction*
G04 #@! TA.AperFunction,Conductor*
G36*
X19746175Y-19997436D02*
G01*
X19752564Y-20003824D01*
X19753031Y-20004963D01*
X19834872Y-20204623D01*
X19841068Y-20219740D01*
X19841035Y-20228695D01*
X19834281Y-20235159D01*
X19745622Y-20267770D01*
X19745039Y-20267967D01*
X19670895Y-20290864D01*
X19608764Y-20314730D01*
X19545376Y-20354266D01*
X19544998Y-20354604D01*
X19544997Y-20354605D01*
X19475405Y-20416883D01*
X19466955Y-20419846D01*
X19459330Y-20416437D01*
X19333563Y-20290670D01*
X19330136Y-20282397D01*
X19333117Y-20274595D01*
X19395393Y-20205002D01*
X19395394Y-20205001D01*
X19395732Y-20204623D01*
X19435268Y-20141234D01*
X19459135Y-20079104D01*
X19482031Y-20004959D01*
X19482228Y-20004376D01*
X19514840Y-19915719D01*
X19520913Y-19909137D01*
X19530258Y-19908932D01*
X19746175Y-19997436D01*
G37*
G04 #@! TD.AperFunction*
G04 #@! TA.AperFunction,Conductor*
G36*
X19306686Y-18374121D02*
G01*
X19319894Y-18380225D01*
X19392449Y-18413757D01*
X19392963Y-18414012D01*
X19433789Y-18435572D01*
X19461430Y-18450169D01*
X19461441Y-18450174D01*
X19461607Y-18450262D01*
X19522416Y-18477319D01*
X19545271Y-18482616D01*
X19594706Y-18494073D01*
X19594710Y-18494074D01*
X19595195Y-18494186D01*
X19595697Y-18494214D01*
X19595698Y-18494214D01*
X19688948Y-18499387D01*
X19697019Y-18503267D01*
X19700000Y-18511069D01*
X19700000Y-18688931D01*
X19696573Y-18697204D01*
X19688948Y-18700613D01*
X19595698Y-18705785D01*
X19595697Y-18705785D01*
X19595195Y-18705813D01*
X19594710Y-18705925D01*
X19594706Y-18705926D01*
X19545271Y-18717383D01*
X19522416Y-18722680D01*
X19461607Y-18749737D01*
X19461441Y-18749825D01*
X19461430Y-18749830D01*
X19424116Y-18769536D01*
X19392979Y-18785979D01*
X19392447Y-18786243D01*
X19306686Y-18825879D01*
X19297739Y-18826239D01*
X19290985Y-18819775D01*
X19276900Y-18786121D01*
X19239684Y-18697204D01*
X19200891Y-18604517D01*
X19200891Y-18595483D01*
X19250347Y-18477319D01*
X19290986Y-18380224D01*
X19297340Y-18373916D01*
X19306686Y-18374121D01*
G37*
G04 #@! TD.AperFunction*
G04 #@! TA.AperFunction,Conductor*
G36*
X17797052Y-5903427D02*
G01*
X17800469Y-5911210D01*
X17805200Y-6024358D01*
X17817600Y-6112179D01*
X17817630Y-6112330D01*
X17832340Y-6187513D01*
X17832443Y-6188124D01*
X17844719Y-6275066D01*
X17844824Y-6276213D01*
X17849492Y-6387860D01*
X17846414Y-6396269D01*
X17837850Y-6400049D01*
X17600000Y-6401000D01*
X17362150Y-6400049D01*
X17353892Y-6396589D01*
X17350508Y-6387860D01*
X17355176Y-6276213D01*
X17355281Y-6275066D01*
X17367557Y-6188124D01*
X17367660Y-6187513D01*
X17382370Y-6112330D01*
X17382400Y-6112179D01*
X17394800Y-6024358D01*
X17399531Y-5911210D01*
X17403301Y-5903088D01*
X17411221Y-5900000D01*
X17788779Y-5900000D01*
X17797052Y-5903427D01*
G37*
G04 #@! TD.AperFunction*
G04 #@! TA.AperFunction,Conductor*
G36*
X9406686Y-9974121D02*
G01*
X9419894Y-9980225D01*
X9492449Y-10013757D01*
X9492963Y-10014012D01*
X9533789Y-10035572D01*
X9561430Y-10050169D01*
X9561441Y-10050174D01*
X9561607Y-10050262D01*
X9622416Y-10077319D01*
X9645271Y-10082616D01*
X9694706Y-10094073D01*
X9694710Y-10094074D01*
X9695195Y-10094186D01*
X9695697Y-10094214D01*
X9695698Y-10094214D01*
X9788948Y-10099387D01*
X9797019Y-10103267D01*
X9800000Y-10111069D01*
X9800000Y-10288931D01*
X9796573Y-10297204D01*
X9788948Y-10300613D01*
X9695698Y-10305785D01*
X9695697Y-10305785D01*
X9695195Y-10305813D01*
X9694710Y-10305925D01*
X9694706Y-10305926D01*
X9645271Y-10317383D01*
X9622416Y-10322680D01*
X9561607Y-10349737D01*
X9561441Y-10349825D01*
X9561430Y-10349830D01*
X9524116Y-10369536D01*
X9492979Y-10385979D01*
X9492447Y-10386243D01*
X9406686Y-10425879D01*
X9397739Y-10426239D01*
X9390985Y-10419775D01*
X9376900Y-10386121D01*
X9339684Y-10297204D01*
X9300891Y-10204517D01*
X9300891Y-10195483D01*
X9350347Y-10077319D01*
X9390986Y-9980224D01*
X9397340Y-9973916D01*
X9406686Y-9974121D01*
G37*
G04 #@! TD.AperFunction*
G04 #@! TA.AperFunction,Conductor*
G36*
X14950707Y-11049293D02*
G01*
X15045664Y-11280952D01*
X15045230Y-11281132D01*
X14945622Y-11317770D01*
X14945039Y-11317967D01*
X14870895Y-11340864D01*
X14808764Y-11364730D01*
X14745376Y-11404266D01*
X14744998Y-11404604D01*
X14744997Y-11404605D01*
X14675405Y-11466883D01*
X14666955Y-11469846D01*
X14659330Y-11466437D01*
X14533563Y-11340670D01*
X14530136Y-11332397D01*
X14533117Y-11324595D01*
X14595393Y-11255002D01*
X14595394Y-11255001D01*
X14595732Y-11254623D01*
X14635268Y-11191234D01*
X14659135Y-11129104D01*
X14682031Y-11054959D01*
X14682228Y-11054376D01*
X14684604Y-11047916D01*
X14714841Y-10965717D01*
X14720913Y-10959136D01*
X14730257Y-10958931D01*
X14950707Y-11049293D01*
G37*
G04 #@! TD.AperFunction*
G04 #@! TA.AperFunction,Conductor*
G36*
X5296269Y-16403586D02*
G01*
X5300049Y-16412150D01*
X5301000Y-16650000D01*
X5300071Y-16882443D01*
X5300049Y-16887849D01*
X5296589Y-16896108D01*
X5287860Y-16899492D01*
X5187051Y-16895277D01*
X5176212Y-16894824D01*
X5175066Y-16894719D01*
X5126411Y-16887849D01*
X5088121Y-16882443D01*
X5087513Y-16882340D01*
X5012179Y-16867600D01*
X4924358Y-16855200D01*
X4924084Y-16855189D01*
X4924078Y-16855188D01*
X4859050Y-16852469D01*
X4811210Y-16850469D01*
X4803088Y-16846699D01*
X4800000Y-16838779D01*
X4800000Y-16461221D01*
X4803427Y-16452948D01*
X4811210Y-16449531D01*
X4859050Y-16447531D01*
X4924078Y-16444812D01*
X4924084Y-16444811D01*
X4924358Y-16444800D01*
X5012179Y-16432400D01*
X5087516Y-16417660D01*
X5088121Y-16417557D01*
X5175067Y-16405281D01*
X5176212Y-16405176D01*
X5187051Y-16404723D01*
X5287860Y-16400508D01*
X5296269Y-16403586D01*
G37*
G04 #@! TD.AperFunction*
G04 #@! TA.AperFunction,Conductor*
G36*
X13346175Y-8547436D02*
G01*
X13352564Y-8553824D01*
X13353031Y-8554963D01*
X13434872Y-8754623D01*
X13441068Y-8769740D01*
X13441035Y-8778695D01*
X13434281Y-8785159D01*
X13345622Y-8817770D01*
X13345039Y-8817967D01*
X13270895Y-8840864D01*
X13208764Y-8864730D01*
X13145376Y-8904266D01*
X13144998Y-8904604D01*
X13144997Y-8904605D01*
X13075405Y-8966883D01*
X13066955Y-8969846D01*
X13059330Y-8966437D01*
X12933563Y-8840670D01*
X12930136Y-8832397D01*
X12933117Y-8824595D01*
X12995393Y-8755002D01*
X12995394Y-8755001D01*
X12995732Y-8754623D01*
X13035268Y-8691234D01*
X13059135Y-8629104D01*
X13082031Y-8554959D01*
X13082228Y-8554376D01*
X13114840Y-8465719D01*
X13120913Y-8459137D01*
X13130258Y-8458932D01*
X13346175Y-8547436D01*
G37*
G04 #@! TD.AperFunction*
G04 #@! TA.AperFunction,Conductor*
G36*
X15056686Y-10824121D02*
G01*
X15069894Y-10830225D01*
X15142449Y-10863757D01*
X15142963Y-10864012D01*
X15183789Y-10885572D01*
X15211430Y-10900169D01*
X15211441Y-10900174D01*
X15211607Y-10900262D01*
X15272416Y-10927319D01*
X15295271Y-10932616D01*
X15344706Y-10944073D01*
X15344710Y-10944074D01*
X15345195Y-10944186D01*
X15345697Y-10944214D01*
X15345698Y-10944214D01*
X15438948Y-10949387D01*
X15447019Y-10953267D01*
X15450000Y-10961069D01*
X15450000Y-11138931D01*
X15446573Y-11147204D01*
X15438948Y-11150613D01*
X15345698Y-11155785D01*
X15345697Y-11155785D01*
X15345195Y-11155813D01*
X15344710Y-11155925D01*
X15344706Y-11155926D01*
X15295271Y-11167383D01*
X15272416Y-11172680D01*
X15211607Y-11199737D01*
X15211441Y-11199825D01*
X15211430Y-11199830D01*
X15174116Y-11219536D01*
X15142979Y-11235979D01*
X15142447Y-11236243D01*
X15055157Y-11276586D01*
X15046095Y-11280774D01*
X15045664Y-11280952D01*
X14949000Y-11050000D01*
X14949503Y-11048799D01*
X15040986Y-10830224D01*
X15047340Y-10823916D01*
X15056686Y-10824121D01*
G37*
G04 #@! TD.AperFunction*
G04 #@! TA.AperFunction,Conductor*
G36*
X20728695Y-14958965D02*
G01*
X20735159Y-14965719D01*
X20767770Y-15054376D01*
X20767967Y-15054959D01*
X20790864Y-15129104D01*
X20814730Y-15191234D01*
X20854266Y-15254623D01*
X20854604Y-15255001D01*
X20854605Y-15255002D01*
X20916883Y-15324595D01*
X20919846Y-15333045D01*
X20916437Y-15340670D01*
X20790670Y-15466437D01*
X20782397Y-15469864D01*
X20774595Y-15466883D01*
X20705002Y-15404605D01*
X20705001Y-15404604D01*
X20704623Y-15404266D01*
X20641234Y-15364730D01*
X20579104Y-15340864D01*
X20504959Y-15317967D01*
X20504376Y-15317770D01*
X20415719Y-15285159D01*
X20409137Y-15279086D01*
X20408932Y-15269740D01*
X20415129Y-15254623D01*
X20496969Y-15054963D01*
X20497436Y-15053824D01*
X20503824Y-15047436D01*
X20636089Y-14993220D01*
X20719740Y-14958932D01*
X20728695Y-14958965D01*
G37*
G04 #@! TD.AperFunction*
G04 #@! TA.AperFunction,Conductor*
G36*
X4287850Y-15049951D02*
G01*
X4296108Y-15053411D01*
X4299492Y-15062140D01*
X4294824Y-15173785D01*
X4294719Y-15174932D01*
X4282443Y-15261875D01*
X4282340Y-15262483D01*
X4267600Y-15337820D01*
X4255200Y-15425640D01*
X4255189Y-15425914D01*
X4255188Y-15425920D01*
X4250469Y-15538789D01*
X4246699Y-15546912D01*
X4238779Y-15550000D01*
X3861221Y-15550000D01*
X3852948Y-15546573D01*
X3849531Y-15538789D01*
X3844812Y-15425920D01*
X3844811Y-15425914D01*
X3844800Y-15425640D01*
X3832400Y-15337820D01*
X3817660Y-15262483D01*
X3817557Y-15261875D01*
X3805281Y-15174932D01*
X3805176Y-15173785D01*
X3800508Y-15062140D01*
X3803586Y-15053731D01*
X3812150Y-15049951D01*
X4050000Y-15049000D01*
X4287850Y-15049951D01*
G37*
G04 #@! TD.AperFunction*
G04 #@! TA.AperFunction,Conductor*
G36*
X17699195Y-14048401D02*
G01*
X17702255Y-14053767D01*
X17719663Y-14121642D01*
X17772816Y-14147730D01*
X17774149Y-14147733D01*
X17774150Y-14147733D01*
X17850633Y-14147889D01*
X17850705Y-14147889D01*
X17930985Y-14146934D01*
X17943233Y-14146788D01*
X17945887Y-14147061D01*
X18032055Y-14166032D01*
X18039398Y-14171157D01*
X18040965Y-14179974D01*
X18040355Y-14181919D01*
X17951861Y-14396487D01*
X17945482Y-14402852D01*
X17728813Y-14491661D01*
X17719859Y-14491628D01*
X17714053Y-14486342D01*
X17659679Y-14384426D01*
X17659432Y-14383963D01*
X17600510Y-14309185D01*
X17550393Y-14246330D01*
X17548882Y-14243860D01*
X17514336Y-14167519D01*
X17513368Y-14164001D01*
X17501461Y-14057980D01*
X17503943Y-14049376D01*
X17511782Y-14045047D01*
X17513088Y-14044974D01*
X17690922Y-14044974D01*
X17699195Y-14048401D01*
G37*
G04 #@! TD.AperFunction*
G04 #@! TA.AperFunction,Conductor*
G36*
X12812826Y-4454718D02*
G01*
X12823786Y-4455176D01*
X12824931Y-4455281D01*
X12911878Y-4467557D01*
X12912483Y-4467660D01*
X12987820Y-4482400D01*
X13075640Y-4494800D01*
X13075914Y-4494811D01*
X13075920Y-4494812D01*
X13140013Y-4497492D01*
X13188790Y-4499531D01*
X13196912Y-4503301D01*
X13200000Y-4511221D01*
X13200000Y-4888779D01*
X13196573Y-4897052D01*
X13188790Y-4900469D01*
X13140013Y-4902508D01*
X13075920Y-4905188D01*
X13075914Y-4905189D01*
X13075640Y-4905200D01*
X12987820Y-4917600D01*
X12912486Y-4932340D01*
X12911878Y-4932443D01*
X12824932Y-4944719D01*
X12823786Y-4944824D01*
X12812826Y-4945282D01*
X12712140Y-4949492D01*
X12703731Y-4946414D01*
X12699951Y-4937849D01*
X12699930Y-4932443D01*
X12699000Y-4700000D01*
X12699951Y-4462150D01*
X12703411Y-4453892D01*
X12712140Y-4450508D01*
X12812826Y-4454718D01*
G37*
G04 #@! TD.AperFunction*
G04 #@! TA.AperFunction,Conductor*
G36*
X13366446Y-15747738D02*
G01*
X13469776Y-15790986D01*
X13476084Y-15797340D01*
X13475879Y-15806686D01*
X13436252Y-15892428D01*
X13436248Y-15892436D01*
X13435979Y-15892979D01*
X13399737Y-15961607D01*
X13372680Y-16022416D01*
X13355813Y-16095195D01*
X13355785Y-16095697D01*
X13355785Y-16095698D01*
X13350613Y-16188948D01*
X13346733Y-16197019D01*
X13338931Y-16200000D01*
X13161069Y-16200000D01*
X13152796Y-16196573D01*
X13149387Y-16188948D01*
X13144214Y-16095698D01*
X13144214Y-16095697D01*
X13144186Y-16095195D01*
X13127319Y-16022416D01*
X13100262Y-15961607D01*
X13064012Y-15892963D01*
X13063751Y-15892436D01*
X13024121Y-15806686D01*
X13023761Y-15797739D01*
X13030224Y-15790986D01*
X13133554Y-15747738D01*
X13245483Y-15700891D01*
X13254517Y-15700891D01*
X13366446Y-15747738D01*
G37*
G04 #@! TD.AperFunction*
G04 #@! TA.AperFunction,Conductor*
G36*
X9505834Y-1501535D02*
G01*
X10180886Y-1732892D01*
X10187602Y-1738816D01*
X10188161Y-1747753D01*
X10187813Y-1748647D01*
X10132109Y-1875795D01*
X10071309Y-2046233D01*
X10010508Y-2248328D01*
X10010475Y-2248453D01*
X10010471Y-2248469D01*
X9966471Y-2417634D01*
X9949708Y-2482079D01*
X9949690Y-2482158D01*
X9889659Y-2744208D01*
X9886527Y-2749868D01*
X9757974Y-2878421D01*
X9749701Y-2881848D01*
X9741428Y-2878421D01*
X9739732Y-2876272D01*
X9591923Y-2635429D01*
X9436359Y-2417832D01*
X9436195Y-2417641D01*
X9436190Y-2417634D01*
X9291370Y-2248469D01*
X9280796Y-2236117D01*
X9210773Y-2170473D01*
X9125526Y-2090557D01*
X9125521Y-2090553D01*
X9125233Y-2090283D01*
X8981574Y-1988744D01*
X8976796Y-1981171D01*
X8978773Y-1972437D01*
X8980461Y-1970529D01*
X9494175Y-1503942D01*
X9502603Y-1500916D01*
X9505834Y-1501535D01*
G37*
G04 #@! TD.AperFunction*
G04 #@! TA.AperFunction,Conductor*
G36*
X19750707Y-7899293D02*
G01*
X19834871Y-8104623D01*
X19839432Y-8115750D01*
X19841068Y-8119741D01*
X19841035Y-8128695D01*
X19834281Y-8135159D01*
X19745622Y-8167770D01*
X19745039Y-8167967D01*
X19670895Y-8190864D01*
X19608764Y-8214730D01*
X19545376Y-8254266D01*
X19544998Y-8254604D01*
X19544997Y-8254605D01*
X19475405Y-8316883D01*
X19466955Y-8319846D01*
X19459330Y-8316437D01*
X19333563Y-8190670D01*
X19330136Y-8182397D01*
X19333117Y-8174595D01*
X19395393Y-8105002D01*
X19395394Y-8105001D01*
X19395732Y-8104623D01*
X19435268Y-8041234D01*
X19459135Y-7979104D01*
X19482031Y-7904959D01*
X19482228Y-7904376D01*
X19518868Y-7804770D01*
X19519048Y-7804336D01*
X19750707Y-7899293D01*
G37*
G04 #@! TD.AperFunction*
G04 #@! TA.AperFunction,Conductor*
G36*
X6252309Y-1199678D02*
G01*
X6252941Y-1201709D01*
X6321048Y-1519856D01*
X6321063Y-1519919D01*
X6321072Y-1519957D01*
X6379828Y-1762169D01*
X6392096Y-1812743D01*
X6463145Y-2066630D01*
X6463183Y-2066744D01*
X6463186Y-2066755D01*
X6492716Y-2156069D01*
X6534194Y-2281518D01*
X6594029Y-2429643D01*
X6602343Y-2450226D01*
X6602265Y-2459180D01*
X6599768Y-2462881D01*
X6470650Y-2591999D01*
X6462377Y-2595426D01*
X6455825Y-2593418D01*
X6213655Y-2429643D01*
X5963488Y-2299459D01*
X5913766Y-2281336D01*
X5713715Y-2208419D01*
X5713707Y-2208417D01*
X5713321Y-2208276D01*
X5463154Y-2156093D01*
X5462711Y-2156070D01*
X5462706Y-2156069D01*
X5229975Y-2143805D01*
X5221894Y-2139947D01*
X5218907Y-2131505D01*
X5219900Y-2127369D01*
X5497396Y-1503558D01*
X5503604Y-1497505D01*
X6216863Y-1201711D01*
X6237020Y-1193352D01*
X6245974Y-1193349D01*
X6252309Y-1199678D01*
G37*
G04 #@! TD.AperFunction*
G04 #@! TA.AperFunction,Conductor*
G36*
X19847204Y-7403427D02*
G01*
X19850613Y-7411052D01*
X19855813Y-7504804D01*
X19872680Y-7577582D01*
X19899737Y-7638392D01*
X19935987Y-7707035D01*
X19936242Y-7707549D01*
X19965189Y-7770183D01*
X19975879Y-7793314D01*
X19976239Y-7802261D01*
X19969776Y-7809014D01*
X19751201Y-7900497D01*
X19750000Y-7901000D01*
X19519048Y-7804336D01*
X19519228Y-7803901D01*
X19529341Y-7782019D01*
X19563757Y-7707549D01*
X19564012Y-7707035D01*
X19600262Y-7638392D01*
X19627319Y-7577582D01*
X19644186Y-7504804D01*
X19649387Y-7411052D01*
X19653267Y-7402981D01*
X19661069Y-7400000D01*
X19838931Y-7400000D01*
X19847204Y-7403427D01*
G37*
G04 #@! TD.AperFunction*
G04 #@! TA.AperFunction,Conductor*
G36*
X14666446Y-15747738D02*
G01*
X14769776Y-15790986D01*
X14776084Y-15797340D01*
X14775879Y-15806686D01*
X14736252Y-15892428D01*
X14736248Y-15892436D01*
X14735979Y-15892979D01*
X14699737Y-15961607D01*
X14672680Y-16022416D01*
X14655813Y-16095195D01*
X14655785Y-16095697D01*
X14655785Y-16095698D01*
X14650613Y-16188948D01*
X14646733Y-16197019D01*
X14638931Y-16200000D01*
X14461069Y-16200000D01*
X14452796Y-16196573D01*
X14449387Y-16188948D01*
X14444214Y-16095698D01*
X14444214Y-16095697D01*
X14444186Y-16095195D01*
X14427319Y-16022416D01*
X14400262Y-15961607D01*
X14364012Y-15892963D01*
X14363751Y-15892436D01*
X14324121Y-15806686D01*
X14323761Y-15797739D01*
X14330224Y-15790986D01*
X14433554Y-15747738D01*
X14545483Y-15700891D01*
X14554517Y-15700891D01*
X14666446Y-15747738D01*
G37*
G04 #@! TD.AperFunction*
G04 #@! TA.AperFunction,Conductor*
G36*
X8245955Y-1194718D02*
G01*
X8252279Y-1201057D01*
X8252911Y-1203096D01*
X8320279Y-1521467D01*
X8390558Y-1814594D01*
X8460837Y-2068721D01*
X8460875Y-2068837D01*
X8460877Y-2068844D01*
X8506813Y-2209452D01*
X8531117Y-2283848D01*
X8531184Y-2284015D01*
X8531188Y-2284027D01*
X8558071Y-2351398D01*
X8598541Y-2452819D01*
X8598424Y-2461771D01*
X8595947Y-2465426D01*
X8466824Y-2594549D01*
X8458551Y-2597976D01*
X8451969Y-2595949D01*
X8210578Y-2431699D01*
X8210277Y-2431541D01*
X7961524Y-2301182D01*
X7961521Y-2301180D01*
X7961180Y-2301002D01*
X7914525Y-2283848D01*
X7712185Y-2209452D01*
X7712183Y-2209451D01*
X7711782Y-2209304D01*
X7711365Y-2209216D01*
X7711362Y-2209215D01*
X7462826Y-2156700D01*
X7462821Y-2156699D01*
X7462384Y-2156607D01*
X7461934Y-2156582D01*
X7461932Y-2156582D01*
X7379250Y-2152041D01*
X7229932Y-2143841D01*
X7221861Y-2139966D01*
X7218893Y-2131517D01*
X7219885Y-2127404D01*
X7497392Y-1503567D01*
X7503617Y-1497508D01*
X8237000Y-1194708D01*
X8245955Y-1194718D01*
G37*
G04 #@! TD.AperFunction*
G04 #@! TA.AperFunction,Conductor*
G36*
X14016446Y-15697738D02*
G01*
X14119776Y-15740986D01*
X14126084Y-15747340D01*
X14125879Y-15756686D01*
X14086252Y-15842428D01*
X14086248Y-15842436D01*
X14085979Y-15842979D01*
X14049737Y-15911607D01*
X14022680Y-15972416D01*
X14005813Y-16045195D01*
X14005785Y-16045697D01*
X14005785Y-16045698D01*
X14000613Y-16138948D01*
X13996733Y-16147019D01*
X13988931Y-16150000D01*
X13811069Y-16150000D01*
X13802796Y-16146573D01*
X13799387Y-16138948D01*
X13794214Y-16045698D01*
X13794214Y-16045697D01*
X13794186Y-16045195D01*
X13777319Y-15972416D01*
X13750262Y-15911607D01*
X13714012Y-15842963D01*
X13713751Y-15842436D01*
X13674121Y-15756686D01*
X13673761Y-15747739D01*
X13680224Y-15740986D01*
X13783554Y-15697738D01*
X13895483Y-15650891D01*
X13904517Y-15650891D01*
X14016446Y-15697738D01*
G37*
G04 #@! TD.AperFunction*
G04 #@! TA.AperFunction,Conductor*
G36*
X12666446Y-6097738D02*
G01*
X12769776Y-6140986D01*
X12776084Y-6147340D01*
X12775879Y-6156686D01*
X12736252Y-6242428D01*
X12736248Y-6242436D01*
X12735979Y-6242979D01*
X12699737Y-6311607D01*
X12672680Y-6372416D01*
X12655813Y-6445195D01*
X12655785Y-6445697D01*
X12655785Y-6445698D01*
X12650613Y-6538948D01*
X12646733Y-6547019D01*
X12638931Y-6550000D01*
X12461069Y-6550000D01*
X12452796Y-6546573D01*
X12449387Y-6538948D01*
X12444214Y-6445698D01*
X12444214Y-6445697D01*
X12444186Y-6445195D01*
X12427319Y-6372416D01*
X12400262Y-6311607D01*
X12364012Y-6242963D01*
X12363751Y-6242436D01*
X12324121Y-6156686D01*
X12323761Y-6147739D01*
X12330224Y-6140986D01*
X12433554Y-6097738D01*
X12545483Y-6050891D01*
X12554517Y-6050891D01*
X12666446Y-6097738D01*
G37*
G04 #@! TD.AperFunction*
G04 #@! TA.AperFunction,Conductor*
G36*
X11996300Y-10549368D02*
G01*
X11999724Y-10557910D01*
X11997070Y-10673218D01*
X11996994Y-10674304D01*
X11992138Y-10715666D01*
X11986513Y-10763584D01*
X11986175Y-10765318D01*
X11965503Y-10840599D01*
X11965091Y-10841828D01*
X11931151Y-10927089D01*
X11931056Y-10927322D01*
X11885478Y-11035018D01*
X11879098Y-11041301D01*
X11870267Y-11041284D01*
X11652189Y-10951897D01*
X11648331Y-10949322D01*
X11626366Y-10927232D01*
X11541442Y-10841828D01*
X11483267Y-10783323D01*
X11479863Y-10775040D01*
X11483313Y-10766777D01*
X11485082Y-10765332D01*
X11559723Y-10715666D01*
X11563011Y-10714151D01*
X11648812Y-10689808D01*
X11649274Y-10689687D01*
X11724397Y-10671657D01*
X11724398Y-10671656D01*
X11725504Y-10671391D01*
X11779525Y-10632492D01*
X11797869Y-10554947D01*
X11803109Y-10547686D01*
X11809255Y-10545941D01*
X11988027Y-10545941D01*
X11996300Y-10549368D01*
G37*
G04 #@! TD.AperFunction*
D17*
X2000000Y0D02*
X23000000Y0D01*
X25000000Y-2000000D02*
G75*
G03*
X23000000Y0I-2000000J0D01*
G01*
X2000000Y0D02*
G75*
G03*
X0Y-2000000I-1J-1999999D01*
G01*
X23000000Y-25000000D02*
G75*
G03*
X25000000Y-23000000I0J2000000D01*
G01*
X25000000Y-2000000D02*
X25000000Y-23000000D01*
X2000000Y-25000000D02*
X23000000Y-25000000D01*
X0Y-23000000D02*
G75*
G03*
X2000000Y-25000000I1999995J-5D01*
G01*
X0Y-23000000D02*
X0Y-2000000D01*
M02*
