%FSLAX45Y45*%
G04 Gerber Fmt 4.5, Leading zero omitted, Abs format (unit mm)*
G04 Created by KiCad (PCBNEW (6.99.0-1912-g359c99991b)) date 2022-08-15 10:18:19*
%MOMM*%
%LPD*%
G01*
G04 APERTURE LIST*
%TA.AperFunction,Profile*%
%ADD10C,0.100000*%
%TD*%
%ADD11C,0.200000*%
%ADD12C,0.025000*%
%ADD13C,0.035000*%
%ADD14C,0.100000*%
G04 APERTURE END LIST*
D10*
X200000Y0D02*
X2300000Y0D01*
X2500000Y-200000D02*
G75*
G03*
X2300000Y0I-200000J0D01*
G01*
X200000Y0D02*
G75*
G03*
X0Y-200000I0J-200000D01*
G01*
X2300000Y-2500000D02*
G75*
G03*
X2500000Y-2300000I0J200000D01*
G01*
X2500000Y-200000D02*
X2500000Y-2300000D01*
X200000Y-2500000D02*
X2300000Y-2500000D01*
X0Y-2300000D02*
G75*
G03*
X200000Y-2500000I199999J-1D01*
G01*
X0Y-2300000D02*
X0Y-200000D01*
D11*
D12*
X322500Y-1552500D02*
X347500Y-1577500D01*
X347500Y-1552500D02*
X322500Y-1577500D01*
X392500Y-1492500D02*
X417500Y-1517500D01*
X417500Y-1492500D02*
X392500Y-1517500D01*
X457500Y-1132500D02*
X482500Y-1157500D01*
X482500Y-1132500D02*
X457500Y-1157500D01*
X517500Y-1652500D02*
X542500Y-1677500D01*
X542500Y-1652500D02*
X517500Y-1677500D01*
X543634Y-514078D02*
X568634Y-539078D01*
X568634Y-514078D02*
X543634Y-539078D01*
X547500Y-777500D02*
X572500Y-802500D01*
X572500Y-777500D02*
X547500Y-802500D01*
X557500Y-267500D02*
X582500Y-292500D01*
X582500Y-267500D02*
X557500Y-292500D01*
X559279Y-640900D02*
X584279Y-665900D01*
X584279Y-640900D02*
X559279Y-665900D01*
X582500Y-1687500D02*
X607500Y-1712500D01*
X607500Y-1687500D02*
X582500Y-1712500D01*
X637500Y-1742500D02*
X662500Y-1767500D01*
X662500Y-1742500D02*
X637500Y-1767500D01*
X697500Y-1772500D02*
X722500Y-1797500D01*
X722500Y-1772500D02*
X697500Y-1797500D01*
X707500Y-1972500D02*
X732500Y-1997500D01*
X732500Y-1972500D02*
X707500Y-1997500D01*
X727500Y-567500D02*
X752500Y-592500D01*
X752500Y-567500D02*
X727500Y-592500D01*
X762500Y-2152500D02*
X787500Y-2177500D01*
X787500Y-2152500D02*
X762500Y-2177500D01*
X797500Y-737500D02*
X822500Y-762500D01*
X822500Y-737500D02*
X797500Y-762500D01*
X807500Y-1647500D02*
X832500Y-1672500D01*
X832500Y-1647500D02*
X807500Y-1672500D01*
X917500Y-1007500D02*
X942500Y-1032500D01*
X942500Y-1007500D02*
X917500Y-1032500D01*
X987500Y-1087500D02*
X1012500Y-1112500D01*
X1012500Y-1087500D02*
X987500Y-1112500D01*
X992500Y-1157500D02*
X1017500Y-1182500D01*
X1017500Y-1157500D02*
X992500Y-1182500D01*
X992500Y-1227500D02*
X1017500Y-1252500D01*
X1017500Y-1227500D02*
X992500Y-1252500D01*
X1027500Y-1567500D02*
X1052500Y-1592500D01*
X1052500Y-1567500D02*
X1027500Y-1592500D01*
X1077500Y-267500D02*
X1102500Y-292500D01*
X1102500Y-267500D02*
X1077500Y-292500D01*
X1077500Y-1107500D02*
X1102500Y-1132500D01*
X1102500Y-1107500D02*
X1077500Y-1132500D01*
X1097500Y-1557500D02*
X1122500Y-1582500D01*
X1122500Y-1557500D02*
X1097500Y-1582500D01*
X1152500Y-1082500D02*
X1177500Y-1107500D01*
X1177500Y-1082500D02*
X1152500Y-1107500D01*
X1227500Y-1582500D02*
X1252500Y-1607500D01*
X1252500Y-1582500D02*
X1227500Y-1607500D01*
X1227500Y-1992500D02*
X1252500Y-2017500D01*
X1252500Y-1992500D02*
X1227500Y-2017500D01*
X1242500Y-592500D02*
X1267500Y-617500D01*
X1267500Y-592500D02*
X1242500Y-617500D01*
X1257500Y-457500D02*
X1282500Y-482500D01*
X1282500Y-457500D02*
X1257500Y-482500D01*
X1312500Y-1557500D02*
X1337500Y-1582500D01*
X1337500Y-1557500D02*
X1312500Y-1582500D01*
X1322500Y-842500D02*
X1347500Y-867500D01*
X1347500Y-842500D02*
X1322500Y-867500D01*
X1377500Y-1552500D02*
X1402500Y-1577500D01*
X1402500Y-1552500D02*
X1377500Y-1577500D01*
X1402500Y-1082500D02*
X1427500Y-1107500D01*
X1427500Y-1082500D02*
X1402500Y-1107500D01*
X1442500Y-1557500D02*
X1467500Y-1582500D01*
X1467500Y-1557500D02*
X1442500Y-1582500D01*
X1462500Y-1492500D02*
X1487500Y-1517500D01*
X1487500Y-1492500D02*
X1462500Y-1517500D01*
X1467500Y-622500D02*
X1492500Y-647500D01*
X1492500Y-622500D02*
X1467500Y-647500D01*
X1467500Y-1362500D02*
X1492500Y-1387500D01*
X1492500Y-1362500D02*
X1467500Y-1387500D01*
X1482500Y-1092500D02*
X1507500Y-1117500D01*
X1507500Y-1092500D02*
X1482500Y-1117500D01*
X1612500Y-627500D02*
X1637500Y-652500D01*
X1637500Y-627500D02*
X1612500Y-652500D01*
X1627500Y-852500D02*
X1652500Y-877500D01*
X1652500Y-852500D02*
X1627500Y-877500D01*
X1687500Y-247500D02*
X1712500Y-272500D01*
X1712500Y-247500D02*
X1687500Y-272500D01*
X1732500Y-1662500D02*
X1757500Y-1687500D01*
X1757500Y-1662500D02*
X1732500Y-1687500D01*
X1747500Y-627500D02*
X1772500Y-652500D01*
X1772500Y-627500D02*
X1747500Y-652500D01*
X1777500Y-867500D02*
X1802500Y-892500D01*
X1802500Y-867500D02*
X1777500Y-892500D01*
X1782500Y-1427500D02*
X1807500Y-1452500D01*
X1807500Y-1427500D02*
X1782500Y-1452500D01*
X1822500Y-1842500D02*
X1847500Y-1867500D01*
X1847500Y-1842500D02*
X1822500Y-1867500D01*
X1877500Y-317500D02*
X1902500Y-342500D01*
X1902500Y-317500D02*
X1877500Y-342500D01*
X1907500Y-1847500D02*
X1932500Y-1872500D01*
X1932500Y-1847500D02*
X1907500Y-1872500D01*
X1907500Y-2162500D02*
X1932500Y-2187500D01*
X1932500Y-2162500D02*
X1907500Y-2187500D01*
X1962500Y-777500D02*
X1987500Y-802500D01*
X1987500Y-777500D02*
X1962500Y-802500D01*
X1962500Y-1987500D02*
X1987500Y-2012500D01*
X1987500Y-1987500D02*
X1962500Y-2012500D01*
X1967500Y-2062500D02*
X1992500Y-2087500D01*
X1992500Y-2062500D02*
X1967500Y-2087500D01*
X2037500Y-1492500D02*
X2062500Y-1517500D01*
X2062500Y-1492500D02*
X2037500Y-1517500D01*
X2047500Y-257500D02*
X2072500Y-282500D01*
X2072500Y-257500D02*
X2047500Y-282500D01*
X2062500Y-1402500D02*
X2087500Y-1427500D01*
X2087500Y-1402500D02*
X2062500Y-1427500D01*
X2157500Y-407500D02*
X2182500Y-432500D01*
X2182500Y-407500D02*
X2157500Y-432500D01*
X2157500Y-557500D02*
X2182500Y-582500D01*
X2182500Y-557500D02*
X2157500Y-582500D01*
X2157500Y-757500D02*
X2182500Y-782500D01*
X2182500Y-757500D02*
X2157500Y-782500D01*
X2212500Y-1212500D02*
X2237500Y-1237500D01*
X2237500Y-1212500D02*
X2212500Y-1237500D01*
X2222500Y-1832500D02*
X2247500Y-1857500D01*
X2247500Y-1832500D02*
X2222500Y-1857500D01*
D13*
X1140000Y-1222500D02*
G75*
G03*
X1140000Y-1222500I-17500J0D01*
G01*
X1140000Y-1350000D02*
G75*
G03*
X1140000Y-1350000I-17500J0D01*
G01*
X1140000Y-1477500D02*
G75*
G03*
X1140000Y-1477500I-17500J0D01*
G01*
X1267500Y-1222500D02*
G75*
G03*
X1267500Y-1222500I-17500J0D01*
G01*
X1267500Y-1350000D02*
G75*
G03*
X1267500Y-1350000I-17500J0D01*
G01*
X1267500Y-1477500D02*
G75*
G03*
X1267500Y-1477500I-17500J0D01*
G01*
X1395000Y-1222500D02*
G75*
G03*
X1395000Y-1222500I-17500J0D01*
G01*
X1395000Y-1350000D02*
G75*
G03*
X1395000Y-1350000I-17500J0D01*
G01*
X1395000Y-1477500D02*
G75*
G03*
X1395000Y-1477500I-17500J0D01*
G01*
D14*
X10000Y-300000D02*
X10000Y-400000D01*
X-40000Y-350000D02*
X60000Y-350000D01*
X10000Y-500000D02*
X10000Y-600000D01*
X-40000Y-550000D02*
X60000Y-550000D01*
X10000Y-700000D02*
X10000Y-800000D01*
X-40000Y-750000D02*
X60000Y-750000D01*
X10000Y-900000D02*
X10000Y-1000000D01*
X-40000Y-950000D02*
X60000Y-950000D01*
X10000Y-1100000D02*
X10000Y-1200000D01*
X-40000Y-1150000D02*
X60000Y-1150000D01*
X10000Y-1300000D02*
X10000Y-1400000D01*
X-40000Y-1350000D02*
X60000Y-1350000D01*
X10000Y-1500000D02*
X10000Y-1600000D01*
X-40000Y-1550000D02*
X60000Y-1550000D01*
X10000Y-1700000D02*
X10000Y-1800000D01*
X-40000Y-1750000D02*
X60000Y-1750000D01*
X10000Y-1900000D02*
X10000Y-2000000D01*
X-40000Y-1950000D02*
X60000Y-1950000D01*
X10000Y-2100000D02*
X10000Y-2200000D01*
X-40000Y-2150000D02*
X60000Y-2150000D01*
X150000Y-300000D02*
X150000Y-400000D01*
X100000Y-350000D02*
X200000Y-350000D01*
X150000Y-500000D02*
X150000Y-600000D01*
X100000Y-550000D02*
X200000Y-550000D01*
X150000Y-700000D02*
X150000Y-800000D01*
X100000Y-750000D02*
X200000Y-750000D01*
X150000Y-900000D02*
X150000Y-1000000D01*
X100000Y-950000D02*
X200000Y-950000D01*
X150000Y-1100000D02*
X150000Y-1200000D01*
X100000Y-1150000D02*
X200000Y-1150000D01*
X150000Y-1300000D02*
X150000Y-1400000D01*
X100000Y-1350000D02*
X200000Y-1350000D01*
X150000Y-1500000D02*
X150000Y-1600000D01*
X100000Y-1550000D02*
X200000Y-1550000D01*
X150000Y-1700000D02*
X150000Y-1800000D01*
X100000Y-1750000D02*
X200000Y-1750000D01*
X150000Y-1900000D02*
X150000Y-2000000D01*
X100000Y-1950000D02*
X200000Y-1950000D01*
X150000Y-2100000D02*
X150000Y-2200000D01*
X100000Y-2150000D02*
X200000Y-2150000D01*
X350000Y40000D02*
X350000Y-60000D01*
X300000Y-10000D02*
X400000Y-10000D01*
X350000Y-100000D02*
X350000Y-200000D01*
X300000Y-150000D02*
X400000Y-150000D01*
X350000Y-2300000D02*
X350000Y-2400000D01*
X300000Y-2350000D02*
X400000Y-2350000D01*
X350000Y-2440000D02*
X350000Y-2540000D01*
X300000Y-2490000D02*
X400000Y-2490000D01*
X550000Y40000D02*
X550000Y-60000D01*
X500000Y-10000D02*
X600000Y-10000D01*
X550000Y-100000D02*
X550000Y-200000D01*
X500000Y-150000D02*
X600000Y-150000D01*
X550000Y-2300000D02*
X550000Y-2400000D01*
X500000Y-2350000D02*
X600000Y-2350000D01*
X550000Y-2440000D02*
X550000Y-2540000D01*
X500000Y-2490000D02*
X600000Y-2490000D01*
X750000Y40000D02*
X750000Y-60000D01*
X700000Y-10000D02*
X800000Y-10000D01*
X750000Y-100000D02*
X750000Y-200000D01*
X700000Y-150000D02*
X800000Y-150000D01*
X750000Y-2300000D02*
X750000Y-2400000D01*
X700000Y-2350000D02*
X800000Y-2350000D01*
X750000Y-2440000D02*
X750000Y-2540000D01*
X700000Y-2490000D02*
X800000Y-2490000D01*
X950000Y40000D02*
X950000Y-60000D01*
X900000Y-10000D02*
X1000000Y-10000D01*
X950000Y-100000D02*
X950000Y-200000D01*
X900000Y-150000D02*
X1000000Y-150000D01*
X950000Y-2300000D02*
X950000Y-2400000D01*
X900000Y-2350000D02*
X1000000Y-2350000D01*
X950000Y-2440000D02*
X950000Y-2540000D01*
X900000Y-2490000D02*
X1000000Y-2490000D01*
X1150000Y40000D02*
X1150000Y-60000D01*
X1100000Y-10000D02*
X1200000Y-10000D01*
X1150000Y-100000D02*
X1150000Y-200000D01*
X1100000Y-150000D02*
X1200000Y-150000D01*
X1150000Y-2300000D02*
X1150000Y-2400000D01*
X1100000Y-2350000D02*
X1200000Y-2350000D01*
X1150000Y-2440000D02*
X1150000Y-2540000D01*
X1100000Y-2490000D02*
X1200000Y-2490000D01*
X1350000Y40000D02*
X1350000Y-60000D01*
X1300000Y-10000D02*
X1400000Y-10000D01*
X1350000Y-100000D02*
X1350000Y-200000D01*
X1300000Y-150000D02*
X1400000Y-150000D01*
X1350000Y-2300000D02*
X1350000Y-2400000D01*
X1300000Y-2350000D02*
X1400000Y-2350000D01*
X1350000Y-2440000D02*
X1350000Y-2540000D01*
X1300000Y-2490000D02*
X1400000Y-2490000D01*
X1550000Y40000D02*
X1550000Y-60000D01*
X1500000Y-10000D02*
X1600000Y-10000D01*
X1550000Y-100000D02*
X1550000Y-200000D01*
X1500000Y-150000D02*
X1600000Y-150000D01*
X1550000Y-2300000D02*
X1550000Y-2400000D01*
X1500000Y-2350000D02*
X1600000Y-2350000D01*
X1550000Y-2440000D02*
X1550000Y-2540000D01*
X1500000Y-2490000D02*
X1600000Y-2490000D01*
X1750000Y40000D02*
X1750000Y-60000D01*
X1700000Y-10000D02*
X1800000Y-10000D01*
X1750000Y-100000D02*
X1750000Y-200000D01*
X1700000Y-150000D02*
X1800000Y-150000D01*
X1750000Y-2300000D02*
X1750000Y-2400000D01*
X1700000Y-2350000D02*
X1800000Y-2350000D01*
X1750000Y-2440000D02*
X1750000Y-2540000D01*
X1700000Y-2490000D02*
X1800000Y-2490000D01*
X1950000Y40000D02*
X1950000Y-60000D01*
X1900000Y-10000D02*
X2000000Y-10000D01*
X1950000Y-100000D02*
X1950000Y-200000D01*
X1900000Y-150000D02*
X2000000Y-150000D01*
X1950000Y-2300000D02*
X1950000Y-2400000D01*
X1900000Y-2350000D02*
X2000000Y-2350000D01*
X1950000Y-2440000D02*
X1950000Y-2540000D01*
X1900000Y-2490000D02*
X2000000Y-2490000D01*
X2150000Y40000D02*
X2150000Y-60000D01*
X2100000Y-10000D02*
X2200000Y-10000D01*
X2150000Y-100000D02*
X2150000Y-200000D01*
X2100000Y-150000D02*
X2200000Y-150000D01*
X2150000Y-2300000D02*
X2150000Y-2400000D01*
X2100000Y-2350000D02*
X2200000Y-2350000D01*
X2150000Y-2440000D02*
X2150000Y-2540000D01*
X2100000Y-2490000D02*
X2200000Y-2490000D01*
X2350000Y-300000D02*
X2350000Y-400000D01*
X2300000Y-350000D02*
X2400000Y-350000D01*
X2350000Y-500000D02*
X2350000Y-600000D01*
X2300000Y-550000D02*
X2400000Y-550000D01*
X2350000Y-700000D02*
X2350000Y-800000D01*
X2300000Y-750000D02*
X2400000Y-750000D01*
X2350000Y-900000D02*
X2350000Y-1000000D01*
X2300000Y-950000D02*
X2400000Y-950000D01*
X2350000Y-1100000D02*
X2350000Y-1200000D01*
X2300000Y-1150000D02*
X2400000Y-1150000D01*
X2350000Y-1300000D02*
X2350000Y-1400000D01*
X2300000Y-1350000D02*
X2400000Y-1350000D01*
X2350000Y-1500000D02*
X2350000Y-1600000D01*
X2300000Y-1550000D02*
X2400000Y-1550000D01*
X2350000Y-1700000D02*
X2350000Y-1800000D01*
X2300000Y-1750000D02*
X2400000Y-1750000D01*
X2350000Y-1900000D02*
X2350000Y-2000000D01*
X2300000Y-1950000D02*
X2400000Y-1950000D01*
X2350000Y-2100000D02*
X2350000Y-2200000D01*
X2300000Y-2150000D02*
X2400000Y-2150000D01*
X2490000Y-300000D02*
X2490000Y-400000D01*
X2440000Y-350000D02*
X2540000Y-350000D01*
X2490000Y-500000D02*
X2490000Y-600000D01*
X2440000Y-550000D02*
X2540000Y-550000D01*
X2490000Y-700000D02*
X2490000Y-800000D01*
X2440000Y-750000D02*
X2540000Y-750000D01*
X2490000Y-900000D02*
X2490000Y-1000000D01*
X2440000Y-950000D02*
X2540000Y-950000D01*
X2490000Y-1100000D02*
X2490000Y-1200000D01*
X2440000Y-1150000D02*
X2540000Y-1150000D01*
X2490000Y-1300000D02*
X2490000Y-1400000D01*
X2440000Y-1350000D02*
X2540000Y-1350000D01*
X2490000Y-1500000D02*
X2490000Y-1600000D01*
X2440000Y-1550000D02*
X2540000Y-1550000D01*
X2490000Y-1700000D02*
X2490000Y-1800000D01*
X2440000Y-1750000D02*
X2540000Y-1750000D01*
X2490000Y-1900000D02*
X2490000Y-2000000D01*
X2440000Y-1950000D02*
X2540000Y-1950000D01*
X2490000Y-2100000D02*
X2490000Y-2200000D01*
X2440000Y-2150000D02*
X2540000Y-2150000D01*
D11*
X242619Y-2798476D02*
X242619Y-2598476D01*
X242619Y-2598476D02*
X290238Y-2598476D01*
X290238Y-2598476D02*
X318810Y-2608000D01*
X318810Y-2608000D02*
X337857Y-2627048D01*
X337857Y-2627048D02*
X347381Y-2646095D01*
X347381Y-2646095D02*
X356905Y-2684190D01*
X356905Y-2684190D02*
X356905Y-2712762D01*
X356905Y-2712762D02*
X347381Y-2750857D01*
X347381Y-2750857D02*
X337857Y-2769905D01*
X337857Y-2769905D02*
X318810Y-2788952D01*
X318810Y-2788952D02*
X290238Y-2798476D01*
X290238Y-2798476D02*
X242619Y-2798476D01*
X442619Y-2798476D02*
X442619Y-2665143D01*
X442619Y-2703238D02*
X452143Y-2684190D01*
X452143Y-2684190D02*
X461667Y-2674667D01*
X461667Y-2674667D02*
X480714Y-2665143D01*
X480714Y-2665143D02*
X499762Y-2665143D01*
X566429Y-2798476D02*
X566429Y-2665143D01*
X566429Y-2598476D02*
X556905Y-2608000D01*
X556905Y-2608000D02*
X566429Y-2617524D01*
X566429Y-2617524D02*
X575952Y-2608000D01*
X575952Y-2608000D02*
X566429Y-2598476D01*
X566429Y-2598476D02*
X566429Y-2617524D01*
X690238Y-2798476D02*
X671190Y-2788952D01*
X671190Y-2788952D02*
X661667Y-2769905D01*
X661667Y-2769905D02*
X661667Y-2598476D01*
X795000Y-2798476D02*
X775952Y-2788952D01*
X775952Y-2788952D02*
X766428Y-2769905D01*
X766428Y-2769905D02*
X766428Y-2598476D01*
X991190Y-2798476D02*
X991190Y-2598476D01*
X991190Y-2598476D02*
X1057857Y-2741333D01*
X1057857Y-2741333D02*
X1124524Y-2598476D01*
X1124524Y-2598476D02*
X1124524Y-2798476D01*
X1305476Y-2798476D02*
X1305476Y-2693714D01*
X1305476Y-2693714D02*
X1295952Y-2674667D01*
X1295952Y-2674667D02*
X1276905Y-2665143D01*
X1276905Y-2665143D02*
X1238809Y-2665143D01*
X1238809Y-2665143D02*
X1219762Y-2674667D01*
X1305476Y-2788952D02*
X1286429Y-2798476D01*
X1286429Y-2798476D02*
X1238809Y-2798476D01*
X1238809Y-2798476D02*
X1219762Y-2788952D01*
X1219762Y-2788952D02*
X1210238Y-2769905D01*
X1210238Y-2769905D02*
X1210238Y-2750857D01*
X1210238Y-2750857D02*
X1219762Y-2731810D01*
X1219762Y-2731810D02*
X1238809Y-2722286D01*
X1238809Y-2722286D02*
X1286429Y-2722286D01*
X1286429Y-2722286D02*
X1305476Y-2712762D01*
X1400714Y-2665143D02*
X1400714Y-2865143D01*
X1400714Y-2674667D02*
X1419762Y-2665143D01*
X1419762Y-2665143D02*
X1457857Y-2665143D01*
X1457857Y-2665143D02*
X1476905Y-2674667D01*
X1476905Y-2674667D02*
X1486428Y-2684190D01*
X1486428Y-2684190D02*
X1495952Y-2703238D01*
X1495952Y-2703238D02*
X1495952Y-2760381D01*
X1495952Y-2760381D02*
X1486428Y-2779429D01*
X1486428Y-2779429D02*
X1476905Y-2788952D01*
X1476905Y-2788952D02*
X1457857Y-2798476D01*
X1457857Y-2798476D02*
X1419762Y-2798476D01*
X1419762Y-2798476D02*
X1400714Y-2788952D01*
X1581667Y-2779429D02*
X1591190Y-2788952D01*
X1591190Y-2788952D02*
X1581667Y-2798476D01*
X1581667Y-2798476D02*
X1572143Y-2788952D01*
X1572143Y-2788952D02*
X1581667Y-2779429D01*
X1581667Y-2779429D02*
X1581667Y-2798476D01*
X1581667Y-2674667D02*
X1591190Y-2684190D01*
X1591190Y-2684190D02*
X1581667Y-2693714D01*
X1581667Y-2693714D02*
X1572143Y-2684190D01*
X1572143Y-2684190D02*
X1581667Y-2674667D01*
X1581667Y-2674667D02*
X1581667Y-2693714D01*
D12*
X-30000Y-3132500D02*
X-5000Y-3157500D01*
X-5000Y-3132500D02*
X-30000Y-3157500D01*
D11*
X280714Y-3018476D02*
X299762Y-3018476D01*
X299762Y-3018476D02*
X318810Y-3028000D01*
X318810Y-3028000D02*
X328333Y-3037524D01*
X328333Y-3037524D02*
X337857Y-3056571D01*
X337857Y-3056571D02*
X347381Y-3094667D01*
X347381Y-3094667D02*
X347381Y-3142286D01*
X347381Y-3142286D02*
X337857Y-3180381D01*
X337857Y-3180381D02*
X328333Y-3199428D01*
X328333Y-3199428D02*
X318810Y-3208952D01*
X318810Y-3208952D02*
X299762Y-3218476D01*
X299762Y-3218476D02*
X280714Y-3218476D01*
X280714Y-3218476D02*
X261667Y-3208952D01*
X261667Y-3208952D02*
X252143Y-3199428D01*
X252143Y-3199428D02*
X242619Y-3180381D01*
X242619Y-3180381D02*
X233095Y-3142286D01*
X233095Y-3142286D02*
X233095Y-3094667D01*
X233095Y-3094667D02*
X242619Y-3056571D01*
X242619Y-3056571D02*
X252143Y-3037524D01*
X252143Y-3037524D02*
X261667Y-3028000D01*
X261667Y-3028000D02*
X280714Y-3018476D01*
X433095Y-3199428D02*
X442619Y-3208952D01*
X442619Y-3208952D02*
X433095Y-3218476D01*
X433095Y-3218476D02*
X423571Y-3208952D01*
X423571Y-3208952D02*
X433095Y-3199428D01*
X433095Y-3199428D02*
X433095Y-3218476D01*
X518809Y-3037524D02*
X528333Y-3028000D01*
X528333Y-3028000D02*
X547381Y-3018476D01*
X547381Y-3018476D02*
X595000Y-3018476D01*
X595000Y-3018476D02*
X614048Y-3028000D01*
X614048Y-3028000D02*
X623571Y-3037524D01*
X623571Y-3037524D02*
X633095Y-3056571D01*
X633095Y-3056571D02*
X633095Y-3075619D01*
X633095Y-3075619D02*
X623571Y-3104190D01*
X623571Y-3104190D02*
X509286Y-3218476D01*
X509286Y-3218476D02*
X633095Y-3218476D01*
X814048Y-3018476D02*
X718809Y-3018476D01*
X718809Y-3018476D02*
X709286Y-3113714D01*
X709286Y-3113714D02*
X718809Y-3104190D01*
X718809Y-3104190D02*
X737857Y-3094667D01*
X737857Y-3094667D02*
X785476Y-3094667D01*
X785476Y-3094667D02*
X804524Y-3104190D01*
X804524Y-3104190D02*
X814048Y-3113714D01*
X814048Y-3113714D02*
X823571Y-3132762D01*
X823571Y-3132762D02*
X823571Y-3180381D01*
X823571Y-3180381D02*
X814048Y-3199428D01*
X814048Y-3199428D02*
X804524Y-3208952D01*
X804524Y-3208952D02*
X785476Y-3218476D01*
X785476Y-3218476D02*
X737857Y-3218476D01*
X737857Y-3218476D02*
X718809Y-3208952D01*
X718809Y-3208952D02*
X709286Y-3199428D01*
X947381Y-3018476D02*
X966429Y-3018476D01*
X966429Y-3018476D02*
X985476Y-3028000D01*
X985476Y-3028000D02*
X995000Y-3037524D01*
X995000Y-3037524D02*
X1004524Y-3056571D01*
X1004524Y-3056571D02*
X1014048Y-3094667D01*
X1014048Y-3094667D02*
X1014048Y-3142286D01*
X1014048Y-3142286D02*
X1004524Y-3180381D01*
X1004524Y-3180381D02*
X995000Y-3199428D01*
X995000Y-3199428D02*
X985476Y-3208952D01*
X985476Y-3208952D02*
X966429Y-3218476D01*
X966429Y-3218476D02*
X947381Y-3218476D01*
X947381Y-3218476D02*
X928333Y-3208952D01*
X928333Y-3208952D02*
X918809Y-3199428D01*
X918809Y-3199428D02*
X909286Y-3180381D01*
X909286Y-3180381D02*
X899762Y-3142286D01*
X899762Y-3142286D02*
X899762Y-3094667D01*
X899762Y-3094667D02*
X909286Y-3056571D01*
X909286Y-3056571D02*
X918809Y-3037524D01*
X918809Y-3037524D02*
X928333Y-3028000D01*
X928333Y-3028000D02*
X947381Y-3018476D01*
X1099762Y-3218476D02*
X1099762Y-3085143D01*
X1099762Y-3104190D02*
X1109286Y-3094667D01*
X1109286Y-3094667D02*
X1128333Y-3085143D01*
X1128333Y-3085143D02*
X1156905Y-3085143D01*
X1156905Y-3085143D02*
X1175952Y-3094667D01*
X1175952Y-3094667D02*
X1185476Y-3113714D01*
X1185476Y-3113714D02*
X1185476Y-3218476D01*
X1185476Y-3113714D02*
X1195000Y-3094667D01*
X1195000Y-3094667D02*
X1214048Y-3085143D01*
X1214048Y-3085143D02*
X1242619Y-3085143D01*
X1242619Y-3085143D02*
X1261667Y-3094667D01*
X1261667Y-3094667D02*
X1271191Y-3113714D01*
X1271191Y-3113714D02*
X1271191Y-3218476D01*
X1366429Y-3218476D02*
X1366429Y-3085143D01*
X1366429Y-3104190D02*
X1375952Y-3094667D01*
X1375952Y-3094667D02*
X1395000Y-3085143D01*
X1395000Y-3085143D02*
X1423571Y-3085143D01*
X1423571Y-3085143D02*
X1442619Y-3094667D01*
X1442619Y-3094667D02*
X1452143Y-3113714D01*
X1452143Y-3113714D02*
X1452143Y-3218476D01*
X1452143Y-3113714D02*
X1461667Y-3094667D01*
X1461667Y-3094667D02*
X1480714Y-3085143D01*
X1480714Y-3085143D02*
X1509286Y-3085143D01*
X1509286Y-3085143D02*
X1528333Y-3094667D01*
X1528333Y-3094667D02*
X1537857Y-3113714D01*
X1537857Y-3113714D02*
X1537857Y-3218476D01*
X1895952Y-3008952D02*
X1724524Y-3266095D01*
X2120714Y-3018476D02*
X2139762Y-3018476D01*
X2139762Y-3018476D02*
X2158810Y-3028000D01*
X2158810Y-3028000D02*
X2168333Y-3037524D01*
X2168333Y-3037524D02*
X2177857Y-3056571D01*
X2177857Y-3056571D02*
X2187381Y-3094667D01*
X2187381Y-3094667D02*
X2187381Y-3142286D01*
X2187381Y-3142286D02*
X2177857Y-3180381D01*
X2177857Y-3180381D02*
X2168333Y-3199428D01*
X2168333Y-3199428D02*
X2158810Y-3208952D01*
X2158810Y-3208952D02*
X2139762Y-3218476D01*
X2139762Y-3218476D02*
X2120714Y-3218476D01*
X2120714Y-3218476D02*
X2101667Y-3208952D01*
X2101667Y-3208952D02*
X2092143Y-3199428D01*
X2092143Y-3199428D02*
X2082619Y-3180381D01*
X2082619Y-3180381D02*
X2073095Y-3142286D01*
X2073095Y-3142286D02*
X2073095Y-3094667D01*
X2073095Y-3094667D02*
X2082619Y-3056571D01*
X2082619Y-3056571D02*
X2092143Y-3037524D01*
X2092143Y-3037524D02*
X2101667Y-3028000D01*
X2101667Y-3028000D02*
X2120714Y-3018476D01*
X2273095Y-3199428D02*
X2282619Y-3208952D01*
X2282619Y-3208952D02*
X2273095Y-3218476D01*
X2273095Y-3218476D02*
X2263572Y-3208952D01*
X2263572Y-3208952D02*
X2273095Y-3199428D01*
X2273095Y-3199428D02*
X2273095Y-3218476D01*
X2406429Y-3018476D02*
X2425476Y-3018476D01*
X2425476Y-3018476D02*
X2444524Y-3028000D01*
X2444524Y-3028000D02*
X2454048Y-3037524D01*
X2454048Y-3037524D02*
X2463572Y-3056571D01*
X2463572Y-3056571D02*
X2473095Y-3094667D01*
X2473095Y-3094667D02*
X2473095Y-3142286D01*
X2473095Y-3142286D02*
X2463572Y-3180381D01*
X2463572Y-3180381D02*
X2454048Y-3199428D01*
X2454048Y-3199428D02*
X2444524Y-3208952D01*
X2444524Y-3208952D02*
X2425476Y-3218476D01*
X2425476Y-3218476D02*
X2406429Y-3218476D01*
X2406429Y-3218476D02*
X2387381Y-3208952D01*
X2387381Y-3208952D02*
X2377857Y-3199428D01*
X2377857Y-3199428D02*
X2368333Y-3180381D01*
X2368333Y-3180381D02*
X2358810Y-3142286D01*
X2358810Y-3142286D02*
X2358810Y-3094667D01*
X2358810Y-3094667D02*
X2368333Y-3056571D01*
X2368333Y-3056571D02*
X2377857Y-3037524D01*
X2377857Y-3037524D02*
X2387381Y-3028000D01*
X2387381Y-3028000D02*
X2406429Y-3018476D01*
X2596905Y-3018476D02*
X2615953Y-3018476D01*
X2615953Y-3018476D02*
X2635000Y-3028000D01*
X2635000Y-3028000D02*
X2644524Y-3037524D01*
X2644524Y-3037524D02*
X2654048Y-3056571D01*
X2654048Y-3056571D02*
X2663572Y-3094667D01*
X2663572Y-3094667D02*
X2663572Y-3142286D01*
X2663572Y-3142286D02*
X2654048Y-3180381D01*
X2654048Y-3180381D02*
X2644524Y-3199428D01*
X2644524Y-3199428D02*
X2635000Y-3208952D01*
X2635000Y-3208952D02*
X2615953Y-3218476D01*
X2615953Y-3218476D02*
X2596905Y-3218476D01*
X2596905Y-3218476D02*
X2577857Y-3208952D01*
X2577857Y-3208952D02*
X2568333Y-3199428D01*
X2568333Y-3199428D02*
X2558810Y-3180381D01*
X2558810Y-3180381D02*
X2549286Y-3142286D01*
X2549286Y-3142286D02*
X2549286Y-3094667D01*
X2549286Y-3094667D02*
X2558810Y-3056571D01*
X2558810Y-3056571D02*
X2568333Y-3037524D01*
X2568333Y-3037524D02*
X2577857Y-3028000D01*
X2577857Y-3028000D02*
X2596905Y-3018476D01*
X2758810Y-3218476D02*
X2796905Y-3218476D01*
X2796905Y-3218476D02*
X2815952Y-3208952D01*
X2815952Y-3208952D02*
X2825476Y-3199428D01*
X2825476Y-3199428D02*
X2844524Y-3170857D01*
X2844524Y-3170857D02*
X2854048Y-3132762D01*
X2854048Y-3132762D02*
X2854048Y-3056571D01*
X2854048Y-3056571D02*
X2844524Y-3037524D01*
X2844524Y-3037524D02*
X2835000Y-3028000D01*
X2835000Y-3028000D02*
X2815952Y-3018476D01*
X2815952Y-3018476D02*
X2777857Y-3018476D01*
X2777857Y-3018476D02*
X2758810Y-3028000D01*
X2758810Y-3028000D02*
X2749286Y-3037524D01*
X2749286Y-3037524D02*
X2739762Y-3056571D01*
X2739762Y-3056571D02*
X2739762Y-3104190D01*
X2739762Y-3104190D02*
X2749286Y-3123238D01*
X2749286Y-3123238D02*
X2758810Y-3132762D01*
X2758810Y-3132762D02*
X2777857Y-3142286D01*
X2777857Y-3142286D02*
X2815952Y-3142286D01*
X2815952Y-3142286D02*
X2835000Y-3132762D01*
X2835000Y-3132762D02*
X2844524Y-3123238D01*
X2844524Y-3123238D02*
X2854048Y-3104190D01*
X2968333Y-3104190D02*
X2949286Y-3094667D01*
X2949286Y-3094667D02*
X2939762Y-3085143D01*
X2939762Y-3085143D02*
X2930238Y-3066095D01*
X2930238Y-3066095D02*
X2930238Y-3056571D01*
X2930238Y-3056571D02*
X2939762Y-3037524D01*
X2939762Y-3037524D02*
X2949286Y-3028000D01*
X2949286Y-3028000D02*
X2968333Y-3018476D01*
X2968333Y-3018476D02*
X3006429Y-3018476D01*
X3006429Y-3018476D02*
X3025476Y-3028000D01*
X3025476Y-3028000D02*
X3035000Y-3037524D01*
X3035000Y-3037524D02*
X3044524Y-3056571D01*
X3044524Y-3056571D02*
X3044524Y-3066095D01*
X3044524Y-3066095D02*
X3035000Y-3085143D01*
X3035000Y-3085143D02*
X3025476Y-3094667D01*
X3025476Y-3094667D02*
X3006429Y-3104190D01*
X3006429Y-3104190D02*
X2968333Y-3104190D01*
X2968333Y-3104190D02*
X2949286Y-3113714D01*
X2949286Y-3113714D02*
X2939762Y-3123238D01*
X2939762Y-3123238D02*
X2930238Y-3142286D01*
X2930238Y-3142286D02*
X2930238Y-3180381D01*
X2930238Y-3180381D02*
X2939762Y-3199428D01*
X2939762Y-3199428D02*
X2949286Y-3208952D01*
X2949286Y-3208952D02*
X2968333Y-3218476D01*
X2968333Y-3218476D02*
X3006429Y-3218476D01*
X3006429Y-3218476D02*
X3025476Y-3208952D01*
X3025476Y-3208952D02*
X3035000Y-3199428D01*
X3035000Y-3199428D02*
X3044524Y-3180381D01*
X3044524Y-3180381D02*
X3044524Y-3142286D01*
X3044524Y-3142286D02*
X3035000Y-3123238D01*
X3035000Y-3123238D02*
X3025476Y-3113714D01*
X3025476Y-3113714D02*
X3006429Y-3104190D01*
X3120714Y-3018476D02*
X3120714Y-3056571D01*
X3196905Y-3018476D02*
X3196905Y-3056571D01*
X3459762Y-3294667D02*
X3450238Y-3285143D01*
X3450238Y-3285143D02*
X3431191Y-3256571D01*
X3431191Y-3256571D02*
X3421667Y-3237524D01*
X3421667Y-3237524D02*
X3412143Y-3208952D01*
X3412143Y-3208952D02*
X3402619Y-3161333D01*
X3402619Y-3161333D02*
X3402619Y-3123238D01*
X3402619Y-3123238D02*
X3412143Y-3075619D01*
X3412143Y-3075619D02*
X3421667Y-3047048D01*
X3421667Y-3047048D02*
X3431191Y-3028000D01*
X3431191Y-3028000D02*
X3450238Y-2999428D01*
X3450238Y-2999428D02*
X3459762Y-2989905D01*
X3621667Y-3018476D02*
X3583571Y-3018476D01*
X3583571Y-3018476D02*
X3564524Y-3028000D01*
X3564524Y-3028000D02*
X3555000Y-3037524D01*
X3555000Y-3037524D02*
X3535952Y-3066095D01*
X3535952Y-3066095D02*
X3526429Y-3104190D01*
X3526429Y-3104190D02*
X3526429Y-3180381D01*
X3526429Y-3180381D02*
X3535952Y-3199428D01*
X3535952Y-3199428D02*
X3545476Y-3208952D01*
X3545476Y-3208952D02*
X3564524Y-3218476D01*
X3564524Y-3218476D02*
X3602619Y-3218476D01*
X3602619Y-3218476D02*
X3621667Y-3208952D01*
X3621667Y-3208952D02*
X3631191Y-3199428D01*
X3631191Y-3199428D02*
X3640714Y-3180381D01*
X3640714Y-3180381D02*
X3640714Y-3132762D01*
X3640714Y-3132762D02*
X3631191Y-3113714D01*
X3631191Y-3113714D02*
X3621667Y-3104190D01*
X3621667Y-3104190D02*
X3602619Y-3094667D01*
X3602619Y-3094667D02*
X3564524Y-3094667D01*
X3564524Y-3094667D02*
X3545476Y-3104190D01*
X3545476Y-3104190D02*
X3535952Y-3113714D01*
X3535952Y-3113714D02*
X3526429Y-3132762D01*
X3764524Y-3018476D02*
X3783572Y-3018476D01*
X3783572Y-3018476D02*
X3802619Y-3028000D01*
X3802619Y-3028000D02*
X3812143Y-3037524D01*
X3812143Y-3037524D02*
X3821667Y-3056571D01*
X3821667Y-3056571D02*
X3831191Y-3094667D01*
X3831191Y-3094667D02*
X3831191Y-3142286D01*
X3831191Y-3142286D02*
X3821667Y-3180381D01*
X3821667Y-3180381D02*
X3812143Y-3199428D01*
X3812143Y-3199428D02*
X3802619Y-3208952D01*
X3802619Y-3208952D02*
X3783572Y-3218476D01*
X3783572Y-3218476D02*
X3764524Y-3218476D01*
X3764524Y-3218476D02*
X3745476Y-3208952D01*
X3745476Y-3208952D02*
X3735952Y-3199428D01*
X3735952Y-3199428D02*
X3726429Y-3180381D01*
X3726429Y-3180381D02*
X3716905Y-3142286D01*
X3716905Y-3142286D02*
X3716905Y-3094667D01*
X3716905Y-3094667D02*
X3726429Y-3056571D01*
X3726429Y-3056571D02*
X3735952Y-3037524D01*
X3735952Y-3037524D02*
X3745476Y-3028000D01*
X3745476Y-3028000D02*
X3764524Y-3018476D01*
X4036905Y-3218476D02*
X4036905Y-3018476D01*
X4122619Y-3218476D02*
X4122619Y-3113714D01*
X4122619Y-3113714D02*
X4113095Y-3094667D01*
X4113095Y-3094667D02*
X4094048Y-3085143D01*
X4094048Y-3085143D02*
X4065476Y-3085143D01*
X4065476Y-3085143D02*
X4046429Y-3094667D01*
X4046429Y-3094667D02*
X4036905Y-3104190D01*
X4246429Y-3218476D02*
X4227381Y-3208952D01*
X4227381Y-3208952D02*
X4217857Y-3199428D01*
X4217857Y-3199428D02*
X4208334Y-3180381D01*
X4208334Y-3180381D02*
X4208334Y-3123238D01*
X4208334Y-3123238D02*
X4217857Y-3104190D01*
X4217857Y-3104190D02*
X4227381Y-3094667D01*
X4227381Y-3094667D02*
X4246429Y-3085143D01*
X4246429Y-3085143D02*
X4275000Y-3085143D01*
X4275000Y-3085143D02*
X4294048Y-3094667D01*
X4294048Y-3094667D02*
X4303572Y-3104190D01*
X4303572Y-3104190D02*
X4313095Y-3123238D01*
X4313095Y-3123238D02*
X4313095Y-3180381D01*
X4313095Y-3180381D02*
X4303572Y-3199428D01*
X4303572Y-3199428D02*
X4294048Y-3208952D01*
X4294048Y-3208952D02*
X4275000Y-3218476D01*
X4275000Y-3218476D02*
X4246429Y-3218476D01*
X4427381Y-3218476D02*
X4408334Y-3208952D01*
X4408334Y-3208952D02*
X4398810Y-3189905D01*
X4398810Y-3189905D02*
X4398810Y-3018476D01*
X4579762Y-3208952D02*
X4560715Y-3218476D01*
X4560715Y-3218476D02*
X4522619Y-3218476D01*
X4522619Y-3218476D02*
X4503572Y-3208952D01*
X4503572Y-3208952D02*
X4494048Y-3189905D01*
X4494048Y-3189905D02*
X4494048Y-3113714D01*
X4494048Y-3113714D02*
X4503572Y-3094667D01*
X4503572Y-3094667D02*
X4522619Y-3085143D01*
X4522619Y-3085143D02*
X4560715Y-3085143D01*
X4560715Y-3085143D02*
X4579762Y-3094667D01*
X4579762Y-3094667D02*
X4589286Y-3113714D01*
X4589286Y-3113714D02*
X4589286Y-3132762D01*
X4589286Y-3132762D02*
X4494048Y-3151809D01*
X4665476Y-3208952D02*
X4684524Y-3218476D01*
X4684524Y-3218476D02*
X4722619Y-3218476D01*
X4722619Y-3218476D02*
X4741667Y-3208952D01*
X4741667Y-3208952D02*
X4751191Y-3189905D01*
X4751191Y-3189905D02*
X4751191Y-3180381D01*
X4751191Y-3180381D02*
X4741667Y-3161333D01*
X4741667Y-3161333D02*
X4722619Y-3151809D01*
X4722619Y-3151809D02*
X4694048Y-3151809D01*
X4694048Y-3151809D02*
X4675000Y-3142286D01*
X4675000Y-3142286D02*
X4665476Y-3123238D01*
X4665476Y-3123238D02*
X4665476Y-3113714D01*
X4665476Y-3113714D02*
X4675000Y-3094667D01*
X4675000Y-3094667D02*
X4694048Y-3085143D01*
X4694048Y-3085143D02*
X4722619Y-3085143D01*
X4722619Y-3085143D02*
X4741667Y-3094667D01*
X4817857Y-3294667D02*
X4827381Y-3285143D01*
X4827381Y-3285143D02*
X4846429Y-3256571D01*
X4846429Y-3256571D02*
X4855953Y-3237524D01*
X4855953Y-3237524D02*
X4865476Y-3208952D01*
X4865476Y-3208952D02*
X4875000Y-3161333D01*
X4875000Y-3161333D02*
X4875000Y-3123238D01*
X4875000Y-3123238D02*
X4865476Y-3075619D01*
X4865476Y-3075619D02*
X4855953Y-3047048D01*
X4855953Y-3047048D02*
X4846429Y-3028000D01*
X4846429Y-3028000D02*
X4827381Y-2999428D01*
X4827381Y-2999428D02*
X4817857Y-2989905D01*
D13*
X-5000Y-3409000D02*
G75*
G03*
X-5000Y-3409000I-17500J0D01*
G01*
D11*
X280714Y-3282476D02*
X299762Y-3282476D01*
X299762Y-3282476D02*
X318810Y-3292000D01*
X318810Y-3292000D02*
X328333Y-3301524D01*
X328333Y-3301524D02*
X337857Y-3320571D01*
X337857Y-3320571D02*
X347381Y-3358667D01*
X347381Y-3358667D02*
X347381Y-3406286D01*
X347381Y-3406286D02*
X337857Y-3444381D01*
X337857Y-3444381D02*
X328333Y-3463428D01*
X328333Y-3463428D02*
X318810Y-3472952D01*
X318810Y-3472952D02*
X299762Y-3482476D01*
X299762Y-3482476D02*
X280714Y-3482476D01*
X280714Y-3482476D02*
X261667Y-3472952D01*
X261667Y-3472952D02*
X252143Y-3463428D01*
X252143Y-3463428D02*
X242619Y-3444381D01*
X242619Y-3444381D02*
X233095Y-3406286D01*
X233095Y-3406286D02*
X233095Y-3358667D01*
X233095Y-3358667D02*
X242619Y-3320571D01*
X242619Y-3320571D02*
X252143Y-3301524D01*
X252143Y-3301524D02*
X261667Y-3292000D01*
X261667Y-3292000D02*
X280714Y-3282476D01*
X433095Y-3463428D02*
X442619Y-3472952D01*
X442619Y-3472952D02*
X433095Y-3482476D01*
X433095Y-3482476D02*
X423571Y-3472952D01*
X423571Y-3472952D02*
X433095Y-3463428D01*
X433095Y-3463428D02*
X433095Y-3482476D01*
X509286Y-3282476D02*
X633095Y-3282476D01*
X633095Y-3282476D02*
X566429Y-3358667D01*
X566429Y-3358667D02*
X595000Y-3358667D01*
X595000Y-3358667D02*
X614048Y-3368190D01*
X614048Y-3368190D02*
X623571Y-3377714D01*
X623571Y-3377714D02*
X633095Y-3396762D01*
X633095Y-3396762D02*
X633095Y-3444381D01*
X633095Y-3444381D02*
X623571Y-3463428D01*
X623571Y-3463428D02*
X614048Y-3472952D01*
X614048Y-3472952D02*
X595000Y-3482476D01*
X595000Y-3482476D02*
X537857Y-3482476D01*
X537857Y-3482476D02*
X518809Y-3472952D01*
X518809Y-3472952D02*
X509286Y-3463428D01*
X814048Y-3282476D02*
X718809Y-3282476D01*
X718809Y-3282476D02*
X709286Y-3377714D01*
X709286Y-3377714D02*
X718809Y-3368190D01*
X718809Y-3368190D02*
X737857Y-3358667D01*
X737857Y-3358667D02*
X785476Y-3358667D01*
X785476Y-3358667D02*
X804524Y-3368190D01*
X804524Y-3368190D02*
X814048Y-3377714D01*
X814048Y-3377714D02*
X823571Y-3396762D01*
X823571Y-3396762D02*
X823571Y-3444381D01*
X823571Y-3444381D02*
X814048Y-3463428D01*
X814048Y-3463428D02*
X804524Y-3472952D01*
X804524Y-3472952D02*
X785476Y-3482476D01*
X785476Y-3482476D02*
X737857Y-3482476D01*
X737857Y-3482476D02*
X718809Y-3472952D01*
X718809Y-3472952D02*
X709286Y-3463428D01*
X947381Y-3282476D02*
X966429Y-3282476D01*
X966429Y-3282476D02*
X985476Y-3292000D01*
X985476Y-3292000D02*
X995000Y-3301524D01*
X995000Y-3301524D02*
X1004524Y-3320571D01*
X1004524Y-3320571D02*
X1014048Y-3358667D01*
X1014048Y-3358667D02*
X1014048Y-3406286D01*
X1014048Y-3406286D02*
X1004524Y-3444381D01*
X1004524Y-3444381D02*
X995000Y-3463428D01*
X995000Y-3463428D02*
X985476Y-3472952D01*
X985476Y-3472952D02*
X966429Y-3482476D01*
X966429Y-3482476D02*
X947381Y-3482476D01*
X947381Y-3482476D02*
X928333Y-3472952D01*
X928333Y-3472952D02*
X918809Y-3463428D01*
X918809Y-3463428D02*
X909286Y-3444381D01*
X909286Y-3444381D02*
X899762Y-3406286D01*
X899762Y-3406286D02*
X899762Y-3358667D01*
X899762Y-3358667D02*
X909286Y-3320571D01*
X909286Y-3320571D02*
X918809Y-3301524D01*
X918809Y-3301524D02*
X928333Y-3292000D01*
X928333Y-3292000D02*
X947381Y-3282476D01*
X1099762Y-3482476D02*
X1099762Y-3349143D01*
X1099762Y-3368190D02*
X1109286Y-3358667D01*
X1109286Y-3358667D02*
X1128333Y-3349143D01*
X1128333Y-3349143D02*
X1156905Y-3349143D01*
X1156905Y-3349143D02*
X1175952Y-3358667D01*
X1175952Y-3358667D02*
X1185476Y-3377714D01*
X1185476Y-3377714D02*
X1185476Y-3482476D01*
X1185476Y-3377714D02*
X1195000Y-3358667D01*
X1195000Y-3358667D02*
X1214048Y-3349143D01*
X1214048Y-3349143D02*
X1242619Y-3349143D01*
X1242619Y-3349143D02*
X1261667Y-3358667D01*
X1261667Y-3358667D02*
X1271191Y-3377714D01*
X1271191Y-3377714D02*
X1271191Y-3482476D01*
X1366429Y-3482476D02*
X1366429Y-3349143D01*
X1366429Y-3368190D02*
X1375952Y-3358667D01*
X1375952Y-3358667D02*
X1395000Y-3349143D01*
X1395000Y-3349143D02*
X1423571Y-3349143D01*
X1423571Y-3349143D02*
X1442619Y-3358667D01*
X1442619Y-3358667D02*
X1452143Y-3377714D01*
X1452143Y-3377714D02*
X1452143Y-3482476D01*
X1452143Y-3377714D02*
X1461667Y-3358667D01*
X1461667Y-3358667D02*
X1480714Y-3349143D01*
X1480714Y-3349143D02*
X1509286Y-3349143D01*
X1509286Y-3349143D02*
X1528333Y-3358667D01*
X1528333Y-3358667D02*
X1537857Y-3377714D01*
X1537857Y-3377714D02*
X1537857Y-3482476D01*
X1895952Y-3272952D02*
X1724524Y-3530095D01*
X2120714Y-3282476D02*
X2139762Y-3282476D01*
X2139762Y-3282476D02*
X2158810Y-3292000D01*
X2158810Y-3292000D02*
X2168333Y-3301524D01*
X2168333Y-3301524D02*
X2177857Y-3320571D01*
X2177857Y-3320571D02*
X2187381Y-3358667D01*
X2187381Y-3358667D02*
X2187381Y-3406286D01*
X2187381Y-3406286D02*
X2177857Y-3444381D01*
X2177857Y-3444381D02*
X2168333Y-3463428D01*
X2168333Y-3463428D02*
X2158810Y-3472952D01*
X2158810Y-3472952D02*
X2139762Y-3482476D01*
X2139762Y-3482476D02*
X2120714Y-3482476D01*
X2120714Y-3482476D02*
X2101667Y-3472952D01*
X2101667Y-3472952D02*
X2092143Y-3463428D01*
X2092143Y-3463428D02*
X2082619Y-3444381D01*
X2082619Y-3444381D02*
X2073095Y-3406286D01*
X2073095Y-3406286D02*
X2073095Y-3358667D01*
X2073095Y-3358667D02*
X2082619Y-3320571D01*
X2082619Y-3320571D02*
X2092143Y-3301524D01*
X2092143Y-3301524D02*
X2101667Y-3292000D01*
X2101667Y-3292000D02*
X2120714Y-3282476D01*
X2273095Y-3463428D02*
X2282619Y-3472952D01*
X2282619Y-3472952D02*
X2273095Y-3482476D01*
X2273095Y-3482476D02*
X2263572Y-3472952D01*
X2263572Y-3472952D02*
X2273095Y-3463428D01*
X2273095Y-3463428D02*
X2273095Y-3482476D01*
X2406429Y-3282476D02*
X2425476Y-3282476D01*
X2425476Y-3282476D02*
X2444524Y-3292000D01*
X2444524Y-3292000D02*
X2454048Y-3301524D01*
X2454048Y-3301524D02*
X2463572Y-3320571D01*
X2463572Y-3320571D02*
X2473095Y-3358667D01*
X2473095Y-3358667D02*
X2473095Y-3406286D01*
X2473095Y-3406286D02*
X2463572Y-3444381D01*
X2463572Y-3444381D02*
X2454048Y-3463428D01*
X2454048Y-3463428D02*
X2444524Y-3472952D01*
X2444524Y-3472952D02*
X2425476Y-3482476D01*
X2425476Y-3482476D02*
X2406429Y-3482476D01*
X2406429Y-3482476D02*
X2387381Y-3472952D01*
X2387381Y-3472952D02*
X2377857Y-3463428D01*
X2377857Y-3463428D02*
X2368333Y-3444381D01*
X2368333Y-3444381D02*
X2358810Y-3406286D01*
X2358810Y-3406286D02*
X2358810Y-3358667D01*
X2358810Y-3358667D02*
X2368333Y-3320571D01*
X2368333Y-3320571D02*
X2377857Y-3301524D01*
X2377857Y-3301524D02*
X2387381Y-3292000D01*
X2387381Y-3292000D02*
X2406429Y-3282476D01*
X2663572Y-3482476D02*
X2549286Y-3482476D01*
X2606429Y-3482476D02*
X2606429Y-3282476D01*
X2606429Y-3282476D02*
X2587381Y-3311048D01*
X2587381Y-3311048D02*
X2568333Y-3330095D01*
X2568333Y-3330095D02*
X2549286Y-3339619D01*
X2730238Y-3282476D02*
X2854048Y-3282476D01*
X2854048Y-3282476D02*
X2787381Y-3358667D01*
X2787381Y-3358667D02*
X2815952Y-3358667D01*
X2815952Y-3358667D02*
X2835000Y-3368190D01*
X2835000Y-3368190D02*
X2844524Y-3377714D01*
X2844524Y-3377714D02*
X2854048Y-3396762D01*
X2854048Y-3396762D02*
X2854048Y-3444381D01*
X2854048Y-3444381D02*
X2844524Y-3463428D01*
X2844524Y-3463428D02*
X2835000Y-3472952D01*
X2835000Y-3472952D02*
X2815952Y-3482476D01*
X2815952Y-3482476D02*
X2758810Y-3482476D01*
X2758810Y-3482476D02*
X2739762Y-3472952D01*
X2739762Y-3472952D02*
X2730238Y-3463428D01*
X2968333Y-3368190D02*
X2949286Y-3358667D01*
X2949286Y-3358667D02*
X2939762Y-3349143D01*
X2939762Y-3349143D02*
X2930238Y-3330095D01*
X2930238Y-3330095D02*
X2930238Y-3320571D01*
X2930238Y-3320571D02*
X2939762Y-3301524D01*
X2939762Y-3301524D02*
X2949286Y-3292000D01*
X2949286Y-3292000D02*
X2968333Y-3282476D01*
X2968333Y-3282476D02*
X3006429Y-3282476D01*
X3006429Y-3282476D02*
X3025476Y-3292000D01*
X3025476Y-3292000D02*
X3035000Y-3301524D01*
X3035000Y-3301524D02*
X3044524Y-3320571D01*
X3044524Y-3320571D02*
X3044524Y-3330095D01*
X3044524Y-3330095D02*
X3035000Y-3349143D01*
X3035000Y-3349143D02*
X3025476Y-3358667D01*
X3025476Y-3358667D02*
X3006429Y-3368190D01*
X3006429Y-3368190D02*
X2968333Y-3368190D01*
X2968333Y-3368190D02*
X2949286Y-3377714D01*
X2949286Y-3377714D02*
X2939762Y-3387238D01*
X2939762Y-3387238D02*
X2930238Y-3406286D01*
X2930238Y-3406286D02*
X2930238Y-3444381D01*
X2930238Y-3444381D02*
X2939762Y-3463428D01*
X2939762Y-3463428D02*
X2949286Y-3472952D01*
X2949286Y-3472952D02*
X2968333Y-3482476D01*
X2968333Y-3482476D02*
X3006429Y-3482476D01*
X3006429Y-3482476D02*
X3025476Y-3472952D01*
X3025476Y-3472952D02*
X3035000Y-3463428D01*
X3035000Y-3463428D02*
X3044524Y-3444381D01*
X3044524Y-3444381D02*
X3044524Y-3406286D01*
X3044524Y-3406286D02*
X3035000Y-3387238D01*
X3035000Y-3387238D02*
X3025476Y-3377714D01*
X3025476Y-3377714D02*
X3006429Y-3368190D01*
X3120714Y-3282476D02*
X3120714Y-3320571D01*
X3196905Y-3282476D02*
X3196905Y-3320571D01*
X3459762Y-3558667D02*
X3450238Y-3549143D01*
X3450238Y-3549143D02*
X3431191Y-3520571D01*
X3431191Y-3520571D02*
X3421667Y-3501524D01*
X3421667Y-3501524D02*
X3412143Y-3472952D01*
X3412143Y-3472952D02*
X3402619Y-3425333D01*
X3402619Y-3425333D02*
X3402619Y-3387238D01*
X3402619Y-3387238D02*
X3412143Y-3339619D01*
X3412143Y-3339619D02*
X3421667Y-3311048D01*
X3421667Y-3311048D02*
X3431191Y-3292000D01*
X3431191Y-3292000D02*
X3450238Y-3263428D01*
X3450238Y-3263428D02*
X3459762Y-3253905D01*
X3545476Y-3482476D02*
X3583571Y-3482476D01*
X3583571Y-3482476D02*
X3602619Y-3472952D01*
X3602619Y-3472952D02*
X3612143Y-3463428D01*
X3612143Y-3463428D02*
X3631191Y-3434857D01*
X3631191Y-3434857D02*
X3640714Y-3396762D01*
X3640714Y-3396762D02*
X3640714Y-3320571D01*
X3640714Y-3320571D02*
X3631191Y-3301524D01*
X3631191Y-3301524D02*
X3621667Y-3292000D01*
X3621667Y-3292000D02*
X3602619Y-3282476D01*
X3602619Y-3282476D02*
X3564524Y-3282476D01*
X3564524Y-3282476D02*
X3545476Y-3292000D01*
X3545476Y-3292000D02*
X3535952Y-3301524D01*
X3535952Y-3301524D02*
X3526429Y-3320571D01*
X3526429Y-3320571D02*
X3526429Y-3368190D01*
X3526429Y-3368190D02*
X3535952Y-3387238D01*
X3535952Y-3387238D02*
X3545476Y-3396762D01*
X3545476Y-3396762D02*
X3564524Y-3406286D01*
X3564524Y-3406286D02*
X3602619Y-3406286D01*
X3602619Y-3406286D02*
X3621667Y-3396762D01*
X3621667Y-3396762D02*
X3631191Y-3387238D01*
X3631191Y-3387238D02*
X3640714Y-3368190D01*
X3846429Y-3482476D02*
X3846429Y-3282476D01*
X3932143Y-3482476D02*
X3932143Y-3377714D01*
X3932143Y-3377714D02*
X3922619Y-3358667D01*
X3922619Y-3358667D02*
X3903572Y-3349143D01*
X3903572Y-3349143D02*
X3875000Y-3349143D01*
X3875000Y-3349143D02*
X3855952Y-3358667D01*
X3855952Y-3358667D02*
X3846429Y-3368190D01*
X4055952Y-3482476D02*
X4036905Y-3472952D01*
X4036905Y-3472952D02*
X4027381Y-3463428D01*
X4027381Y-3463428D02*
X4017857Y-3444381D01*
X4017857Y-3444381D02*
X4017857Y-3387238D01*
X4017857Y-3387238D02*
X4027381Y-3368190D01*
X4027381Y-3368190D02*
X4036905Y-3358667D01*
X4036905Y-3358667D02*
X4055952Y-3349143D01*
X4055952Y-3349143D02*
X4084524Y-3349143D01*
X4084524Y-3349143D02*
X4103572Y-3358667D01*
X4103572Y-3358667D02*
X4113095Y-3368190D01*
X4113095Y-3368190D02*
X4122619Y-3387238D01*
X4122619Y-3387238D02*
X4122619Y-3444381D01*
X4122619Y-3444381D02*
X4113095Y-3463428D01*
X4113095Y-3463428D02*
X4103572Y-3472952D01*
X4103572Y-3472952D02*
X4084524Y-3482476D01*
X4084524Y-3482476D02*
X4055952Y-3482476D01*
X4236905Y-3482476D02*
X4217857Y-3472952D01*
X4217857Y-3472952D02*
X4208334Y-3453905D01*
X4208334Y-3453905D02*
X4208334Y-3282476D01*
X4389286Y-3472952D02*
X4370238Y-3482476D01*
X4370238Y-3482476D02*
X4332143Y-3482476D01*
X4332143Y-3482476D02*
X4313095Y-3472952D01*
X4313095Y-3472952D02*
X4303572Y-3453905D01*
X4303572Y-3453905D02*
X4303572Y-3377714D01*
X4303572Y-3377714D02*
X4313095Y-3358667D01*
X4313095Y-3358667D02*
X4332143Y-3349143D01*
X4332143Y-3349143D02*
X4370238Y-3349143D01*
X4370238Y-3349143D02*
X4389286Y-3358667D01*
X4389286Y-3358667D02*
X4398810Y-3377714D01*
X4398810Y-3377714D02*
X4398810Y-3396762D01*
X4398810Y-3396762D02*
X4303572Y-3415809D01*
X4475000Y-3472952D02*
X4494048Y-3482476D01*
X4494048Y-3482476D02*
X4532143Y-3482476D01*
X4532143Y-3482476D02*
X4551191Y-3472952D01*
X4551191Y-3472952D02*
X4560715Y-3453905D01*
X4560715Y-3453905D02*
X4560715Y-3444381D01*
X4560715Y-3444381D02*
X4551191Y-3425333D01*
X4551191Y-3425333D02*
X4532143Y-3415809D01*
X4532143Y-3415809D02*
X4503572Y-3415809D01*
X4503572Y-3415809D02*
X4484524Y-3406286D01*
X4484524Y-3406286D02*
X4475000Y-3387238D01*
X4475000Y-3387238D02*
X4475000Y-3377714D01*
X4475000Y-3377714D02*
X4484524Y-3358667D01*
X4484524Y-3358667D02*
X4503572Y-3349143D01*
X4503572Y-3349143D02*
X4532143Y-3349143D01*
X4532143Y-3349143D02*
X4551191Y-3358667D01*
X4627381Y-3558667D02*
X4636905Y-3549143D01*
X4636905Y-3549143D02*
X4655953Y-3520571D01*
X4655953Y-3520571D02*
X4665476Y-3501524D01*
X4665476Y-3501524D02*
X4675000Y-3472952D01*
X4675000Y-3472952D02*
X4684524Y-3425333D01*
X4684524Y-3425333D02*
X4684524Y-3387238D01*
X4684524Y-3387238D02*
X4675000Y-3339619D01*
X4675000Y-3339619D02*
X4665476Y-3311048D01*
X4665476Y-3311048D02*
X4655953Y-3292000D01*
X4655953Y-3292000D02*
X4636905Y-3263428D01*
X4636905Y-3263428D02*
X4627381Y-3253905D01*
D14*
X-55000Y-3623000D02*
X-55000Y-3723000D01*
X-105000Y-3673000D02*
X-5000Y-3673000D01*
D11*
X347381Y-3746476D02*
X233095Y-3746476D01*
X290238Y-3746476D02*
X290238Y-3546476D01*
X290238Y-3546476D02*
X271190Y-3575048D01*
X271190Y-3575048D02*
X252143Y-3594095D01*
X252143Y-3594095D02*
X233095Y-3603619D01*
X433095Y-3727428D02*
X442619Y-3736952D01*
X442619Y-3736952D02*
X433095Y-3746476D01*
X433095Y-3746476D02*
X423571Y-3736952D01*
X423571Y-3736952D02*
X433095Y-3727428D01*
X433095Y-3727428D02*
X433095Y-3746476D01*
X566429Y-3546476D02*
X585476Y-3546476D01*
X585476Y-3546476D02*
X604524Y-3556000D01*
X604524Y-3556000D02*
X614048Y-3565524D01*
X614048Y-3565524D02*
X623571Y-3584571D01*
X623571Y-3584571D02*
X633095Y-3622667D01*
X633095Y-3622667D02*
X633095Y-3670286D01*
X633095Y-3670286D02*
X623571Y-3708381D01*
X623571Y-3708381D02*
X614048Y-3727428D01*
X614048Y-3727428D02*
X604524Y-3736952D01*
X604524Y-3736952D02*
X585476Y-3746476D01*
X585476Y-3746476D02*
X566429Y-3746476D01*
X566429Y-3746476D02*
X547381Y-3736952D01*
X547381Y-3736952D02*
X537857Y-3727428D01*
X537857Y-3727428D02*
X528333Y-3708381D01*
X528333Y-3708381D02*
X518809Y-3670286D01*
X518809Y-3670286D02*
X518809Y-3622667D01*
X518809Y-3622667D02*
X528333Y-3584571D01*
X528333Y-3584571D02*
X537857Y-3565524D01*
X537857Y-3565524D02*
X547381Y-3556000D01*
X547381Y-3556000D02*
X566429Y-3546476D01*
X756905Y-3546476D02*
X775952Y-3546476D01*
X775952Y-3546476D02*
X795000Y-3556000D01*
X795000Y-3556000D02*
X804524Y-3565524D01*
X804524Y-3565524D02*
X814048Y-3584571D01*
X814048Y-3584571D02*
X823571Y-3622667D01*
X823571Y-3622667D02*
X823571Y-3670286D01*
X823571Y-3670286D02*
X814048Y-3708381D01*
X814048Y-3708381D02*
X804524Y-3727428D01*
X804524Y-3727428D02*
X795000Y-3736952D01*
X795000Y-3736952D02*
X775952Y-3746476D01*
X775952Y-3746476D02*
X756905Y-3746476D01*
X756905Y-3746476D02*
X737857Y-3736952D01*
X737857Y-3736952D02*
X728333Y-3727428D01*
X728333Y-3727428D02*
X718809Y-3708381D01*
X718809Y-3708381D02*
X709286Y-3670286D01*
X709286Y-3670286D02*
X709286Y-3622667D01*
X709286Y-3622667D02*
X718809Y-3584571D01*
X718809Y-3584571D02*
X728333Y-3565524D01*
X728333Y-3565524D02*
X737857Y-3556000D01*
X737857Y-3556000D02*
X756905Y-3546476D01*
X947381Y-3546476D02*
X966429Y-3546476D01*
X966429Y-3546476D02*
X985476Y-3556000D01*
X985476Y-3556000D02*
X995000Y-3565524D01*
X995000Y-3565524D02*
X1004524Y-3584571D01*
X1004524Y-3584571D02*
X1014048Y-3622667D01*
X1014048Y-3622667D02*
X1014048Y-3670286D01*
X1014048Y-3670286D02*
X1004524Y-3708381D01*
X1004524Y-3708381D02*
X995000Y-3727428D01*
X995000Y-3727428D02*
X985476Y-3736952D01*
X985476Y-3736952D02*
X966429Y-3746476D01*
X966429Y-3746476D02*
X947381Y-3746476D01*
X947381Y-3746476D02*
X928333Y-3736952D01*
X928333Y-3736952D02*
X918809Y-3727428D01*
X918809Y-3727428D02*
X909286Y-3708381D01*
X909286Y-3708381D02*
X899762Y-3670286D01*
X899762Y-3670286D02*
X899762Y-3622667D01*
X899762Y-3622667D02*
X909286Y-3584571D01*
X909286Y-3584571D02*
X918809Y-3565524D01*
X918809Y-3565524D02*
X928333Y-3556000D01*
X928333Y-3556000D02*
X947381Y-3546476D01*
X1099762Y-3746476D02*
X1099762Y-3613143D01*
X1099762Y-3632190D02*
X1109286Y-3622667D01*
X1109286Y-3622667D02*
X1128333Y-3613143D01*
X1128333Y-3613143D02*
X1156905Y-3613143D01*
X1156905Y-3613143D02*
X1175952Y-3622667D01*
X1175952Y-3622667D02*
X1185476Y-3641714D01*
X1185476Y-3641714D02*
X1185476Y-3746476D01*
X1185476Y-3641714D02*
X1195000Y-3622667D01*
X1195000Y-3622667D02*
X1214048Y-3613143D01*
X1214048Y-3613143D02*
X1242619Y-3613143D01*
X1242619Y-3613143D02*
X1261667Y-3622667D01*
X1261667Y-3622667D02*
X1271191Y-3641714D01*
X1271191Y-3641714D02*
X1271191Y-3746476D01*
X1366429Y-3746476D02*
X1366429Y-3613143D01*
X1366429Y-3632190D02*
X1375952Y-3622667D01*
X1375952Y-3622667D02*
X1395000Y-3613143D01*
X1395000Y-3613143D02*
X1423571Y-3613143D01*
X1423571Y-3613143D02*
X1442619Y-3622667D01*
X1442619Y-3622667D02*
X1452143Y-3641714D01*
X1452143Y-3641714D02*
X1452143Y-3746476D01*
X1452143Y-3641714D02*
X1461667Y-3622667D01*
X1461667Y-3622667D02*
X1480714Y-3613143D01*
X1480714Y-3613143D02*
X1509286Y-3613143D01*
X1509286Y-3613143D02*
X1528333Y-3622667D01*
X1528333Y-3622667D02*
X1537857Y-3641714D01*
X1537857Y-3641714D02*
X1537857Y-3746476D01*
X1895952Y-3536952D02*
X1724524Y-3794095D01*
X2120714Y-3546476D02*
X2139762Y-3546476D01*
X2139762Y-3546476D02*
X2158810Y-3556000D01*
X2158810Y-3556000D02*
X2168333Y-3565524D01*
X2168333Y-3565524D02*
X2177857Y-3584571D01*
X2177857Y-3584571D02*
X2187381Y-3622667D01*
X2187381Y-3622667D02*
X2187381Y-3670286D01*
X2187381Y-3670286D02*
X2177857Y-3708381D01*
X2177857Y-3708381D02*
X2168333Y-3727428D01*
X2168333Y-3727428D02*
X2158810Y-3736952D01*
X2158810Y-3736952D02*
X2139762Y-3746476D01*
X2139762Y-3746476D02*
X2120714Y-3746476D01*
X2120714Y-3746476D02*
X2101667Y-3736952D01*
X2101667Y-3736952D02*
X2092143Y-3727428D01*
X2092143Y-3727428D02*
X2082619Y-3708381D01*
X2082619Y-3708381D02*
X2073095Y-3670286D01*
X2073095Y-3670286D02*
X2073095Y-3622667D01*
X2073095Y-3622667D02*
X2082619Y-3584571D01*
X2082619Y-3584571D02*
X2092143Y-3565524D01*
X2092143Y-3565524D02*
X2101667Y-3556000D01*
X2101667Y-3556000D02*
X2120714Y-3546476D01*
X2273095Y-3727428D02*
X2282619Y-3736952D01*
X2282619Y-3736952D02*
X2273095Y-3746476D01*
X2273095Y-3746476D02*
X2263572Y-3736952D01*
X2263572Y-3736952D02*
X2273095Y-3727428D01*
X2273095Y-3727428D02*
X2273095Y-3746476D01*
X2406429Y-3546476D02*
X2425476Y-3546476D01*
X2425476Y-3546476D02*
X2444524Y-3556000D01*
X2444524Y-3556000D02*
X2454048Y-3565524D01*
X2454048Y-3565524D02*
X2463572Y-3584571D01*
X2463572Y-3584571D02*
X2473095Y-3622667D01*
X2473095Y-3622667D02*
X2473095Y-3670286D01*
X2473095Y-3670286D02*
X2463572Y-3708381D01*
X2463572Y-3708381D02*
X2454048Y-3727428D01*
X2454048Y-3727428D02*
X2444524Y-3736952D01*
X2444524Y-3736952D02*
X2425476Y-3746476D01*
X2425476Y-3746476D02*
X2406429Y-3746476D01*
X2406429Y-3746476D02*
X2387381Y-3736952D01*
X2387381Y-3736952D02*
X2377857Y-3727428D01*
X2377857Y-3727428D02*
X2368333Y-3708381D01*
X2368333Y-3708381D02*
X2358810Y-3670286D01*
X2358810Y-3670286D02*
X2358810Y-3622667D01*
X2358810Y-3622667D02*
X2368333Y-3584571D01*
X2368333Y-3584571D02*
X2377857Y-3565524D01*
X2377857Y-3565524D02*
X2387381Y-3556000D01*
X2387381Y-3556000D02*
X2406429Y-3546476D01*
X2539762Y-3546476D02*
X2663572Y-3546476D01*
X2663572Y-3546476D02*
X2596905Y-3622667D01*
X2596905Y-3622667D02*
X2625476Y-3622667D01*
X2625476Y-3622667D02*
X2644524Y-3632190D01*
X2644524Y-3632190D02*
X2654048Y-3641714D01*
X2654048Y-3641714D02*
X2663572Y-3660762D01*
X2663572Y-3660762D02*
X2663572Y-3708381D01*
X2663572Y-3708381D02*
X2654048Y-3727428D01*
X2654048Y-3727428D02*
X2644524Y-3736952D01*
X2644524Y-3736952D02*
X2625476Y-3746476D01*
X2625476Y-3746476D02*
X2568333Y-3746476D01*
X2568333Y-3746476D02*
X2549286Y-3736952D01*
X2549286Y-3736952D02*
X2539762Y-3727428D01*
X2758810Y-3746476D02*
X2796905Y-3746476D01*
X2796905Y-3746476D02*
X2815952Y-3736952D01*
X2815952Y-3736952D02*
X2825476Y-3727428D01*
X2825476Y-3727428D02*
X2844524Y-3698857D01*
X2844524Y-3698857D02*
X2854048Y-3660762D01*
X2854048Y-3660762D02*
X2854048Y-3584571D01*
X2854048Y-3584571D02*
X2844524Y-3565524D01*
X2844524Y-3565524D02*
X2835000Y-3556000D01*
X2835000Y-3556000D02*
X2815952Y-3546476D01*
X2815952Y-3546476D02*
X2777857Y-3546476D01*
X2777857Y-3546476D02*
X2758810Y-3556000D01*
X2758810Y-3556000D02*
X2749286Y-3565524D01*
X2749286Y-3565524D02*
X2739762Y-3584571D01*
X2739762Y-3584571D02*
X2739762Y-3632190D01*
X2739762Y-3632190D02*
X2749286Y-3651238D01*
X2749286Y-3651238D02*
X2758810Y-3660762D01*
X2758810Y-3660762D02*
X2777857Y-3670286D01*
X2777857Y-3670286D02*
X2815952Y-3670286D01*
X2815952Y-3670286D02*
X2835000Y-3660762D01*
X2835000Y-3660762D02*
X2844524Y-3651238D01*
X2844524Y-3651238D02*
X2854048Y-3632190D01*
X3025476Y-3613143D02*
X3025476Y-3746476D01*
X2977857Y-3536952D02*
X2930238Y-3679809D01*
X2930238Y-3679809D02*
X3054048Y-3679809D01*
X3120714Y-3546476D02*
X3120714Y-3584571D01*
X3196905Y-3546476D02*
X3196905Y-3584571D01*
X3459762Y-3822667D02*
X3450238Y-3813143D01*
X3450238Y-3813143D02*
X3431191Y-3784571D01*
X3431191Y-3784571D02*
X3421667Y-3765524D01*
X3421667Y-3765524D02*
X3412143Y-3736952D01*
X3412143Y-3736952D02*
X3402619Y-3689333D01*
X3402619Y-3689333D02*
X3402619Y-3651238D01*
X3402619Y-3651238D02*
X3412143Y-3603619D01*
X3412143Y-3603619D02*
X3421667Y-3575048D01*
X3421667Y-3575048D02*
X3431191Y-3556000D01*
X3431191Y-3556000D02*
X3450238Y-3527428D01*
X3450238Y-3527428D02*
X3459762Y-3517905D01*
X3564524Y-3632190D02*
X3545476Y-3622667D01*
X3545476Y-3622667D02*
X3535952Y-3613143D01*
X3535952Y-3613143D02*
X3526429Y-3594095D01*
X3526429Y-3594095D02*
X3526429Y-3584571D01*
X3526429Y-3584571D02*
X3535952Y-3565524D01*
X3535952Y-3565524D02*
X3545476Y-3556000D01*
X3545476Y-3556000D02*
X3564524Y-3546476D01*
X3564524Y-3546476D02*
X3602619Y-3546476D01*
X3602619Y-3546476D02*
X3621667Y-3556000D01*
X3621667Y-3556000D02*
X3631191Y-3565524D01*
X3631191Y-3565524D02*
X3640714Y-3584571D01*
X3640714Y-3584571D02*
X3640714Y-3594095D01*
X3640714Y-3594095D02*
X3631191Y-3613143D01*
X3631191Y-3613143D02*
X3621667Y-3622667D01*
X3621667Y-3622667D02*
X3602619Y-3632190D01*
X3602619Y-3632190D02*
X3564524Y-3632190D01*
X3564524Y-3632190D02*
X3545476Y-3641714D01*
X3545476Y-3641714D02*
X3535952Y-3651238D01*
X3535952Y-3651238D02*
X3526429Y-3670286D01*
X3526429Y-3670286D02*
X3526429Y-3708381D01*
X3526429Y-3708381D02*
X3535952Y-3727428D01*
X3535952Y-3727428D02*
X3545476Y-3736952D01*
X3545476Y-3736952D02*
X3564524Y-3746476D01*
X3564524Y-3746476D02*
X3602619Y-3746476D01*
X3602619Y-3746476D02*
X3621667Y-3736952D01*
X3621667Y-3736952D02*
X3631191Y-3727428D01*
X3631191Y-3727428D02*
X3640714Y-3708381D01*
X3640714Y-3708381D02*
X3640714Y-3670286D01*
X3640714Y-3670286D02*
X3631191Y-3651238D01*
X3631191Y-3651238D02*
X3621667Y-3641714D01*
X3621667Y-3641714D02*
X3602619Y-3632190D01*
X3764524Y-3546476D02*
X3783572Y-3546476D01*
X3783572Y-3546476D02*
X3802619Y-3556000D01*
X3802619Y-3556000D02*
X3812143Y-3565524D01*
X3812143Y-3565524D02*
X3821667Y-3584571D01*
X3821667Y-3584571D02*
X3831191Y-3622667D01*
X3831191Y-3622667D02*
X3831191Y-3670286D01*
X3831191Y-3670286D02*
X3821667Y-3708381D01*
X3821667Y-3708381D02*
X3812143Y-3727428D01*
X3812143Y-3727428D02*
X3802619Y-3736952D01*
X3802619Y-3736952D02*
X3783572Y-3746476D01*
X3783572Y-3746476D02*
X3764524Y-3746476D01*
X3764524Y-3746476D02*
X3745476Y-3736952D01*
X3745476Y-3736952D02*
X3735952Y-3727428D01*
X3735952Y-3727428D02*
X3726429Y-3708381D01*
X3726429Y-3708381D02*
X3716905Y-3670286D01*
X3716905Y-3670286D02*
X3716905Y-3622667D01*
X3716905Y-3622667D02*
X3726429Y-3584571D01*
X3726429Y-3584571D02*
X3735952Y-3565524D01*
X3735952Y-3565524D02*
X3745476Y-3556000D01*
X3745476Y-3556000D02*
X3764524Y-3546476D01*
X4036905Y-3746476D02*
X4036905Y-3546476D01*
X4122619Y-3746476D02*
X4122619Y-3641714D01*
X4122619Y-3641714D02*
X4113095Y-3622667D01*
X4113095Y-3622667D02*
X4094048Y-3613143D01*
X4094048Y-3613143D02*
X4065476Y-3613143D01*
X4065476Y-3613143D02*
X4046429Y-3622667D01*
X4046429Y-3622667D02*
X4036905Y-3632190D01*
X4246429Y-3746476D02*
X4227381Y-3736952D01*
X4227381Y-3736952D02*
X4217857Y-3727428D01*
X4217857Y-3727428D02*
X4208334Y-3708381D01*
X4208334Y-3708381D02*
X4208334Y-3651238D01*
X4208334Y-3651238D02*
X4217857Y-3632190D01*
X4217857Y-3632190D02*
X4227381Y-3622667D01*
X4227381Y-3622667D02*
X4246429Y-3613143D01*
X4246429Y-3613143D02*
X4275000Y-3613143D01*
X4275000Y-3613143D02*
X4294048Y-3622667D01*
X4294048Y-3622667D02*
X4303572Y-3632190D01*
X4303572Y-3632190D02*
X4313095Y-3651238D01*
X4313095Y-3651238D02*
X4313095Y-3708381D01*
X4313095Y-3708381D02*
X4303572Y-3727428D01*
X4303572Y-3727428D02*
X4294048Y-3736952D01*
X4294048Y-3736952D02*
X4275000Y-3746476D01*
X4275000Y-3746476D02*
X4246429Y-3746476D01*
X4427381Y-3746476D02*
X4408334Y-3736952D01*
X4408334Y-3736952D02*
X4398810Y-3717905D01*
X4398810Y-3717905D02*
X4398810Y-3546476D01*
X4579762Y-3736952D02*
X4560715Y-3746476D01*
X4560715Y-3746476D02*
X4522619Y-3746476D01*
X4522619Y-3746476D02*
X4503572Y-3736952D01*
X4503572Y-3736952D02*
X4494048Y-3717905D01*
X4494048Y-3717905D02*
X4494048Y-3641714D01*
X4494048Y-3641714D02*
X4503572Y-3622667D01*
X4503572Y-3622667D02*
X4522619Y-3613143D01*
X4522619Y-3613143D02*
X4560715Y-3613143D01*
X4560715Y-3613143D02*
X4579762Y-3622667D01*
X4579762Y-3622667D02*
X4589286Y-3641714D01*
X4589286Y-3641714D02*
X4589286Y-3660762D01*
X4589286Y-3660762D02*
X4494048Y-3679809D01*
X4665476Y-3736952D02*
X4684524Y-3746476D01*
X4684524Y-3746476D02*
X4722619Y-3746476D01*
X4722619Y-3746476D02*
X4741667Y-3736952D01*
X4741667Y-3736952D02*
X4751191Y-3717905D01*
X4751191Y-3717905D02*
X4751191Y-3708381D01*
X4751191Y-3708381D02*
X4741667Y-3689333D01*
X4741667Y-3689333D02*
X4722619Y-3679809D01*
X4722619Y-3679809D02*
X4694048Y-3679809D01*
X4694048Y-3679809D02*
X4675000Y-3670286D01*
X4675000Y-3670286D02*
X4665476Y-3651238D01*
X4665476Y-3651238D02*
X4665476Y-3641714D01*
X4665476Y-3641714D02*
X4675000Y-3622667D01*
X4675000Y-3622667D02*
X4694048Y-3613143D01*
X4694048Y-3613143D02*
X4722619Y-3613143D01*
X4722619Y-3613143D02*
X4741667Y-3622667D01*
X4817857Y-3822667D02*
X4827381Y-3813143D01*
X4827381Y-3813143D02*
X4846429Y-3784571D01*
X4846429Y-3784571D02*
X4855953Y-3765524D01*
X4855953Y-3765524D02*
X4865476Y-3736952D01*
X4865476Y-3736952D02*
X4875000Y-3689333D01*
X4875000Y-3689333D02*
X4875000Y-3651238D01*
X4875000Y-3651238D02*
X4865476Y-3603619D01*
X4865476Y-3603619D02*
X4855953Y-3575048D01*
X4855953Y-3575048D02*
X4846429Y-3556000D01*
X4846429Y-3556000D02*
X4827381Y-3527428D01*
X4827381Y-3527428D02*
X4817857Y-3517905D01*
M02*
