G04 #@! TF.GenerationSoftware,KiCad,Pcbnew,(6.99.0-1912-g359c99991b)*
G04 #@! TF.CreationDate,2022-08-15T10:18:15+07:00*
G04 #@! TF.ProjectId,rp2040_bento,72703230-3430-45f6-9265-6e746f2e6b69,1*
G04 #@! TF.SameCoordinates,Original*
G04 #@! TF.FileFunction,Copper,L1,Top*
G04 #@! TF.FilePolarity,Positive*
%FSLAX46Y46*%
G04 Gerber Fmt 4.6, Leading zero omitted, Abs format (unit mm)*
G04 Created by KiCad (PCBNEW (6.99.0-1912-g359c99991b)) date 2022-08-15 10:18:15*
%MOMM*%
%LPD*%
G01*
G04 APERTURE LIST*
G04 Aperture macros list*
%AMRoundRect*
0 Rectangle with rounded corners*
0 $1 Rounding radius*
0 $2 $3 $4 $5 $6 $7 $8 $9 X,Y pos of 4 corners*
0 Add a 4 corners polygon primitive as box body*
4,1,4,$2,$3,$4,$5,$6,$7,$8,$9,$2,$3,0*
0 Add four circle primitives for the rounded corners*
1,1,$1+$1,$2,$3*
1,1,$1+$1,$4,$5*
1,1,$1+$1,$6,$7*
1,1,$1+$1,$8,$9*
0 Add four rect primitives between the rounded corners*
20,1,$1+$1,$2,$3,$4,$5,0*
20,1,$1+$1,$4,$5,$6,$7,0*
20,1,$1+$1,$6,$7,$8,$9,0*
20,1,$1+$1,$8,$9,$2,$3,0*%
G04 Aperture macros list end*
G04 #@! TA.AperFunction,SMDPad,CuDef*
%ADD10RoundRect,0.150000X-0.650000X-0.150000X0.650000X-0.150000X0.650000X0.150000X-0.650000X0.150000X0*%
G04 #@! TD*
G04 #@! TA.AperFunction,CastellatedPad*
%ADD11C,1.500000*%
G04 #@! TD*
G04 #@! TA.AperFunction,ComponentPad*
%ADD12O,1.500000X2.800000*%
G04 #@! TD*
G04 #@! TA.AperFunction,SMDPad,CuDef*
%ADD13RoundRect,0.140000X-0.170000X0.140000X-0.170000X-0.140000X0.170000X-0.140000X0.170000X0.140000X0*%
G04 #@! TD*
G04 #@! TA.AperFunction,ComponentPad*
%ADD14O,2.800000X1.500000*%
G04 #@! TD*
G04 #@! TA.AperFunction,SMDPad,CuDef*
%ADD15RoundRect,0.140000X0.170000X-0.140000X0.170000X0.140000X-0.170000X0.140000X-0.170000X-0.140000X0*%
G04 #@! TD*
G04 #@! TA.AperFunction,SMDPad,CuDef*
%ADD16RoundRect,0.200000X0.275000X-0.200000X0.275000X0.200000X-0.275000X0.200000X-0.275000X-0.200000X0*%
G04 #@! TD*
G04 #@! TA.AperFunction,SMDPad,CuDef*
%ADD17RoundRect,0.140000X0.140000X0.170000X-0.140000X0.170000X-0.140000X-0.170000X0.140000X-0.170000X0*%
G04 #@! TD*
G04 #@! TA.AperFunction,SMDPad,CuDef*
%ADD18RoundRect,0.135000X-0.135000X-0.185000X0.135000X-0.185000X0.135000X0.185000X-0.135000X0.185000X0*%
G04 #@! TD*
G04 #@! TA.AperFunction,SMDPad,CuDef*
%ADD19R,1.000000X0.800000*%
G04 #@! TD*
G04 #@! TA.AperFunction,SMDPad,CuDef*
%ADD20RoundRect,0.050000X-0.387500X-0.050000X0.387500X-0.050000X0.387500X0.050000X-0.387500X0.050000X0*%
G04 #@! TD*
G04 #@! TA.AperFunction,SMDPad,CuDef*
%ADD21RoundRect,0.050000X-0.050000X-0.387500X0.050000X-0.387500X0.050000X0.387500X-0.050000X0.387500X0*%
G04 #@! TD*
G04 #@! TA.AperFunction,ComponentPad*
%ADD22C,0.600000*%
G04 #@! TD*
G04 #@! TA.AperFunction,SMDPad,CuDef*
%ADD23RoundRect,0.144000X-1.456000X-1.456000X1.456000X-1.456000X1.456000X1.456000X-1.456000X1.456000X0*%
G04 #@! TD*
G04 #@! TA.AperFunction,SMDPad,CuDef*
%ADD24R,1.400000X1.200000*%
G04 #@! TD*
G04 #@! TA.AperFunction,SMDPad,CuDef*
%ADD25RoundRect,0.150000X-0.150000X0.512500X-0.150000X-0.512500X0.150000X-0.512500X0.150000X0.512500X0*%
G04 #@! TD*
G04 #@! TA.AperFunction,SMDPad,CuDef*
%ADD26RoundRect,0.135000X-0.185000X0.135000X-0.185000X-0.135000X0.185000X-0.135000X0.185000X0.135000X0*%
G04 #@! TD*
G04 #@! TA.AperFunction,SMDPad,CuDef*
%ADD27RoundRect,0.140000X-0.140000X-0.170000X0.140000X-0.170000X0.140000X0.170000X-0.140000X0.170000X0*%
G04 #@! TD*
G04 #@! TA.AperFunction,ViaPad*
%ADD28C,0.500000*%
G04 #@! TD*
G04 #@! TA.AperFunction,Conductor*
%ADD29C,0.200000*%
G04 #@! TD*
G04 #@! TA.AperFunction,Conductor*
%ADD30C,0.400000*%
G04 #@! TD*
G04 #@! TA.AperFunction,Conductor*
%ADD31C,0.300000*%
G04 #@! TD*
G04 #@! TA.AperFunction,Profile*
%ADD32C,0.100000*%
G04 #@! TD*
G04 APERTURE END LIST*
D10*
X11200000Y-3995000D03*
X11200000Y-5265000D03*
X11200000Y-6535000D03*
X11200000Y-7805000D03*
X4000000Y-7805000D03*
X4000000Y-6535000D03*
X4000000Y-5265000D03*
X4000000Y-3995000D03*
D11*
X21500000Y-100000D03*
D12*
X21499999Y-799999D03*
D11*
X19500000Y-100000D03*
D12*
X19499999Y-799999D03*
D11*
X17500000Y-100000D03*
D12*
X17499999Y-799999D03*
D11*
X15500000Y-100000D03*
D12*
X15499999Y-799999D03*
D11*
X13500000Y-100000D03*
D12*
X13499999Y-799999D03*
D11*
X11500000Y-100000D03*
D12*
X11499999Y-799999D03*
D11*
X9500000Y-100000D03*
D12*
X9499999Y-799999D03*
D11*
X7500000Y-100000D03*
D12*
X7499999Y-799999D03*
D11*
X5500000Y-100000D03*
D12*
X5499999Y-799999D03*
D11*
X3500000Y-100000D03*
D12*
X3499999Y-799999D03*
D13*
X7150000Y-10470000D03*
X7150000Y-11430000D03*
X13500000Y-4570000D03*
X13500000Y-5530000D03*
D11*
X100000Y-3500000D03*
D14*
X799999Y-3499999D03*
D11*
X100000Y-5500000D03*
D14*
X799999Y-5499999D03*
D11*
X100000Y-7500000D03*
D14*
X799999Y-7499999D03*
D11*
X100000Y-9500000D03*
D14*
X799999Y-9499999D03*
D11*
X100000Y-11500000D03*
D14*
X799999Y-11499999D03*
D11*
X100000Y-13500000D03*
D14*
X799999Y-13499999D03*
D11*
X100000Y-15500000D03*
D14*
X799999Y-15499999D03*
D11*
X100000Y-17500000D03*
D14*
X799999Y-17499999D03*
D11*
X100000Y-19500000D03*
D14*
X799999Y-19499999D03*
D11*
X100000Y-21500000D03*
D14*
X799999Y-21499999D03*
D13*
X17650000Y-19620000D03*
X17650000Y-20580000D03*
D15*
X18200000Y-10030000D03*
X18200000Y-9070000D03*
D16*
X14900000Y-5325000D03*
X14900000Y-3675000D03*
D17*
X4480000Y-21600000D03*
X3520000Y-21600000D03*
D18*
X17840000Y-7900000D03*
X18860000Y-7900000D03*
D19*
X3649999Y-18300000D03*
X3649999Y-20199999D03*
X6049999Y-19249999D03*
D13*
X6050000Y-14820000D03*
X6050000Y-15780000D03*
D11*
X24900000Y-21500000D03*
D14*
X24199999Y-21499999D03*
D11*
X24900000Y-19500000D03*
D14*
X24199999Y-19499999D03*
D11*
X24900000Y-17500000D03*
D14*
X24199999Y-17499999D03*
D11*
X24900000Y-15500000D03*
D14*
X24199999Y-15499999D03*
D11*
X24900000Y-13500000D03*
D14*
X24199999Y-13499999D03*
D11*
X24900000Y-11500000D03*
D14*
X24199999Y-11499999D03*
D11*
X24900000Y-9500000D03*
D14*
X24199999Y-9499999D03*
D11*
X24900000Y-7500000D03*
D14*
X24199999Y-7499999D03*
D11*
X24900000Y-5500000D03*
D14*
X24199999Y-5499999D03*
D11*
X24900000Y-3500000D03*
D14*
X24199999Y-3499999D03*
D20*
X9062500Y-10900000D03*
X9062500Y-11300000D03*
X9062500Y-11700000D03*
X9062500Y-12100000D03*
X9062500Y-12500000D03*
X9062500Y-12900000D03*
X9062500Y-13300000D03*
X9062500Y-13700000D03*
X9062500Y-14100000D03*
X9062500Y-14500000D03*
X9062500Y-14900000D03*
X9062500Y-15300000D03*
X9062500Y-15700000D03*
X9062500Y-16100000D03*
D21*
X9900000Y-16937500D03*
X10300000Y-16937500D03*
X10700000Y-16937500D03*
X11100000Y-16937500D03*
X11500000Y-16937500D03*
X11900000Y-16937500D03*
X12300000Y-16937500D03*
X12700000Y-16937500D03*
X13100000Y-16937500D03*
X13500000Y-16937500D03*
X13900000Y-16937500D03*
X14300000Y-16937500D03*
X14700000Y-16937500D03*
X15100000Y-16937500D03*
D20*
X15937500Y-16100000D03*
X15937500Y-15700000D03*
X15937500Y-15300000D03*
X15937500Y-14900000D03*
X15937500Y-14500000D03*
X15937500Y-14100000D03*
X15937500Y-13700000D03*
X15937500Y-13300000D03*
X15937500Y-12900000D03*
X15937500Y-12500000D03*
X15937500Y-12100000D03*
X15937500Y-11700000D03*
X15937500Y-11300000D03*
X15937500Y-10900000D03*
D21*
X15100000Y-10062500D03*
X14700000Y-10062500D03*
X14300000Y-10062500D03*
X13900000Y-10062500D03*
X13500000Y-10062500D03*
X13100000Y-10062500D03*
X12700000Y-10062500D03*
X12300000Y-10062500D03*
X11900000Y-10062500D03*
X11500000Y-10062500D03*
X11100000Y-10062500D03*
X10700000Y-10062500D03*
X10300000Y-10062500D03*
X9900000Y-10062500D03*
D22*
X11225000Y-12225000D03*
X11225000Y-13500000D03*
X11225000Y-14775000D03*
X12500000Y-12225000D03*
X12500000Y-13500000D03*
D23*
X12500000Y-13500000D03*
D22*
X12500000Y-14775000D03*
X13775000Y-12225000D03*
X13775000Y-13500000D03*
X13775000Y-14775000D03*
D24*
X13499999Y-19199999D03*
X11299999Y-19199999D03*
X11299999Y-20899999D03*
X13499999Y-20899999D03*
D15*
X19250000Y-10030000D03*
X19250000Y-9070000D03*
D25*
X20700000Y-3962500D03*
X19750000Y-3962500D03*
X18800000Y-3962500D03*
X18800000Y-6237500D03*
X20700000Y-6237500D03*
D16*
X16500000Y-5325000D03*
X16500000Y-3675000D03*
D15*
X14500000Y-7580000D03*
X14500000Y-6620000D03*
X16550000Y-20580000D03*
X16550000Y-19620000D03*
D17*
X4480000Y-16950000D03*
X3520000Y-16950000D03*
D13*
X6050000Y-10470000D03*
X6050000Y-11430000D03*
X20800000Y-8020000D03*
X20800000Y-8980000D03*
D15*
X9400000Y-20530000D03*
X9400000Y-19570000D03*
D13*
X18750000Y-19620000D03*
X18750000Y-20580000D03*
X4950000Y-14820000D03*
X4950000Y-15780000D03*
D15*
X13400000Y-7580000D03*
X13400000Y-6620000D03*
D26*
X15450000Y-19590000D03*
X15450000Y-20610000D03*
D27*
X18670000Y-14150000D03*
X19630000Y-14150000D03*
D11*
X3500000Y-24900000D03*
D12*
X3499999Y-24199999D03*
D11*
X5500000Y-24900000D03*
D12*
X5499999Y-24199999D03*
D11*
X7500000Y-24900000D03*
D12*
X7499999Y-24199999D03*
D11*
X9500000Y-24900000D03*
D12*
X9499999Y-24199999D03*
D11*
X11500000Y-24900000D03*
D12*
X11499999Y-24199999D03*
D11*
X13500000Y-24900000D03*
D12*
X13499999Y-24199999D03*
D11*
X15500000Y-24900000D03*
D12*
X15499999Y-24199999D03*
D11*
X17500000Y-24900000D03*
D12*
X17499999Y-24199999D03*
D11*
X19500000Y-24900000D03*
D12*
X19499999Y-24199999D03*
D11*
X21500000Y-24900000D03*
D12*
X21499999Y-24199999D03*
D26*
X4300000Y-9390000D03*
X4300000Y-10410000D03*
D15*
X16500000Y-7630000D03*
X16500000Y-6670000D03*
D28*
X5600000Y-7900000D03*
X5561337Y-5265776D03*
X7400000Y-5800000D03*
X5717785Y-6533998D03*
X8100000Y-7500000D03*
X20750000Y-14150000D03*
X14800000Y-6350000D03*
X18900000Y-3300000D03*
X17900000Y-8800000D03*
X21700000Y-7700000D03*
X17000000Y-2600000D03*
X19800000Y-20750000D03*
X10900000Y-2800000D03*
X4700000Y-11450000D03*
X16250000Y-6400000D03*
X5700000Y-2800000D03*
X22350000Y-18450000D03*
X12400000Y-20050000D03*
X3350000Y-15650000D03*
X16400000Y-8650000D03*
X14800000Y-13750000D03*
X14150000Y-10950000D03*
X18350000Y-18550000D03*
X12400000Y-15950000D03*
X10000000Y-11000000D03*
X21700000Y-4200000D03*
X21700000Y-5700000D03*
X19200000Y-21750000D03*
X10050000Y-11700000D03*
X20600000Y-2700000D03*
X22250000Y-12250000D03*
X10050000Y-12400000D03*
X5950000Y-17000000D03*
X6500000Y-17550000D03*
X7100000Y-17850000D03*
X8200000Y-16600000D03*
X7200000Y-19850000D03*
X7750000Y-21650000D03*
X10400000Y-15800000D03*
X11100000Y-15700000D03*
X17450000Y-16750000D03*
X14750000Y-15050000D03*
X19750000Y-20000000D03*
X13350000Y-8550000D03*
X19200000Y-18600000D03*
X14950000Y-11050000D03*
X5300000Y-16650000D03*
X9300000Y-10200000D03*
X10900000Y-11200000D03*
X17600000Y-6400000D03*
X20500000Y-15050000D03*
X17950000Y-14400000D03*
X12700000Y-4700000D03*
X4050000Y-15050000D03*
X13250000Y-15700000D03*
X14550000Y-15700000D03*
X19750000Y-7900000D03*
X13900000Y-15650000D03*
X12550000Y-6050000D03*
X11650000Y-10950000D03*
D29*
X5600000Y-8700000D02*
X5600000Y-7900000D01*
X4910000Y-9390000D02*
X5600000Y-8700000D01*
X4300000Y-9390000D02*
X4910000Y-9390000D01*
X5200000Y-9600000D02*
X5500480Y-9299520D01*
X5200000Y-10100000D02*
X5200000Y-9600000D01*
X4890000Y-10410000D02*
X5200000Y-10100000D01*
X5500480Y-9299520D02*
X7099520Y-9299520D01*
X4300000Y-10410000D02*
X4890000Y-10410000D01*
X5465776Y-5265000D02*
X5465000Y-5265000D01*
X5561337Y-5265776D02*
X5465776Y-5265000D01*
X5464224Y-5265000D02*
X5561337Y-5265776D01*
X4000000Y-5265000D02*
X5464224Y-5265000D01*
X5795000Y-3995000D02*
X4000000Y-3995000D01*
X6500000Y-4700000D02*
X5795000Y-3995000D01*
X6500000Y-8700000D02*
X6500000Y-4700000D01*
X9137020Y-9299520D02*
X7099520Y-9299520D01*
X9137020Y-9299520D02*
X9900000Y-10062500D01*
X7099520Y-9299520D02*
X6500000Y-8700000D01*
X7400000Y-8500000D02*
X7400000Y-5800000D01*
X7850000Y-8950000D02*
X7400000Y-8500000D01*
X5636002Y-6535000D02*
X5635000Y-6535000D01*
X5717785Y-6533998D02*
X5636002Y-6535000D01*
X5633998Y-6535000D02*
X5717785Y-6533998D01*
X4000000Y-6535000D02*
X5633998Y-6535000D01*
X8100000Y-8300000D02*
X8100000Y-7500000D01*
X8377852Y-8577852D02*
X8100000Y-8300000D01*
X10022148Y-8577852D02*
X8377852Y-8577852D01*
X10700000Y-10062500D02*
X10700000Y-9255704D01*
X10700000Y-9255704D02*
X10022148Y-8577852D01*
X10300000Y-9350000D02*
X9900000Y-8950000D01*
X9900000Y-8950000D02*
X7850000Y-8950000D01*
X11750000Y-15900000D02*
X11750000Y-15300000D01*
D30*
X13700000Y-6320000D02*
X13400000Y-6620000D01*
D29*
X21700000Y-8400000D02*
X21700000Y-7700000D01*
X16250000Y-6420000D02*
X16500000Y-6670000D01*
X11500000Y-16150000D02*
X11750000Y-15900000D01*
D31*
X13500000Y-20900000D02*
X12680623Y-20900000D01*
D30*
X13700000Y-5530000D02*
X13700000Y-6320000D01*
D29*
X14500000Y-6620000D02*
X14530000Y-6620000D01*
X11500000Y-16937500D02*
X11500000Y-16150000D01*
X21120000Y-8980000D02*
X21700000Y-8400000D01*
D31*
X12400000Y-20619377D02*
X12400000Y-20050000D01*
D30*
X5700000Y-2800000D02*
X6100000Y-2800000D01*
X17500000Y-1500000D02*
X17500000Y-2100000D01*
X10900000Y-2800000D02*
X6100000Y-2800000D01*
D29*
X14530000Y-6620000D02*
X14800000Y-6350000D01*
X11750000Y-15300000D02*
X11225000Y-14775000D01*
D30*
X4950000Y-15780000D02*
X6050000Y-15780000D01*
X11300000Y-19200000D02*
X9770000Y-19200000D01*
D31*
X16622039Y-19620000D02*
X17582039Y-20580000D01*
D30*
X9770000Y-19200000D02*
X9400000Y-19570000D01*
D31*
X17582039Y-20580000D02*
X17650000Y-20580000D01*
X11300000Y-19200000D02*
X12100000Y-19200000D01*
X12100000Y-19200000D02*
X12400000Y-19500000D01*
D29*
X16250000Y-6400000D02*
X16250000Y-6420000D01*
D31*
X16550000Y-19620000D02*
X16622039Y-19620000D01*
D30*
X7150000Y-11430000D02*
X6050000Y-11430000D01*
X18470000Y-9070000D02*
X19250000Y-9070000D01*
D31*
X17650000Y-20580000D02*
X18750000Y-20580000D01*
D30*
X13400000Y-6620000D02*
X14380000Y-6620000D01*
D31*
X12400000Y-20050000D02*
X12400000Y-19500000D01*
D29*
X4820000Y-15850000D02*
X4950000Y-15980000D01*
D31*
X12680623Y-20900000D02*
X12400000Y-20619377D01*
D30*
X17500000Y-2100000D02*
X17000000Y-2600000D01*
D29*
X20800000Y-8980000D02*
X21120000Y-8980000D01*
X15450000Y-20610000D02*
X16520000Y-20610000D01*
X14700000Y-19400000D02*
X14700000Y-20500000D01*
X14700000Y-20500000D02*
X14810000Y-20610000D01*
X14500000Y-19200000D02*
X14700000Y-19400000D01*
X16520000Y-20610000D02*
X16550000Y-20580000D01*
X14810000Y-20610000D02*
X15450000Y-20610000D01*
X13500000Y-19200000D02*
X14500000Y-19200000D01*
X14150000Y-10950000D02*
X14150000Y-10956416D01*
X13400000Y-7580000D02*
X13400000Y-7600000D01*
X12500000Y-10950000D02*
X12300000Y-10750000D01*
X18750000Y-18950000D02*
X18750000Y-19620000D01*
D30*
X16400000Y-8650000D02*
X16400000Y-7730000D01*
D29*
X12500000Y-10950000D02*
X14150000Y-10950000D01*
X14300000Y-10800000D02*
X14300000Y-10062500D01*
X12300000Y-9105704D02*
X12300000Y-10062500D01*
X12300000Y-10750000D02*
X12300000Y-10062500D01*
X13100000Y-16300000D02*
X12750000Y-15950000D01*
X14150000Y-10950000D02*
X14300000Y-10800000D01*
X14150000Y-10956416D02*
X14800000Y-11606416D01*
X18350000Y-18550000D02*
X18750000Y-18950000D01*
D30*
X16400000Y-7730000D02*
X16500000Y-7630000D01*
D29*
X13400000Y-7600000D02*
X12675000Y-8325000D01*
X12675000Y-8325000D02*
X12675000Y-8730704D01*
X13100000Y-16300000D02*
X13100000Y-16937500D01*
X12675000Y-8730704D02*
X12300000Y-9105704D01*
X12400000Y-15950000D02*
X12750000Y-15950000D01*
X14800000Y-11606416D02*
X14800000Y-13750000D01*
X9770000Y-20900000D02*
X11300000Y-20900000D01*
X8500000Y-19050000D02*
X8850000Y-18700000D01*
X8500000Y-20200000D02*
X8500000Y-19050000D01*
X11900000Y-17850000D02*
X11900000Y-16937500D01*
X11654276Y-18095724D02*
X11900000Y-17850000D01*
X8830000Y-20530000D02*
X8500000Y-20200000D01*
X8850000Y-18700000D02*
X9600000Y-18700000D01*
X10204276Y-18095724D02*
X11654276Y-18095724D01*
X9400000Y-20530000D02*
X9770000Y-20900000D01*
X9400000Y-20530000D02*
X8830000Y-20530000D01*
X9600000Y-18700000D02*
X10204276Y-18095724D01*
X9062500Y-11300000D02*
X9700000Y-11300000D01*
X9700000Y-11300000D02*
X10000000Y-11000000D01*
D30*
X6500000Y-22250000D02*
X14800000Y-22250000D01*
X4480000Y-21600000D02*
X6050000Y-20030000D01*
X4480000Y-21600000D02*
X5850000Y-21600000D01*
X15300000Y-21750000D02*
X19200000Y-21750000D01*
X6050000Y-20030000D02*
X6050000Y-19250000D01*
X21700000Y-5700000D02*
X21237500Y-5700000D01*
X14800000Y-22250000D02*
X15300000Y-21750000D01*
X20700000Y-7920000D02*
X20800000Y-8020000D01*
X21700000Y-4200000D02*
X21700000Y-1700000D01*
X5850000Y-21600000D02*
X6500000Y-22250000D01*
X21700000Y-1700000D02*
X21500000Y-1500000D01*
X20700000Y-6237500D02*
X20700000Y-7920000D01*
X21237500Y-5700000D02*
X20700000Y-6237500D01*
D29*
X9062500Y-11700000D02*
X10050000Y-11700000D01*
X19750000Y-3450000D02*
X19750000Y-3500000D01*
X19750000Y-3050000D02*
X19750000Y-3962500D01*
X17865671Y-12251441D02*
X22248560Y-12251440D01*
X20100000Y-2700000D02*
X19750000Y-3050000D01*
X20600000Y-2700000D02*
X20100000Y-2700000D01*
X22248560Y-12251440D02*
X22250000Y-12250000D01*
X17217112Y-12900000D02*
X17865671Y-12251441D01*
X15937500Y-12900000D02*
X17217112Y-12900000D01*
X10050000Y-12400000D02*
X9750000Y-12100000D01*
X9750000Y-12100000D02*
X9062500Y-12100000D01*
X1500000Y-9500000D02*
X2900000Y-10900000D01*
X3600000Y-12500000D02*
X9062500Y-12500000D01*
X2900000Y-10900000D02*
X2900000Y-11800000D01*
X2900000Y-11800000D02*
X3600000Y-12500000D01*
X2900000Y-12900000D02*
X9062500Y-12900000D01*
X1500000Y-11500000D02*
X2900000Y-12900000D01*
X1700000Y-13300000D02*
X9062500Y-13300000D01*
X1500000Y-13500000D02*
X1700000Y-13300000D01*
X1500000Y-15500000D02*
X3300000Y-13700000D01*
X3300000Y-13700000D02*
X9062500Y-13700000D01*
X2800000Y-14750000D02*
X2800000Y-16200000D01*
X3450000Y-14100000D02*
X2800000Y-14750000D01*
X9062500Y-14100000D02*
X3450000Y-14100000D01*
X2800000Y-16200000D02*
X1500000Y-17500000D01*
X6550000Y-17000000D02*
X6950000Y-16600000D01*
X6950000Y-15344296D02*
X7394296Y-14900000D01*
X5950000Y-17000000D02*
X6550000Y-17000000D01*
X6950000Y-16600000D02*
X6950000Y-15344296D01*
X7394296Y-14900000D02*
X9062500Y-14900000D01*
X7299520Y-15650000D02*
X7299520Y-16744775D01*
X7299520Y-16744775D02*
X6500000Y-17550000D01*
X9062500Y-15300000D02*
X7649520Y-15300000D01*
X7649520Y-15300000D02*
X7299520Y-15650000D01*
X7649040Y-16150960D02*
X8100000Y-15700000D01*
X7101441Y-17440330D02*
X7649040Y-16892731D01*
X7100000Y-17850000D02*
X7101441Y-17440330D01*
X7649040Y-16892731D02*
X7649040Y-16150960D01*
X8100000Y-15700000D02*
X9062500Y-15700000D01*
X8200000Y-16500000D02*
X8200000Y-16600000D01*
X8100000Y-16600000D02*
X8200000Y-16500000D01*
X9062500Y-16100000D02*
X8600000Y-16100000D01*
X8600000Y-16100000D02*
X8200000Y-16500000D01*
X8200000Y-16600000D02*
X8100000Y-16600000D01*
X7200000Y-19361410D02*
X8560448Y-18000961D01*
X7200000Y-19850000D02*
X7200000Y-19361410D01*
X8560448Y-18000961D02*
X9310449Y-18000960D01*
X9900000Y-17411409D02*
X9900000Y-16937500D01*
X9310449Y-18000960D02*
X9900000Y-17411409D01*
X7750000Y-19305705D02*
X8705225Y-18350480D01*
X10300000Y-17505705D02*
X9455225Y-18350480D01*
X7750000Y-21650000D02*
X7750000Y-19305705D01*
X9455225Y-18350480D02*
X8705225Y-18350480D01*
X10300000Y-16937500D02*
X10300000Y-17505705D01*
X10450000Y-15800000D02*
X10400000Y-15800000D01*
X10400000Y-15750000D02*
X10450000Y-15800000D01*
X10700000Y-16937500D02*
X10700000Y-16050000D01*
X10400000Y-15800000D02*
X10400000Y-15750000D01*
X10700000Y-16050000D02*
X10450000Y-15800000D01*
X11100000Y-16937500D02*
X11100000Y-15700000D01*
X16700000Y-22300000D02*
X20200000Y-22300000D01*
X15050000Y-15950000D02*
X15050000Y-15350000D01*
X20900000Y-21600000D02*
X20900000Y-20444296D01*
X20200000Y-22300000D02*
X20900000Y-21600000D01*
X20900000Y-20444296D02*
X20300000Y-19844296D01*
X20300000Y-19844296D02*
X20300000Y-18155704D01*
X18894296Y-16750000D02*
X17450000Y-16750000D01*
X14750000Y-15050000D02*
X15050000Y-15350000D01*
X14700000Y-16300000D02*
X15050000Y-15950000D01*
X14700000Y-16937500D02*
X14700000Y-16300000D01*
X15500000Y-23500000D02*
X16700000Y-22300000D01*
X20300000Y-18155704D02*
X18894296Y-16750000D01*
X19750000Y-18100000D02*
X19750000Y-20000000D01*
X15100000Y-16937500D02*
X15512500Y-17350000D01*
X15512500Y-17350000D02*
X19000000Y-17350000D01*
X19000000Y-17350000D02*
X19750000Y-18100000D01*
X18100480Y-16400480D02*
X19039071Y-16400480D01*
X15937500Y-16100000D02*
X17800000Y-16100000D01*
X17800000Y-16100000D02*
X18100480Y-16400480D01*
X20649520Y-18010929D02*
X20649520Y-19699520D01*
X20649520Y-19699520D02*
X21249520Y-20299521D01*
X19039071Y-16400480D02*
X20649520Y-18010929D01*
X19500000Y-23500000D02*
X21249520Y-21750480D01*
X21249520Y-20299521D02*
X21249520Y-21750480D01*
X15937500Y-15700000D02*
X17894295Y-15700000D01*
X22050000Y-20600000D02*
X22050000Y-22950000D01*
X19183846Y-16050960D02*
X19241444Y-16108556D01*
X21500000Y-23500000D02*
X22050000Y-22950000D01*
X17894295Y-15700000D02*
X18245255Y-16050960D01*
X20999040Y-17866153D02*
X20999040Y-19549040D01*
X18245255Y-16050960D02*
X19183846Y-16050960D01*
X20999040Y-19549040D02*
X22050000Y-20600000D01*
X19241444Y-16108556D02*
X20999040Y-17866153D01*
X17988590Y-15300000D02*
X18390030Y-15701440D01*
X19328621Y-15701440D02*
X19388591Y-15761409D01*
X21348560Y-19348560D02*
X23500000Y-21500000D01*
X21348560Y-19348560D02*
X21348560Y-17721378D01*
X19388591Y-15761409D02*
X21348560Y-17721378D01*
X15937500Y-15300000D02*
X17988590Y-15300000D01*
X18390030Y-15701440D02*
X19328621Y-15701440D01*
X22200000Y-19500000D02*
X23500000Y-19500000D01*
X15937500Y-14900000D02*
X18082885Y-14900000D01*
X18534805Y-15351920D02*
X19473396Y-15351920D01*
X19473396Y-15351920D02*
X21698080Y-17576603D01*
X21698080Y-17576603D02*
X21698080Y-18998080D01*
X18082885Y-14900000D02*
X18534805Y-15351920D01*
X21698080Y-18998080D02*
X22200000Y-19500000D01*
X21061408Y-13300000D02*
X21950480Y-14189072D01*
X17500000Y-14100000D02*
X18300000Y-13300000D01*
X15937500Y-14100000D02*
X17500000Y-14100000D01*
X18300000Y-13300000D02*
X21061408Y-13300000D01*
X21950480Y-15950480D02*
X23500000Y-17500000D01*
X21950480Y-14189072D02*
X21950480Y-15950480D01*
X21206184Y-12950480D02*
X22300000Y-14044296D01*
X15937500Y-13700000D02*
X17405704Y-13700000D01*
X17405704Y-13700000D02*
X18155223Y-12950481D01*
X22750000Y-15500000D02*
X23500000Y-15500000D01*
X22300000Y-14044296D02*
X22300000Y-15050000D01*
X22300000Y-15050000D02*
X22750000Y-15500000D01*
X18155223Y-12950481D02*
X21206184Y-12950480D01*
X15937500Y-13300000D02*
X17311408Y-13300000D01*
X18010448Y-12600960D02*
X21350960Y-12600960D01*
X21350960Y-12600960D02*
X22250000Y-13500000D01*
X17311408Y-13300000D02*
X18010448Y-12600960D01*
X22250000Y-13500000D02*
X23500000Y-13500000D01*
X22100000Y-5100000D02*
X19937500Y-5100000D01*
X19937500Y-5100000D02*
X18800000Y-6237500D01*
X22300000Y-4900000D02*
X22100000Y-5100000D01*
X22850000Y-3500000D02*
X23500000Y-3500000D01*
X22300000Y-4900000D02*
X22300000Y-4050000D01*
X22300000Y-4050000D02*
X22850000Y-3500000D01*
X17720894Y-11901922D02*
X17122816Y-12500000D01*
X22100000Y-11500000D02*
X23500000Y-11500000D01*
X18151920Y-11901920D02*
X17720894Y-11901922D01*
X21698080Y-11901920D02*
X18151920Y-11901920D01*
X22100000Y-11500000D02*
X21698080Y-11901920D01*
X17122816Y-12500000D02*
X15937500Y-12500000D01*
X17028520Y-12100000D02*
X15937500Y-12100000D01*
X17576120Y-11552400D02*
X17028520Y-12100000D01*
X23500000Y-9500000D02*
X23500000Y-9550000D01*
X21497600Y-11552400D02*
X17576120Y-11552400D01*
X23500000Y-9550000D02*
X21497600Y-11552400D01*
X17437104Y-11202880D02*
X21347120Y-11202880D01*
X17434224Y-11200000D02*
X17437104Y-11202880D01*
X23500000Y-7600000D02*
X23500000Y-7500000D01*
X22050000Y-9050000D02*
X22050000Y-10500000D01*
X22050000Y-9050000D02*
X23500000Y-7600000D01*
X16934224Y-11700000D02*
X17434224Y-11200000D01*
X21347120Y-11202880D02*
X22050000Y-10500000D01*
X15937500Y-11700000D02*
X16934224Y-11700000D01*
X21700480Y-10355224D02*
X21205223Y-10850481D01*
X23500000Y-5600000D02*
X23500000Y-5500000D01*
X16839928Y-11300000D02*
X15937500Y-11300000D01*
X22350000Y-8255704D02*
X21700480Y-8905224D01*
X17289447Y-10850481D02*
X16839928Y-11300000D01*
X22350000Y-6750000D02*
X22350000Y-8255704D01*
X21205223Y-10850481D02*
X17289447Y-10850481D01*
X22350000Y-6750000D02*
X23500000Y-5600000D01*
X21700480Y-8905224D02*
X21700480Y-10355224D01*
X13500000Y-2200000D02*
X13942868Y-2642868D01*
X16500000Y-3100000D02*
X16500000Y-3675000D01*
X16042868Y-2642868D02*
X16500000Y-3100000D01*
X13942868Y-2642868D02*
X16042868Y-2642868D01*
X13500000Y-1500000D02*
X13500000Y-2200000D01*
X11500000Y-1500000D02*
X13000000Y-3000000D01*
X13000000Y-3000000D02*
X14225000Y-3000000D01*
X14225000Y-3000000D02*
X14900000Y-3675000D01*
X15450000Y-19590000D02*
X15450000Y-18800000D01*
X14774854Y-18124854D02*
X15450000Y-18800000D01*
X12650000Y-18100000D02*
X12674854Y-18124854D01*
X12674854Y-18124854D02*
X14774854Y-18124854D01*
X15450000Y-18950000D02*
X15450000Y-19275000D01*
X12650000Y-18100000D02*
X12300000Y-17750000D01*
X12300000Y-17750000D02*
X12300000Y-16937500D01*
X13900000Y-9350000D02*
X13900000Y-10062500D01*
X14100000Y-9150000D02*
X13900000Y-9350000D01*
X16500000Y-5325000D02*
X15672126Y-6152874D01*
X15672126Y-8827874D02*
X15350000Y-9150000D01*
X15350000Y-9150000D02*
X14100000Y-9150000D01*
X15672126Y-6152874D02*
X15672126Y-8827874D01*
X13500000Y-9250000D02*
X13500000Y-10062500D01*
X14900000Y-5325000D02*
X15322606Y-5747606D01*
X13949520Y-8800480D02*
X13500000Y-9250000D01*
X15322606Y-5747606D02*
X15322606Y-8527394D01*
X15049520Y-8800480D02*
X13949520Y-8800480D01*
X15322606Y-8527394D02*
X15049520Y-8800480D01*
X17850000Y-14500000D02*
X17950000Y-14400000D01*
X15937500Y-10900000D02*
X15100000Y-10062500D01*
X13100000Y-8800000D02*
X12700000Y-9200000D01*
X14924666Y-17775334D02*
X15399332Y-18250000D01*
X9030000Y-10470000D02*
X9300000Y-10200000D01*
D31*
X11845000Y-3845000D02*
X12700000Y-4700000D01*
X14500000Y-8001922D02*
X14150961Y-8350961D01*
X13370000Y-4700000D02*
X13500000Y-4570000D01*
D29*
X15100000Y-10900000D02*
X14950000Y-11050000D01*
D30*
X6050000Y-10470000D02*
X7150000Y-10470000D01*
X4900000Y-19400000D02*
X4100000Y-20200000D01*
D29*
X8632500Y-10470000D02*
X9030000Y-10470000D01*
X19022400Y-15002400D02*
X20452400Y-15002400D01*
X9062500Y-14500000D02*
X9950000Y-14500000D01*
X17100000Y-8640000D02*
X17840000Y-7900000D01*
X9950000Y-14500000D02*
X10550000Y-13900000D01*
X12700000Y-10062500D02*
X13100000Y-10062500D01*
X8632500Y-10470000D02*
X9062500Y-10900000D01*
X17300000Y-18550000D02*
X17650000Y-18900000D01*
X12700000Y-16937500D02*
X12700000Y-17550000D01*
X16700000Y-10900000D02*
X15937500Y-10900000D01*
X20452400Y-15002400D02*
X20500000Y-15050000D01*
X17650000Y-18900000D02*
X17650000Y-19620000D01*
D30*
X4900000Y-17370000D02*
X5300000Y-16970000D01*
X4900000Y-17370000D02*
X4900000Y-19400000D01*
D29*
X7150000Y-10470000D02*
X8632500Y-10470000D01*
X15100000Y-10062500D02*
X17537500Y-10062500D01*
X15399332Y-18255036D02*
X15694296Y-18550000D01*
X13350000Y-8550000D02*
X13100000Y-8800000D01*
D30*
X19500000Y-2100000D02*
X19500000Y-1500000D01*
D29*
X16662500Y-10062500D02*
X17100000Y-9625000D01*
D31*
X11662500Y-3845000D02*
X11845000Y-3845000D01*
D30*
X6050000Y-14820000D02*
X4950000Y-14820000D01*
X4280000Y-14820000D02*
X4050000Y-15050000D01*
D29*
X18167500Y-10062500D02*
X18200000Y-10030000D01*
X18420000Y-14400000D02*
X19022400Y-15002400D01*
X10550000Y-11550000D02*
X10550000Y-13900000D01*
D31*
X14500000Y-7580000D02*
X14500000Y-8001922D01*
X12700000Y-4700000D02*
X13370000Y-4700000D01*
D29*
X6980000Y-14820000D02*
X7300000Y-14500000D01*
X6050000Y-14820000D02*
X6980000Y-14820000D01*
X15694296Y-18550000D02*
X17300000Y-18550000D01*
X14700000Y-10062500D02*
X15100000Y-10062500D01*
D30*
X18049572Y-2650428D02*
X18949572Y-2650428D01*
D29*
X12700000Y-17550000D02*
X12925334Y-17775334D01*
X18420000Y-14400000D02*
X18670000Y-14150000D01*
X18375334Y-17775334D02*
X19200000Y-18600000D01*
X16700000Y-10900000D02*
X17537500Y-10062500D01*
D30*
X4280000Y-14820000D02*
X4950000Y-14820000D01*
D29*
X13100000Y-8800000D02*
X13100000Y-10062500D01*
D30*
X17600000Y-3100000D02*
X18049572Y-2650428D01*
D29*
X17100000Y-9625000D02*
X17100000Y-8640000D01*
X17950000Y-14400000D02*
X18420000Y-14400000D01*
D31*
X14150961Y-8350961D02*
X13549039Y-8350961D01*
D30*
X18949572Y-2650428D02*
X19500000Y-2100000D01*
D29*
X10900000Y-11200000D02*
X10550000Y-11550000D01*
D31*
X13549039Y-8350961D02*
X13350000Y-8550000D01*
D30*
X4100000Y-20200000D02*
X3650000Y-20200000D01*
X5300000Y-16970000D02*
X5300000Y-16650000D01*
X19250000Y-10030000D02*
X18200000Y-10030000D01*
X17600000Y-6400000D02*
X17600000Y-3100000D01*
D29*
X15937500Y-10900000D02*
X15100000Y-10900000D01*
X15399332Y-18250000D02*
X15399332Y-18255036D01*
X12925334Y-17775334D02*
X14924666Y-17775334D01*
X15937500Y-14500000D02*
X17850000Y-14500000D01*
X17537500Y-10062500D02*
X18167500Y-10062500D01*
X7300000Y-14500000D02*
X9062500Y-14500000D01*
X14924666Y-17775334D02*
X18375334Y-17775334D01*
D30*
X17600000Y-7660000D02*
X17600000Y-6400000D01*
X17840000Y-7900000D02*
X17600000Y-7660000D01*
D29*
X12700000Y-9200000D02*
X12700000Y-10062500D01*
D30*
X4480000Y-16950000D02*
X4900000Y-17370000D01*
D29*
X13500000Y-15950000D02*
X13500000Y-16937500D01*
X13150000Y-15700000D02*
X13200000Y-15750000D01*
X13250000Y-15700000D02*
X13500000Y-15950000D01*
X13250000Y-15700000D02*
X13150000Y-15700000D01*
X18860000Y-7900000D02*
X19750000Y-7900000D01*
X14300000Y-15950000D02*
X14550000Y-15700000D01*
X14300000Y-16937500D02*
X14300000Y-15950000D01*
X13900000Y-16937500D02*
X13900000Y-15650000D01*
X10300000Y-10062500D02*
X10300000Y-9350000D01*
X11100000Y-10062500D02*
X11100000Y-9300000D01*
X11662500Y-8737500D02*
X11662500Y-7655000D01*
X11100000Y-9300000D02*
X11662500Y-8737500D01*
X11885000Y-6385000D02*
X12325481Y-6825481D01*
X12325481Y-8574519D02*
X11500000Y-9400000D01*
X12325481Y-6825481D02*
X12325481Y-8574519D01*
X11662500Y-6385000D02*
X11885000Y-6385000D01*
X11500000Y-9400000D02*
X11500000Y-10062500D01*
X12550000Y-5650000D02*
X12550000Y-6050000D01*
X11900000Y-10700000D02*
X11900000Y-10062500D01*
X11662500Y-5115000D02*
X12015000Y-5115000D01*
X11650000Y-10950000D02*
X11900000Y-10700000D01*
X12015000Y-5115000D02*
X12550000Y-5650000D01*
G04 #@! TA.AperFunction,Conductor*
G36*
X3549952Y-14605553D02*
G01*
X3606788Y-14648100D01*
X3631599Y-14714620D01*
X3620534Y-14775951D01*
X3560958Y-14906404D01*
X3540312Y-15050000D01*
X3560958Y-15193596D01*
X3621223Y-15325558D01*
X3627123Y-15332367D01*
X3627125Y-15332370D01*
X3710324Y-15428386D01*
X3716225Y-15435196D01*
X3723802Y-15440066D01*
X3723805Y-15440068D01*
X3790543Y-15482958D01*
X3838268Y-15513629D01*
X3846912Y-15516167D01*
X3846914Y-15516168D01*
X3968819Y-15551962D01*
X3968821Y-15551962D01*
X3977464Y-15554500D01*
X4122536Y-15554500D01*
X4131179Y-15551962D01*
X4131181Y-15551962D01*
X4202217Y-15531104D01*
X4237715Y-15526000D01*
X6178000Y-15526000D01*
X6246121Y-15546002D01*
X6292614Y-15599658D01*
X6304000Y-15652000D01*
X6304000Y-15908000D01*
X6283998Y-15976121D01*
X6230342Y-16022614D01*
X6178000Y-16034000D01*
X4156442Y-16034000D01*
X4142911Y-16037973D01*
X4141776Y-16045871D01*
X4146377Y-16061708D01*
X4146174Y-16132704D01*
X4107620Y-16192320D01*
X4042956Y-16221629D01*
X3972711Y-16211325D01*
X3961242Y-16205315D01*
X3926224Y-16184606D01*
X3911784Y-16178357D01*
X3791395Y-16143381D01*
X3777295Y-16143421D01*
X3774000Y-16150691D01*
X3774000Y-17333886D01*
X3778475Y-17349125D01*
X3779865Y-17350330D01*
X3800783Y-17354880D01*
X3800004Y-17358462D01*
X3846121Y-17372003D01*
X3892614Y-17425659D01*
X3904000Y-17478001D01*
X3904000Y-19189886D01*
X3908475Y-19205125D01*
X3909865Y-19206330D01*
X3917548Y-19208001D01*
X4145047Y-19208001D01*
X4213168Y-19228003D01*
X4259661Y-19281659D01*
X4269765Y-19351933D01*
X4240271Y-19416513D01*
X4234142Y-19423096D01*
X4148643Y-19508595D01*
X4086331Y-19542621D01*
X4059548Y-19545500D01*
X3229548Y-19545501D01*
X3124934Y-19545501D01*
X3089182Y-19552612D01*
X3062874Y-19557844D01*
X3062872Y-19557845D01*
X3050699Y-19560266D01*
X3040379Y-19567161D01*
X3040378Y-19567162D01*
X2999028Y-19594792D01*
X2966516Y-19616516D01*
X2910266Y-19700699D01*
X2895500Y-19774933D01*
X2895501Y-20625066D01*
X2910266Y-20699301D01*
X2917161Y-20709621D01*
X2917162Y-20709622D01*
X2966516Y-20783484D01*
X2962701Y-20786033D01*
X2984954Y-20826785D01*
X2979889Y-20897600D01*
X2950928Y-20942664D01*
X2869512Y-21024079D01*
X2859876Y-21036501D01*
X2784604Y-21163780D01*
X2778357Y-21178216D01*
X2736688Y-21321641D01*
X2735232Y-21329609D01*
X2738052Y-21343031D01*
X2749513Y-21346000D01*
X3648000Y-21346000D01*
X3716121Y-21366002D01*
X3762614Y-21419658D01*
X3774000Y-21472000D01*
X3774000Y-21728000D01*
X3753998Y-21796121D01*
X3700342Y-21842614D01*
X3648000Y-21854000D01*
X2751576Y-21854000D01*
X2736781Y-21858344D01*
X2734937Y-21868775D01*
X2736688Y-21878359D01*
X2778357Y-22021784D01*
X2784604Y-22036220D01*
X2859876Y-22163499D01*
X2869516Y-22175926D01*
X2974074Y-22280484D01*
X2986501Y-22290124D01*
X3113780Y-22365396D01*
X3128212Y-22371641D01*
X3132043Y-22372754D01*
X3134689Y-22374444D01*
X3135489Y-22374790D01*
X3135433Y-22374919D01*
X3191879Y-22410966D01*
X3221557Y-22475462D01*
X3211656Y-22545765D01*
X3165317Y-22599554D01*
X3140653Y-22611908D01*
X3061343Y-22641282D01*
X3061336Y-22641285D01*
X3055343Y-22643505D01*
X2881969Y-22751570D01*
X2877340Y-22755970D01*
X2877339Y-22755971D01*
X2738525Y-22887922D01*
X2738521Y-22887926D01*
X2733897Y-22892322D01*
X2730250Y-22897561D01*
X2730248Y-22897564D01*
X2620842Y-23054753D01*
X2617190Y-23060000D01*
X2536625Y-23247739D01*
X2535339Y-23253997D01*
X2535338Y-23254000D01*
X2520874Y-23324381D01*
X2495500Y-23447852D01*
X2495500Y-24773500D01*
X2475498Y-24841621D01*
X2421842Y-24888114D01*
X2369500Y-24899500D01*
X2004121Y-24899500D01*
X1995880Y-24899230D01*
X1760307Y-24883790D01*
X1743967Y-24881639D01*
X1630219Y-24859014D01*
X1516468Y-24836387D01*
X1500554Y-24832123D01*
X1280911Y-24757564D01*
X1265686Y-24751258D01*
X1263640Y-24750249D01*
X1057652Y-24648668D01*
X1043386Y-24640431D01*
X850521Y-24511563D01*
X837446Y-24501530D01*
X663051Y-24348590D01*
X651410Y-24336949D01*
X498465Y-24162548D01*
X488437Y-24149479D01*
X359571Y-23956618D01*
X351330Y-23942344D01*
X248742Y-23734314D01*
X242435Y-23719087D01*
X228024Y-23676633D01*
X167877Y-23499446D01*
X163612Y-23483529D01*
X118361Y-23256033D01*
X116210Y-23239693D01*
X100770Y-23004120D01*
X100500Y-22995879D01*
X100500Y-22630500D01*
X120502Y-22562379D01*
X174158Y-22515886D01*
X226500Y-22504500D01*
X1500940Y-22504500D01*
X1504114Y-22504177D01*
X1504119Y-22504177D01*
X1565145Y-22497971D01*
X1653247Y-22489012D01*
X1848173Y-22427853D01*
X1853760Y-22424752D01*
X2021212Y-22331809D01*
X2021216Y-22331806D01*
X2026798Y-22328708D01*
X2181809Y-22195636D01*
X2240988Y-22119183D01*
X2302945Y-22039141D01*
X2302947Y-22039138D01*
X2306859Y-22034084D01*
X2312893Y-22021784D01*
X2386443Y-21871842D01*
X2396830Y-21850667D01*
X2409397Y-21802131D01*
X2446437Y-21659075D01*
X2446438Y-21659071D01*
X2448037Y-21652894D01*
X2458384Y-21448861D01*
X2457144Y-21440763D01*
X2450140Y-21395049D01*
X2427448Y-21246921D01*
X2421397Y-21230582D01*
X2358714Y-21061334D01*
X2358713Y-21061333D01*
X2356495Y-21055343D01*
X2248430Y-20881969D01*
X2234842Y-20867674D01*
X2112078Y-20738525D01*
X2112074Y-20738521D01*
X2107678Y-20733897D01*
X2102439Y-20730250D01*
X2102436Y-20730248D01*
X1945247Y-20620842D01*
X1940000Y-20617190D01*
X1933354Y-20614338D01*
X1931882Y-20613706D01*
X1930843Y-20612847D01*
X1928539Y-20611568D01*
X1928777Y-20611138D01*
X1877171Y-20568460D01*
X1855606Y-20500818D01*
X1874035Y-20432255D01*
X1920425Y-20387750D01*
X2021212Y-20331809D01*
X2021216Y-20331806D01*
X2026798Y-20328708D01*
X2181809Y-20195636D01*
X2236053Y-20125558D01*
X2302945Y-20039141D01*
X2302947Y-20039138D01*
X2306859Y-20034084D01*
X2322996Y-20001188D01*
X2373763Y-19897692D01*
X2396830Y-19850667D01*
X2408153Y-19806936D01*
X2446437Y-19659075D01*
X2446438Y-19659071D01*
X2448037Y-19652894D01*
X2458384Y-19448861D01*
X2453429Y-19416513D01*
X2433166Y-19284246D01*
X2427448Y-19246921D01*
X2412415Y-19206330D01*
X2358714Y-19061334D01*
X2358713Y-19061333D01*
X2356495Y-19055343D01*
X2248430Y-18881969D01*
X2186178Y-18816479D01*
X2118446Y-18745224D01*
X2642000Y-18745224D01*
X2642360Y-18751939D01*
X2647662Y-18801258D01*
X2651259Y-18816479D01*
X2696405Y-18937521D01*
X2704954Y-18953177D01*
X2781698Y-19055694D01*
X2794307Y-19068303D01*
X2896824Y-19145047D01*
X2912480Y-19153596D01*
X3033522Y-19198742D01*
X3048743Y-19202339D01*
X3098062Y-19207641D01*
X3104777Y-19208001D01*
X3377885Y-19208001D01*
X3393124Y-19203526D01*
X3394329Y-19202136D01*
X3396000Y-19194453D01*
X3396000Y-18572116D01*
X3391525Y-18556877D01*
X3390135Y-18555672D01*
X3382452Y-18554001D01*
X2660115Y-18554001D01*
X2644876Y-18558476D01*
X2643672Y-18559865D01*
X2642000Y-18567549D01*
X2642000Y-18745224D01*
X2118446Y-18745224D01*
X2112078Y-18738525D01*
X2112074Y-18738521D01*
X2107678Y-18733897D01*
X2102439Y-18730250D01*
X2102436Y-18730248D01*
X1945247Y-18620842D01*
X1940000Y-18617190D01*
X1933354Y-18614338D01*
X1931882Y-18613706D01*
X1930843Y-18612847D01*
X1928539Y-18611568D01*
X1928777Y-18611138D01*
X1877171Y-18568460D01*
X1855606Y-18500818D01*
X1874035Y-18432255D01*
X1920425Y-18387750D01*
X2021212Y-18331809D01*
X2021216Y-18331806D01*
X2026798Y-18328708D01*
X2181809Y-18195636D01*
X2238296Y-18122661D01*
X2302945Y-18039141D01*
X2302947Y-18039138D01*
X2306859Y-18034084D01*
X2309900Y-18027886D01*
X2358707Y-17928386D01*
X2396830Y-17850667D01*
X2398115Y-17845706D01*
X2440260Y-17789135D01*
X2506723Y-17764172D01*
X2576131Y-17779104D01*
X2626449Y-17829191D01*
X2642000Y-17889830D01*
X2642000Y-18027886D01*
X2646475Y-18043125D01*
X2647865Y-18044330D01*
X2655548Y-18046001D01*
X3377885Y-18046001D01*
X3393124Y-18041526D01*
X3394329Y-18040136D01*
X3396000Y-18032453D01*
X3396000Y-17826115D01*
X3391525Y-17810876D01*
X3390135Y-17809671D01*
X3369217Y-17805121D01*
X3369996Y-17801539D01*
X3323879Y-17787998D01*
X3277386Y-17734342D01*
X3266000Y-17682000D01*
X3266000Y-16156442D01*
X3261970Y-16142716D01*
X3197987Y-16113496D01*
X3159604Y-16053770D01*
X3154500Y-16018272D01*
X3154500Y-14949029D01*
X3174502Y-14880908D01*
X3191405Y-14859934D01*
X3416825Y-14634514D01*
X3479137Y-14600488D01*
X3549952Y-14605553D01*
G37*
G04 #@! TD.AperFunction*
G04 #@! TA.AperFunction,Conductor*
G36*
X20298216Y-20343851D02*
G01*
X20508595Y-20554230D01*
X20542621Y-20616542D01*
X20545500Y-20643325D01*
X20545500Y-21400971D01*
X20525498Y-21469092D01*
X20508595Y-21490066D01*
X20090066Y-21908595D01*
X20027754Y-21942621D01*
X20000971Y-21945500D01*
X19826992Y-21945500D01*
X19758871Y-21925498D01*
X19712378Y-21871842D01*
X19702274Y-21801569D01*
X19708406Y-21758918D01*
X19708406Y-21758917D01*
X19709688Y-21750000D01*
X19705640Y-21721842D01*
X19690324Y-21615321D01*
X19689042Y-21606404D01*
X19628777Y-21474442D01*
X19622877Y-21467633D01*
X19622875Y-21467630D01*
X19539676Y-21371614D01*
X19533775Y-21364804D01*
X19457007Y-21315468D01*
X19410515Y-21261813D01*
X19400411Y-21191540D01*
X19427023Y-21133268D01*
X19425628Y-21132186D01*
X19440124Y-21113499D01*
X19515396Y-20986220D01*
X19521643Y-20971784D01*
X19556619Y-20851395D01*
X19556579Y-20837295D01*
X19549309Y-20834000D01*
X17522000Y-20834000D01*
X17453879Y-20813998D01*
X17407386Y-20760342D01*
X17396000Y-20708000D01*
X17396000Y-20452000D01*
X17416002Y-20383879D01*
X17469658Y-20337386D01*
X17522000Y-20326000D01*
X19307389Y-20326000D01*
X19375510Y-20346002D01*
X19402613Y-20369487D01*
X19416225Y-20385196D01*
X19423802Y-20390066D01*
X19423805Y-20390068D01*
X19489873Y-20432527D01*
X19538268Y-20463629D01*
X19546912Y-20466167D01*
X19546914Y-20466168D01*
X19668819Y-20501962D01*
X19668821Y-20501962D01*
X19677464Y-20504500D01*
X19822536Y-20504500D01*
X19831179Y-20501962D01*
X19831181Y-20501962D01*
X19953086Y-20466168D01*
X19953088Y-20466167D01*
X19961732Y-20463629D01*
X20010127Y-20432527D01*
X20076195Y-20390068D01*
X20076198Y-20390066D01*
X20083775Y-20385196D01*
X20113897Y-20350433D01*
X20173622Y-20312050D01*
X20244619Y-20312050D01*
X20298216Y-20343851D01*
G37*
G04 #@! TD.AperFunction*
G04 #@! TA.AperFunction,Conductor*
G36*
X20930499Y-13674502D02*
G01*
X20951473Y-13691404D01*
X21559075Y-14299005D01*
X21593100Y-14361318D01*
X21595980Y-14388101D01*
X21595980Y-15900646D01*
X21593604Y-15923561D01*
X21593528Y-15925408D01*
X21591385Y-15935627D01*
X21592676Y-15945985D01*
X21592676Y-15945988D01*
X21595124Y-15965624D01*
X21595661Y-15970801D01*
X21595980Y-15974651D01*
X21595980Y-15979857D01*
X21596837Y-15984992D01*
X21596837Y-15984993D01*
X21599177Y-15999013D01*
X21599929Y-16004168D01*
X21606019Y-16053031D01*
X21609316Y-16059774D01*
X21610551Y-16067178D01*
X21615520Y-16076359D01*
X21615520Y-16076360D01*
X21633978Y-16110466D01*
X21636363Y-16115099D01*
X21650209Y-16143421D01*
X21657981Y-16159320D01*
X21663288Y-16164627D01*
X21666861Y-16171229D01*
X21682691Y-16185801D01*
X21703077Y-16204568D01*
X21706835Y-16208174D01*
X22166591Y-16667930D01*
X22188595Y-16697586D01*
X22217596Y-16751794D01*
X22254185Y-16820185D01*
X22258592Y-16829282D01*
X22339589Y-17015129D01*
X22342341Y-17021986D01*
X22427181Y-17252732D01*
X22428985Y-17257996D01*
X22514856Y-17528070D01*
X22516065Y-17531873D01*
X22517319Y-17536070D01*
X22563794Y-17702007D01*
X22567010Y-17716906D01*
X22572552Y-17753079D01*
X22574771Y-17759071D01*
X22574772Y-17759074D01*
X22593525Y-17809709D01*
X22596699Y-17819486D01*
X22603555Y-17843964D01*
X22609296Y-17861922D01*
X22609872Y-17863521D01*
X22616912Y-17881038D01*
X22620611Y-17886276D01*
X22627482Y-17901393D01*
X22643505Y-17944657D01*
X22646884Y-17950079D01*
X22646886Y-17950082D01*
X22711374Y-18053543D01*
X22751570Y-18118031D01*
X22755970Y-18122660D01*
X22755971Y-18122661D01*
X22887922Y-18261475D01*
X22887926Y-18261479D01*
X22892322Y-18266103D01*
X22897561Y-18269750D01*
X22897564Y-18269752D01*
X22997418Y-18339252D01*
X23060000Y-18382810D01*
X23065875Y-18385331D01*
X23068118Y-18386294D01*
X23069157Y-18387153D01*
X23071461Y-18388432D01*
X23071223Y-18388862D01*
X23122829Y-18431540D01*
X23144394Y-18499182D01*
X23125965Y-18567745D01*
X23079575Y-18612250D01*
X22978788Y-18668191D01*
X22978784Y-18668194D01*
X22973202Y-18671292D01*
X22818191Y-18804364D01*
X22809747Y-18815272D01*
X22777704Y-18844481D01*
X22739207Y-18868952D01*
X22705122Y-18890618D01*
X22691118Y-18898318D01*
X22518775Y-18979306D01*
X22501858Y-18985815D01*
X22337933Y-19035679D01*
X22318549Y-19039941D01*
X22312727Y-19040747D01*
X22242510Y-19030267D01*
X22206369Y-19005030D01*
X22089485Y-18888146D01*
X22055459Y-18825834D01*
X22052580Y-18799051D01*
X22052580Y-17626437D01*
X22054956Y-17603522D01*
X22055032Y-17601675D01*
X22057175Y-17591456D01*
X22055818Y-17580563D01*
X22053436Y-17561459D01*
X22052899Y-17556282D01*
X22052580Y-17552432D01*
X22052580Y-17547226D01*
X22049381Y-17528059D01*
X22048631Y-17522913D01*
X22043833Y-17484417D01*
X22043833Y-17484416D01*
X22042541Y-17474052D01*
X22039244Y-17467309D01*
X22038009Y-17459905D01*
X22014581Y-17416616D01*
X22012197Y-17411984D01*
X21995165Y-17377143D01*
X21995164Y-17377141D01*
X21990579Y-17367763D01*
X21985272Y-17362456D01*
X21981699Y-17355854D01*
X21945483Y-17322515D01*
X21941725Y-17318909D01*
X21168045Y-16545229D01*
X20392410Y-15769595D01*
X20358385Y-15707283D01*
X20363449Y-15636468D01*
X20405996Y-15579632D01*
X20472516Y-15554821D01*
X20481505Y-15554500D01*
X20572536Y-15554500D01*
X20581179Y-15551962D01*
X20581181Y-15551962D01*
X20703086Y-15516168D01*
X20703088Y-15516167D01*
X20711732Y-15513629D01*
X20759457Y-15482958D01*
X20826195Y-15440068D01*
X20826198Y-15440066D01*
X20833775Y-15435196D01*
X20839676Y-15428386D01*
X20922875Y-15332370D01*
X20922877Y-15332367D01*
X20928777Y-15325558D01*
X20989042Y-15193596D01*
X21009688Y-15050000D01*
X20989042Y-14906404D01*
X20934600Y-14787192D01*
X20932521Y-14782640D01*
X20932521Y-14782639D01*
X20928777Y-14774442D01*
X20922877Y-14767633D01*
X20922875Y-14767630D01*
X20839676Y-14671614D01*
X20833775Y-14664804D01*
X20826198Y-14659934D01*
X20826195Y-14659932D01*
X20749236Y-14610473D01*
X20711732Y-14586371D01*
X20703088Y-14583833D01*
X20703086Y-14583832D01*
X20581181Y-14548038D01*
X20581179Y-14548038D01*
X20572536Y-14545500D01*
X20541709Y-14545500D01*
X20473588Y-14525498D01*
X20427095Y-14471842D01*
X20421337Y-14439265D01*
X20418843Y-14439789D01*
X20411948Y-14406969D01*
X20400487Y-14404000D01*
X19502000Y-14404000D01*
X19433879Y-14383998D01*
X19387386Y-14330342D01*
X19376000Y-14278000D01*
X19376000Y-14022000D01*
X19396002Y-13953879D01*
X19449658Y-13907386D01*
X19502000Y-13896000D01*
X20398424Y-13896000D01*
X20413219Y-13891656D01*
X20415063Y-13881225D01*
X20413313Y-13871644D01*
X20397046Y-13815654D01*
X20397249Y-13744657D01*
X20435802Y-13685041D01*
X20500467Y-13655732D01*
X20518043Y-13654500D01*
X20862378Y-13654500D01*
X20930499Y-13674502D01*
G37*
G04 #@! TD.AperFunction*
G04 #@! TA.AperFunction,Conductor*
G36*
X2437621Y-120502D02*
G01*
X2484114Y-174158D01*
X2495500Y-226500D01*
X2495500Y-1500940D01*
X2510988Y-1653247D01*
X2512902Y-1659347D01*
X2563693Y-1821227D01*
X2572147Y-1848173D01*
X2575248Y-1853760D01*
X2668191Y-2021212D01*
X2668194Y-2021216D01*
X2671292Y-2026798D01*
X2804364Y-2181809D01*
X2830799Y-2202271D01*
X2960859Y-2302945D01*
X2960862Y-2302947D01*
X2965916Y-2306859D01*
X2971655Y-2309674D01*
X2971658Y-2309676D01*
X3064316Y-2355127D01*
X3149333Y-2396830D01*
X3155515Y-2398431D01*
X3155516Y-2398431D01*
X3340925Y-2446437D01*
X3340929Y-2446438D01*
X3347106Y-2448037D01*
X3551139Y-2458384D01*
X3557451Y-2457417D01*
X3557452Y-2457417D01*
X3616572Y-2448360D01*
X3753079Y-2427448D01*
X3793086Y-2412631D01*
X3938666Y-2358714D01*
X3938667Y-2358713D01*
X3944657Y-2356495D01*
X4118031Y-2248430D01*
X4153226Y-2214975D01*
X4261475Y-2112078D01*
X4261479Y-2112074D01*
X4266103Y-2107678D01*
X4319024Y-2031645D01*
X4379158Y-1945247D01*
X4382810Y-1940000D01*
X4386294Y-1931882D01*
X4387153Y-1930843D01*
X4388432Y-1928539D01*
X4388862Y-1928777D01*
X4431540Y-1877171D01*
X4499182Y-1855606D01*
X4567745Y-1874035D01*
X4612250Y-1920425D01*
X4668191Y-2021212D01*
X4668194Y-2021216D01*
X4671292Y-2026798D01*
X4804364Y-2181809D01*
X4830799Y-2202271D01*
X4960859Y-2302945D01*
X4960862Y-2302947D01*
X4965916Y-2306859D01*
X4971655Y-2309674D01*
X4971658Y-2309676D01*
X5064316Y-2355127D01*
X5149333Y-2396830D01*
X5155515Y-2398431D01*
X5155516Y-2398431D01*
X5340925Y-2446437D01*
X5340929Y-2446438D01*
X5347106Y-2448037D01*
X5551139Y-2458384D01*
X5557451Y-2457417D01*
X5557452Y-2457417D01*
X5616572Y-2448360D01*
X5753079Y-2427448D01*
X5793086Y-2412631D01*
X5938666Y-2358714D01*
X5938667Y-2358713D01*
X5944657Y-2356495D01*
X6118031Y-2248430D01*
X6153226Y-2214975D01*
X6261475Y-2112078D01*
X6261479Y-2112074D01*
X6266103Y-2107678D01*
X6319024Y-2031645D01*
X6379158Y-1945247D01*
X6382810Y-1940000D01*
X6386294Y-1931882D01*
X6387153Y-1930843D01*
X6388432Y-1928539D01*
X6388862Y-1928777D01*
X6431540Y-1877171D01*
X6499182Y-1855606D01*
X6567745Y-1874035D01*
X6612250Y-1920425D01*
X6668191Y-2021212D01*
X6668194Y-2021216D01*
X6671292Y-2026798D01*
X6804364Y-2181809D01*
X6830799Y-2202271D01*
X6960859Y-2302945D01*
X6960862Y-2302947D01*
X6965916Y-2306859D01*
X6971655Y-2309674D01*
X6971658Y-2309676D01*
X7064316Y-2355127D01*
X7149333Y-2396830D01*
X7155515Y-2398431D01*
X7155516Y-2398431D01*
X7340925Y-2446437D01*
X7340929Y-2446438D01*
X7347106Y-2448037D01*
X7551139Y-2458384D01*
X7557451Y-2457417D01*
X7557452Y-2457417D01*
X7616572Y-2448360D01*
X7753079Y-2427448D01*
X7793086Y-2412631D01*
X7938666Y-2358714D01*
X7938667Y-2358713D01*
X7944657Y-2356495D01*
X8118031Y-2248430D01*
X8153226Y-2214975D01*
X8261475Y-2112078D01*
X8261479Y-2112074D01*
X8266103Y-2107678D01*
X8319024Y-2031645D01*
X8379158Y-1945247D01*
X8382810Y-1940000D01*
X8386294Y-1931882D01*
X8387153Y-1930843D01*
X8388432Y-1928539D01*
X8388862Y-1928777D01*
X8431540Y-1877171D01*
X8499182Y-1855606D01*
X8567745Y-1874035D01*
X8612250Y-1920425D01*
X8668191Y-2021212D01*
X8668194Y-2021216D01*
X8671292Y-2026798D01*
X8804364Y-2181809D01*
X8830799Y-2202271D01*
X8960859Y-2302945D01*
X8960862Y-2302947D01*
X8965916Y-2306859D01*
X8971655Y-2309674D01*
X8971658Y-2309676D01*
X9064316Y-2355127D01*
X9149333Y-2396830D01*
X9155515Y-2398431D01*
X9155516Y-2398431D01*
X9340925Y-2446437D01*
X9340929Y-2446438D01*
X9347106Y-2448037D01*
X9551139Y-2458384D01*
X9557451Y-2457417D01*
X9557452Y-2457417D01*
X9616572Y-2448360D01*
X9753079Y-2427448D01*
X9793086Y-2412631D01*
X9938666Y-2358714D01*
X9938667Y-2358713D01*
X9944657Y-2356495D01*
X10118031Y-2248430D01*
X10153226Y-2214975D01*
X10261475Y-2112078D01*
X10261479Y-2112074D01*
X10266103Y-2107678D01*
X10319024Y-2031645D01*
X10379158Y-1945247D01*
X10382810Y-1940000D01*
X10386294Y-1931882D01*
X10387153Y-1930843D01*
X10388432Y-1928539D01*
X10388862Y-1928777D01*
X10431540Y-1877171D01*
X10499182Y-1855606D01*
X10567745Y-1874035D01*
X10612250Y-1920425D01*
X10668191Y-2021212D01*
X10668194Y-2021216D01*
X10671292Y-2026798D01*
X10804364Y-2181809D01*
X10830799Y-2202271D01*
X10960859Y-2302945D01*
X10960862Y-2302947D01*
X10965916Y-2306859D01*
X10971655Y-2309674D01*
X10971658Y-2309676D01*
X11064316Y-2355127D01*
X11149333Y-2396830D01*
X11155515Y-2398431D01*
X11155516Y-2398431D01*
X11340925Y-2446437D01*
X11340929Y-2446438D01*
X11347106Y-2448037D01*
X11551139Y-2458384D01*
X11557449Y-2457417D01*
X11557456Y-2457417D01*
X11577280Y-2454380D01*
X11622400Y-2455648D01*
X11630902Y-2457444D01*
X11648340Y-2462463D01*
X11846546Y-2535338D01*
X11848009Y-2535876D01*
X11863012Y-2542531D01*
X12070515Y-2651273D01*
X12082902Y-2658700D01*
X12269371Y-2785579D01*
X12305986Y-2810493D01*
X12305508Y-2811195D01*
X12324275Y-2825614D01*
X12714091Y-3215430D01*
X12728602Y-3233299D01*
X12729867Y-3234674D01*
X12735579Y-3243416D01*
X12743817Y-3249828D01*
X12743820Y-3249831D01*
X12759456Y-3262001D01*
X12763498Y-3265283D01*
X12766411Y-3267750D01*
X12770103Y-3271442D01*
X12774353Y-3274476D01*
X12774355Y-3274478D01*
X12785927Y-3282740D01*
X12790098Y-3285850D01*
X12828944Y-3316085D01*
X12836042Y-3318522D01*
X12842152Y-3322884D01*
X12889345Y-3336934D01*
X12894286Y-3338517D01*
X12940844Y-3354500D01*
X12948349Y-3354500D01*
X12955544Y-3356642D01*
X13004714Y-3354608D01*
X13009922Y-3354500D01*
X13928132Y-3354500D01*
X13996253Y-3374502D01*
X14042746Y-3428158D01*
X14046264Y-3436674D01*
X14079071Y-3525153D01*
X14080685Y-3529782D01*
X14085763Y-3545305D01*
X14126486Y-3669791D01*
X14127640Y-3673518D01*
X14140789Y-3718445D01*
X14165428Y-3802634D01*
X14170501Y-3838025D01*
X14170501Y-3929748D01*
X14173379Y-3960451D01*
X14175912Y-3967690D01*
X14217816Y-4087445D01*
X14217937Y-4089809D01*
X14224082Y-4097159D01*
X14273067Y-4163531D01*
X14299990Y-4200010D01*
X14307583Y-4205614D01*
X14402629Y-4275762D01*
X14402632Y-4275764D01*
X14410227Y-4281369D01*
X14539549Y-4326621D01*
X14547178Y-4327336D01*
X14547181Y-4327337D01*
X14567314Y-4329225D01*
X14567323Y-4329225D01*
X14570251Y-4329500D01*
X14573205Y-4329500D01*
X14900951Y-4329499D01*
X15229748Y-4329499D01*
X15232669Y-4329225D01*
X15232673Y-4329225D01*
X15252816Y-4327337D01*
X15252819Y-4327336D01*
X15260451Y-4326621D01*
X15389773Y-4281369D01*
X15397368Y-4275764D01*
X15397371Y-4275762D01*
X15492417Y-4205614D01*
X15500010Y-4200010D01*
X15526933Y-4163531D01*
X15575762Y-4097371D01*
X15575764Y-4097368D01*
X15581369Y-4089773D01*
X15584488Y-4080860D01*
X15588601Y-4073077D01*
X15638115Y-4022196D01*
X15707278Y-4006162D01*
X15774129Y-4030066D01*
X15811399Y-4073077D01*
X15815512Y-4080860D01*
X15818631Y-4089773D01*
X15824236Y-4097368D01*
X15824238Y-4097371D01*
X15873067Y-4163531D01*
X15899990Y-4200010D01*
X15907583Y-4205614D01*
X16002629Y-4275762D01*
X16002632Y-4275764D01*
X16010227Y-4281369D01*
X16139549Y-4326621D01*
X16147178Y-4327336D01*
X16147181Y-4327337D01*
X16167314Y-4329225D01*
X16167323Y-4329225D01*
X16170251Y-4329500D01*
X16173205Y-4329500D01*
X16500951Y-4329499D01*
X16829748Y-4329499D01*
X16832669Y-4329225D01*
X16832673Y-4329225D01*
X16852816Y-4327337D01*
X16852819Y-4327336D01*
X16860451Y-4326621D01*
X16867690Y-4324088D01*
X16977885Y-4285529D01*
X17048789Y-4281909D01*
X17110394Y-4317198D01*
X17143141Y-4380192D01*
X17145500Y-4404458D01*
X17145500Y-4595542D01*
X17125498Y-4663663D01*
X17071842Y-4710156D01*
X17001568Y-4720260D01*
X16977885Y-4714471D01*
X16878455Y-4679679D01*
X16860451Y-4673379D01*
X16852822Y-4672664D01*
X16852819Y-4672663D01*
X16832686Y-4670775D01*
X16832677Y-4670775D01*
X16829749Y-4670500D01*
X16826795Y-4670500D01*
X16499049Y-4670501D01*
X16170252Y-4670501D01*
X16167331Y-4670775D01*
X16167327Y-4670775D01*
X16147184Y-4672663D01*
X16147181Y-4672664D01*
X16139549Y-4673379D01*
X16010227Y-4718631D01*
X16002632Y-4724236D01*
X16002629Y-4724238D01*
X15928059Y-4779274D01*
X15899990Y-4799990D01*
X15894386Y-4807583D01*
X15824238Y-4902629D01*
X15824236Y-4902632D01*
X15818631Y-4910227D01*
X15815512Y-4919140D01*
X15811399Y-4926923D01*
X15761885Y-4977804D01*
X15692722Y-4993838D01*
X15625871Y-4969934D01*
X15588601Y-4926923D01*
X15584488Y-4919140D01*
X15581369Y-4910227D01*
X15575764Y-4902632D01*
X15575762Y-4902629D01*
X15505614Y-4807583D01*
X15500010Y-4799990D01*
X15471941Y-4779274D01*
X15397371Y-4724238D01*
X15397368Y-4724236D01*
X15389773Y-4718631D01*
X15260451Y-4673379D01*
X15252822Y-4672664D01*
X15252819Y-4672663D01*
X15232686Y-4670775D01*
X15232677Y-4670775D01*
X15229749Y-4670500D01*
X15226795Y-4670500D01*
X14899049Y-4670501D01*
X14570252Y-4670501D01*
X14567331Y-4670775D01*
X14567327Y-4670775D01*
X14547184Y-4672663D01*
X14547181Y-4672664D01*
X14539549Y-4673379D01*
X14410227Y-4718631D01*
X14402632Y-4724236D01*
X14402629Y-4724238D01*
X14328059Y-4779274D01*
X14299990Y-4799990D01*
X14294386Y-4807583D01*
X14294384Y-4807585D01*
X14291879Y-4810979D01*
X14288186Y-4813783D01*
X14287706Y-4814263D01*
X14287640Y-4814197D01*
X14235334Y-4853912D01*
X14164555Y-4859458D01*
X14102012Y-4825857D01*
X14067564Y-4763778D01*
X14064500Y-4736158D01*
X14064499Y-4403911D01*
X14064499Y-4398956D01*
X14057113Y-4352320D01*
X14051420Y-4316371D01*
X14051419Y-4316369D01*
X14049868Y-4306573D01*
X14039146Y-4285529D01*
X14010436Y-4229184D01*
X14007007Y-4210926D01*
X13997291Y-4203386D01*
X13993135Y-4195229D01*
X13904771Y-4106865D01*
X13793427Y-4050132D01*
X13783637Y-4048581D01*
X13783636Y-4048581D01*
X13757899Y-4044505D01*
X13701045Y-4035500D01*
X13500041Y-4035500D01*
X13298956Y-4035501D01*
X13275972Y-4039141D01*
X13216371Y-4048580D01*
X13216369Y-4048581D01*
X13206573Y-4050132D01*
X13197736Y-4054635D01*
X13197735Y-4054635D01*
X13185695Y-4060770D01*
X13095229Y-4106865D01*
X13054361Y-4147733D01*
X13043046Y-4157505D01*
X13039942Y-4159370D01*
X13035364Y-4163529D01*
X13035361Y-4163531D01*
X13000996Y-4194749D01*
X12937124Y-4225748D01*
X12867222Y-4217545D01*
X12811832Y-4194135D01*
X12805395Y-4191199D01*
X12786083Y-4181726D01*
X12771474Y-4174560D01*
X12757230Y-4166379D01*
X12746267Y-4159093D01*
X12733071Y-4149008D01*
X12705233Y-4124666D01*
X12699814Y-4119640D01*
X12647134Y-4067820D01*
X12647131Y-4067817D01*
X12642763Y-4063521D01*
X12632335Y-4056646D01*
X12612600Y-4040550D01*
X12194609Y-3622559D01*
X12184774Y-3611044D01*
X12181326Y-3604277D01*
X12090723Y-3513674D01*
X12081884Y-3509170D01*
X12054102Y-3495014D01*
X12040833Y-3486883D01*
X12038955Y-3485926D01*
X12030929Y-3480095D01*
X12021498Y-3477031D01*
X12019616Y-3476072D01*
X12005241Y-3470119D01*
X11976555Y-3455502D01*
X11944758Y-3450466D01*
X11925533Y-3445850D01*
X11918502Y-3443566D01*
X11918503Y-3443566D01*
X11909066Y-3440500D01*
X10518166Y-3440500D01*
X10423445Y-3455502D01*
X10309277Y-3513674D01*
X10218674Y-3604277D01*
X10160502Y-3718445D01*
X10145500Y-3813166D01*
X10145500Y-4176834D01*
X10160502Y-4271555D01*
X10218674Y-4385723D01*
X10309277Y-4476326D01*
X10384687Y-4514750D01*
X10390542Y-4517733D01*
X10442157Y-4566482D01*
X10459223Y-4635397D01*
X10436322Y-4702598D01*
X10390542Y-4742267D01*
X10309277Y-4783674D01*
X10218674Y-4874277D01*
X10160502Y-4988445D01*
X10145500Y-5083166D01*
X10145500Y-5446834D01*
X10160502Y-5541555D01*
X10218674Y-5655723D01*
X10309277Y-5746326D01*
X10384687Y-5784750D01*
X10390542Y-5787733D01*
X10442157Y-5836482D01*
X10459223Y-5905397D01*
X10436322Y-5972598D01*
X10390542Y-6012267D01*
X10309277Y-6053674D01*
X10218674Y-6144277D01*
X10160502Y-6258445D01*
X10145500Y-6353166D01*
X10145500Y-6716834D01*
X10160502Y-6811555D01*
X10218674Y-6925723D01*
X10309277Y-7016326D01*
X10384687Y-7054750D01*
X10390542Y-7057733D01*
X10442157Y-7106482D01*
X10459223Y-7175397D01*
X10436322Y-7242598D01*
X10390542Y-7282267D01*
X10309277Y-7323674D01*
X10218674Y-7414277D01*
X10160502Y-7528445D01*
X10145500Y-7623166D01*
X10145500Y-7986834D01*
X10153758Y-8038977D01*
X10159731Y-8076688D01*
X10150631Y-8147099D01*
X10104909Y-8201413D01*
X10040491Y-8222290D01*
X10021926Y-8223058D01*
X10017433Y-8223244D01*
X10012226Y-8223352D01*
X8580500Y-8223352D01*
X8512379Y-8203350D01*
X8465886Y-8149694D01*
X8454500Y-8097352D01*
X8454500Y-8039540D01*
X8457545Y-8015481D01*
X8457226Y-8015432D01*
X8458174Y-8009311D01*
X8459715Y-8003319D01*
X8460358Y-7991726D01*
X8463072Y-7942807D01*
X8466127Y-7921364D01*
X8467140Y-7916989D01*
X8474773Y-7894190D01*
X8481559Y-7878939D01*
X8485258Y-7871327D01*
X8515251Y-7814531D01*
X8515447Y-7814160D01*
X8518510Y-7808174D01*
X8518779Y-7807631D01*
X8521807Y-7801304D01*
X8561438Y-7715554D01*
X8563835Y-7705199D01*
X8563978Y-7704582D01*
X8572118Y-7680658D01*
X8585297Y-7651798D01*
X8585298Y-7651794D01*
X8589042Y-7643596D01*
X8604194Y-7538209D01*
X8608406Y-7508917D01*
X8609688Y-7500000D01*
X8603253Y-7455240D01*
X8590504Y-7366573D01*
X8589042Y-7356404D01*
X8549733Y-7270330D01*
X8532521Y-7232640D01*
X8532521Y-7232639D01*
X8528777Y-7224442D01*
X8522877Y-7217633D01*
X8522875Y-7217630D01*
X8439676Y-7121614D01*
X8433775Y-7114804D01*
X8426198Y-7109934D01*
X8426195Y-7109932D01*
X8319311Y-7041242D01*
X8311732Y-7036371D01*
X8303088Y-7033833D01*
X8303086Y-7033832D01*
X8181181Y-6998038D01*
X8181179Y-6998038D01*
X8172536Y-6995500D01*
X8027464Y-6995500D01*
X8018821Y-6998038D01*
X8018819Y-6998038D01*
X7915998Y-7028229D01*
X7845001Y-7028229D01*
X7785275Y-6989845D01*
X7755782Y-6925264D01*
X7754500Y-6907333D01*
X7754500Y-6339540D01*
X7757545Y-6315481D01*
X7757226Y-6315432D01*
X7758174Y-6309311D01*
X7759715Y-6303319D01*
X7762012Y-6261909D01*
X7763072Y-6242807D01*
X7766127Y-6221364D01*
X7767140Y-6216989D01*
X7774773Y-6194190D01*
X7781559Y-6178939D01*
X7785258Y-6171327D01*
X7815251Y-6114531D01*
X7815447Y-6114160D01*
X7816250Y-6112592D01*
X7818327Y-6108531D01*
X7818510Y-6108174D01*
X7818779Y-6107631D01*
X7821807Y-6101304D01*
X7825516Y-6093280D01*
X7852874Y-6034084D01*
X7861438Y-6015554D01*
X7862900Y-6009239D01*
X7863978Y-6004582D01*
X7872118Y-5980658D01*
X7885297Y-5951798D01*
X7885298Y-5951794D01*
X7889042Y-5943596D01*
X7905329Y-5830315D01*
X7908406Y-5808917D01*
X7909688Y-5800000D01*
X7908017Y-5788374D01*
X7890324Y-5665321D01*
X7889042Y-5656404D01*
X7828777Y-5524442D01*
X7822877Y-5517633D01*
X7822875Y-5517630D01*
X7739676Y-5421614D01*
X7733775Y-5414804D01*
X7726198Y-5409934D01*
X7726195Y-5409932D01*
X7625042Y-5344925D01*
X7611732Y-5336371D01*
X7603088Y-5333833D01*
X7603086Y-5333832D01*
X7481181Y-5298038D01*
X7481179Y-5298038D01*
X7472536Y-5295500D01*
X7327464Y-5295500D01*
X7318821Y-5298038D01*
X7318819Y-5298038D01*
X7196914Y-5333832D01*
X7196912Y-5333833D01*
X7188268Y-5336371D01*
X7174958Y-5344925D01*
X7073805Y-5409932D01*
X7073802Y-5409934D01*
X7066225Y-5414804D01*
X7061904Y-5419790D01*
X6998432Y-5448777D01*
X6928158Y-5438674D01*
X6874502Y-5392181D01*
X6854500Y-5324060D01*
X6854500Y-4749834D01*
X6856876Y-4726919D01*
X6856952Y-4725072D01*
X6859095Y-4714853D01*
X6857568Y-4702598D01*
X6855356Y-4684856D01*
X6854819Y-4679679D01*
X6854500Y-4675829D01*
X6854500Y-4670623D01*
X6851301Y-4651456D01*
X6850551Y-4646310D01*
X6845753Y-4607814D01*
X6845753Y-4607813D01*
X6844461Y-4597449D01*
X6841164Y-4590706D01*
X6839929Y-4583302D01*
X6816480Y-4539971D01*
X6814134Y-4535415D01*
X6792499Y-4491161D01*
X6787193Y-4485855D01*
X6783619Y-4479251D01*
X6747392Y-4445902D01*
X6743633Y-4442295D01*
X6080906Y-3779567D01*
X6066393Y-3761696D01*
X6065134Y-3760328D01*
X6059421Y-3751584D01*
X6051183Y-3745172D01*
X6051180Y-3745169D01*
X6035544Y-3732999D01*
X6031502Y-3729717D01*
X6028589Y-3727250D01*
X6024897Y-3723558D01*
X6020645Y-3720522D01*
X6009073Y-3712260D01*
X6004893Y-3709144D01*
X5974293Y-3685326D01*
X5974292Y-3685325D01*
X5966056Y-3678915D01*
X5958958Y-3676478D01*
X5952848Y-3672116D01*
X5905655Y-3658066D01*
X5900714Y-3656483D01*
X5854156Y-3640500D01*
X5846651Y-3640500D01*
X5839456Y-3638358D01*
X5790286Y-3640392D01*
X5785078Y-3640500D01*
X5160039Y-3640500D01*
X5135072Y-3637095D01*
X5134970Y-3637679D01*
X5093441Y-3630424D01*
X5075909Y-3626046D01*
X5047819Y-3616846D01*
X5032486Y-3610685D01*
X4997089Y-3593682D01*
X4984245Y-3586562D01*
X4941312Y-3559378D01*
X4930857Y-3551988D01*
X4928269Y-3549954D01*
X4917033Y-3539984D01*
X4890723Y-3513674D01*
X4869349Y-3502783D01*
X4855498Y-3494569D01*
X4844459Y-3487029D01*
X4841770Y-3485445D01*
X4810757Y-3469870D01*
X4804274Y-3468541D01*
X4791324Y-3463027D01*
X4776555Y-3455502D01*
X4766766Y-3453952D01*
X4766764Y-3453951D01*
X4701192Y-3443566D01*
X4681834Y-3440500D01*
X3318166Y-3440500D01*
X3223445Y-3455502D01*
X3109277Y-3513674D01*
X3018674Y-3604277D01*
X2960502Y-3718445D01*
X2945500Y-3813166D01*
X2945500Y-4176834D01*
X2960502Y-4271555D01*
X3018674Y-4385723D01*
X3109277Y-4476326D01*
X3184687Y-4514750D01*
X3190542Y-4517733D01*
X3242157Y-4566482D01*
X3259223Y-4635397D01*
X3236322Y-4702598D01*
X3190542Y-4742267D01*
X3109277Y-4783674D01*
X3018674Y-4874277D01*
X2960502Y-4988445D01*
X2945500Y-5083166D01*
X2945500Y-5446834D01*
X2960502Y-5541555D01*
X3018674Y-5655723D01*
X3109277Y-5746326D01*
X3184687Y-5784750D01*
X3190542Y-5787733D01*
X3242157Y-5836482D01*
X3259223Y-5905397D01*
X3236322Y-5972598D01*
X3190542Y-6012267D01*
X3109277Y-6053674D01*
X3018674Y-6144277D01*
X2960502Y-6258445D01*
X2945500Y-6353166D01*
X2945500Y-6716834D01*
X2960502Y-6811555D01*
X2965003Y-6820388D01*
X3006514Y-6901857D01*
X3018674Y-6925723D01*
X3021442Y-6928491D01*
X3044180Y-6992217D01*
X3028101Y-7061369D01*
X2982525Y-7107867D01*
X2950323Y-7126911D01*
X2937896Y-7136551D01*
X2831551Y-7242896D01*
X2821911Y-7255322D01*
X2745352Y-7384779D01*
X2739107Y-7399210D01*
X2703655Y-7521233D01*
X2692813Y-7538209D01*
X2698479Y-7546971D01*
X2707370Y-7551000D01*
X4128000Y-7551000D01*
X4196121Y-7571002D01*
X4242614Y-7624658D01*
X4254000Y-7677000D01*
X4254000Y-8594884D01*
X4258475Y-8610123D01*
X4259865Y-8611328D01*
X4267548Y-8612999D01*
X4713984Y-8612999D01*
X4718920Y-8612805D01*
X4747336Y-8610570D01*
X4759931Y-8608270D01*
X4895412Y-8568908D01*
X4966409Y-8569111D01*
X5026025Y-8607664D01*
X5055334Y-8672329D01*
X5045030Y-8742574D01*
X5019661Y-8779000D01*
X4876287Y-8922374D01*
X4813975Y-8956400D01*
X4743160Y-8951335D01*
X4719434Y-8938598D01*
X4716796Y-8935960D01*
X4707963Y-8931459D01*
X4707961Y-8931458D01*
X4663029Y-8908564D01*
X4606862Y-8879946D01*
X4597073Y-8878396D01*
X4597071Y-8878395D01*
X4568556Y-8873879D01*
X4515653Y-8865500D01*
X4300044Y-8865500D01*
X4084348Y-8865501D01*
X4079455Y-8866276D01*
X4079454Y-8866276D01*
X4002936Y-8878394D01*
X4002934Y-8878395D01*
X3993138Y-8879946D01*
X3883204Y-8935960D01*
X3795960Y-9023204D01*
X3739946Y-9133138D01*
X3738396Y-9142927D01*
X3738395Y-9142929D01*
X3736491Y-9154954D01*
X3725500Y-9224347D01*
X3725501Y-9555652D01*
X3726276Y-9560545D01*
X3726276Y-9560546D01*
X3737203Y-9629540D01*
X3739946Y-9646862D01*
X3744449Y-9655699D01*
X3744449Y-9655700D01*
X3745060Y-9656899D01*
X3795960Y-9756796D01*
X3850069Y-9810905D01*
X3884095Y-9873217D01*
X3879030Y-9944032D01*
X3850069Y-9989095D01*
X3795960Y-10043204D01*
X3739946Y-10153138D01*
X3725500Y-10244347D01*
X3725501Y-10575652D01*
X3739946Y-10666862D01*
X3795960Y-10776796D01*
X3883204Y-10864040D01*
X3993138Y-10920054D01*
X4002927Y-10921604D01*
X4002929Y-10921605D01*
X4029421Y-10925801D01*
X4084347Y-10934500D01*
X4299956Y-10934500D01*
X4515652Y-10934499D01*
X4520546Y-10933724D01*
X4597064Y-10921606D01*
X4597066Y-10921605D01*
X4606862Y-10920054D01*
X4625484Y-10910566D01*
X4707964Y-10868540D01*
X4707963Y-10868540D01*
X4716796Y-10864040D01*
X4728749Y-10852087D01*
X4742853Y-10839928D01*
X4746319Y-10837361D01*
X4756772Y-10830399D01*
X4792157Y-10809296D01*
X4804787Y-10802701D01*
X4833396Y-10789768D01*
X4848236Y-10784157D01*
X4870446Y-10777323D01*
X4887183Y-10773399D01*
X4891467Y-10772700D01*
X4917173Y-10768501D01*
X4917182Y-10768499D01*
X4922023Y-10767708D01*
X4926693Y-10766172D01*
X4926696Y-10766171D01*
X4932192Y-10764363D01*
X4955984Y-10759019D01*
X4973937Y-10756781D01*
X4982186Y-10755753D01*
X4982187Y-10755753D01*
X4992551Y-10754461D01*
X4999294Y-10751164D01*
X5006698Y-10749929D01*
X5029260Y-10737719D01*
X5049986Y-10726502D01*
X5054619Y-10724117D01*
X5089460Y-10707085D01*
X5089462Y-10707084D01*
X5098840Y-10702499D01*
X5104147Y-10697192D01*
X5110749Y-10693619D01*
X5144088Y-10657403D01*
X5147694Y-10653645D01*
X5270406Y-10530933D01*
X5332718Y-10496907D01*
X5403533Y-10501972D01*
X5460369Y-10544519D01*
X5485180Y-10611039D01*
X5485501Y-10620026D01*
X5485501Y-10641044D01*
X5492829Y-10687312D01*
X5483729Y-10757720D01*
X5457475Y-10796115D01*
X5369516Y-10884074D01*
X5359876Y-10896501D01*
X5284604Y-11023780D01*
X5278357Y-11038216D01*
X5243381Y-11158605D01*
X5243421Y-11172705D01*
X5250691Y-11176000D01*
X7943558Y-11176000D01*
X7957089Y-11172027D01*
X7958224Y-11164129D01*
X7921643Y-11038216D01*
X7915396Y-11023780D01*
X7909990Y-11014639D01*
X7892531Y-10945822D01*
X7915048Y-10878491D01*
X7970393Y-10834022D01*
X8018444Y-10824500D01*
X8244500Y-10824500D01*
X8312621Y-10844502D01*
X8359114Y-10898158D01*
X8370500Y-10950500D01*
X8370500Y-10995460D01*
X8370918Y-10999060D01*
X8370918Y-10999066D01*
X8371549Y-11004500D01*
X8373454Y-11020923D01*
X8377281Y-11029590D01*
X8377282Y-11029594D01*
X8385898Y-11049106D01*
X8395116Y-11119502D01*
X8385898Y-11150894D01*
X8377282Y-11170406D01*
X8377281Y-11170410D01*
X8373454Y-11179077D01*
X8372362Y-11188491D01*
X8371791Y-11193416D01*
X8370500Y-11204540D01*
X8370500Y-11395460D01*
X8373454Y-11420923D01*
X8377281Y-11429590D01*
X8377282Y-11429594D01*
X8385898Y-11449106D01*
X8395116Y-11519502D01*
X8385898Y-11550894D01*
X8377282Y-11570406D01*
X8377281Y-11570410D01*
X8373454Y-11579077D01*
X8370500Y-11604540D01*
X8370500Y-11795460D01*
X8373454Y-11820923D01*
X8377281Y-11829590D01*
X8377282Y-11829594D01*
X8385898Y-11849106D01*
X8395116Y-11919502D01*
X8385898Y-11950894D01*
X8377282Y-11970406D01*
X8377281Y-11970410D01*
X8373454Y-11979077D01*
X8370500Y-12004540D01*
X8370500Y-12019500D01*
X8350498Y-12087621D01*
X8296842Y-12134114D01*
X8244500Y-12145500D01*
X7953391Y-12145500D01*
X7885270Y-12125498D01*
X7838777Y-12071842D01*
X7828673Y-12001568D01*
X7844937Y-11955361D01*
X7915396Y-11836220D01*
X7921643Y-11821784D01*
X7956619Y-11701395D01*
X7956579Y-11687295D01*
X7949309Y-11684000D01*
X5256442Y-11684000D01*
X5242911Y-11687973D01*
X5241776Y-11695871D01*
X5278357Y-11821784D01*
X5284604Y-11836220D01*
X5355063Y-11955361D01*
X5372522Y-12024178D01*
X5350005Y-12091509D01*
X5294660Y-12135978D01*
X5246609Y-12145500D01*
X3799029Y-12145500D01*
X3730908Y-12125498D01*
X3709934Y-12108595D01*
X3291405Y-11690066D01*
X3257379Y-11627754D01*
X3254500Y-11600971D01*
X3254500Y-10949834D01*
X3256876Y-10926919D01*
X3256952Y-10925072D01*
X3259095Y-10914853D01*
X3257078Y-10898666D01*
X3255356Y-10884856D01*
X3254819Y-10879679D01*
X3254500Y-10875829D01*
X3254500Y-10870623D01*
X3251301Y-10851456D01*
X3250551Y-10846310D01*
X3245753Y-10807814D01*
X3245753Y-10807813D01*
X3244461Y-10797449D01*
X3241164Y-10790706D01*
X3239929Y-10783302D01*
X3229680Y-10764363D01*
X3216502Y-10740014D01*
X3214117Y-10735381D01*
X3197085Y-10700540D01*
X3197084Y-10700538D01*
X3192499Y-10691160D01*
X3187192Y-10685853D01*
X3183619Y-10679251D01*
X3147403Y-10645912D01*
X3143645Y-10642306D01*
X2833409Y-10332070D01*
X2811404Y-10302413D01*
X2780844Y-10245290D01*
X2745812Y-10179810D01*
X2741406Y-10170715D01*
X2733746Y-10153138D01*
X2698152Y-10071470D01*
X2660410Y-9984870D01*
X2657657Y-9978011D01*
X2650941Y-9959746D01*
X2572818Y-9747267D01*
X2571010Y-9741991D01*
X2564541Y-9721643D01*
X2483927Y-9468106D01*
X2482675Y-9463915D01*
X2436207Y-9298002D01*
X2432991Y-9283101D01*
X2428416Y-9253237D01*
X2428415Y-9253234D01*
X2427448Y-9246921D01*
X2406472Y-9190284D01*
X2403298Y-9180505D01*
X2396443Y-9156029D01*
X2396108Y-9154979D01*
X2396100Y-9154954D01*
X2391066Y-9139202D01*
X2391065Y-9139200D01*
X2390725Y-9138135D01*
X2390152Y-9136543D01*
X2383089Y-9118961D01*
X2379385Y-9113716D01*
X2372515Y-9098600D01*
X2358713Y-9061332D01*
X2356495Y-9055343D01*
X2321333Y-8998930D01*
X2251809Y-8887390D01*
X2248430Y-8881969D01*
X2240740Y-8873879D01*
X2112078Y-8738525D01*
X2112074Y-8738521D01*
X2107678Y-8733897D01*
X2102439Y-8730250D01*
X2102436Y-8730248D01*
X1945247Y-8620842D01*
X1940000Y-8617190D01*
X1933354Y-8614338D01*
X1931882Y-8613706D01*
X1930843Y-8612847D01*
X1928539Y-8611568D01*
X1928777Y-8611138D01*
X1877171Y-8568460D01*
X1855606Y-8500818D01*
X1874035Y-8432255D01*
X1920425Y-8387750D01*
X2021212Y-8331809D01*
X2021216Y-8331806D01*
X2026798Y-8328708D01*
X2181809Y-8195636D01*
X2243798Y-8115552D01*
X2278384Y-8070871D01*
X2698456Y-8070871D01*
X2739107Y-8210790D01*
X2745352Y-8225221D01*
X2821911Y-8354678D01*
X2831551Y-8367104D01*
X2937896Y-8473449D01*
X2950322Y-8483089D01*
X3079779Y-8559648D01*
X3094210Y-8565893D01*
X3240065Y-8608269D01*
X3252667Y-8610570D01*
X3281084Y-8612807D01*
X3286014Y-8613000D01*
X3727885Y-8613000D01*
X3743124Y-8608525D01*
X3744329Y-8607135D01*
X3746000Y-8599452D01*
X3746000Y-8077115D01*
X3741525Y-8061876D01*
X3740135Y-8060671D01*
X3732452Y-8059000D01*
X2713122Y-8059000D01*
X2699591Y-8062973D01*
X2698456Y-8070871D01*
X2278384Y-8070871D01*
X2302945Y-8039141D01*
X2302947Y-8039138D01*
X2306859Y-8034084D01*
X2315985Y-8015481D01*
X2362151Y-7921364D01*
X2396830Y-7850667D01*
X2406282Y-7814160D01*
X2446437Y-7659075D01*
X2446438Y-7659071D01*
X2448037Y-7652894D01*
X2448360Y-7646520D01*
X2448361Y-7646515D01*
X2451468Y-7585243D01*
X2470503Y-7530787D01*
X2456820Y-7479696D01*
X2456905Y-7478017D01*
X2458384Y-7448861D01*
X2457204Y-7441155D01*
X2450209Y-7395500D01*
X2427448Y-7246921D01*
X2402737Y-7180200D01*
X2358714Y-7061334D01*
X2358713Y-7061333D01*
X2356495Y-7055343D01*
X2255018Y-6892538D01*
X2251809Y-6887390D01*
X2248430Y-6881969D01*
X2233253Y-6866003D01*
X2112078Y-6738525D01*
X2112074Y-6738521D01*
X2107678Y-6733897D01*
X2102439Y-6730250D01*
X2102436Y-6730248D01*
X1945247Y-6620842D01*
X1940000Y-6617190D01*
X1933354Y-6614338D01*
X1931882Y-6613706D01*
X1930843Y-6612847D01*
X1928539Y-6611568D01*
X1928777Y-6611138D01*
X1877171Y-6568460D01*
X1855606Y-6500818D01*
X1874035Y-6432255D01*
X1920425Y-6387750D01*
X2021212Y-6331809D01*
X2021216Y-6331806D01*
X2026798Y-6328708D01*
X2181809Y-6195636D01*
X2246235Y-6112404D01*
X2302945Y-6039141D01*
X2302947Y-6039138D01*
X2306859Y-6034084D01*
X2311781Y-6024051D01*
X2372450Y-5900369D01*
X2396830Y-5850667D01*
X2402100Y-5830315D01*
X2446437Y-5659075D01*
X2446438Y-5659071D01*
X2448037Y-5652894D01*
X2458384Y-5448861D01*
X2456824Y-5438674D01*
X2449701Y-5392181D01*
X2427448Y-5246921D01*
X2408408Y-5195511D01*
X2358714Y-5061334D01*
X2358713Y-5061333D01*
X2356495Y-5055343D01*
X2261326Y-4902658D01*
X2251809Y-4887390D01*
X2248430Y-4881969D01*
X2229093Y-4861626D01*
X2112078Y-4738525D01*
X2112074Y-4738521D01*
X2107678Y-4733897D01*
X2102439Y-4730250D01*
X2102436Y-4730248D01*
X1945247Y-4620842D01*
X1940000Y-4617190D01*
X1933354Y-4614338D01*
X1931882Y-4613706D01*
X1930843Y-4612847D01*
X1928539Y-4611568D01*
X1928777Y-4611138D01*
X1877171Y-4568460D01*
X1855606Y-4500818D01*
X1874035Y-4432255D01*
X1920425Y-4387750D01*
X2021212Y-4331809D01*
X2021216Y-4331806D01*
X2026798Y-4328708D01*
X2181809Y-4195636D01*
X2254006Y-4102365D01*
X2302945Y-4039141D01*
X2302947Y-4039138D01*
X2306859Y-4034084D01*
X2312691Y-4022196D01*
X2394016Y-3856403D01*
X2396830Y-3850667D01*
X2419866Y-3761696D01*
X2446437Y-3659075D01*
X2446438Y-3659071D01*
X2448037Y-3652894D01*
X2458384Y-3448861D01*
X2427448Y-3246921D01*
X2366302Y-3081822D01*
X2358714Y-3061334D01*
X2358713Y-3061333D01*
X2356495Y-3055343D01*
X2254159Y-2891160D01*
X2251809Y-2887390D01*
X2248430Y-2881969D01*
X2244029Y-2877339D01*
X2112078Y-2738525D01*
X2112074Y-2738521D01*
X2107678Y-2733897D01*
X2102439Y-2730250D01*
X2102436Y-2730248D01*
X1945247Y-2620842D01*
X1940000Y-2617190D01*
X1752261Y-2536625D01*
X1746003Y-2535339D01*
X1746000Y-2535338D01*
X1675619Y-2520874D01*
X1552148Y-2495500D01*
X226500Y-2495500D01*
X158379Y-2475498D01*
X111886Y-2421842D01*
X100500Y-2369500D01*
X100500Y-2004121D01*
X100770Y-1995880D01*
X116210Y-1760309D01*
X118361Y-1743968D01*
X163614Y-1516469D01*
X167880Y-1500550D01*
X242436Y-1280915D01*
X248743Y-1265688D01*
X345748Y-1068979D01*
X351333Y-1057653D01*
X359570Y-1043387D01*
X488438Y-850522D01*
X498471Y-837447D01*
X541414Y-788480D01*
X651411Y-663052D01*
X663052Y-651411D01*
X837447Y-498471D01*
X850522Y-488438D01*
X886485Y-464408D01*
X1043387Y-359570D01*
X1057653Y-351333D01*
X1164063Y-298858D01*
X1265688Y-248743D01*
X1280915Y-242436D01*
X1500550Y-167880D01*
X1516469Y-163614D01*
X1743968Y-118361D01*
X1760309Y-116210D01*
X1995880Y-100770D01*
X2004121Y-100500D01*
X2369500Y-100500D01*
X2437621Y-120502D01*
G37*
G04 #@! TD.AperFunction*
G04 #@! TA.AperFunction,Conductor*
G36*
X20996121Y-8746002D02*
G01*
X21042614Y-8799658D01*
X21054000Y-8852000D01*
X21054000Y-9748424D01*
X21058344Y-9763219D01*
X21068775Y-9765063D01*
X21078359Y-9763312D01*
X21184827Y-9732380D01*
X21255823Y-9732583D01*
X21315439Y-9771136D01*
X21344748Y-9835801D01*
X21345980Y-9853377D01*
X21345980Y-10156195D01*
X21325978Y-10224316D01*
X21309075Y-10245290D01*
X21095289Y-10459076D01*
X21032977Y-10493102D01*
X21006194Y-10495981D01*
X19902275Y-10495981D01*
X19834154Y-10475979D01*
X19787661Y-10422323D01*
X19777557Y-10352049D01*
X19790009Y-10312777D01*
X19795367Y-10302262D01*
X19795368Y-10302258D01*
X19799868Y-10293427D01*
X19814500Y-10201045D01*
X19814499Y-9858956D01*
X19807171Y-9812688D01*
X19816271Y-9742280D01*
X19842525Y-9703885D01*
X19930484Y-9615926D01*
X19940124Y-9603499D01*
X19952930Y-9581845D01*
X20004823Y-9533392D01*
X20074674Y-9520687D01*
X20140305Y-9547762D01*
X20150479Y-9556889D01*
X20224074Y-9630484D01*
X20236501Y-9640124D01*
X20363780Y-9715396D01*
X20378216Y-9721643D01*
X20521641Y-9763312D01*
X20529609Y-9764768D01*
X20543031Y-9761948D01*
X20546000Y-9750487D01*
X20546000Y-9252115D01*
X20541525Y-9236876D01*
X20540135Y-9235671D01*
X20532452Y-9234000D01*
X20126115Y-9234000D01*
X20110876Y-9238475D01*
X20096272Y-9255329D01*
X20078926Y-9287096D01*
X20016614Y-9321121D01*
X19989831Y-9324000D01*
X18072000Y-9324000D01*
X18003879Y-9303998D01*
X17957386Y-9250342D01*
X17946000Y-9198000D01*
X17946000Y-8942000D01*
X17966002Y-8873879D01*
X18019658Y-8827386D01*
X18072000Y-8816000D01*
X19923885Y-8816000D01*
X19939124Y-8811525D01*
X19953728Y-8794671D01*
X19971074Y-8762904D01*
X20033386Y-8728879D01*
X20060169Y-8726000D01*
X20928000Y-8726000D01*
X20996121Y-8746002D01*
G37*
G04 #@! TD.AperFunction*
G04 #@! TA.AperFunction,Conductor*
G36*
X22311254Y-5984758D02*
G01*
X22340748Y-6049338D01*
X22334175Y-6111060D01*
X22291542Y-6226073D01*
X22288300Y-6233980D01*
X22262040Y-6292288D01*
X22235186Y-6351913D01*
X22209395Y-6389266D01*
X22134570Y-6464091D01*
X22116701Y-6478602D01*
X22115326Y-6479867D01*
X22106584Y-6485579D01*
X22100172Y-6493817D01*
X22100169Y-6493820D01*
X22087999Y-6509456D01*
X22084717Y-6513498D01*
X22082250Y-6516411D01*
X22078558Y-6520103D01*
X22075524Y-6524353D01*
X22075522Y-6524355D01*
X22067260Y-6535927D01*
X22064150Y-6540098D01*
X22033915Y-6578944D01*
X22031478Y-6586042D01*
X22027116Y-6592152D01*
X22024137Y-6602157D01*
X22024137Y-6602158D01*
X22013069Y-6639336D01*
X22011483Y-6644286D01*
X21995500Y-6690844D01*
X21995500Y-6698349D01*
X21993358Y-6705544D01*
X21994077Y-6722930D01*
X21995392Y-6754714D01*
X21995500Y-6759922D01*
X21995500Y-8056675D01*
X21975498Y-8124796D01*
X21958595Y-8145770D01*
X21664457Y-8439908D01*
X21602145Y-8473934D01*
X21531330Y-8468869D01*
X21488431Y-8437339D01*
X21486090Y-8439680D01*
X21392526Y-8346116D01*
X21358500Y-8283804D01*
X21357172Y-8237309D01*
X21358259Y-8230451D01*
X21362875Y-8201304D01*
X21363726Y-8195933D01*
X21363726Y-8195931D01*
X21364500Y-8191045D01*
X21364499Y-7848956D01*
X21349868Y-7756573D01*
X21293135Y-7645229D01*
X21257731Y-7609825D01*
X21234097Y-7577016D01*
X21217718Y-7544212D01*
X21215951Y-7540525D01*
X21193258Y-7491128D01*
X21191809Y-7487852D01*
X21168254Y-7432478D01*
X21167073Y-7429602D01*
X21163353Y-7420209D01*
X21154500Y-7373814D01*
X21154500Y-7262913D01*
X21156846Y-7238713D01*
X21163399Y-7205229D01*
X21171895Y-7161821D01*
X21172201Y-7160313D01*
X21173420Y-7154500D01*
X21180312Y-7121614D01*
X21188813Y-7081058D01*
X21189223Y-7079173D01*
X21205534Y-7006883D01*
X21206044Y-7004713D01*
X21222003Y-6939389D01*
X21222647Y-6936865D01*
X21237846Y-6879797D01*
X21238494Y-6879970D01*
X21238617Y-6878283D01*
X21239498Y-6876555D01*
X21254500Y-6781834D01*
X21254500Y-6481972D01*
X21274230Y-6414277D01*
X21283325Y-6400000D01*
X21286930Y-6394342D01*
X21288643Y-6391725D01*
X21353700Y-6295126D01*
X21355669Y-6292288D01*
X21402554Y-6226649D01*
X21458422Y-6182843D01*
X21529107Y-6176196D01*
X21540576Y-6178988D01*
X21553706Y-6182843D01*
X21618819Y-6201962D01*
X21618821Y-6201962D01*
X21627464Y-6204500D01*
X21772536Y-6204500D01*
X21781179Y-6201962D01*
X21781181Y-6201962D01*
X21903086Y-6166168D01*
X21903088Y-6166167D01*
X21911732Y-6163629D01*
X21981353Y-6118886D01*
X22026195Y-6090068D01*
X22026198Y-6090066D01*
X22033775Y-6085196D01*
X22044619Y-6072682D01*
X22120806Y-5984757D01*
X22180532Y-5946374D01*
X22251528Y-5946374D01*
X22311254Y-5984758D01*
G37*
G04 #@! TD.AperFunction*
G04 #@! TA.AperFunction,Conductor*
G36*
X13696121Y-5296002D02*
G01*
X13742614Y-5349658D01*
X13754000Y-5402000D01*
X13754000Y-6239634D01*
X13733998Y-6307755D01*
X13680342Y-6354248D01*
X13663499Y-6360530D01*
X13658172Y-6362094D01*
X13658475Y-6363124D01*
X13659865Y-6364329D01*
X13667548Y-6366000D01*
X14628000Y-6366000D01*
X14696121Y-6386002D01*
X14742614Y-6439658D01*
X14754000Y-6492000D01*
X14754000Y-6748000D01*
X14733998Y-6816121D01*
X14680342Y-6862614D01*
X14628000Y-6874000D01*
X13272000Y-6874000D01*
X13203879Y-6853998D01*
X13157386Y-6800342D01*
X13146000Y-6748000D01*
X13146000Y-5910366D01*
X13166002Y-5842245D01*
X13219658Y-5795752D01*
X13236501Y-5789470D01*
X13243124Y-5787525D01*
X13244329Y-5786135D01*
X13246000Y-5778452D01*
X13246000Y-5402000D01*
X13266002Y-5333879D01*
X13319658Y-5287386D01*
X13372000Y-5276000D01*
X13628000Y-5276000D01*
X13696121Y-5296002D01*
G37*
G04 #@! TD.AperFunction*
G04 #@! TA.AperFunction,Conductor*
G36*
X16536097Y-2288053D02*
G01*
X16587195Y-2317736D01*
X16708390Y-2433611D01*
X16717200Y-2440637D01*
X16896737Y-2559147D01*
X16906673Y-2564494D01*
X17104477Y-2649039D01*
X17115201Y-2652524D01*
X17141690Y-2658570D01*
X17203651Y-2693230D01*
X17237039Y-2755886D01*
X17231251Y-2826646D01*
X17215033Y-2856228D01*
X17193631Y-2885227D01*
X17190768Y-2893408D01*
X17185884Y-2900572D01*
X17168972Y-2955401D01*
X17168890Y-2955666D01*
X17167427Y-2960114D01*
X17156674Y-2990844D01*
X17155542Y-2994079D01*
X17114163Y-3051771D01*
X17048163Y-3077933D01*
X16990546Y-3066423D01*
X16989773Y-3068631D01*
X16983463Y-3066423D01*
X16949269Y-3054458D01*
X16927811Y-3044606D01*
X16896482Y-3026490D01*
X16881406Y-3016250D01*
X16860402Y-2999642D01*
X16827740Y-2960778D01*
X16816503Y-2940015D01*
X16814117Y-2935381D01*
X16797085Y-2900540D01*
X16797084Y-2900538D01*
X16792499Y-2891160D01*
X16787192Y-2885853D01*
X16783619Y-2879251D01*
X16747403Y-2845912D01*
X16743645Y-2842306D01*
X16631655Y-2730316D01*
X16620796Y-2717936D01*
X16619205Y-2715863D01*
X16619198Y-2715854D01*
X16618362Y-2714765D01*
X16617055Y-2713208D01*
X16601797Y-2696560D01*
X16595507Y-2692357D01*
X16589766Y-2687432D01*
X16590031Y-2687123D01*
X16581272Y-2679933D01*
X16405532Y-2504193D01*
X16371506Y-2441881D01*
X16376571Y-2371066D01*
X16399729Y-2332210D01*
X16405223Y-2325920D01*
X16465101Y-2287773D01*
X16536097Y-2288053D01*
G37*
G04 #@! TD.AperFunction*
G04 #@! TA.AperFunction,Conductor*
G36*
X15875640Y-120502D02*
G01*
X15896614Y-137404D01*
X16292403Y-533192D01*
X16315859Y-546000D01*
X16676674Y-546000D01*
X16685948Y-543277D01*
X17420513Y-543277D01*
X17427814Y-546000D01*
X17568675Y-546000D01*
X17579700Y-542763D01*
X17576462Y-535672D01*
X17512812Y-472022D01*
X17498868Y-464408D01*
X17497035Y-464539D01*
X17490420Y-468790D01*
X17426022Y-533188D01*
X17420513Y-543277D01*
X16685948Y-543277D01*
X16702319Y-538470D01*
X17103386Y-137404D01*
X17165698Y-103379D01*
X17192481Y-100500D01*
X17807519Y-100500D01*
X17875640Y-120502D01*
X17896614Y-137404D01*
X18458595Y-699384D01*
X18492620Y-761697D01*
X18495500Y-788480D01*
X18495500Y-887960D01*
X18475498Y-956081D01*
X18458595Y-977055D01*
X18417825Y-1017825D01*
X18327314Y-1108335D01*
X18265002Y-1142361D01*
X18194187Y-1137296D01*
X18149124Y-1108335D01*
X17766812Y-726023D01*
X17756724Y-720514D01*
X17754000Y-727817D01*
X17754000Y-928000D01*
X17733998Y-996121D01*
X17680342Y-1042614D01*
X17628000Y-1054000D01*
X16923326Y-1054000D01*
X16897681Y-1061530D01*
X16850876Y-1108335D01*
X16788564Y-1142361D01*
X16717749Y-1137296D01*
X16672686Y-1108335D01*
X16631160Y-1066809D01*
X16607702Y-1054000D01*
X16399765Y-1054000D01*
X16374118Y-1061531D01*
X16327314Y-1108335D01*
X16265002Y-1142361D01*
X16194187Y-1137296D01*
X16149124Y-1108335D01*
X16107601Y-1066812D01*
X16084139Y-1054000D01*
X15028000Y-1054000D01*
X14959879Y-1033998D01*
X14913386Y-980342D01*
X14902000Y-928000D01*
X14902000Y-672000D01*
X14922002Y-603879D01*
X14975658Y-557386D01*
X15028000Y-546000D01*
X15568675Y-546000D01*
X15579700Y-542763D01*
X15576462Y-535672D01*
X15356385Y-315595D01*
X15322359Y-253283D01*
X15327424Y-182468D01*
X15369971Y-125632D01*
X15436491Y-100821D01*
X15445480Y-100500D01*
X15807519Y-100500D01*
X15875640Y-120502D01*
G37*
G04 #@! TD.AperFunction*
G04 #@! TA.AperFunction,Conductor*
G36*
X5716446Y-7947738D02*
G01*
X5819776Y-7990986D01*
X5826084Y-7997340D01*
X5825879Y-8006686D01*
X5786252Y-8092428D01*
X5786248Y-8092436D01*
X5785979Y-8092979D01*
X5749737Y-8161607D01*
X5722680Y-8222416D01*
X5705813Y-8295195D01*
X5705785Y-8295697D01*
X5705785Y-8295698D01*
X5700613Y-8388948D01*
X5696733Y-8397019D01*
X5688931Y-8400000D01*
X5511069Y-8400000D01*
X5502796Y-8396573D01*
X5499387Y-8388948D01*
X5494214Y-8295698D01*
X5494214Y-8295697D01*
X5494186Y-8295195D01*
X5477319Y-8222416D01*
X5450262Y-8161607D01*
X5414012Y-8092963D01*
X5413751Y-8092436D01*
X5374121Y-8006686D01*
X5373761Y-7997739D01*
X5380224Y-7990986D01*
X5483554Y-7947738D01*
X5595483Y-7900891D01*
X5604517Y-7900891D01*
X5716446Y-7947738D01*
G37*
G04 #@! TD.AperFunction*
G04 #@! TA.AperFunction,Conductor*
G36*
X4545137Y-9136554D02*
G01*
X4547168Y-9138058D01*
X4607329Y-9182620D01*
X4677996Y-9224765D01*
X4717119Y-9242450D01*
X4748327Y-9256558D01*
X4748332Y-9256560D01*
X4748664Y-9256710D01*
X4749008Y-9256816D01*
X4749011Y-9256817D01*
X4801467Y-9272957D01*
X4819332Y-9278454D01*
X4854041Y-9284125D01*
X4880187Y-9288397D01*
X4887799Y-9293113D01*
X4890000Y-9299944D01*
X4890000Y-9480056D01*
X4886573Y-9488329D01*
X4880186Y-9491603D01*
X4852309Y-9496157D01*
X4819332Y-9501544D01*
X4818958Y-9501659D01*
X4818954Y-9501660D01*
X4749011Y-9523182D01*
X4749008Y-9523183D01*
X4748664Y-9523289D01*
X4748332Y-9523439D01*
X4748327Y-9523441D01*
X4717119Y-9537549D01*
X4677996Y-9555234D01*
X4607329Y-9597378D01*
X4607099Y-9597548D01*
X4607089Y-9597555D01*
X4545137Y-9643446D01*
X4536449Y-9645616D01*
X4529541Y-9641942D01*
X4390506Y-9490000D01*
X4306227Y-9397898D01*
X4303170Y-9389482D01*
X4306227Y-9382102D01*
X4529541Y-9138058D01*
X4537655Y-9134267D01*
X4545137Y-9136554D01*
G37*
G04 #@! TD.AperFunction*
G04 #@! TA.AperFunction,Conductor*
G36*
X4545137Y-10156554D02*
G01*
X4547168Y-10158058D01*
X4607329Y-10202620D01*
X4677996Y-10244765D01*
X4717119Y-10262450D01*
X4748327Y-10276558D01*
X4748332Y-10276560D01*
X4748664Y-10276710D01*
X4749008Y-10276816D01*
X4749011Y-10276817D01*
X4801467Y-10292957D01*
X4819332Y-10298454D01*
X4854041Y-10304125D01*
X4880187Y-10308397D01*
X4887799Y-10313113D01*
X4890000Y-10319944D01*
X4890000Y-10500056D01*
X4886573Y-10508329D01*
X4880186Y-10511603D01*
X4852309Y-10516157D01*
X4819332Y-10521544D01*
X4818958Y-10521659D01*
X4818954Y-10521660D01*
X4749011Y-10543182D01*
X4749008Y-10543183D01*
X4748664Y-10543289D01*
X4748332Y-10543439D01*
X4748327Y-10543441D01*
X4717119Y-10557549D01*
X4677996Y-10575234D01*
X4607329Y-10617378D01*
X4607099Y-10617548D01*
X4607089Y-10617555D01*
X4545137Y-10663446D01*
X4536449Y-10665616D01*
X4529541Y-10661942D01*
X4390506Y-10510000D01*
X4306227Y-10417898D01*
X4303170Y-10409482D01*
X4306227Y-10402102D01*
X4529541Y-10158058D01*
X4537655Y-10154267D01*
X4545137Y-10156554D01*
G37*
G04 #@! TD.AperFunction*
G04 #@! TA.AperFunction,Conductor*
G36*
X5470348Y-5045993D02*
G01*
X5560446Y-5261259D01*
X5560446Y-5270293D01*
X5470355Y-5485542D01*
X5463999Y-5491851D01*
X5454645Y-5491642D01*
X5368906Y-5451937D01*
X5368355Y-5451663D01*
X5299777Y-5415232D01*
X5281364Y-5406962D01*
X5239542Y-5388179D01*
X5239539Y-5388178D01*
X5239027Y-5387948D01*
X5166293Y-5370892D01*
X5165790Y-5370864D01*
X5165785Y-5370863D01*
X5129619Y-5368830D01*
X5061491Y-5365000D01*
X5061491Y-5165000D01*
X5135284Y-5160955D01*
X5165716Y-5159287D01*
X5165719Y-5159287D01*
X5166222Y-5159259D01*
X5238988Y-5142571D01*
X5299804Y-5115733D01*
X5328169Y-5100832D01*
X5368427Y-5079684D01*
X5368967Y-5079418D01*
X5441417Y-5045993D01*
X5454655Y-5039886D01*
X5463601Y-5039532D01*
X5470348Y-5045993D01*
G37*
G04 #@! TD.AperFunction*
G04 #@! TA.AperFunction,Conductor*
G36*
X4710060Y-4979036D02*
G01*
X4712749Y-4980620D01*
X4785922Y-5038134D01*
X4864441Y-5087850D01*
X4864741Y-5087994D01*
X4864748Y-5087998D01*
X4942612Y-5125399D01*
X4942960Y-5125566D01*
X4943316Y-5125683D01*
X4943322Y-5125685D01*
X5021079Y-5151152D01*
X5021083Y-5151153D01*
X5021480Y-5151283D01*
X5021895Y-5151355D01*
X5021901Y-5151357D01*
X5083817Y-5162173D01*
X5100000Y-5165000D01*
X5100000Y-5365000D01*
X5089959Y-5366754D01*
X5021901Y-5378642D01*
X5021895Y-5378644D01*
X5021480Y-5378716D01*
X5021083Y-5378846D01*
X5021079Y-5378847D01*
X4943322Y-5404313D01*
X4943316Y-5404315D01*
X4942960Y-5404432D01*
X4942614Y-5404598D01*
X4942612Y-5404599D01*
X4864748Y-5442000D01*
X4864741Y-5442004D01*
X4864441Y-5442148D01*
X4785922Y-5491865D01*
X4785688Y-5492049D01*
X4712749Y-5549380D01*
X4704127Y-5551798D01*
X4701105Y-5551016D01*
X4025597Y-5275835D01*
X4019228Y-5269541D01*
X4019176Y-5260586D01*
X4025597Y-5254165D01*
X4701105Y-4978984D01*
X4710060Y-4979036D01*
G37*
G04 #@! TD.AperFunction*
G04 #@! TA.AperFunction,Conductor*
G36*
X4710060Y-3709036D02*
G01*
X4712749Y-3710620D01*
X4785922Y-3768134D01*
X4864441Y-3817850D01*
X4864741Y-3817994D01*
X4864748Y-3817998D01*
X4942612Y-3855399D01*
X4942960Y-3855566D01*
X4943316Y-3855683D01*
X4943322Y-3855685D01*
X5021079Y-3881152D01*
X5021083Y-3881153D01*
X5021480Y-3881283D01*
X5021895Y-3881355D01*
X5021901Y-3881357D01*
X5090313Y-3893308D01*
X5097873Y-3898107D01*
X5100000Y-3904833D01*
X5100000Y-4085167D01*
X5096573Y-4093440D01*
X5090313Y-4096692D01*
X5021901Y-4108642D01*
X5021895Y-4108644D01*
X5021480Y-4108716D01*
X5021083Y-4108846D01*
X5021079Y-4108847D01*
X4943322Y-4134313D01*
X4943316Y-4134315D01*
X4942960Y-4134432D01*
X4942614Y-4134598D01*
X4942612Y-4134599D01*
X4864748Y-4172000D01*
X4864741Y-4172004D01*
X4864441Y-4172148D01*
X4785922Y-4221865D01*
X4785688Y-4222049D01*
X4712749Y-4279380D01*
X4704127Y-4281798D01*
X4701105Y-4281016D01*
X4025597Y-4005835D01*
X4019228Y-3999541D01*
X4019176Y-3990586D01*
X4025597Y-3984165D01*
X4701105Y-3708984D01*
X4710060Y-3709036D01*
G37*
G04 #@! TD.AperFunction*
G04 #@! TA.AperFunction,Conductor*
G36*
X7516446Y-5847738D02*
G01*
X7619776Y-5890986D01*
X7626084Y-5897340D01*
X7625879Y-5906686D01*
X7586252Y-5992428D01*
X7586248Y-5992436D01*
X7585979Y-5992979D01*
X7549737Y-6061607D01*
X7522680Y-6122416D01*
X7505813Y-6195195D01*
X7505785Y-6195697D01*
X7505785Y-6195698D01*
X7500613Y-6288948D01*
X7496733Y-6297019D01*
X7488931Y-6300000D01*
X7311069Y-6300000D01*
X7302796Y-6296573D01*
X7299387Y-6288948D01*
X7294214Y-6195698D01*
X7294214Y-6195697D01*
X7294186Y-6195195D01*
X7277319Y-6122416D01*
X7250262Y-6061607D01*
X7214012Y-5992963D01*
X7213751Y-5992436D01*
X7174121Y-5906686D01*
X7173761Y-5897739D01*
X7180224Y-5890986D01*
X7283554Y-5847738D01*
X7395483Y-5800891D01*
X7404517Y-5800891D01*
X7516446Y-5847738D01*
G37*
G04 #@! TD.AperFunction*
G04 #@! TA.AperFunction,Conductor*
G36*
X5626804Y-6314234D02*
G01*
X5716894Y-6529481D01*
X5716894Y-6538515D01*
X5626795Y-6753784D01*
X5620441Y-6760092D01*
X5611104Y-6759891D01*
X5597858Y-6753783D01*
X5525412Y-6720376D01*
X5524908Y-6720128D01*
X5456275Y-6684128D01*
X5456086Y-6684045D01*
X5456074Y-6684039D01*
X5395966Y-6657580D01*
X5395967Y-6657580D01*
X5395455Y-6657355D01*
X5394917Y-6657232D01*
X5394914Y-6657231D01*
X5323175Y-6640828D01*
X5322694Y-6640718D01*
X5322204Y-6640691D01*
X5322202Y-6640691D01*
X5229046Y-6635604D01*
X5220972Y-6631731D01*
X5217984Y-6623921D01*
X5217984Y-6446058D01*
X5221411Y-6437785D01*
X5229025Y-6434377D01*
X5283792Y-6431285D01*
X5322785Y-6429084D01*
X5343793Y-6424141D01*
X5394960Y-6412102D01*
X5394963Y-6412101D01*
X5395507Y-6411973D01*
X5396017Y-6411743D01*
X5396021Y-6411742D01*
X5456061Y-6384704D01*
X5456070Y-6384699D01*
X5456240Y-6384623D01*
X5524785Y-6348145D01*
X5525363Y-6347857D01*
X5611092Y-6308135D01*
X5620039Y-6307766D01*
X5626804Y-6314234D01*
G37*
G04 #@! TD.AperFunction*
G04 #@! TA.AperFunction,Conductor*
G36*
X4710060Y-6249036D02*
G01*
X4712749Y-6250620D01*
X4785922Y-6308134D01*
X4864441Y-6357850D01*
X4864741Y-6357994D01*
X4864748Y-6357998D01*
X4942612Y-6395399D01*
X4942960Y-6395566D01*
X4943316Y-6395683D01*
X4943322Y-6395685D01*
X5021079Y-6421152D01*
X5021083Y-6421153D01*
X5021480Y-6421283D01*
X5021895Y-6421355D01*
X5021901Y-6421357D01*
X5090313Y-6433308D01*
X5097873Y-6438107D01*
X5100000Y-6444833D01*
X5100000Y-6625167D01*
X5096573Y-6633440D01*
X5090313Y-6636692D01*
X5021901Y-6648642D01*
X5021895Y-6648644D01*
X5021480Y-6648716D01*
X5021083Y-6648846D01*
X5021079Y-6648847D01*
X4943322Y-6674313D01*
X4943316Y-6674315D01*
X4942960Y-6674432D01*
X4942614Y-6674598D01*
X4942612Y-6674599D01*
X4864748Y-6712000D01*
X4864741Y-6712004D01*
X4864441Y-6712148D01*
X4785922Y-6761865D01*
X4785688Y-6762049D01*
X4712749Y-6819380D01*
X4704127Y-6821798D01*
X4701105Y-6821016D01*
X4025597Y-6545835D01*
X4019228Y-6539541D01*
X4019176Y-6530586D01*
X4025597Y-6524165D01*
X4701105Y-6248984D01*
X4710060Y-6249036D01*
G37*
G04 #@! TD.AperFunction*
G04 #@! TA.AperFunction,Conductor*
G36*
X8216446Y-7547738D02*
G01*
X8319776Y-7590986D01*
X8326084Y-7597340D01*
X8325879Y-7606686D01*
X8286252Y-7692428D01*
X8286248Y-7692436D01*
X8285979Y-7692979D01*
X8249737Y-7761607D01*
X8222680Y-7822416D01*
X8205813Y-7895195D01*
X8205785Y-7895697D01*
X8205785Y-7895698D01*
X8200613Y-7988948D01*
X8196733Y-7997019D01*
X8188931Y-8000000D01*
X8011069Y-8000000D01*
X8002796Y-7996573D01*
X7999387Y-7988948D01*
X7994214Y-7895698D01*
X7994214Y-7895697D01*
X7994186Y-7895195D01*
X7977319Y-7822416D01*
X7950262Y-7761607D01*
X7914012Y-7692963D01*
X7913751Y-7692436D01*
X7874121Y-7606686D01*
X7873761Y-7597739D01*
X7880224Y-7590986D01*
X7983554Y-7547738D01*
X8095483Y-7500891D01*
X8104517Y-7500891D01*
X8216446Y-7547738D01*
G37*
G04 #@! TD.AperFunction*
G04 #@! TA.AperFunction,Conductor*
G36*
X16333323Y-20320050D02*
G01*
X16544723Y-20572504D01*
X16547407Y-20581047D01*
X16544739Y-20587509D01*
X16333193Y-20841224D01*
X16325263Y-20845383D01*
X16317661Y-20843428D01*
X16253407Y-20800055D01*
X16253400Y-20800051D01*
X16253138Y-20799874D01*
X16219142Y-20781936D01*
X16180175Y-20761374D01*
X16180170Y-20761372D01*
X16179854Y-20761205D01*
X16106569Y-20733336D01*
X16106192Y-20733248D01*
X16106188Y-20733247D01*
X16033688Y-20716362D01*
X16033687Y-20716362D01*
X16033284Y-20716268D01*
X16032872Y-20716233D01*
X16032867Y-20716232D01*
X16023871Y-20715463D01*
X15960000Y-20710000D01*
X15960000Y-20510000D01*
X15992883Y-20501826D01*
X15992884Y-20501826D01*
X16028301Y-20493022D01*
X16033161Y-20491814D01*
X16041324Y-20488580D01*
X16105992Y-20462959D01*
X16105996Y-20462957D01*
X16106322Y-20462828D01*
X16179483Y-20423042D01*
X16252644Y-20372456D01*
X16252842Y-20372290D01*
X16252851Y-20372283D01*
X16316833Y-20318599D01*
X16325373Y-20315907D01*
X16333323Y-20320050D01*
G37*
G04 #@! TD.AperFunction*
G04 #@! TA.AperFunction,Conductor*
G36*
X15695137Y-20356554D02*
G01*
X15697168Y-20358058D01*
X15757329Y-20402620D01*
X15827996Y-20444765D01*
X15867119Y-20462450D01*
X15898327Y-20476558D01*
X15898332Y-20476560D01*
X15898664Y-20476710D01*
X15899008Y-20476816D01*
X15899011Y-20476817D01*
X15934661Y-20487786D01*
X15969332Y-20498454D01*
X16040000Y-20510000D01*
X16040000Y-20710000D01*
X16012508Y-20714491D01*
X16011798Y-20714607D01*
X16011797Y-20714607D01*
X16001850Y-20716232D01*
X15969332Y-20721544D01*
X15968958Y-20721659D01*
X15968954Y-20721660D01*
X15899011Y-20743182D01*
X15899008Y-20743183D01*
X15898664Y-20743289D01*
X15898332Y-20743439D01*
X15898327Y-20743441D01*
X15867119Y-20757549D01*
X15827996Y-20775234D01*
X15757329Y-20817378D01*
X15757099Y-20817548D01*
X15757089Y-20817555D01*
X15695137Y-20863446D01*
X15686449Y-20865616D01*
X15679541Y-20861942D01*
X15456227Y-20617898D01*
X15453170Y-20609482D01*
X15456227Y-20602102D01*
X15679541Y-20358058D01*
X15687655Y-20354267D01*
X15695137Y-20356554D01*
G37*
G04 #@! TD.AperFunction*
G04 #@! TA.AperFunction,Conductor*
G36*
X15220459Y-20358058D02*
G01*
X15361024Y-20511671D01*
X15443773Y-20602102D01*
X15446830Y-20610518D01*
X15443773Y-20617898D01*
X15220459Y-20861942D01*
X15212345Y-20865733D01*
X15204863Y-20863446D01*
X15142910Y-20817556D01*
X15142670Y-20817378D01*
X15072002Y-20775234D01*
X15032879Y-20757549D01*
X15001671Y-20743441D01*
X15001666Y-20743439D01*
X15001334Y-20743289D01*
X15000990Y-20743183D01*
X15000987Y-20743182D01*
X14931045Y-20721660D01*
X14931041Y-20721659D01*
X14930667Y-20721544D01*
X14899511Y-20716454D01*
X14869814Y-20711603D01*
X14862201Y-20706887D01*
X14860000Y-20700056D01*
X14860000Y-20519944D01*
X14863427Y-20511671D01*
X14869813Y-20508397D01*
X14897067Y-20503944D01*
X14930667Y-20498454D01*
X14948334Y-20493018D01*
X15000987Y-20476817D01*
X15000990Y-20476816D01*
X15001334Y-20476710D01*
X15001666Y-20476560D01*
X15001671Y-20476558D01*
X15032879Y-20462450D01*
X15072002Y-20444765D01*
X15142670Y-20402620D01*
X15202832Y-20358058D01*
X15204863Y-20356554D01*
X15213551Y-20354384D01*
X15220459Y-20358058D01*
G37*
G04 #@! TD.AperFunction*
G04 #@! TA.AperFunction,Conductor*
G36*
X14206611Y-18718223D02*
G01*
X14314019Y-18882761D01*
X14314026Y-18882771D01*
X14314141Y-18882947D01*
X14428283Y-19032492D01*
X14542425Y-19156730D01*
X14656567Y-19255662D01*
X14656913Y-19255885D01*
X14758530Y-19321432D01*
X14763625Y-19328796D01*
X14762020Y-19337606D01*
X14760461Y-19339537D01*
X14631027Y-19468971D01*
X14626995Y-19471602D01*
X14543430Y-19504105D01*
X14457572Y-19553732D01*
X14371715Y-19619590D01*
X14285857Y-19701679D01*
X14285693Y-19701867D01*
X14285689Y-19701871D01*
X14207626Y-19791267D01*
X14199603Y-19795244D01*
X14191198Y-19792454D01*
X13650354Y-19328796D01*
X13510737Y-19209104D01*
X13506686Y-19201117D01*
X13509469Y-19192606D01*
X13511633Y-19190642D01*
X13950570Y-18882947D01*
X14190098Y-18715038D01*
X14198840Y-18713096D01*
X14206611Y-18718223D01*
G37*
G04 #@! TD.AperFunction*
G04 #@! TA.AperFunction,Conductor*
G36*
X18850382Y-19063427D02*
G01*
X18852956Y-19067315D01*
X18886000Y-19149094D01*
X18921999Y-19227389D01*
X18958000Y-19294884D01*
X18958110Y-19295058D01*
X18958118Y-19295071D01*
X18983563Y-19335142D01*
X18994000Y-19351579D01*
X19022841Y-19388348D01*
X19025251Y-19396973D01*
X19020935Y-19404712D01*
X18820343Y-19564845D01*
X18757299Y-19615173D01*
X18748696Y-19617656D01*
X18742701Y-19615173D01*
X18679657Y-19564845D01*
X18479065Y-19404712D01*
X18474738Y-19396873D01*
X18477159Y-19388348D01*
X18506000Y-19351579D01*
X18516364Y-19335256D01*
X18541881Y-19295071D01*
X18541889Y-19295058D01*
X18541999Y-19294884D01*
X18578000Y-19227389D01*
X18614000Y-19149094D01*
X18647044Y-19067316D01*
X18653320Y-19060930D01*
X18657891Y-19060000D01*
X18842109Y-19060000D01*
X18850382Y-19063427D01*
G37*
G04 #@! TD.AperFunction*
G04 #@! TA.AperFunction,Conductor*
G36*
X16601513Y-8186180D02*
G01*
X16605200Y-8274358D01*
X16617600Y-8362179D01*
X16617630Y-8362330D01*
X16632340Y-8437513D01*
X16632443Y-8438124D01*
X16644719Y-8525066D01*
X16644824Y-8526213D01*
X16649492Y-8637860D01*
X16646414Y-8646269D01*
X16637850Y-8650049D01*
X16400000Y-8651000D01*
X16162150Y-8650049D01*
X16153892Y-8646589D01*
X16150508Y-8637860D01*
X16155176Y-8526213D01*
X16155281Y-8525066D01*
X16167557Y-8438124D01*
X16167660Y-8437513D01*
X16182370Y-8362330D01*
X16182400Y-8362179D01*
X16194800Y-8274358D01*
X16200000Y-8150000D01*
X16600000Y-8150000D01*
X16601513Y-8186180D01*
G37*
G04 #@! TD.AperFunction*
G04 #@! TA.AperFunction,Conductor*
G36*
X16505759Y-7635312D02*
G01*
X16732304Y-7883579D01*
X16735349Y-7892000D01*
X16733926Y-7897078D01*
X16710347Y-7940198D01*
X16682760Y-7995449D01*
X16655173Y-8055499D01*
X16627586Y-8120349D01*
X16627560Y-8120414D01*
X16627547Y-8120446D01*
X16601966Y-8185036D01*
X16600000Y-8190000D01*
X16200000Y-8190000D01*
X16198047Y-8096640D01*
X16196095Y-8008080D01*
X16194143Y-7924320D01*
X16192190Y-7845360D01*
X16190442Y-7778919D01*
X16193650Y-7770558D01*
X16197256Y-7767979D01*
X16327057Y-7708392D01*
X16492235Y-7632565D01*
X16501183Y-7632228D01*
X16505759Y-7635312D01*
G37*
G04 #@! TD.AperFunction*
G04 #@! TA.AperFunction,Conductor*
G36*
X14151000Y-10950000D02*
G01*
X14054336Y-11180954D01*
X14053923Y-11180782D01*
X14020175Y-11165185D01*
X13957549Y-11136242D01*
X13957035Y-11135987D01*
X13916207Y-11114426D01*
X13888569Y-11099830D01*
X13888558Y-11099825D01*
X13888392Y-11099737D01*
X13827582Y-11072680D01*
X13804622Y-11067359D01*
X13755293Y-11055926D01*
X13755289Y-11055925D01*
X13754804Y-11055813D01*
X13754302Y-11055785D01*
X13754301Y-11055785D01*
X13661052Y-11050613D01*
X13652981Y-11046733D01*
X13650000Y-11038931D01*
X13650000Y-10861069D01*
X13653427Y-10852796D01*
X13661052Y-10849387D01*
X13754301Y-10844214D01*
X13754302Y-10844214D01*
X13754804Y-10844186D01*
X13755289Y-10844074D01*
X13755293Y-10844073D01*
X13804622Y-10832640D01*
X13827582Y-10827319D01*
X13888392Y-10800262D01*
X13888558Y-10800174D01*
X13888569Y-10800169D01*
X13916207Y-10785573D01*
X13957035Y-10764012D01*
X13957549Y-10763757D01*
X13996539Y-10745738D01*
X14018779Y-10735460D01*
X14018781Y-10735459D01*
X14054329Y-10719030D01*
X14151000Y-10950000D01*
G37*
G04 #@! TD.AperFunction*
G04 #@! TA.AperFunction,Conductor*
G36*
X14396573Y-10508758D02*
G01*
X14400000Y-10517031D01*
X14400000Y-10950000D01*
X14150000Y-10951000D01*
X13973223Y-10773223D01*
X14020037Y-10734669D01*
X14020041Y-10734667D01*
X14043859Y-10715051D01*
X14045116Y-10714148D01*
X14106459Y-10675981D01*
X14106467Y-10675976D01*
X14106656Y-10675858D01*
X14124682Y-10662627D01*
X14155034Y-10640349D01*
X14155036Y-10640346D01*
X14155913Y-10639703D01*
X14188328Y-10588668D01*
X14198362Y-10517031D01*
X14198589Y-10515408D01*
X14203130Y-10507690D01*
X14210176Y-10505331D01*
X14388300Y-10505331D01*
X14396573Y-10508758D01*
G37*
G04 #@! TD.AperFunction*
G04 #@! TA.AperFunction,Conductor*
G36*
X14400000Y-10906781D02*
G01*
X14417373Y-10954664D01*
X14417596Y-10955346D01*
X14439499Y-11030063D01*
X14462183Y-11092888D01*
X14500754Y-11156874D01*
X14530940Y-11190905D01*
X14563105Y-11227169D01*
X14566031Y-11235632D01*
X14562625Y-11243206D01*
X14436854Y-11368977D01*
X14428581Y-11372404D01*
X14420746Y-11369392D01*
X14351381Y-11306831D01*
X14288786Y-11266614D01*
X14252386Y-11251875D01*
X14227717Y-11241886D01*
X14227710Y-11241883D01*
X14227531Y-11241811D01*
X14154179Y-11218131D01*
X14153720Y-11217972D01*
X14103530Y-11199287D01*
X14054749Y-11181126D01*
X14054336Y-11180954D01*
X14149293Y-10949293D01*
X14380970Y-10854329D01*
X14400000Y-10906781D01*
G37*
G04 #@! TD.AperFunction*
G04 #@! TA.AperFunction,Conductor*
G36*
X18578695Y-18458965D02*
G01*
X18585159Y-18465719D01*
X18617770Y-18554376D01*
X18617967Y-18554959D01*
X18640864Y-18629104D01*
X18664730Y-18691234D01*
X18704266Y-18754623D01*
X18704604Y-18755001D01*
X18704605Y-18755002D01*
X18766883Y-18824595D01*
X18769846Y-18833045D01*
X18766437Y-18840670D01*
X18640670Y-18966437D01*
X18632397Y-18969864D01*
X18624595Y-18966883D01*
X18555002Y-18904605D01*
X18555001Y-18904604D01*
X18554623Y-18904266D01*
X18491234Y-18864730D01*
X18429104Y-18840864D01*
X18354959Y-18817967D01*
X18354376Y-18817770D01*
X18265719Y-18785159D01*
X18259137Y-18779086D01*
X18258932Y-18769740D01*
X18265129Y-18754623D01*
X18346969Y-18554963D01*
X18347436Y-18553824D01*
X18353824Y-18547436D01*
X18486089Y-18493220D01*
X18569740Y-18458932D01*
X18578695Y-18458965D01*
G37*
G04 #@! TD.AperFunction*
G04 #@! TA.AperFunction,Conductor*
G36*
X13330852Y-7561257D02*
G01*
X13395114Y-7577849D01*
X13402268Y-7583235D01*
X13402961Y-7584611D01*
X13514535Y-7847838D01*
X13514609Y-7856792D01*
X13508329Y-7863176D01*
X13506996Y-7863649D01*
X13449239Y-7880254D01*
X13422491Y-7887944D01*
X13325293Y-7926688D01*
X13325054Y-7926810D01*
X13228304Y-7976126D01*
X13228296Y-7976131D01*
X13228095Y-7976233D01*
X13227894Y-7976358D01*
X13131093Y-8036455D01*
X13131087Y-8036459D01*
X13130897Y-8036577D01*
X13041790Y-8101799D01*
X13033092Y-8103920D01*
X13026608Y-8100631D01*
X12898493Y-7972516D01*
X12895066Y-7964243D01*
X12896516Y-7958601D01*
X12931740Y-7894603D01*
X12931822Y-7894454D01*
X12971366Y-7811808D01*
X13010910Y-7718361D01*
X13050455Y-7614115D01*
X13060597Y-7584611D01*
X13086484Y-7509298D01*
X13092414Y-7502588D01*
X13100473Y-7501773D01*
X13330852Y-7561257D01*
G37*
G04 #@! TD.AperFunction*
G04 #@! TA.AperFunction,Conductor*
G36*
X12613070Y-15766710D02*
G01*
X12613320Y-15766815D01*
X12696348Y-15802806D01*
X12697517Y-15803393D01*
X12764280Y-15841697D01*
X12765733Y-15842682D01*
X12835194Y-15897833D01*
X12836006Y-15898541D01*
X12918132Y-15977087D01*
X12921741Y-15985280D01*
X12918317Y-15993814D01*
X12791876Y-16120255D01*
X12783603Y-16123682D01*
X12777492Y-16121959D01*
X12755542Y-16108513D01*
X12712683Y-16082258D01*
X12712682Y-16082258D01*
X12710852Y-16081137D01*
X12708740Y-16081513D01*
X12708739Y-16081513D01*
X12674872Y-16087547D01*
X12646283Y-16092640D01*
X12580639Y-16134152D01*
X12580218Y-16134405D01*
X12503699Y-16178143D01*
X12500245Y-16179446D01*
X12414009Y-16197128D01*
X12405217Y-16195432D01*
X12400198Y-16188016D01*
X12399960Y-16185699D01*
X12399300Y-15951660D01*
X12400207Y-15947110D01*
X12491201Y-15729709D01*
X12497557Y-15723400D01*
X12506396Y-15723386D01*
X12613070Y-15766710D01*
G37*
G04 #@! TD.AperFunction*
G04 #@! TA.AperFunction,Conductor*
G36*
X14897204Y-13253427D02*
G01*
X14900613Y-13261052D01*
X14905813Y-13354804D01*
X14922680Y-13427582D01*
X14949737Y-13488392D01*
X14985987Y-13557035D01*
X14986242Y-13557549D01*
X15015189Y-13620183D01*
X15025879Y-13643314D01*
X15026239Y-13652261D01*
X15019776Y-13659014D01*
X14916446Y-13702262D01*
X14804517Y-13749109D01*
X14795483Y-13749109D01*
X14683554Y-13702262D01*
X14580224Y-13659014D01*
X14573916Y-13652660D01*
X14574121Y-13643314D01*
X14587960Y-13613368D01*
X14613757Y-13557549D01*
X14614012Y-13557035D01*
X14650262Y-13488392D01*
X14677319Y-13427582D01*
X14694186Y-13354804D01*
X14699387Y-13261052D01*
X14703267Y-13252981D01*
X14711069Y-13250000D01*
X14888931Y-13250000D01*
X14897204Y-13253427D01*
G37*
G04 #@! TD.AperFunction*
G04 #@! TA.AperFunction,Conductor*
G36*
X10609094Y-20307784D02*
G01*
X11290615Y-20891111D01*
X11294672Y-20899094D01*
X11291896Y-20907608D01*
X11290617Y-20908887D01*
X10945287Y-21204462D01*
X10609094Y-21492216D01*
X10600580Y-21494992D01*
X10592426Y-21490730D01*
X10480160Y-21353334D01*
X10480000Y-21353138D01*
X10360000Y-21229707D01*
X10240000Y-21129707D01*
X10239688Y-21129508D01*
X10239684Y-21129505D01*
X10120371Y-21053375D01*
X10120000Y-21053138D01*
X10119604Y-21052962D01*
X10119599Y-21052960D01*
X10006963Y-21003083D01*
X10000786Y-20996600D01*
X10000000Y-20992385D01*
X10000000Y-20807615D01*
X10003427Y-20799342D01*
X10006963Y-20796917D01*
X10053318Y-20776390D01*
X10120000Y-20746861D01*
X10240000Y-20670291D01*
X10360000Y-20570291D01*
X10480000Y-20446861D01*
X10505893Y-20415172D01*
X10592426Y-20309270D01*
X10600314Y-20305032D01*
X10609094Y-20307784D01*
G37*
G04 #@! TD.AperFunction*
G04 #@! TA.AperFunction,Conductor*
G36*
X9707780Y-20420057D02*
G01*
X9713918Y-20426823D01*
X9744344Y-20514070D01*
X9744387Y-20514180D01*
X9744397Y-20514207D01*
X9752657Y-20535293D01*
X9778689Y-20601752D01*
X9813034Y-20678634D01*
X9847379Y-20744717D01*
X9847502Y-20744915D01*
X9879963Y-20797164D01*
X9881725Y-20803338D01*
X9881725Y-20980800D01*
X9878298Y-20989073D01*
X9870025Y-20992500D01*
X9864663Y-20991198D01*
X9766186Y-20940399D01*
X9650648Y-20891599D01*
X9650412Y-20891521D01*
X9650403Y-20891518D01*
X9535359Y-20853681D01*
X9535110Y-20853599D01*
X9419572Y-20826399D01*
X9407366Y-20824667D01*
X9318002Y-20811982D01*
X9310292Y-20807426D01*
X9308062Y-20798754D01*
X9308566Y-20796640D01*
X9326243Y-20744521D01*
X9397205Y-20535291D01*
X9403106Y-20528559D01*
X9404231Y-20528076D01*
X9591266Y-20459268D01*
X9698832Y-20419697D01*
X9707780Y-20420057D01*
G37*
G04 #@! TD.AperFunction*
G04 #@! TA.AperFunction,Conductor*
G36*
X9183896Y-20269725D02*
G01*
X9184586Y-20270484D01*
X9394483Y-20523213D01*
X9397132Y-20531766D01*
X9394463Y-20538185D01*
X9183513Y-20790852D01*
X9175581Y-20795007D01*
X9167549Y-20792742D01*
X9165008Y-20790852D01*
X9090168Y-20735188D01*
X9003913Y-20681833D01*
X8949723Y-20655098D01*
X8917922Y-20639408D01*
X8917918Y-20639406D01*
X8917658Y-20639278D01*
X8917384Y-20639177D01*
X8917379Y-20639175D01*
X8831706Y-20607635D01*
X8831707Y-20607635D01*
X8831402Y-20607523D01*
X8831086Y-20607446D01*
X8831082Y-20607445D01*
X8765385Y-20591484D01*
X8758155Y-20586201D01*
X8756778Y-20577353D01*
X8759874Y-20571842D01*
X8884404Y-20447312D01*
X8889513Y-20444321D01*
X8944095Y-20428989D01*
X8944101Y-20428987D01*
X8944538Y-20428864D01*
X8960840Y-20421387D01*
X9002147Y-20402441D01*
X9002153Y-20402438D01*
X9002510Y-20402274D01*
X9002845Y-20402061D01*
X9002852Y-20402057D01*
X9031690Y-20383701D01*
X9060481Y-20365375D01*
X9118452Y-20318170D01*
X9167350Y-20269659D01*
X9175636Y-20266265D01*
X9183896Y-20269725D01*
G37*
G04 #@! TD.AperFunction*
G04 #@! TA.AperFunction,Conductor*
G36*
X9781402Y-10909432D02*
G01*
X9996487Y-10998139D01*
X10002852Y-11004518D01*
X10091478Y-11220741D01*
X10091445Y-11229695D01*
X10085695Y-11235735D01*
X9999773Y-11276782D01*
X9981848Y-11285345D01*
X9936624Y-11311663D01*
X9932569Y-11313107D01*
X9924696Y-11314354D01*
X9811658Y-11371950D01*
X9811007Y-11372601D01*
X9810264Y-11373141D01*
X9810121Y-11372945D01*
X9806288Y-11375183D01*
X9748382Y-11391299D01*
X9746041Y-11391700D01*
X9636759Y-11399148D01*
X9628272Y-11396292D01*
X9624263Y-11387475D01*
X9624263Y-11209373D01*
X9627690Y-11201100D01*
X9633409Y-11197955D01*
X9694378Y-11184319D01*
X9696479Y-11183849D01*
X9728188Y-11139721D01*
X9738265Y-11074101D01*
X9744584Y-11004518D01*
X9745499Y-10994447D01*
X9745836Y-10992529D01*
X9765626Y-10917272D01*
X9771044Y-10910143D01*
X9779917Y-10908933D01*
X9781402Y-10909432D01*
G37*
G04 #@! TD.AperFunction*
G04 #@! TA.AperFunction,Conductor*
G36*
X4795139Y-21017138D02*
G01*
X5062897Y-21284896D01*
X5066324Y-21293169D01*
X5063642Y-21300623D01*
X5008337Y-21367532D01*
X4946253Y-21447444D01*
X4884168Y-21532155D01*
X4822084Y-21621667D01*
X4760000Y-21715979D01*
X4480135Y-21601053D01*
X4478514Y-21597869D01*
X4396387Y-21298624D01*
X4397502Y-21289738D01*
X4401720Y-21285453D01*
X4472631Y-21243574D01*
X4472731Y-21243515D01*
X4551443Y-21192231D01*
X4551532Y-21192167D01*
X4551552Y-21192154D01*
X4630085Y-21136196D01*
X4630089Y-21136193D01*
X4630155Y-21136146D01*
X4708866Y-21075262D01*
X4708936Y-21075204D01*
X4708948Y-21075194D01*
X4779370Y-21016428D01*
X4787917Y-21013758D01*
X4795139Y-21017138D01*
G37*
G04 #@! TD.AperFunction*
G04 #@! TA.AperFunction,Conductor*
G36*
X4770019Y-21345599D02*
G01*
X4837514Y-21366399D01*
X4905009Y-21382399D01*
X4972504Y-21393599D01*
X5029406Y-21398995D01*
X5037317Y-21403188D01*
X5040000Y-21410643D01*
X5040000Y-21789357D01*
X5036573Y-21797630D01*
X5029405Y-21801004D01*
X4972504Y-21806399D01*
X4972315Y-21806430D01*
X4972310Y-21806431D01*
X4905200Y-21817567D01*
X4905191Y-21817569D01*
X4905009Y-21817599D01*
X4904831Y-21817641D01*
X4904817Y-21817644D01*
X4837724Y-21833549D01*
X4837718Y-21833551D01*
X4837514Y-21833599D01*
X4812018Y-21841456D01*
X4770202Y-21854342D01*
X4770186Y-21854347D01*
X4770019Y-21854399D01*
X4710497Y-21876976D01*
X4701548Y-21876706D01*
X4697205Y-21873336D01*
X4652710Y-21817599D01*
X4480652Y-21602070D01*
X4479366Y-21599542D01*
X4702525Y-21320000D01*
X4770019Y-21345599D01*
G37*
G04 #@! TD.AperFunction*
G04 #@! TA.AperFunction,Conductor*
G36*
X19196269Y-21503586D02*
G01*
X19200049Y-21512150D01*
X19201000Y-21750000D01*
X19200071Y-21982443D01*
X19200049Y-21987849D01*
X19196589Y-21996108D01*
X19187860Y-21999492D01*
X19087051Y-21995277D01*
X19076212Y-21994824D01*
X19075066Y-21994719D01*
X19026411Y-21987849D01*
X18988121Y-21982443D01*
X18987513Y-21982340D01*
X18912179Y-21967600D01*
X18824358Y-21955200D01*
X18824084Y-21955189D01*
X18824078Y-21955188D01*
X18759050Y-21952469D01*
X18711210Y-21950469D01*
X18703088Y-21946699D01*
X18700000Y-21938779D01*
X18700000Y-21561221D01*
X18703427Y-21552948D01*
X18711210Y-21549531D01*
X18759050Y-21547531D01*
X18824078Y-21544812D01*
X18824084Y-21544811D01*
X18824358Y-21544800D01*
X18912179Y-21532400D01*
X18987516Y-21517660D01*
X18988121Y-21517557D01*
X19075067Y-21505281D01*
X19076212Y-21505176D01*
X19087051Y-21504723D01*
X19187860Y-21500508D01*
X19196269Y-21503586D01*
G37*
G04 #@! TD.AperFunction*
G04 #@! TA.AperFunction,Conductor*
G36*
X6058909Y-19257665D02*
G01*
X6436773Y-19643347D01*
X6440115Y-19651655D01*
X6438270Y-19657843D01*
X6424458Y-19679420D01*
X6390088Y-19733112D01*
X6336885Y-19828225D01*
X6336829Y-19828338D01*
X6336822Y-19828351D01*
X6305850Y-19890707D01*
X6283683Y-19935337D01*
X6283641Y-19935430D01*
X6283641Y-19935431D01*
X6230509Y-20054386D01*
X6230501Y-20054406D01*
X6230481Y-20054450D01*
X6230448Y-20054532D01*
X6183914Y-20169210D01*
X6177628Y-20175588D01*
X6168674Y-20175652D01*
X6164800Y-20173084D01*
X5895166Y-19903450D01*
X5893848Y-19901878D01*
X5844307Y-19830976D01*
X5844305Y-19830974D01*
X5844179Y-19830793D01*
X5842175Y-19828351D01*
X5794095Y-19769767D01*
X5794088Y-19769759D01*
X5793922Y-19769557D01*
X5743665Y-19719013D01*
X5693408Y-19679160D01*
X5656426Y-19657702D01*
X5650991Y-19650587D01*
X5652179Y-19641711D01*
X5654096Y-19639240D01*
X5718421Y-19575995D01*
X6042350Y-19257510D01*
X6050651Y-19254153D01*
X6058909Y-19257665D01*
G37*
G04 #@! TD.AperFunction*
G04 #@! TA.AperFunction,Conductor*
G36*
X21603428Y-5472790D02*
G01*
X21608214Y-5478313D01*
X21698822Y-5694789D01*
X21698832Y-5703800D01*
X21609312Y-5918991D01*
X21602970Y-5925313D01*
X21594015Y-5925300D01*
X21592926Y-5924779D01*
X21582266Y-5918991D01*
X21541471Y-5896841D01*
X21540320Y-5896127D01*
X21516725Y-5879507D01*
X21490270Y-5860873D01*
X21446196Y-5836149D01*
X21417115Y-5835032D01*
X21404197Y-5834536D01*
X21402344Y-5834465D01*
X21400804Y-5835497D01*
X21399831Y-5836149D01*
X21352404Y-5867937D01*
X21069563Y-5585096D01*
X21070896Y-5584133D01*
X21071154Y-5583947D01*
X21173106Y-5510299D01*
X21177745Y-5508294D01*
X21223946Y-5499404D01*
X21266952Y-5491129D01*
X21270222Y-5490966D01*
X21302344Y-5493898D01*
X21362440Y-5499383D01*
X21362453Y-5499384D01*
X21362609Y-5499398D01*
X21362779Y-5499403D01*
X21362791Y-5499404D01*
X21469407Y-5502709D01*
X21469408Y-5502709D01*
X21470218Y-5502734D01*
X21589368Y-5472790D01*
X21594569Y-5471483D01*
X21603428Y-5472790D01*
G37*
G04 #@! TD.AperFunction*
G04 #@! TA.AperFunction,Conductor*
G36*
X21897052Y-3703427D02*
G01*
X21900469Y-3711210D01*
X21905200Y-3824358D01*
X21917600Y-3912179D01*
X21917630Y-3912330D01*
X21932340Y-3987513D01*
X21932443Y-3988124D01*
X21944719Y-4075066D01*
X21944824Y-4076213D01*
X21949492Y-4187860D01*
X21946414Y-4196269D01*
X21937850Y-4200049D01*
X21700000Y-4201000D01*
X21462150Y-4200049D01*
X21453892Y-4196589D01*
X21450508Y-4187860D01*
X21455176Y-4076213D01*
X21455281Y-4075066D01*
X21467557Y-3988124D01*
X21467660Y-3987513D01*
X21482370Y-3912330D01*
X21482400Y-3912179D01*
X21494800Y-3824358D01*
X21499531Y-3711210D01*
X21503301Y-3703088D01*
X21511221Y-3700000D01*
X21888779Y-3700000D01*
X21897052Y-3703427D01*
G37*
G04 #@! TD.AperFunction*
G04 #@! TA.AperFunction,Conductor*
G36*
X22181807Y-1733199D02*
G01*
X22188518Y-1739127D01*
X22189058Y-1748102D01*
X22160455Y-1830439D01*
X22134396Y-1905455D01*
X22134327Y-1905653D01*
X22134282Y-1905807D01*
X22134281Y-1905811D01*
X22075788Y-2107144D01*
X22075780Y-2107174D01*
X22075745Y-2107294D01*
X22017163Y-2341935D01*
X21958581Y-2609576D01*
X21958569Y-2609638D01*
X21901844Y-2900756D01*
X21896898Y-2908221D01*
X21890360Y-2910218D01*
X21507490Y-2910218D01*
X21499217Y-2906791D01*
X21496865Y-2903416D01*
X21361481Y-2609713D01*
X21361418Y-2609576D01*
X21361358Y-2609460D01*
X21361356Y-2609455D01*
X21222909Y-2342076D01*
X21222836Y-2341935D01*
X21084254Y-2107294D01*
X20945672Y-1905653D01*
X20817788Y-1750031D01*
X20815183Y-1741465D01*
X20819399Y-1733565D01*
X20823026Y-1731539D01*
X21496199Y-1500306D01*
X21503801Y-1500306D01*
X22181807Y-1733199D01*
G37*
G04 #@! TD.AperFunction*
G04 #@! TA.AperFunction,Conductor*
G36*
X20705278Y-6251994D02*
G01*
X20710442Y-6257158D01*
X20986570Y-6803423D01*
X20987434Y-6811712D01*
X20970865Y-6873922D01*
X20953148Y-6946441D01*
X20935432Y-7024960D01*
X20935415Y-7025043D01*
X20917716Y-7109480D01*
X20917701Y-7109556D01*
X20901850Y-7190547D01*
X20896898Y-7198008D01*
X20890368Y-7200000D01*
X20509632Y-7200000D01*
X20501359Y-7196573D01*
X20498150Y-7190547D01*
X20482283Y-7109480D01*
X20464583Y-7025043D01*
X20464566Y-7024960D01*
X20446850Y-6946441D01*
X20429134Y-6873922D01*
X20412566Y-6811712D01*
X20413430Y-6803423D01*
X20689558Y-6257158D01*
X20696349Y-6251320D01*
X20705278Y-6251994D01*
G37*
G04 #@! TD.AperFunction*
G04 #@! TA.AperFunction,Conductor*
G36*
X20900323Y-7463427D02*
G01*
X20902928Y-7467392D01*
X20927547Y-7529552D01*
X20927559Y-7529581D01*
X20927586Y-7529649D01*
X20955173Y-7594500D01*
X20982760Y-7654550D01*
X20982782Y-7654594D01*
X21010313Y-7709733D01*
X21010323Y-7709752D01*
X21010347Y-7709800D01*
X21010407Y-7709911D01*
X21033926Y-7752922D01*
X21034889Y-7761825D01*
X21032304Y-7766421D01*
X20805759Y-8014688D01*
X20797651Y-8018490D01*
X20792235Y-8017435D01*
X20627057Y-7941608D01*
X20497257Y-7882021D01*
X20491168Y-7875456D01*
X20490442Y-7871081D01*
X20492190Y-7804640D01*
X20494143Y-7725680D01*
X20496095Y-7641920D01*
X20498047Y-7553360D01*
X20499760Y-7471455D01*
X20503359Y-7463256D01*
X20511457Y-7460000D01*
X20892050Y-7460000D01*
X20900323Y-7463427D01*
G37*
G04 #@! TD.AperFunction*
G04 #@! TA.AperFunction,Conductor*
G36*
X21353553Y-5866790D02*
G01*
X21352332Y-5868293D01*
X21352329Y-5868295D01*
X21301386Y-5930970D01*
X21282842Y-5953784D01*
X21212131Y-6046779D01*
X21141421Y-6145774D01*
X21141387Y-6145825D01*
X21141372Y-6145846D01*
X21076352Y-6242390D01*
X21070710Y-6250768D01*
X21070671Y-6250829D01*
X21070656Y-6250852D01*
X21005260Y-6353507D01*
X20997924Y-6358644D01*
X20990945Y-6358043D01*
X20709474Y-6242390D01*
X20703124Y-6236076D01*
X20702848Y-6227790D01*
X20825514Y-5868295D01*
X20915622Y-5604214D01*
X20921537Y-5597490D01*
X20929351Y-5596597D01*
X20948961Y-5601168D01*
X20948964Y-5601169D01*
X20949374Y-5601264D01*
X20979708Y-5603775D01*
X20980152Y-5603745D01*
X20980155Y-5603745D01*
X21009617Y-5601755D01*
X21009621Y-5601754D01*
X21010042Y-5601726D01*
X21010541Y-5601617D01*
X21039987Y-5595201D01*
X21039993Y-5595199D01*
X21040375Y-5595116D01*
X21070710Y-5583947D01*
X21353553Y-5866790D01*
G37*
G04 #@! TD.AperFunction*
G04 #@! TA.AperFunction,Conductor*
G36*
X9960835Y-11484576D02*
G01*
X9980886Y-11532481D01*
X10049109Y-11695483D01*
X10049109Y-11704517D01*
X9960835Y-11915426D01*
X9954481Y-11921734D01*
X9944732Y-11921333D01*
X9904124Y-11900642D01*
X9902774Y-11899835D01*
X9859510Y-11869846D01*
X9859507Y-11869844D01*
X9859081Y-11869549D01*
X9851605Y-11866149D01*
X9851455Y-11866111D01*
X9849064Y-11864917D01*
X9848703Y-11864676D01*
X9848701Y-11864675D01*
X9847741Y-11864034D01*
X9838926Y-11862281D01*
X9826834Y-11859875D01*
X9826252Y-11859744D01*
X9798311Y-11852686D01*
X9798308Y-11852685D01*
X9797803Y-11852558D01*
X9797284Y-11852523D01*
X9797280Y-11852522D01*
X9796551Y-11852473D01*
X9795608Y-11852408D01*
X9790937Y-11851081D01*
X9788579Y-11849835D01*
X9788561Y-11849826D01*
X9788392Y-11849737D01*
X9727582Y-11822680D01*
X9704622Y-11817359D01*
X9655293Y-11805926D01*
X9655289Y-11805925D01*
X9654804Y-11805813D01*
X9654302Y-11805785D01*
X9654301Y-11805785D01*
X9561052Y-11800613D01*
X9552981Y-11796733D01*
X9550000Y-11788931D01*
X9550000Y-11611069D01*
X9553427Y-11602796D01*
X9561052Y-11599387D01*
X9654301Y-11594214D01*
X9654302Y-11594214D01*
X9654804Y-11594186D01*
X9655289Y-11594074D01*
X9655293Y-11594073D01*
X9704622Y-11582640D01*
X9727582Y-11577319D01*
X9788392Y-11550262D01*
X9788558Y-11550174D01*
X9788569Y-11550169D01*
X9822062Y-11532481D01*
X9824389Y-11531555D01*
X9847625Y-11525088D01*
X9847624Y-11525088D01*
X9847981Y-11524989D01*
X9882254Y-11510501D01*
X9882268Y-11510495D01*
X9884338Y-11509620D01*
X9884344Y-11509617D01*
X9884694Y-11509469D01*
X9885016Y-11509281D01*
X9885030Y-11509274D01*
X9887247Y-11507979D01*
X9887835Y-11507657D01*
X9944731Y-11478668D01*
X9953659Y-11477966D01*
X9960835Y-11484576D01*
G37*
G04 #@! TD.AperFunction*
G04 #@! TA.AperFunction,Conductor*
G36*
X19723179Y-2953596D02*
G01*
X19726746Y-2956035D01*
X19854515Y-3083804D01*
X19856949Y-3087361D01*
X19892568Y-3168245D01*
X19929072Y-3240414D01*
X19965575Y-3301862D01*
X20002078Y-3352590D01*
X20025042Y-3377757D01*
X20033136Y-3386628D01*
X20036181Y-3395049D01*
X20034928Y-3399804D01*
X19760072Y-3941946D01*
X19753276Y-3947774D01*
X19744347Y-3947089D01*
X19739069Y-3941672D01*
X19633895Y-3720150D01*
X19474420Y-3384257D01*
X19473967Y-3375315D01*
X19475742Y-3372071D01*
X19490846Y-3352590D01*
X19519995Y-3314992D01*
X19568658Y-3240227D01*
X19617320Y-3153462D01*
X19617393Y-3153314D01*
X19665927Y-3054811D01*
X19665938Y-3054788D01*
X19665982Y-3054698D01*
X19707762Y-2959601D01*
X19714226Y-2953406D01*
X19723179Y-2953596D01*
G37*
G04 #@! TD.AperFunction*
G04 #@! TA.AperFunction,Conductor*
G36*
X22159021Y-12030241D02*
G01*
X22249108Y-12245483D01*
X22249108Y-12254517D01*
X22173073Y-12436187D01*
X22159009Y-12469789D01*
X22152654Y-12476098D01*
X22143321Y-12475899D01*
X22130057Y-12469789D01*
X22057661Y-12436439D01*
X22057165Y-12436195D01*
X21988532Y-12400302D01*
X21927709Y-12373652D01*
X21927165Y-12373528D01*
X21927164Y-12373528D01*
X21855437Y-12357225D01*
X21855433Y-12357224D01*
X21854956Y-12357116D01*
X21854469Y-12357090D01*
X21854465Y-12357089D01*
X21761353Y-12352040D01*
X21753278Y-12348170D01*
X21750287Y-12340357D01*
X21750286Y-12162494D01*
X21753713Y-12154221D01*
X21761320Y-12150813D01*
X21855086Y-12145479D01*
X21855586Y-12145361D01*
X21855590Y-12145360D01*
X21897464Y-12135442D01*
X21927782Y-12128262D01*
X21928293Y-12128031D01*
X21928295Y-12128030D01*
X21952989Y-12116851D01*
X21988482Y-12100783D01*
X22057015Y-12064190D01*
X22057585Y-12063905D01*
X22093304Y-12047337D01*
X22143305Y-12024144D01*
X22152252Y-12023772D01*
X22159021Y-12030241D01*
G37*
G04 #@! TD.AperFunction*
G04 #@! TA.AperFunction,Conductor*
G36*
X20509014Y-2480224D02*
G01*
X20549653Y-2577319D01*
X20599109Y-2695483D01*
X20599109Y-2704517D01*
X20560513Y-2796733D01*
X20523046Y-2886252D01*
X20509015Y-2919775D01*
X20502660Y-2926084D01*
X20493314Y-2925879D01*
X20470183Y-2915189D01*
X20407549Y-2886242D01*
X20407035Y-2885987D01*
X20366207Y-2864426D01*
X20338569Y-2849830D01*
X20338558Y-2849825D01*
X20338392Y-2849737D01*
X20277582Y-2822680D01*
X20254622Y-2817359D01*
X20205293Y-2805926D01*
X20205289Y-2805925D01*
X20204804Y-2805813D01*
X20204302Y-2805785D01*
X20204301Y-2805785D01*
X20111052Y-2800613D01*
X20102981Y-2796733D01*
X20100000Y-2788931D01*
X20100000Y-2611069D01*
X20103427Y-2602796D01*
X20111052Y-2599387D01*
X20204301Y-2594214D01*
X20204302Y-2594214D01*
X20204804Y-2594186D01*
X20205289Y-2594074D01*
X20205293Y-2594073D01*
X20254622Y-2582640D01*
X20277582Y-2577319D01*
X20338392Y-2550262D01*
X20338558Y-2550174D01*
X20338569Y-2550169D01*
X20366207Y-2535573D01*
X20407035Y-2514012D01*
X20407549Y-2513757D01*
X20480106Y-2480225D01*
X20493314Y-2474121D01*
X20502261Y-2473761D01*
X20509014Y-2480224D01*
G37*
G04 #@! TD.AperFunction*
G04 #@! TA.AperFunction,Conductor*
G36*
X9787230Y-12007698D02*
G01*
X9794706Y-12011098D01*
X9811658Y-12028050D01*
X9924696Y-12085646D01*
X9947699Y-12089289D01*
X10001268Y-12097774D01*
X10005323Y-12099218D01*
X10031848Y-12114654D01*
X10135697Y-12164265D01*
X10141684Y-12170922D01*
X10141479Y-12179257D01*
X10125641Y-12217898D01*
X10052852Y-12395482D01*
X10046487Y-12401861D01*
X9831402Y-12490568D01*
X9822447Y-12490555D01*
X9816125Y-12484213D01*
X9815626Y-12482727D01*
X9795836Y-12407469D01*
X9795499Y-12405552D01*
X9788281Y-12326079D01*
X9788265Y-12325898D01*
X9778188Y-12260278D01*
X9746479Y-12216150D01*
X9744380Y-12215681D01*
X9744379Y-12215680D01*
X9715714Y-12209270D01*
X9683409Y-12202045D01*
X9676084Y-12196896D01*
X9674263Y-12190628D01*
X9674263Y-12012524D01*
X9677690Y-12004251D01*
X9686758Y-12000851D01*
X9787230Y-12007698D01*
G37*
G04 #@! TD.AperFunction*
G04 #@! TA.AperFunction,Conductor*
G36*
X2145986Y-9224424D02*
G01*
X2146559Y-9226016D01*
X2234607Y-9540384D01*
X2326304Y-9828782D01*
X2418002Y-10078180D01*
X2509699Y-10288578D01*
X2509811Y-10288787D01*
X2597302Y-10452322D01*
X2598183Y-10461233D01*
X2595259Y-10466114D01*
X2466355Y-10595018D01*
X2458082Y-10598445D01*
X2452186Y-10596851D01*
X2206150Y-10453293D01*
X2206147Y-10453292D01*
X2205848Y-10453117D01*
X2205526Y-10452979D01*
X2205523Y-10452977D01*
X2098450Y-10406934D01*
X1951721Y-10343837D01*
X1951350Y-10343734D01*
X1951346Y-10343733D01*
X1698011Y-10273673D01*
X1698007Y-10273672D01*
X1697594Y-10273558D01*
X1697165Y-10273505D01*
X1697159Y-10273504D01*
X1443909Y-10242333D01*
X1443904Y-10242333D01*
X1443467Y-10242279D01*
X1443032Y-10242292D01*
X1443027Y-10242292D01*
X1207408Y-10249451D01*
X1199035Y-10246277D01*
X1195358Y-10238111D01*
X1196239Y-10233291D01*
X1497508Y-9503617D01*
X1503567Y-9497392D01*
X1835970Y-9349526D01*
X2130542Y-9218489D01*
X2139492Y-9218257D01*
X2145986Y-9224424D01*
G37*
G04 #@! TD.AperFunction*
G04 #@! TA.AperFunction,Conductor*
G36*
X2145986Y-11224424D02*
G01*
X2146559Y-11226016D01*
X2234607Y-11540384D01*
X2326304Y-11828782D01*
X2418002Y-12078180D01*
X2509699Y-12288578D01*
X2509811Y-12288787D01*
X2597302Y-12452322D01*
X2598183Y-12461233D01*
X2595259Y-12466114D01*
X2466355Y-12595018D01*
X2458082Y-12598445D01*
X2452186Y-12596851D01*
X2206150Y-12453293D01*
X2206147Y-12453292D01*
X2205848Y-12453117D01*
X2205526Y-12452979D01*
X2205523Y-12452977D01*
X2098450Y-12406934D01*
X1951721Y-12343837D01*
X1951350Y-12343734D01*
X1951346Y-12343733D01*
X1698011Y-12273673D01*
X1698007Y-12273672D01*
X1697594Y-12273558D01*
X1697165Y-12273505D01*
X1697159Y-12273504D01*
X1443909Y-12242333D01*
X1443904Y-12242333D01*
X1443467Y-12242279D01*
X1443032Y-12242292D01*
X1443027Y-12242292D01*
X1207408Y-12249451D01*
X1199035Y-12246277D01*
X1195358Y-12238111D01*
X1196239Y-12233291D01*
X1497508Y-11503617D01*
X1503567Y-11497392D01*
X1835970Y-11349526D01*
X2130542Y-11218489D01*
X2139492Y-11218257D01*
X2145986Y-11224424D01*
G37*
G04 #@! TD.AperFunction*
G04 #@! TA.AperFunction,Conductor*
G36*
X1749588Y-12815280D02*
G01*
X1846569Y-12878441D01*
X1971653Y-12959906D01*
X2206294Y-13075606D01*
X2440935Y-13154188D01*
X2536930Y-13171152D01*
X2675121Y-13195572D01*
X2675126Y-13195572D01*
X2675576Y-13195652D01*
X2898736Y-13199787D01*
X2906943Y-13203367D01*
X2910218Y-13211485D01*
X2910218Y-13391422D01*
X2906791Y-13399695D01*
X2902038Y-13402580D01*
X2724670Y-13458526D01*
X2724666Y-13458528D01*
X2724240Y-13458662D01*
X2538262Y-13551027D01*
X2352284Y-13677093D01*
X2166307Y-13836860D01*
X2166120Y-13837054D01*
X2166111Y-13837063D01*
X2070067Y-13936978D01*
X1989010Y-14021301D01*
X1980807Y-14024890D01*
X1971912Y-14021055D01*
X1804920Y-13837063D01*
X1503648Y-13505121D01*
X1500626Y-13496693D01*
X1501247Y-13493458D01*
X1513200Y-13458662D01*
X1602049Y-13200000D01*
X1732138Y-12821283D01*
X1738066Y-12814572D01*
X1747004Y-12814019D01*
X1749588Y-12815280D01*
G37*
G04 #@! TD.AperFunction*
G04 #@! TA.AperFunction,Conductor*
G36*
X2466355Y-14404982D02*
G01*
X2595259Y-14533886D01*
X2598686Y-14542159D01*
X2597302Y-14547678D01*
X2509699Y-14711421D01*
X2418002Y-14921819D01*
X2326304Y-15171217D01*
X2234607Y-15459615D01*
X2234582Y-15459703D01*
X2234577Y-15459721D01*
X2205199Y-15564613D01*
X2146561Y-15773977D01*
X2141031Y-15781019D01*
X2132141Y-15782087D01*
X2130541Y-15781511D01*
X2113603Y-15773976D01*
X1835970Y-15650474D01*
X1503567Y-15502608D01*
X1497508Y-15496383D01*
X1196239Y-14766709D01*
X1196249Y-14757754D01*
X1202588Y-14751430D01*
X1207408Y-14750549D01*
X1443027Y-14757707D01*
X1443032Y-14757707D01*
X1443467Y-14757720D01*
X1443904Y-14757666D01*
X1443909Y-14757666D01*
X1697159Y-14726494D01*
X1697165Y-14726493D01*
X1697594Y-14726440D01*
X1698007Y-14726326D01*
X1698011Y-14726325D01*
X1951346Y-14656265D01*
X1951350Y-14656264D01*
X1951721Y-14656161D01*
X2203997Y-14547678D01*
X2205523Y-14547022D01*
X2205526Y-14547020D01*
X2205848Y-14546882D01*
X2217602Y-14540024D01*
X2452186Y-14403149D01*
X2461058Y-14401940D01*
X2466355Y-14404982D01*
G37*
G04 #@! TD.AperFunction*
G04 #@! TA.AperFunction,Conductor*
G36*
X2466355Y-16404982D02*
G01*
X2595259Y-16533886D01*
X2598686Y-16542159D01*
X2597302Y-16547678D01*
X2509699Y-16711421D01*
X2418002Y-16921819D01*
X2326304Y-17171217D01*
X2234607Y-17459615D01*
X2234582Y-17459703D01*
X2234577Y-17459721D01*
X2205199Y-17564613D01*
X2146561Y-17773977D01*
X2141031Y-17781019D01*
X2132141Y-17782087D01*
X2130541Y-17781511D01*
X2113603Y-17773976D01*
X1835970Y-17650474D01*
X1503567Y-17502608D01*
X1497508Y-17496383D01*
X1196239Y-16766709D01*
X1196249Y-16757754D01*
X1202588Y-16751430D01*
X1207408Y-16750549D01*
X1443027Y-16757707D01*
X1443032Y-16757707D01*
X1443467Y-16757720D01*
X1443904Y-16757666D01*
X1443909Y-16757666D01*
X1697159Y-16726494D01*
X1697165Y-16726493D01*
X1697594Y-16726440D01*
X1698007Y-16726326D01*
X1698011Y-16726325D01*
X1951346Y-16656265D01*
X1951350Y-16656264D01*
X1951721Y-16656161D01*
X2203997Y-16547678D01*
X2205523Y-16547022D01*
X2205526Y-16547020D01*
X2205848Y-16546882D01*
X2217602Y-16540024D01*
X2452186Y-16403149D01*
X2461058Y-16401940D01*
X2466355Y-16404982D01*
G37*
G04 #@! TD.AperFunction*
G04 #@! TA.AperFunction,Conductor*
G36*
X6056686Y-16774121D02*
G01*
X6069894Y-16780225D01*
X6142449Y-16813757D01*
X6142963Y-16814012D01*
X6183789Y-16835572D01*
X6211430Y-16850169D01*
X6211441Y-16850174D01*
X6211607Y-16850262D01*
X6272416Y-16877319D01*
X6295271Y-16882616D01*
X6344706Y-16894073D01*
X6344710Y-16894074D01*
X6345195Y-16894186D01*
X6345697Y-16894214D01*
X6345698Y-16894214D01*
X6438948Y-16899387D01*
X6447019Y-16903267D01*
X6450000Y-16911069D01*
X6450000Y-17088931D01*
X6446573Y-17097204D01*
X6438948Y-17100613D01*
X6345698Y-17105785D01*
X6345697Y-17105785D01*
X6345195Y-17105813D01*
X6344710Y-17105925D01*
X6344706Y-17105926D01*
X6295271Y-17117383D01*
X6272416Y-17122680D01*
X6211607Y-17149737D01*
X6211441Y-17149825D01*
X6211430Y-17149830D01*
X6174116Y-17169536D01*
X6142979Y-17185979D01*
X6142447Y-17186243D01*
X6056686Y-17225879D01*
X6047739Y-17226239D01*
X6040985Y-17219775D01*
X6026900Y-17186121D01*
X5989684Y-17097204D01*
X5950891Y-17004517D01*
X5950891Y-16995483D01*
X6000347Y-16877319D01*
X6040986Y-16780224D01*
X6047340Y-16773916D01*
X6056686Y-16774121D01*
G37*
G04 #@! TD.AperFunction*
G04 #@! TA.AperFunction,Conductor*
G36*
X6789068Y-17132662D02*
G01*
X6836385Y-17179643D01*
X6912581Y-17255299D01*
X6916037Y-17263560D01*
X6914042Y-17270136D01*
X6907408Y-17279990D01*
X6907080Y-17280431D01*
X6906864Y-17280647D01*
X6906544Y-17281126D01*
X6906539Y-17281132D01*
X6901664Y-17288428D01*
X6900682Y-17289698D01*
X6896660Y-17294217D01*
X6887877Y-17305021D01*
X6886634Y-17306698D01*
X6886559Y-17306809D01*
X6886545Y-17306829D01*
X6886450Y-17306970D01*
X6885507Y-17308186D01*
X6865934Y-17330249D01*
X6853373Y-17344408D01*
X6853109Y-17344837D01*
X6853106Y-17344841D01*
X6814448Y-17407641D01*
X6814446Y-17407645D01*
X6814158Y-17408113D01*
X6790606Y-17470492D01*
X6790553Y-17470666D01*
X6767934Y-17544827D01*
X6767731Y-17545433D01*
X6767458Y-17546179D01*
X6735153Y-17634266D01*
X6729087Y-17640854D01*
X6719731Y-17641064D01*
X6719219Y-17640854D01*
X6644417Y-17610193D01*
X6503827Y-17552566D01*
X6497439Y-17546179D01*
X6408928Y-17330249D01*
X6408961Y-17321294D01*
X6415705Y-17314834D01*
X6504117Y-17282225D01*
X6504677Y-17282035D01*
X6578369Y-17259024D01*
X6578380Y-17259020D01*
X6578579Y-17258958D01*
X6578763Y-17258886D01*
X6578775Y-17258882D01*
X6625902Y-17240494D01*
X6627872Y-17239919D01*
X6646611Y-17236191D01*
X6646612Y-17236191D01*
X6647741Y-17235966D01*
X6694520Y-17204709D01*
X6730601Y-17180601D01*
X6743939Y-17160639D01*
X6745394Y-17158866D01*
X6762458Y-17141802D01*
X6762892Y-17141389D01*
X6772986Y-17132279D01*
X6781424Y-17129280D01*
X6789068Y-17132662D01*
G37*
G04 #@! TD.AperFunction*
G04 #@! TA.AperFunction,Conductor*
G36*
X7103248Y-17314639D02*
G01*
X7229214Y-17440605D01*
X7232641Y-17448878D01*
X7230766Y-17455230D01*
X7196245Y-17508606D01*
X7202560Y-17561698D01*
X7238208Y-17614837D01*
X7238337Y-17615001D01*
X7238345Y-17615012D01*
X7286016Y-17675604D01*
X7286989Y-17677051D01*
X7324422Y-17742823D01*
X7325536Y-17751708D01*
X7320041Y-17758778D01*
X7318748Y-17759413D01*
X7103800Y-17848832D01*
X7094789Y-17848822D01*
X6881177Y-17759413D01*
X6879332Y-17758641D01*
X6873023Y-17752285D01*
X6872858Y-17743837D01*
X6897228Y-17677051D01*
X6912320Y-17635689D01*
X6938668Y-17547751D01*
X6938895Y-17547075D01*
X6965724Y-17474675D01*
X6966707Y-17472648D01*
X7011559Y-17399293D01*
X7012802Y-17397616D01*
X7086230Y-17315139D01*
X7086294Y-17315196D01*
X7094078Y-17311246D01*
X7103248Y-17314639D01*
G37*
G04 #@! TD.AperFunction*
G04 #@! TA.AperFunction,Conductor*
G36*
X8430628Y-16143413D02*
G01*
X8556995Y-16269780D01*
X8560422Y-16278053D01*
X8557939Y-16285260D01*
X8499489Y-16360011D01*
X8498878Y-16360793D01*
X8474491Y-16433091D01*
X8474439Y-16433837D01*
X8474439Y-16433839D01*
X8469497Y-16505287D01*
X8469481Y-16505494D01*
X8462306Y-16587968D01*
X8461878Y-16590240D01*
X8440775Y-16662224D01*
X8434622Y-16683213D01*
X8429007Y-16690187D01*
X8420103Y-16691148D01*
X8418958Y-16690747D01*
X8332020Y-16655112D01*
X8201488Y-16601607D01*
X8197621Y-16599022D01*
X8032007Y-16432077D01*
X8028613Y-16423790D01*
X8032619Y-16415022D01*
X8114221Y-16343796D01*
X8115718Y-16342687D01*
X8188554Y-16297203D01*
X8189405Y-16296720D01*
X8257144Y-16261962D01*
X8257341Y-16261839D01*
X8257348Y-16261835D01*
X8330801Y-16215966D01*
X8330804Y-16215964D01*
X8331196Y-16215719D01*
X8331545Y-16215415D01*
X8331551Y-16215410D01*
X8414662Y-16142871D01*
X8423148Y-16140013D01*
X8430628Y-16143413D01*
G37*
G04 #@! TD.AperFunction*
G04 #@! TA.AperFunction,Conductor*
G36*
X7145637Y-19291007D02*
G01*
X7146576Y-19291850D01*
X7272343Y-19417617D01*
X7275770Y-19425890D01*
X7274124Y-19431872D01*
X7238554Y-19491645D01*
X7256766Y-19547471D01*
X7257700Y-19548431D01*
X7310295Y-19602515D01*
X7310309Y-19602529D01*
X7375149Y-19666893D01*
X7376785Y-19668929D01*
X7423525Y-19742595D01*
X7425064Y-19751416D01*
X7419914Y-19758742D01*
X7418140Y-19759666D01*
X7203800Y-19848832D01*
X7194789Y-19848822D01*
X6978823Y-19758428D01*
X6972514Y-19752072D01*
X6972160Y-19744185D01*
X7006190Y-19633904D01*
X7006336Y-19633431D01*
X7018683Y-19539342D01*
X7024583Y-19494051D01*
X7029024Y-19459961D01*
X7029736Y-19457194D01*
X7060403Y-19379136D01*
X7062177Y-19376080D01*
X7129187Y-19292789D01*
X7137043Y-19288491D01*
X7145637Y-19291007D01*
G37*
G04 #@! TD.AperFunction*
G04 #@! TA.AperFunction,Conductor*
G36*
X7847204Y-21153427D02*
G01*
X7850613Y-21161052D01*
X7855813Y-21254804D01*
X7872680Y-21327582D01*
X7899737Y-21388392D01*
X7935987Y-21457035D01*
X7936242Y-21457549D01*
X7965189Y-21520183D01*
X7975879Y-21543314D01*
X7976239Y-21552261D01*
X7969776Y-21559014D01*
X7866446Y-21602262D01*
X7754517Y-21649109D01*
X7745483Y-21649109D01*
X7633554Y-21602262D01*
X7530224Y-21559014D01*
X7523916Y-21552660D01*
X7524121Y-21543314D01*
X7537960Y-21513368D01*
X7563757Y-21457549D01*
X7564012Y-21457035D01*
X7600262Y-21388392D01*
X7627319Y-21327582D01*
X7644186Y-21254804D01*
X7649387Y-21161052D01*
X7653267Y-21152981D01*
X7661069Y-21150000D01*
X7838931Y-21150000D01*
X7847204Y-21153427D01*
G37*
G04 #@! TD.AperFunction*
G04 #@! TA.AperFunction,Conductor*
G36*
X10629760Y-15708528D02*
G01*
X10635767Y-15714211D01*
X10683849Y-15813262D01*
X10683998Y-15813506D01*
X10730046Y-15889104D01*
X10730294Y-15889530D01*
X10766375Y-15954808D01*
X10767336Y-15957089D01*
X10790874Y-16035114D01*
X10791341Y-16037625D01*
X10799065Y-16141491D01*
X10796261Y-16149996D01*
X10787397Y-16154059D01*
X10609207Y-16154059D01*
X10600934Y-16150632D01*
X10597835Y-16145110D01*
X10584011Y-16087957D01*
X10584010Y-16087956D01*
X10583452Y-16085648D01*
X10538531Y-16059201D01*
X10483287Y-16055405D01*
X10472420Y-16054658D01*
X10472416Y-16054658D01*
X10472317Y-16054651D01*
X10407603Y-16052461D01*
X10393073Y-16051969D01*
X10390745Y-16051655D01*
X10317640Y-16034156D01*
X10310392Y-16028897D01*
X10308985Y-16020053D01*
X10309548Y-16018316D01*
X10398139Y-15803513D01*
X10404518Y-15797148D01*
X10620726Y-15708528D01*
X10620806Y-15708495D01*
X10629760Y-15708528D01*
G37*
G04 #@! TD.AperFunction*
G04 #@! TA.AperFunction,Conductor*
G36*
X11216446Y-15747738D02*
G01*
X11319776Y-15790986D01*
X11326084Y-15797340D01*
X11325879Y-15806686D01*
X11286252Y-15892428D01*
X11286248Y-15892436D01*
X11285979Y-15892979D01*
X11249737Y-15961607D01*
X11222680Y-16022416D01*
X11205813Y-16095195D01*
X11205785Y-16095697D01*
X11205785Y-16095698D01*
X11200613Y-16188948D01*
X11196733Y-16197019D01*
X11188931Y-16200000D01*
X11011069Y-16200000D01*
X11002796Y-16196573D01*
X10999387Y-16188948D01*
X10994214Y-16095698D01*
X10994214Y-16095697D01*
X10994186Y-16095195D01*
X10977319Y-16022416D01*
X10950262Y-15961607D01*
X10914012Y-15892963D01*
X10913751Y-15892436D01*
X10874121Y-15806686D01*
X10873761Y-15797739D01*
X10880224Y-15790986D01*
X10983554Y-15747738D01*
X11095483Y-15700891D01*
X11104517Y-15700891D01*
X11216446Y-15747738D01*
G37*
G04 #@! TD.AperFunction*
G04 #@! TA.AperFunction,Conductor*
G36*
X17556686Y-16524121D02*
G01*
X17569894Y-16530225D01*
X17642449Y-16563757D01*
X17642963Y-16564012D01*
X17683789Y-16585572D01*
X17711430Y-16600169D01*
X17711441Y-16600174D01*
X17711607Y-16600262D01*
X17772416Y-16627319D01*
X17795271Y-16632616D01*
X17844706Y-16644073D01*
X17844710Y-16644074D01*
X17845195Y-16644186D01*
X17845697Y-16644214D01*
X17845698Y-16644214D01*
X17938948Y-16649387D01*
X17947019Y-16653267D01*
X17950000Y-16661069D01*
X17950000Y-16838931D01*
X17946573Y-16847204D01*
X17938948Y-16850613D01*
X17845698Y-16855785D01*
X17845697Y-16855785D01*
X17845195Y-16855813D01*
X17844710Y-16855925D01*
X17844706Y-16855926D01*
X17795271Y-16867383D01*
X17772416Y-16872680D01*
X17711607Y-16899737D01*
X17711441Y-16899825D01*
X17711430Y-16899830D01*
X17674116Y-16919536D01*
X17642979Y-16935979D01*
X17642447Y-16936243D01*
X17556686Y-16975879D01*
X17547739Y-16976239D01*
X17540985Y-16969775D01*
X17526900Y-16936121D01*
X17489684Y-16847204D01*
X17450891Y-16754517D01*
X17450891Y-16745483D01*
X17500347Y-16627319D01*
X17540986Y-16530224D01*
X17547340Y-16523916D01*
X17556686Y-16524121D01*
G37*
G04 #@! TD.AperFunction*
G04 #@! TA.AperFunction,Conductor*
G36*
X14979696Y-14958554D02*
G01*
X14985735Y-14964303D01*
X15035345Y-15068150D01*
X15081713Y-15147827D01*
X15081997Y-15148344D01*
X15117545Y-15217183D01*
X15118421Y-15219414D01*
X15141299Y-15301617D01*
X15141700Y-15303958D01*
X15149148Y-15413241D01*
X15146292Y-15421728D01*
X15137475Y-15425737D01*
X14959373Y-15425737D01*
X14951100Y-15422310D01*
X14947955Y-15416591D01*
X14934319Y-15355621D01*
X14933849Y-15353520D01*
X14889721Y-15321811D01*
X14875942Y-15319695D01*
X14824286Y-15311761D01*
X14824274Y-15311760D01*
X14824101Y-15311733D01*
X14766650Y-15306516D01*
X14744446Y-15304500D01*
X14742529Y-15304163D01*
X14703536Y-15293910D01*
X14667273Y-15284374D01*
X14660143Y-15278956D01*
X14658933Y-15270084D01*
X14659432Y-15268598D01*
X14748139Y-15053513D01*
X14754518Y-15047148D01*
X14970743Y-14958521D01*
X14979696Y-14958554D01*
G37*
G04 #@! TD.AperFunction*
G04 #@! TA.AperFunction,Conductor*
G36*
X16466824Y-22405451D02*
G01*
X16595947Y-22534574D01*
X16599374Y-22542847D01*
X16598542Y-22547180D01*
X16590051Y-22568458D01*
X16538034Y-22698817D01*
X16531117Y-22716151D01*
X16531060Y-22716325D01*
X16531058Y-22716331D01*
X16482932Y-22863645D01*
X16460837Y-22931278D01*
X16390558Y-23185405D01*
X16390545Y-23185459D01*
X16390543Y-23185467D01*
X16320279Y-23478532D01*
X16252912Y-23796900D01*
X16247846Y-23804285D01*
X16239043Y-23805925D01*
X16237000Y-23805292D01*
X15503617Y-23502492D01*
X15497392Y-23496433D01*
X15219885Y-22872596D01*
X15219653Y-22863645D01*
X15225820Y-22857151D01*
X15229932Y-22856159D01*
X15366636Y-22848651D01*
X15461932Y-22843417D01*
X15461934Y-22843417D01*
X15462384Y-22843392D01*
X15462821Y-22843300D01*
X15462826Y-22843299D01*
X15711362Y-22790784D01*
X15711365Y-22790783D01*
X15711782Y-22790695D01*
X15914036Y-22716331D01*
X15960816Y-22699131D01*
X15960818Y-22699130D01*
X15961180Y-22698997D01*
X15961521Y-22698819D01*
X15961524Y-22698817D01*
X16210277Y-22568458D01*
X16210280Y-22568456D01*
X16210578Y-22568300D01*
X16451969Y-22404051D01*
X16460737Y-22402230D01*
X16466824Y-22405451D01*
G37*
G04 #@! TD.AperFunction*
G04 #@! TA.AperFunction,Conductor*
G36*
X19847204Y-19503427D02*
G01*
X19850613Y-19511052D01*
X19855813Y-19604804D01*
X19872680Y-19677582D01*
X19899737Y-19738392D01*
X19935987Y-19807035D01*
X19936242Y-19807549D01*
X19965189Y-19870183D01*
X19975879Y-19893314D01*
X19976239Y-19902261D01*
X19969776Y-19909014D01*
X19866446Y-19952262D01*
X19754517Y-19999109D01*
X19745483Y-19999109D01*
X19633554Y-19952262D01*
X19530224Y-19909014D01*
X19523916Y-19902660D01*
X19524121Y-19893314D01*
X19537960Y-19863368D01*
X19563757Y-19807549D01*
X19564012Y-19807035D01*
X19600262Y-19738392D01*
X19627319Y-19677582D01*
X19644186Y-19604804D01*
X19649387Y-19511052D01*
X19653267Y-19502981D01*
X19661069Y-19500000D01*
X19838931Y-19500000D01*
X19847204Y-19503427D01*
G37*
G04 #@! TD.AperFunction*
G04 #@! TA.AperFunction,Conductor*
G36*
X20466824Y-22405451D02*
G01*
X20595947Y-22534574D01*
X20599374Y-22542847D01*
X20598542Y-22547180D01*
X20590051Y-22568458D01*
X20538034Y-22698817D01*
X20531117Y-22716151D01*
X20531060Y-22716325D01*
X20531058Y-22716331D01*
X20482932Y-22863645D01*
X20460837Y-22931278D01*
X20390558Y-23185405D01*
X20390545Y-23185459D01*
X20390543Y-23185467D01*
X20320279Y-23478532D01*
X20252912Y-23796900D01*
X20247846Y-23804285D01*
X20239043Y-23805925D01*
X20237000Y-23805292D01*
X19503617Y-23502492D01*
X19497392Y-23496433D01*
X19219885Y-22872596D01*
X19219653Y-22863645D01*
X19225820Y-22857151D01*
X19229932Y-22856159D01*
X19366636Y-22848651D01*
X19461932Y-22843417D01*
X19461934Y-22843417D01*
X19462384Y-22843392D01*
X19462821Y-22843300D01*
X19462826Y-22843299D01*
X19711362Y-22790784D01*
X19711365Y-22790783D01*
X19711782Y-22790695D01*
X19914036Y-22716331D01*
X19960816Y-22699131D01*
X19960818Y-22699130D01*
X19961180Y-22698997D01*
X19961521Y-22698819D01*
X19961524Y-22698817D01*
X20210277Y-22568458D01*
X20210280Y-22568456D01*
X20210578Y-22568300D01*
X20225264Y-22558307D01*
X20239756Y-22548447D01*
X20244055Y-22546645D01*
X20296611Y-22536191D01*
X20296612Y-22536191D01*
X20297741Y-22535966D01*
X20327536Y-22516057D01*
X20380601Y-22480601D01*
X20393939Y-22460639D01*
X20395394Y-22458866D01*
X20445681Y-22408579D01*
X20447372Y-22407179D01*
X20451969Y-22404051D01*
X20460737Y-22402230D01*
X20466824Y-22405451D01*
G37*
G04 #@! TD.AperFunction*
G04 #@! TA.AperFunction,Conductor*
G36*
X22147255Y-22273632D02*
G01*
X22150661Y-22281204D01*
X22169995Y-22603125D01*
X22169999Y-22603185D01*
X22175301Y-22681242D01*
X22189999Y-22897654D01*
X22200529Y-23032408D01*
X22209997Y-23153582D01*
X22210003Y-23153658D01*
X22229996Y-23371028D01*
X22229999Y-23371061D01*
X22248448Y-23536114D01*
X22245961Y-23544717D01*
X22238120Y-23549042D01*
X22236057Y-23549089D01*
X21504076Y-23501266D01*
X21496976Y-23498255D01*
X21117298Y-23153658D01*
X20983703Y-23032407D01*
X20979881Y-23024310D01*
X20982903Y-23015881D01*
X20987345Y-23012832D01*
X21165319Y-22943977D01*
X21165320Y-22943977D01*
X21165735Y-22943816D01*
X21166119Y-22943595D01*
X21166123Y-22943593D01*
X21361463Y-22831137D01*
X21361468Y-22831134D01*
X21361801Y-22830942D01*
X21557867Y-22681049D01*
X21664900Y-22579013D01*
X21753746Y-22494316D01*
X21753754Y-22494308D01*
X21753933Y-22494137D01*
X21946504Y-22274198D01*
X21955307Y-22270205D01*
X22138982Y-22270205D01*
X22147255Y-22273632D01*
G37*
G04 #@! TD.AperFunction*
G04 #@! TA.AperFunction,Conductor*
G36*
X22547814Y-20403149D02*
G01*
X22780243Y-20538767D01*
X22794151Y-20546882D01*
X22794473Y-20547020D01*
X22794476Y-20547022D01*
X22796002Y-20547678D01*
X23048278Y-20656161D01*
X23048649Y-20656264D01*
X23048653Y-20656265D01*
X23301988Y-20726325D01*
X23301992Y-20726326D01*
X23302405Y-20726440D01*
X23302834Y-20726493D01*
X23302840Y-20726494D01*
X23556090Y-20757666D01*
X23556095Y-20757666D01*
X23556532Y-20757720D01*
X23556967Y-20757707D01*
X23556972Y-20757707D01*
X23792592Y-20750549D01*
X23800965Y-20753723D01*
X23804642Y-20761889D01*
X23803761Y-20766709D01*
X23502492Y-21496383D01*
X23496433Y-21502608D01*
X22869460Y-21781510D01*
X22860509Y-21781742D01*
X22854015Y-21775575D01*
X22853439Y-21773976D01*
X22790656Y-21549816D01*
X22765392Y-21459615D01*
X22673695Y-21171217D01*
X22581997Y-20921819D01*
X22490300Y-20711421D01*
X22402698Y-20547678D01*
X22401817Y-20538767D01*
X22404741Y-20533886D01*
X22533645Y-20404982D01*
X22541918Y-20401555D01*
X22547814Y-20403149D01*
G37*
G04 #@! TD.AperFunction*
G04 #@! TA.AperFunction,Conductor*
G36*
X23266445Y-18819312D02*
G01*
X23268383Y-18822836D01*
X23371176Y-19122764D01*
X23483463Y-19450391D01*
X23499406Y-19496910D01*
X23499404Y-19504501D01*
X23339795Y-19969257D01*
X23268739Y-20176161D01*
X23262810Y-20182873D01*
X23253873Y-20183427D01*
X23249837Y-20181049D01*
X23015244Y-19969446D01*
X23015239Y-19969442D01*
X23015034Y-19969257D01*
X22767081Y-19784604D01*
X22766804Y-19784441D01*
X22766799Y-19784438D01*
X22519441Y-19639135D01*
X22519128Y-19638951D01*
X22518796Y-19638808D01*
X22271544Y-19532456D01*
X22271540Y-19532455D01*
X22271176Y-19532298D01*
X22042671Y-19469951D01*
X22035592Y-19464468D01*
X22034464Y-19455584D01*
X22037478Y-19450391D01*
X22161868Y-19326001D01*
X22168535Y-19322685D01*
X22253038Y-19310986D01*
X22383854Y-19292875D01*
X22383860Y-19292874D01*
X22384313Y-19292811D01*
X22384748Y-19292679D01*
X22384751Y-19292678D01*
X22603585Y-19226112D01*
X22603592Y-19226109D01*
X22603981Y-19225991D01*
X22823650Y-19122764D01*
X23043318Y-18983130D01*
X23249998Y-18817499D01*
X23258597Y-18814999D01*
X23266445Y-18819312D01*
G37*
G04 #@! TD.AperFunction*
G04 #@! TA.AperFunction,Conductor*
G36*
X22547814Y-16403149D02*
G01*
X22780243Y-16538767D01*
X22794151Y-16546882D01*
X22794473Y-16547020D01*
X22794476Y-16547022D01*
X22796002Y-16547678D01*
X23048278Y-16656161D01*
X23048649Y-16656264D01*
X23048653Y-16656265D01*
X23301988Y-16726325D01*
X23301992Y-16726326D01*
X23302405Y-16726440D01*
X23302834Y-16726493D01*
X23302840Y-16726494D01*
X23556090Y-16757666D01*
X23556095Y-16757666D01*
X23556532Y-16757720D01*
X23556967Y-16757707D01*
X23556972Y-16757707D01*
X23792592Y-16750549D01*
X23800965Y-16753723D01*
X23804642Y-16761889D01*
X23803761Y-16766709D01*
X23502492Y-17496383D01*
X23496433Y-17502608D01*
X22869460Y-17781510D01*
X22860509Y-17781742D01*
X22854015Y-17775575D01*
X22853439Y-17773976D01*
X22790656Y-17549816D01*
X22765392Y-17459615D01*
X22673695Y-17171217D01*
X22581997Y-16921819D01*
X22490300Y-16711421D01*
X22402698Y-16547678D01*
X22401817Y-16538767D01*
X22404741Y-16533886D01*
X22533645Y-16404982D01*
X22541918Y-16401555D01*
X22547814Y-16403149D01*
G37*
G04 #@! TD.AperFunction*
G04 #@! TA.AperFunction,Conductor*
G36*
X23547453Y-14764355D02*
G01*
X23548663Y-14770355D01*
X23500975Y-15496632D01*
X23497962Y-15503730D01*
X23448644Y-15558029D01*
X23030086Y-16018862D01*
X23021987Y-16022683D01*
X23013559Y-16019657D01*
X23011492Y-16017177D01*
X22927514Y-15882119D01*
X22861704Y-15776279D01*
X22861697Y-15776268D01*
X22861594Y-15776103D01*
X22703518Y-15558029D01*
X22650170Y-15496632D01*
X22545648Y-15376342D01*
X22545647Y-15376341D01*
X22545442Y-15376105D01*
X22387366Y-15230332D01*
X22387034Y-15230101D01*
X22387028Y-15230097D01*
X22240801Y-15128693D01*
X22235955Y-15121163D01*
X22237854Y-15112412D01*
X22239195Y-15110806D01*
X22366735Y-14983266D01*
X22375008Y-14979839D01*
X22376291Y-14979910D01*
X22606568Y-15005514D01*
X22842426Y-14995697D01*
X22842851Y-14995614D01*
X22842854Y-14995614D01*
X22936301Y-14977445D01*
X23078284Y-14949839D01*
X23199051Y-14907904D01*
X23313797Y-14868060D01*
X23313804Y-14868057D01*
X23314141Y-14867940D01*
X23531756Y-14759123D01*
X23540687Y-14758488D01*
X23547453Y-14764355D01*
G37*
G04 #@! TD.AperFunction*
G04 #@! TA.AperFunction,Conductor*
G36*
X23266474Y-12819178D02*
G01*
X23268280Y-12822534D01*
X23473174Y-13420370D01*
X23499406Y-13496910D01*
X23499404Y-13504501D01*
X23353079Y-13930576D01*
X23268875Y-14175764D01*
X23262946Y-14182476D01*
X23254009Y-14183030D01*
X23249790Y-14180483D01*
X23017963Y-13962186D01*
X22772939Y-13770461D01*
X22527915Y-13617738D01*
X22283945Y-13504503D01*
X22283258Y-13504184D01*
X22283254Y-13504182D01*
X22282891Y-13504014D01*
X22216747Y-13483842D01*
X22056508Y-13434974D01*
X22049594Y-13429283D01*
X22048730Y-13420370D01*
X22051648Y-13415510D01*
X22176407Y-13290751D01*
X22183338Y-13287401D01*
X22395571Y-13262898D01*
X22395573Y-13262898D01*
X22396029Y-13262845D01*
X22612768Y-13202256D01*
X22613151Y-13202086D01*
X22613154Y-13202085D01*
X22684619Y-13170379D01*
X22829507Y-13106100D01*
X23046247Y-12974378D01*
X23250063Y-12817065D01*
X23258706Y-12814723D01*
X23266474Y-12819178D01*
G37*
G04 #@! TD.AperFunction*
G04 #@! TA.AperFunction,Conductor*
G36*
X19031388Y-5601390D02*
G01*
X19063516Y-5620113D01*
X19063833Y-5620248D01*
X19063838Y-5620251D01*
X19107617Y-5638959D01*
X19107620Y-5638960D01*
X19107992Y-5639119D01*
X19108384Y-5639225D01*
X19108388Y-5639227D01*
X19143997Y-5648909D01*
X19152468Y-5651212D01*
X19152898Y-5651262D01*
X19152903Y-5651263D01*
X19174073Y-5653728D01*
X19196944Y-5656391D01*
X19236309Y-5654857D01*
X19245038Y-5658275D01*
X19376214Y-5789451D01*
X19379641Y-5797724D01*
X19377820Y-5803991D01*
X19326273Y-5885215D01*
X19269704Y-5986352D01*
X19269645Y-5986470D01*
X19269637Y-5986485D01*
X19213234Y-6099293D01*
X19213136Y-6099489D01*
X19156568Y-6224626D01*
X19156520Y-6224743D01*
X19104456Y-6350962D01*
X19098133Y-6357304D01*
X19089193Y-6357323D01*
X18809473Y-6242390D01*
X18803123Y-6236076D01*
X18802847Y-6227790D01*
X18846626Y-6099489D01*
X19014426Y-5607720D01*
X19020340Y-5600997D01*
X19029276Y-5600426D01*
X19031388Y-5601390D01*
G37*
G04 #@! TD.AperFunction*
G04 #@! TA.AperFunction,Conductor*
G36*
X23027664Y-2979443D02*
G01*
X23030722Y-2981850D01*
X23256655Y-3230831D01*
X23497261Y-3495982D01*
X23500271Y-3503065D01*
X23543102Y-4146380D01*
X23548706Y-4230557D01*
X23545836Y-4239039D01*
X23537809Y-4243008D01*
X23532230Y-4242003D01*
X23320359Y-4146655D01*
X23319999Y-4146493D01*
X23089999Y-4077856D01*
X23089584Y-4077795D01*
X23089579Y-4077794D01*
X22860436Y-4044153D01*
X22860434Y-4044153D01*
X22859999Y-4044089D01*
X22859559Y-4044091D01*
X22859558Y-4044091D01*
X22734378Y-4044691D01*
X22629999Y-4045191D01*
X22420365Y-4077978D01*
X22400902Y-4081022D01*
X22399094Y-4081163D01*
X22230999Y-4081163D01*
X22222726Y-4077736D01*
X22219299Y-4069463D01*
X22223269Y-4060681D01*
X22363667Y-3937098D01*
X22363933Y-3936864D01*
X22527867Y-3753565D01*
X22528029Y-3753346D01*
X22528035Y-3753338D01*
X22611748Y-3639821D01*
X22691801Y-3531266D01*
X22855735Y-3269968D01*
X23011789Y-2984106D01*
X23018761Y-2978486D01*
X23027664Y-2979443D01*
G37*
G04 #@! TD.AperFunction*
G04 #@! TA.AperFunction,Conductor*
G36*
X23266431Y-10819418D02*
G01*
X23268473Y-10823064D01*
X23499404Y-11495499D01*
X23499406Y-11503089D01*
X23268583Y-12176583D01*
X23262659Y-12183299D01*
X23253722Y-12183858D01*
X23249893Y-12181667D01*
X23037683Y-11999460D01*
X23037678Y-11999456D01*
X23037460Y-11999269D01*
X23037223Y-11999105D01*
X23037217Y-11999101D01*
X22812230Y-11843969D01*
X22811933Y-11843764D01*
X22586407Y-11726395D01*
X22586029Y-11726262D01*
X22586024Y-11726260D01*
X22361312Y-11647313D01*
X22361307Y-11647312D01*
X22360881Y-11647162D01*
X22138949Y-11606721D01*
X22132773Y-11603484D01*
X22009201Y-11479912D01*
X22005774Y-11471639D01*
X22009201Y-11463366D01*
X22015060Y-11460191D01*
X22032616Y-11456490D01*
X22247744Y-11411134D01*
X22501554Y-11318623D01*
X22501876Y-11318456D01*
X22501881Y-11318454D01*
X22755066Y-11187267D01*
X22755067Y-11187266D01*
X22755365Y-11187112D01*
X22755645Y-11186924D01*
X23008940Y-11016760D01*
X23008946Y-11016755D01*
X23009176Y-11016601D01*
X23249961Y-10817843D01*
X23258522Y-10815219D01*
X23266431Y-10819418D01*
G37*
G04 #@! TD.AperFunction*
G04 #@! TA.AperFunction,Conductor*
G36*
X22869660Y-9218579D02*
G01*
X23496507Y-9497425D01*
X23502512Y-9503519D01*
X23755711Y-10096336D01*
X23814330Y-10233582D01*
X23814428Y-10242537D01*
X23808166Y-10248938D01*
X23803491Y-10249878D01*
X23620307Y-10248624D01*
X23569530Y-10248276D01*
X23569529Y-10248276D01*
X23569083Y-10248273D01*
X23316825Y-10285547D01*
X23316408Y-10285673D01*
X23316404Y-10285674D01*
X23064939Y-10361708D01*
X23064932Y-10361711D01*
X23064567Y-10361821D01*
X23064219Y-10361980D01*
X22812630Y-10476948D01*
X22812626Y-10476950D01*
X22812309Y-10477095D01*
X22812006Y-10477281D01*
X22812001Y-10477283D01*
X22567912Y-10626562D01*
X22559067Y-10627955D01*
X22553535Y-10624854D01*
X22424564Y-10495883D01*
X22421137Y-10487610D01*
X22422349Y-10482425D01*
X22424984Y-10477095D01*
X22506321Y-10312556D01*
X22594013Y-10096164D01*
X22681705Y-9840771D01*
X22769397Y-9546379D01*
X22853590Y-9226293D01*
X22859009Y-9219163D01*
X22867881Y-9217954D01*
X22869660Y-9218579D01*
G37*
G04 #@! TD.AperFunction*
G04 #@! TA.AperFunction,Conductor*
G36*
X22869911Y-7218690D02*
G01*
X23496584Y-7497459D01*
X23502530Y-7503421D01*
X23655045Y-7848782D01*
X23825045Y-8233737D01*
X23825252Y-8242689D01*
X23819068Y-8249166D01*
X23814449Y-8250163D01*
X23735448Y-8250888D01*
X23583786Y-8252279D01*
X23423737Y-8278872D01*
X23335771Y-8293487D01*
X23335768Y-8293488D01*
X23335345Y-8293558D01*
X23086904Y-8373838D01*
X22838464Y-8493117D01*
X22597942Y-8646352D01*
X22589125Y-8647907D01*
X22583384Y-8644757D01*
X22457569Y-8518942D01*
X22454142Y-8510669D01*
X22457569Y-8502396D01*
X22508866Y-8451098D01*
X22510639Y-8449643D01*
X22529643Y-8436945D01*
X22530601Y-8436305D01*
X22566057Y-8383240D01*
X22585966Y-8353445D01*
X22597893Y-8293487D01*
X22605183Y-8256835D01*
X22605408Y-8255704D01*
X22600725Y-8232161D01*
X22600500Y-8229878D01*
X22600500Y-8141296D01*
X22601229Y-8137229D01*
X22611956Y-8108292D01*
X22611962Y-8108276D01*
X22611997Y-8108180D01*
X22693694Y-7848782D01*
X22775392Y-7550384D01*
X22786764Y-7503422D01*
X22853787Y-7226628D01*
X22859064Y-7219393D01*
X22867911Y-7218010D01*
X22869911Y-7218690D01*
G37*
G04 #@! TD.AperFunction*
G04 #@! TA.AperFunction,Conductor*
G36*
X22869911Y-5218690D02*
G01*
X23496584Y-5497459D01*
X23502530Y-5503421D01*
X23655045Y-5848782D01*
X23825045Y-6233737D01*
X23825252Y-6242689D01*
X23819068Y-6249166D01*
X23814449Y-6250163D01*
X23735448Y-6250888D01*
X23583786Y-6252279D01*
X23423737Y-6278872D01*
X23335771Y-6293487D01*
X23335768Y-6293488D01*
X23335345Y-6293558D01*
X23086904Y-6373838D01*
X22838464Y-6493117D01*
X22838181Y-6493298D01*
X22838178Y-6493299D01*
X22812002Y-6509976D01*
X22597942Y-6646352D01*
X22589125Y-6647907D01*
X22583384Y-6644757D01*
X22454315Y-6515688D01*
X22450888Y-6507415D01*
X22451920Y-6502610D01*
X22456114Y-6493299D01*
X22530300Y-6328578D01*
X22558555Y-6252354D01*
X22611956Y-6108292D01*
X22611962Y-6108276D01*
X22611997Y-6108180D01*
X22693694Y-5848782D01*
X22775392Y-5550384D01*
X22786764Y-5503422D01*
X22853787Y-5226628D01*
X22859064Y-5219393D01*
X22867911Y-5218010D01*
X22869911Y-5218690D01*
G37*
G04 #@! TD.AperFunction*
G04 #@! TA.AperFunction,Conductor*
G36*
X16418299Y-2880050D02*
G01*
X16419606Y-2881607D01*
X16494304Y-2988283D01*
X16576997Y-3088806D01*
X16577195Y-3089005D01*
X16577199Y-3089009D01*
X16659441Y-3171511D01*
X16659448Y-3171517D01*
X16659690Y-3171760D01*
X16742383Y-3237145D01*
X16813080Y-3278024D01*
X16818525Y-3285131D01*
X16817351Y-3294009D01*
X16816224Y-3295625D01*
X16507129Y-3667970D01*
X16499208Y-3672147D01*
X16492092Y-3670520D01*
X16052459Y-3405829D01*
X16047139Y-3398626D01*
X16048471Y-3389771D01*
X16049854Y-3387917D01*
X16085983Y-3348350D01*
X16086217Y-3348094D01*
X16132210Y-3284225D01*
X16135897Y-3278023D01*
X16178104Y-3207022D01*
X16178107Y-3207016D01*
X16178203Y-3206855D01*
X16224197Y-3115984D01*
X16236085Y-3089009D01*
X16269308Y-3013616D01*
X16271742Y-3010061D01*
X16401753Y-2880050D01*
X16410026Y-2876623D01*
X16418299Y-2880050D01*
G37*
G04 #@! TD.AperFunction*
G04 #@! TA.AperFunction,Conductor*
G36*
X12245955Y-1194718D02*
G01*
X12252279Y-1201057D01*
X12252911Y-1203096D01*
X12320279Y-1521467D01*
X12390558Y-1814594D01*
X12460837Y-2068721D01*
X12460875Y-2068837D01*
X12460877Y-2068844D01*
X12506813Y-2209452D01*
X12531117Y-2283848D01*
X12531184Y-2284015D01*
X12531188Y-2284027D01*
X12558071Y-2351398D01*
X12598541Y-2452819D01*
X12598424Y-2461771D01*
X12595947Y-2465426D01*
X12466824Y-2594549D01*
X12458551Y-2597976D01*
X12451969Y-2595949D01*
X12210578Y-2431699D01*
X12210277Y-2431541D01*
X11961524Y-2301182D01*
X11961521Y-2301180D01*
X11961180Y-2301002D01*
X11914525Y-2283848D01*
X11712185Y-2209452D01*
X11712183Y-2209451D01*
X11711782Y-2209304D01*
X11711365Y-2209216D01*
X11711362Y-2209215D01*
X11462826Y-2156700D01*
X11462821Y-2156699D01*
X11462384Y-2156607D01*
X11461934Y-2156582D01*
X11461932Y-2156582D01*
X11379250Y-2152041D01*
X11229932Y-2143841D01*
X11221861Y-2139966D01*
X11218893Y-2131517D01*
X11219885Y-2127404D01*
X11497392Y-1503567D01*
X11503617Y-1497508D01*
X12237000Y-1194708D01*
X12245955Y-1194718D01*
G37*
G04 #@! TD.AperFunction*
G04 #@! TA.AperFunction,Conductor*
G36*
X14324399Y-2955372D02*
G01*
X14466261Y-3050987D01*
X14532241Y-3087532D01*
X14615869Y-3133853D01*
X14615875Y-3133856D01*
X14616117Y-3133990D01*
X14616374Y-3134101D01*
X14616375Y-3134102D01*
X14765691Y-3198871D01*
X14765696Y-3198873D01*
X14765973Y-3198993D01*
X14766258Y-3199082D01*
X14766265Y-3199085D01*
X14915516Y-3245898D01*
X14915519Y-3245899D01*
X14915829Y-3245996D01*
X14916148Y-3246058D01*
X14916153Y-3246059D01*
X15051645Y-3272283D01*
X15059116Y-3277220D01*
X15060909Y-3285993D01*
X15060242Y-3288219D01*
X14996895Y-3442081D01*
X14903121Y-3669844D01*
X14896802Y-3676190D01*
X14894480Y-3676885D01*
X14688882Y-3715773D01*
X14435423Y-3763713D01*
X14426658Y-3761884D01*
X14422020Y-3755503D01*
X14375017Y-3594899D01*
X14375009Y-3594872D01*
X14374996Y-3594829D01*
X14324993Y-3441973D01*
X14274990Y-3307117D01*
X14224987Y-3190261D01*
X14196581Y-3134102D01*
X14178810Y-3098968D01*
X14178133Y-3090039D01*
X14180977Y-3085414D01*
X14309589Y-2956802D01*
X14317862Y-2953375D01*
X14324399Y-2955372D01*
G37*
G04 #@! TD.AperFunction*
G04 #@! TA.AperFunction,Conductor*
G36*
X15550499Y-19053427D02*
G01*
X15553012Y-19057168D01*
X15583999Y-19130910D01*
X15617999Y-19201620D01*
X15651999Y-19262130D01*
X15652130Y-19262323D01*
X15652135Y-19262332D01*
X15682351Y-19307042D01*
X15685999Y-19312441D01*
X15686203Y-19312681D01*
X15686204Y-19312683D01*
X15712586Y-19343806D01*
X15715321Y-19352332D01*
X15711406Y-19360141D01*
X15457745Y-19584160D01*
X15449275Y-19587068D01*
X15442255Y-19584160D01*
X15188593Y-19360141D01*
X15184660Y-19352096D01*
X15187413Y-19343806D01*
X15213794Y-19312683D01*
X15213795Y-19312682D01*
X15213999Y-19312441D01*
X15217647Y-19307042D01*
X15247863Y-19262332D01*
X15247868Y-19262323D01*
X15247999Y-19262130D01*
X15281999Y-19201620D01*
X15315999Y-19130910D01*
X15346988Y-19057167D01*
X15353352Y-19050868D01*
X15357774Y-19050000D01*
X15542226Y-19050000D01*
X15550499Y-19053427D01*
G37*
G04 #@! TD.AperFunction*
G04 #@! TA.AperFunction,Conductor*
G36*
X16287609Y-5283986D02*
G01*
X16494477Y-5323115D01*
X16501969Y-5328019D01*
X16503121Y-5330155D01*
X16660241Y-5711777D01*
X16660222Y-5720730D01*
X16653876Y-5727049D01*
X16651645Y-5727717D01*
X16516153Y-5753939D01*
X16516148Y-5753940D01*
X16515829Y-5754002D01*
X16515519Y-5754099D01*
X16515516Y-5754100D01*
X16366265Y-5800913D01*
X16366258Y-5800916D01*
X16365973Y-5801005D01*
X16365696Y-5801125D01*
X16365691Y-5801127D01*
X16216375Y-5865896D01*
X16216117Y-5866008D01*
X16215875Y-5866142D01*
X16215869Y-5866145D01*
X16152884Y-5901032D01*
X16066261Y-5949011D01*
X15924399Y-6044627D01*
X15915626Y-6046409D01*
X15909589Y-6043198D01*
X15780977Y-5914586D01*
X15777550Y-5906313D01*
X15778810Y-5901032D01*
X15824900Y-5809910D01*
X15824987Y-5809738D01*
X15874990Y-5692882D01*
X15924993Y-5558026D01*
X15974996Y-5405170D01*
X15975009Y-5405127D01*
X15975017Y-5405100D01*
X16022020Y-5244496D01*
X16027633Y-5237518D01*
X16035423Y-5236286D01*
X16287609Y-5283986D01*
G37*
G04 #@! TD.AperFunction*
G04 #@! TA.AperFunction,Conductor*
G36*
X15364568Y-5351920D02*
G01*
X15372621Y-5355837D01*
X15375550Y-5362983D01*
X15384516Y-5533022D01*
X15384520Y-5533090D01*
X15384520Y-5533093D01*
X15394042Y-5695636D01*
X15394042Y-5695639D01*
X15401638Y-5810954D01*
X15403563Y-5840185D01*
X15413084Y-5966731D01*
X15413088Y-5966781D01*
X15421490Y-6062556D01*
X15418799Y-6071097D01*
X15410857Y-6075233D01*
X15409835Y-6075278D01*
X15227291Y-6075278D01*
X15219216Y-6072045D01*
X15111600Y-5969404D01*
X15111598Y-5969402D01*
X15111409Y-5969222D01*
X15000214Y-5881166D01*
X14999954Y-5881002D01*
X14889328Y-5811305D01*
X14889324Y-5811303D01*
X14889018Y-5811110D01*
X14888693Y-5810958D01*
X14888686Y-5810954D01*
X14833326Y-5785038D01*
X14777822Y-5759055D01*
X14777423Y-5758933D01*
X14777421Y-5758932D01*
X14680734Y-5729320D01*
X14673827Y-5723621D01*
X14672973Y-5714707D01*
X14674048Y-5712248D01*
X14896377Y-5330226D01*
X14903500Y-5324799D01*
X14907190Y-5324432D01*
X15364568Y-5351920D01*
G37*
G04 #@! TD.AperFunction*
G04 #@! TA.AperFunction,Conductor*
G36*
X9081044Y-10109284D02*
G01*
X9204583Y-10160235D01*
X9296487Y-10198139D01*
X9302852Y-10204518D01*
X9391366Y-10420467D01*
X9391333Y-10429421D01*
X9385303Y-10435590D01*
X9317833Y-10465655D01*
X9280259Y-10482398D01*
X9280244Y-10482405D01*
X9280217Y-10482417D01*
X9280173Y-10482438D01*
X9197841Y-10521308D01*
X9196918Y-10521696D01*
X9124871Y-10548445D01*
X9122903Y-10548986D01*
X9089005Y-10555184D01*
X9037288Y-10564640D01*
X9035678Y-10564821D01*
X8997630Y-10566412D01*
X8924026Y-10569490D01*
X8915617Y-10566412D01*
X8911837Y-10557800D01*
X8911837Y-10379598D01*
X8915264Y-10371325D01*
X8921250Y-10368124D01*
X8979944Y-10356426D01*
X8979945Y-10356425D01*
X8981783Y-10356059D01*
X9016834Y-10317551D01*
X9032632Y-10259446D01*
X9044701Y-10187406D01*
X9045015Y-10186041D01*
X9065364Y-10116803D01*
X9070984Y-10109832D01*
X9079888Y-10108877D01*
X9081044Y-10109284D01*
G37*
G04 #@! TD.AperFunction*
G04 #@! TA.AperFunction,Conductor*
G36*
X12460785Y-4248519D02*
G01*
X12525782Y-4312455D01*
X12525897Y-4312568D01*
X12526023Y-4312678D01*
X12581128Y-4360862D01*
X12581133Y-4360866D01*
X12581426Y-4361122D01*
X12634577Y-4396447D01*
X12700832Y-4428947D01*
X12700961Y-4429002D01*
X12700973Y-4429007D01*
X12776163Y-4460785D01*
X12795671Y-4469030D01*
X12700707Y-4700707D01*
X12479738Y-4791282D01*
X12470784Y-4791249D01*
X12464525Y-4785012D01*
X12435272Y-4715798D01*
X12429007Y-4700973D01*
X12429002Y-4700961D01*
X12428947Y-4700832D01*
X12396447Y-4634577D01*
X12361122Y-4581426D01*
X12360866Y-4581133D01*
X12360862Y-4581128D01*
X12312678Y-4526023D01*
X12312568Y-4525897D01*
X12276711Y-4489445D01*
X12248519Y-4460785D01*
X12245160Y-4452484D01*
X12248587Y-4444307D01*
X12444307Y-4248587D01*
X12452580Y-4245160D01*
X12460785Y-4248519D01*
G37*
G04 #@! TD.AperFunction*
G04 #@! TA.AperFunction,Conductor*
G36*
X12002574Y-3862689D02*
G01*
X12004287Y-3864180D01*
X12063639Y-3926930D01*
X12127279Y-3985214D01*
X12190918Y-4034498D01*
X12254558Y-4074782D01*
X12254827Y-4074914D01*
X12303526Y-4098854D01*
X12309438Y-4105579D01*
X12308864Y-4114516D01*
X12306637Y-4117627D01*
X12110092Y-4314172D01*
X12101819Y-4317599D01*
X12100415Y-4317514D01*
X11918989Y-4295558D01*
X11785998Y-4285861D01*
X11732038Y-4281927D01*
X11732034Y-4281927D01*
X11731913Y-4281918D01*
X11544836Y-4277278D01*
X11544706Y-4277281D01*
X11544696Y-4277281D01*
X11357880Y-4281636D01*
X11357872Y-4281636D01*
X11357760Y-4281639D01*
X11357640Y-4281648D01*
X11357631Y-4281648D01*
X11184473Y-4294015D01*
X11175977Y-4291186D01*
X11171970Y-4283178D01*
X11171993Y-4281237D01*
X11172370Y-4277282D01*
X11198442Y-4003233D01*
X11202637Y-3995322D01*
X11208149Y-3992804D01*
X11993847Y-3860682D01*
X12002574Y-3862689D01*
G37*
G04 #@! TD.AperFunction*
G04 #@! TA.AperFunction,Conductor*
G36*
X6980242Y-10193509D02*
G01*
X6984725Y-10197737D01*
X7147276Y-10463902D01*
X7148664Y-10472749D01*
X7147276Y-10476098D01*
X6984725Y-10742263D01*
X6977489Y-10747538D01*
X6971329Y-10747357D01*
X6896145Y-10724443D01*
X6896139Y-10724441D01*
X6896000Y-10724399D01*
X6812000Y-10703599D01*
X6811836Y-10703568D01*
X6811828Y-10703566D01*
X6773805Y-10696324D01*
X6728000Y-10687599D01*
X6727826Y-10687576D01*
X6727821Y-10687575D01*
X6644176Y-10676422D01*
X6644160Y-10676420D01*
X6644000Y-10676399D01*
X6600000Y-10673047D01*
X6599999Y-10673047D01*
X6560000Y-10670000D01*
X6560000Y-10270000D01*
X6599999Y-10266952D01*
X6600000Y-10266952D01*
X6644000Y-10263599D01*
X6644161Y-10263578D01*
X6644176Y-10263576D01*
X6727821Y-10252423D01*
X6727826Y-10252422D01*
X6728000Y-10252399D01*
X6773805Y-10243674D01*
X6811828Y-10236432D01*
X6811836Y-10236430D01*
X6812000Y-10236399D01*
X6896000Y-10215599D01*
X6896139Y-10215557D01*
X6896145Y-10215555D01*
X6971329Y-10192643D01*
X6980242Y-10193509D01*
G37*
G04 #@! TD.AperFunction*
G04 #@! TA.AperFunction,Conductor*
G36*
X6228671Y-10192643D02*
G01*
X6303855Y-10215555D01*
X6303861Y-10215557D01*
X6304000Y-10215599D01*
X6388000Y-10236399D01*
X6388164Y-10236430D01*
X6388172Y-10236432D01*
X6426195Y-10243674D01*
X6472000Y-10252399D01*
X6472174Y-10252422D01*
X6472179Y-10252423D01*
X6555824Y-10263576D01*
X6555839Y-10263578D01*
X6556000Y-10263599D01*
X6600000Y-10266952D01*
X6600001Y-10266952D01*
X6640000Y-10270000D01*
X6640000Y-10670000D01*
X6600001Y-10673047D01*
X6600000Y-10673047D01*
X6556000Y-10676399D01*
X6555840Y-10676420D01*
X6555824Y-10676422D01*
X6472179Y-10687575D01*
X6472174Y-10687576D01*
X6472000Y-10687599D01*
X6426195Y-10696324D01*
X6388172Y-10703566D01*
X6388164Y-10703568D01*
X6388000Y-10703599D01*
X6304000Y-10724399D01*
X6303861Y-10724441D01*
X6303855Y-10724443D01*
X6228671Y-10747357D01*
X6219758Y-10746491D01*
X6215275Y-10742263D01*
X6052724Y-10476098D01*
X6051336Y-10467251D01*
X6052724Y-10463902D01*
X6215275Y-10197737D01*
X6222511Y-10192462D01*
X6228671Y-10192643D01*
G37*
G04 #@! TD.AperFunction*
G04 #@! TA.AperFunction,Conductor*
G36*
X20402533Y-14823473D02*
G01*
X20408816Y-14829751D01*
X20438698Y-14901145D01*
X20499109Y-15045483D01*
X20499109Y-15054517D01*
X20409235Y-15269249D01*
X20402880Y-15275558D01*
X20393925Y-15275525D01*
X20393053Y-15275117D01*
X20307988Y-15230970D01*
X20306470Y-15230029D01*
X20241260Y-15182291D01*
X20184410Y-15141375D01*
X20114520Y-15113010D01*
X20019992Y-15103463D01*
X20012105Y-15099222D01*
X20009468Y-15091822D01*
X20009468Y-14913955D01*
X20012895Y-14905682D01*
X20021022Y-14902256D01*
X20109914Y-14901145D01*
X20109926Y-14901144D01*
X20110121Y-14901142D01*
X20110328Y-14901125D01*
X20110331Y-14901125D01*
X20132491Y-14899320D01*
X20181939Y-14895292D01*
X20182330Y-14895205D01*
X20182337Y-14895204D01*
X20242557Y-14881814D01*
X20242560Y-14881813D01*
X20242916Y-14881734D01*
X20243260Y-14881611D01*
X20310919Y-14857398D01*
X20310926Y-14857395D01*
X20311047Y-14857352D01*
X20378230Y-14829752D01*
X20393578Y-14823447D01*
X20402533Y-14823473D01*
G37*
G04 #@! TD.AperFunction*
G04 #@! TA.AperFunction,Conductor*
G36*
X17840707Y-7899293D02*
G01*
X17840741Y-7899473D01*
X17841095Y-7901331D01*
X17899683Y-8208701D01*
X17897866Y-8217470D01*
X17890576Y-8222346D01*
X17815330Y-8238022D01*
X17815026Y-8238121D01*
X17815023Y-8238122D01*
X17729116Y-8266150D01*
X17729109Y-8266153D01*
X17728823Y-8266246D01*
X17705318Y-8276686D01*
X17642559Y-8304561D01*
X17642550Y-8304565D01*
X17642317Y-8304669D01*
X17555811Y-8353292D01*
X17555595Y-8353439D01*
X17477311Y-8406672D01*
X17468543Y-8408490D01*
X17462459Y-8405270D01*
X17334520Y-8277331D01*
X17331093Y-8269058D01*
X17332922Y-8262777D01*
X17376224Y-8194719D01*
X17376229Y-8194710D01*
X17376307Y-8194588D01*
X17424730Y-8108281D01*
X17473153Y-8011774D01*
X17521576Y-7905068D01*
X17528794Y-7887644D01*
X17541596Y-7856736D01*
X17541596Y-7856735D01*
X17570000Y-7788162D01*
X17840707Y-7899293D01*
G37*
G04 #@! TD.AperFunction*
G04 #@! TA.AperFunction,Conductor*
G36*
X17750382Y-19063427D02*
G01*
X17752956Y-19067315D01*
X17786000Y-19149094D01*
X17822000Y-19227389D01*
X17858000Y-19294884D01*
X17858110Y-19295058D01*
X17858118Y-19295071D01*
X17883563Y-19335142D01*
X17894000Y-19351579D01*
X17922841Y-19388348D01*
X17925251Y-19396973D01*
X17920935Y-19404712D01*
X17720343Y-19564845D01*
X17657299Y-19615173D01*
X17648696Y-19617656D01*
X17642701Y-19615173D01*
X17579657Y-19564845D01*
X17379065Y-19404712D01*
X17374738Y-19396873D01*
X17377159Y-19388348D01*
X17406000Y-19351579D01*
X17416437Y-19335142D01*
X17441882Y-19295071D01*
X17441890Y-19295058D01*
X17442000Y-19294884D01*
X17478000Y-19227389D01*
X17514000Y-19149094D01*
X17547044Y-19067316D01*
X17553320Y-19060930D01*
X17557891Y-19060000D01*
X17742109Y-19060000D01*
X17750382Y-19063427D01*
G37*
G04 #@! TD.AperFunction*
G04 #@! TA.AperFunction,Conductor*
G36*
X7382475Y-10207393D02*
G01*
X7446860Y-10256125D01*
X7520145Y-10300793D01*
X7520441Y-10300930D01*
X7520447Y-10300933D01*
X7554706Y-10316765D01*
X7593430Y-10334662D01*
X7666714Y-10357731D01*
X7706397Y-10364374D01*
X7730232Y-10368365D01*
X7737826Y-10373110D01*
X7740000Y-10379904D01*
X7740000Y-10560096D01*
X7736573Y-10568369D01*
X7730232Y-10571635D01*
X7714636Y-10574246D01*
X7666714Y-10582268D01*
X7593430Y-10605336D01*
X7554706Y-10623233D01*
X7520447Y-10639065D01*
X7520441Y-10639068D01*
X7520145Y-10639205D01*
X7519865Y-10639376D01*
X7519855Y-10639381D01*
X7465478Y-10672526D01*
X7446860Y-10683874D01*
X7446628Y-10684050D01*
X7446623Y-10684053D01*
X7417036Y-10706448D01*
X7382475Y-10732607D01*
X7373811Y-10734868D01*
X7366429Y-10730771D01*
X7289965Y-10639065D01*
X7155247Y-10477492D01*
X7152581Y-10468944D01*
X7155246Y-10462508D01*
X7366429Y-10209229D01*
X7374359Y-10205070D01*
X7382475Y-10207393D01*
G37*
G04 #@! TD.AperFunction*
G04 #@! TA.AperFunction,Conductor*
G36*
X13131001Y-8459236D02*
G01*
X13346177Y-8547436D01*
X13352564Y-8553823D01*
X13370209Y-8596871D01*
X13440762Y-8768993D01*
X13440729Y-8777947D01*
X13434373Y-8784256D01*
X13433269Y-8784645D01*
X13397602Y-8795213D01*
X13376665Y-8801417D01*
X13374459Y-8801845D01*
X13340312Y-8805124D01*
X13320692Y-8807008D01*
X13320560Y-8807020D01*
X13309264Y-8807941D01*
X13273936Y-8810822D01*
X13273933Y-8810823D01*
X13273193Y-8810883D01*
X13272492Y-8811127D01*
X13272489Y-8811128D01*
X13226666Y-8827101D01*
X13225748Y-8827421D01*
X13224986Y-8828020D01*
X13224983Y-8828022D01*
X13198562Y-8848804D01*
X13178874Y-8864289D01*
X13170254Y-8866710D01*
X13163369Y-8863366D01*
X13036634Y-8736631D01*
X13033207Y-8728358D01*
X13035711Y-8721125D01*
X13071976Y-8675016D01*
X13072578Y-8674251D01*
X13089115Y-8626805D01*
X13092984Y-8579382D01*
X13097188Y-8535594D01*
X13098154Y-8525539D01*
X13098582Y-8523333D01*
X13115352Y-8466740D01*
X13120988Y-8459781D01*
X13129894Y-8458846D01*
X13131001Y-8459236D01*
G37*
G04 #@! TD.AperFunction*
G04 #@! TA.AperFunction,Conductor*
G36*
X5880242Y-14543509D02*
G01*
X5884725Y-14547737D01*
X6047276Y-14813902D01*
X6048664Y-14822749D01*
X6047276Y-14826098D01*
X5884725Y-15092263D01*
X5877489Y-15097538D01*
X5871329Y-15097357D01*
X5796145Y-15074443D01*
X5796139Y-15074441D01*
X5796000Y-15074399D01*
X5712000Y-15053599D01*
X5628000Y-15037599D01*
X5627826Y-15037576D01*
X5627821Y-15037575D01*
X5544176Y-15026422D01*
X5544160Y-15026420D01*
X5544000Y-15026399D01*
X5500000Y-15023047D01*
X5499999Y-15023047D01*
X5460000Y-15020000D01*
X5460000Y-14620000D01*
X5499999Y-14616952D01*
X5500000Y-14616952D01*
X5544000Y-14613599D01*
X5544161Y-14613578D01*
X5544176Y-14613576D01*
X5627821Y-14602423D01*
X5627826Y-14602422D01*
X5628000Y-14602399D01*
X5673805Y-14593674D01*
X5711828Y-14586432D01*
X5711836Y-14586430D01*
X5712000Y-14586399D01*
X5796000Y-14565599D01*
X5796139Y-14565557D01*
X5796145Y-14565555D01*
X5871329Y-14542643D01*
X5880242Y-14543509D01*
G37*
G04 #@! TD.AperFunction*
G04 #@! TA.AperFunction,Conductor*
G36*
X5128671Y-14542643D02*
G01*
X5203855Y-14565555D01*
X5203861Y-14565557D01*
X5204000Y-14565599D01*
X5288000Y-14586399D01*
X5288164Y-14586430D01*
X5288172Y-14586432D01*
X5326195Y-14593674D01*
X5372000Y-14602399D01*
X5372174Y-14602422D01*
X5372179Y-14602423D01*
X5455824Y-14613576D01*
X5455839Y-14613578D01*
X5456000Y-14613599D01*
X5500000Y-14616952D01*
X5500001Y-14616952D01*
X5540000Y-14620000D01*
X5540000Y-15020000D01*
X5500001Y-15023047D01*
X5500000Y-15023047D01*
X5456000Y-15026399D01*
X5455840Y-15026420D01*
X5455824Y-15026422D01*
X5372179Y-15037575D01*
X5372174Y-15037576D01*
X5372000Y-15037599D01*
X5288000Y-15053599D01*
X5204000Y-15074399D01*
X5203861Y-15074441D01*
X5203855Y-15074443D01*
X5128671Y-15097357D01*
X5119758Y-15096491D01*
X5115275Y-15092263D01*
X4952724Y-14826098D01*
X4951336Y-14817251D01*
X4952724Y-14813902D01*
X5068634Y-14624109D01*
X5115275Y-14547737D01*
X5122511Y-14542462D01*
X5128671Y-14542643D01*
G37*
G04 #@! TD.AperFunction*
G04 #@! TA.AperFunction,Conductor*
G36*
X4454732Y-15020000D02*
G01*
X4423220Y-15024816D01*
X4382379Y-15031058D01*
X4339351Y-15061447D01*
X4309705Y-15106984D01*
X4277952Y-15162685D01*
X4276919Y-15164206D01*
X4234921Y-15216615D01*
X4227075Y-15220927D01*
X4218476Y-15218428D01*
X4217542Y-15217594D01*
X4050677Y-15051668D01*
X4048102Y-15047810D01*
X4041558Y-15031843D01*
X3958463Y-14829115D01*
X3958496Y-14820161D01*
X3964096Y-14814194D01*
X4017291Y-14787855D01*
X4075754Y-14758907D01*
X4075760Y-14758904D01*
X4076048Y-14758761D01*
X4160224Y-14704563D01*
X4160542Y-14704365D01*
X4232804Y-14661045D01*
X4235140Y-14659974D01*
X4321843Y-14631247D01*
X4324565Y-14630692D01*
X4337912Y-14629595D01*
X4454732Y-14620000D01*
X4454732Y-15020000D01*
G37*
G04 #@! TD.AperFunction*
G04 #@! TA.AperFunction,Conductor*
G36*
X18676829Y-14157772D02*
G01*
X18897876Y-14406485D01*
X18900811Y-14414945D01*
X18896903Y-14423002D01*
X18893427Y-14425139D01*
X18881333Y-14429912D01*
X18872367Y-14433451D01*
X18872365Y-14433452D01*
X18871952Y-14433615D01*
X18871569Y-14433839D01*
X18835238Y-14455070D01*
X18835234Y-14455072D01*
X18834910Y-14455262D01*
X18797868Y-14483935D01*
X18797646Y-14484149D01*
X18797639Y-14484155D01*
X18768876Y-14511877D01*
X18760826Y-14519636D01*
X18760657Y-14519830D01*
X18760655Y-14519833D01*
X18724058Y-14562047D01*
X18723491Y-14562656D01*
X18594740Y-14691407D01*
X18586467Y-14694834D01*
X18578194Y-14691407D01*
X18575659Y-14687616D01*
X18546064Y-14616245D01*
X18546060Y-14616235D01*
X18546021Y-14616142D01*
X18509680Y-14539300D01*
X18473339Y-14473258D01*
X18461374Y-14455070D01*
X18447406Y-14433839D01*
X18436997Y-14418017D01*
X18400657Y-14373576D01*
X18420000Y-14357427D01*
X18422651Y-14355214D01*
X18660586Y-14156563D01*
X18669133Y-14153891D01*
X18676829Y-14157772D01*
G37*
G04 #@! TD.AperFunction*
G04 #@! TA.AperFunction,Conductor*
G36*
X14507384Y-7586710D02*
G01*
X14729593Y-7833541D01*
X14732582Y-7841982D01*
X14730059Y-7848647D01*
X14690658Y-7898242D01*
X14690559Y-7898384D01*
X14690549Y-7898397D01*
X14645189Y-7963261D01*
X14645101Y-7963387D01*
X14645032Y-7963497D01*
X14645025Y-7963508D01*
X14599598Y-8036245D01*
X14599544Y-8036332D01*
X14553986Y-8117077D01*
X14553955Y-8117137D01*
X14553947Y-8117152D01*
X14515767Y-8191363D01*
X14508935Y-8197151D01*
X14500010Y-8196414D01*
X14497090Y-8194283D01*
X14298274Y-7995467D01*
X14295429Y-7990837D01*
X14277212Y-7935247D01*
X14277206Y-7935230D01*
X14277170Y-7935120D01*
X14258041Y-7883942D01*
X14257981Y-7883805D01*
X14257975Y-7883789D01*
X14238996Y-7840149D01*
X14238992Y-7840140D01*
X14238913Y-7839959D01*
X14219785Y-7803170D01*
X14207003Y-7783394D01*
X14205390Y-7774586D01*
X14210470Y-7767222D01*
X14492330Y-7584717D01*
X14501137Y-7583097D01*
X14507384Y-7586710D01*
G37*
G04 #@! TD.AperFunction*
G04 #@! TA.AperFunction,Conductor*
G36*
X12890907Y-4507681D02*
G01*
X12890918Y-4507685D01*
X12891073Y-4507748D01*
X12960904Y-4531616D01*
X13023466Y-4544222D01*
X13097063Y-4549153D01*
X13200000Y-4550000D01*
X13200000Y-4838395D01*
X13196573Y-4846668D01*
X13188396Y-4850095D01*
X13146307Y-4850441D01*
X13097063Y-4850846D01*
X13023466Y-4855777D01*
X13023100Y-4855851D01*
X13023098Y-4855851D01*
X13004874Y-4859523D01*
X12960904Y-4868382D01*
X12960548Y-4868504D01*
X12960543Y-4868505D01*
X12906032Y-4887137D01*
X12891073Y-4892250D01*
X12890907Y-4892317D01*
X12890908Y-4892317D01*
X12806395Y-4926617D01*
X12797440Y-4926553D01*
X12791202Y-4920293D01*
X12779441Y-4892192D01*
X12769475Y-4868382D01*
X12699503Y-4701201D01*
X12699000Y-4700000D01*
X12795671Y-4469030D01*
X12890907Y-4507681D01*
G37*
G04 #@! TD.AperFunction*
G04 #@! TA.AperFunction,Conductor*
G36*
X13229645Y-4351004D02*
G01*
X13497239Y-4566965D01*
X13501522Y-4574806D01*
X13529834Y-4835283D01*
X13527322Y-4843878D01*
X13519467Y-4848178D01*
X13516746Y-4848156D01*
X13407334Y-4834423D01*
X13407320Y-4834422D01*
X13407147Y-4834400D01*
X13406959Y-4834388D01*
X13406957Y-4834388D01*
X13283036Y-4826610D01*
X13283035Y-4826610D01*
X13282860Y-4826599D01*
X13282362Y-4826599D01*
X13158573Y-4826600D01*
X13034286Y-4834400D01*
X12910000Y-4850000D01*
X12910000Y-4550000D01*
X12957712Y-4530525D01*
X12959674Y-4529724D01*
X12959675Y-4529724D01*
X12972080Y-4524660D01*
X12972369Y-4524542D01*
X13034738Y-4491284D01*
X13097108Y-4450226D01*
X13159477Y-4401368D01*
X13214429Y-4351449D01*
X13222858Y-4348422D01*
X13229645Y-4351004D01*
G37*
G04 #@! TD.AperFunction*
G04 #@! TA.AperFunction,Conductor*
G36*
X6282475Y-14557393D02*
G01*
X6346860Y-14606125D01*
X6420145Y-14650793D01*
X6420441Y-14650930D01*
X6420447Y-14650933D01*
X6454706Y-14666765D01*
X6493430Y-14684662D01*
X6566714Y-14707731D01*
X6606397Y-14714374D01*
X6630232Y-14718365D01*
X6637826Y-14723110D01*
X6640000Y-14729904D01*
X6640000Y-14910096D01*
X6636573Y-14918369D01*
X6630232Y-14921635D01*
X6614636Y-14924246D01*
X6566714Y-14932268D01*
X6493430Y-14955336D01*
X6454706Y-14973233D01*
X6420447Y-14989065D01*
X6420441Y-14989068D01*
X6420145Y-14989205D01*
X6419865Y-14989376D01*
X6419855Y-14989381D01*
X6365478Y-15022526D01*
X6346860Y-15033874D01*
X6346628Y-15034050D01*
X6346623Y-15034053D01*
X6317036Y-15056448D01*
X6282475Y-15082607D01*
X6273811Y-15084868D01*
X6266429Y-15080771D01*
X6189965Y-14989065D01*
X6055247Y-14827492D01*
X6052581Y-14818944D01*
X6055246Y-14812508D01*
X6266429Y-14559229D01*
X6274359Y-14555070D01*
X6282475Y-14557393D01*
G37*
G04 #@! TD.AperFunction*
G04 #@! TA.AperFunction,Conductor*
G36*
X18925405Y-18183117D02*
G01*
X18925904Y-18183563D01*
X18995376Y-18245732D01*
X19058764Y-18285268D01*
X19059282Y-18285467D01*
X19059284Y-18285468D01*
X19086140Y-18295784D01*
X19120895Y-18309135D01*
X19121087Y-18309194D01*
X19121089Y-18309195D01*
X19195035Y-18332030D01*
X19195619Y-18332227D01*
X19284282Y-18364841D01*
X19290863Y-18370913D01*
X19291068Y-18380258D01*
X19202564Y-18596175D01*
X19196175Y-18602564D01*
X18980258Y-18691068D01*
X18971304Y-18691035D01*
X18964840Y-18684281D01*
X18934099Y-18600707D01*
X18932227Y-18595619D01*
X18932030Y-18595035D01*
X18909195Y-18521089D01*
X18909194Y-18521087D01*
X18909135Y-18520895D01*
X18885268Y-18458764D01*
X18845732Y-18395376D01*
X18789046Y-18332030D01*
X18783117Y-18325405D01*
X18780154Y-18316955D01*
X18783563Y-18309330D01*
X18909330Y-18183563D01*
X18917603Y-18180136D01*
X18925405Y-18183117D01*
G37*
G04 #@! TD.AperFunction*
G04 #@! TA.AperFunction,Conductor*
G36*
X4780242Y-14543509D02*
G01*
X4784725Y-14547737D01*
X4947276Y-14813902D01*
X4948664Y-14822749D01*
X4947276Y-14826098D01*
X4784725Y-15092263D01*
X4777489Y-15097538D01*
X4771329Y-15097357D01*
X4696145Y-15074443D01*
X4696139Y-15074441D01*
X4696000Y-15074399D01*
X4612000Y-15053599D01*
X4528000Y-15037599D01*
X4527826Y-15037576D01*
X4527821Y-15037575D01*
X4444176Y-15026422D01*
X4444160Y-15026420D01*
X4444000Y-15026399D01*
X4360000Y-15020000D01*
X4360000Y-14626423D01*
X4365626Y-14620314D01*
X4369654Y-14619264D01*
X4444000Y-14613599D01*
X4444161Y-14613578D01*
X4444176Y-14613576D01*
X4527820Y-14602423D01*
X4527824Y-14602422D01*
X4527999Y-14602399D01*
X4573800Y-14593675D01*
X4611828Y-14586432D01*
X4611836Y-14586430D01*
X4612000Y-14586399D01*
X4696000Y-14565599D01*
X4696139Y-14565557D01*
X4696145Y-14565555D01*
X4771329Y-14542643D01*
X4780242Y-14543509D01*
G37*
G04 #@! TD.AperFunction*
G04 #@! TA.AperFunction,Conductor*
G36*
X18056742Y-14174276D02*
G01*
X18135525Y-14211605D01*
X18136283Y-14212000D01*
X18199467Y-14247912D01*
X18199614Y-14247985D01*
X18199621Y-14247989D01*
X18254811Y-14275491D01*
X18255335Y-14275752D01*
X18322513Y-14293663D01*
X18323087Y-14293700D01*
X18323091Y-14293701D01*
X18409059Y-14299289D01*
X18417092Y-14303245D01*
X18420000Y-14310964D01*
X18420000Y-14489036D01*
X18416573Y-14497309D01*
X18409059Y-14500711D01*
X18323091Y-14506298D01*
X18323087Y-14506299D01*
X18322513Y-14506336D01*
X18255335Y-14524247D01*
X18254812Y-14524508D01*
X18254811Y-14524508D01*
X18199621Y-14552010D01*
X18199614Y-14552014D01*
X18199467Y-14552087D01*
X18199324Y-14552168D01*
X18199317Y-14552172D01*
X18136289Y-14587996D01*
X18135525Y-14588394D01*
X18109434Y-14600757D01*
X18056743Y-14625723D01*
X18047799Y-14626169D01*
X18040940Y-14619667D01*
X18027774Y-14588210D01*
X17950944Y-14404644D01*
X17951193Y-14404644D01*
X17951739Y-14404416D01*
X17951313Y-14403400D01*
X17951193Y-14404644D01*
X17950944Y-14404644D01*
X17949000Y-14400000D01*
X17949659Y-14398424D01*
X17950085Y-14399438D01*
X17950853Y-14395572D01*
X17951804Y-14393301D01*
X18040941Y-14180331D01*
X18047296Y-14174023D01*
X18056742Y-14174276D01*
G37*
G04 #@! TD.AperFunction*
G04 #@! TA.AperFunction,Conductor*
G36*
X18946448Y-1463079D02*
G01*
X19496935Y-1499729D01*
X19504018Y-1502739D01*
X19786958Y-1759487D01*
X20017238Y-1968450D01*
X20021062Y-1976547D01*
X20018040Y-1984976D01*
X20014279Y-1987737D01*
X19796563Y-2088214D01*
X19796559Y-2088216D01*
X19796271Y-2088349D01*
X19562212Y-2229368D01*
X19561991Y-2229532D01*
X19561987Y-2229535D01*
X19328346Y-2403244D01*
X19328339Y-2403250D01*
X19328153Y-2403388D01*
X19094094Y-2610408D01*
X19093934Y-2610572D01*
X19093933Y-2610573D01*
X18880113Y-2829840D01*
X18871883Y-2833371D01*
X18863568Y-2830049D01*
X18860036Y-2821672D01*
X18860036Y-2450428D01*
X18838028Y-2189955D01*
X18816021Y-1959675D01*
X18794014Y-1759590D01*
X18772006Y-1589698D01*
X18752279Y-1464468D01*
X18754376Y-1455762D01*
X18762015Y-1451090D01*
X18764613Y-1450973D01*
X18946448Y-1463079D01*
G37*
G04 #@! TD.AperFunction*
G04 #@! TA.AperFunction,Conductor*
G36*
X10678813Y-11108339D02*
G01*
X10895482Y-11197148D01*
X10901861Y-11203513D01*
X10990355Y-11418081D01*
X10990342Y-11427036D01*
X10984000Y-11433358D01*
X10982059Y-11433967D01*
X10899649Y-11452110D01*
X10895888Y-11452938D01*
X10893233Y-11453211D01*
X10886189Y-11453127D01*
X10800705Y-11452109D01*
X10800633Y-11452109D01*
X10724150Y-11452265D01*
X10724149Y-11452265D01*
X10722816Y-11452268D01*
X10669663Y-11478356D01*
X10669026Y-11480841D01*
X10652255Y-11546233D01*
X10646881Y-11553395D01*
X10640922Y-11555026D01*
X10463088Y-11555026D01*
X10454815Y-11551599D01*
X10451388Y-11543326D01*
X10451461Y-11542020D01*
X10463368Y-11435998D01*
X10464336Y-11432480D01*
X10465019Y-11430970D01*
X10498883Y-11356137D01*
X10500393Y-11353668D01*
X10550488Y-11290841D01*
X10550510Y-11290814D01*
X10609432Y-11216036D01*
X10664053Y-11113658D01*
X10670971Y-11107971D01*
X10678813Y-11108339D01*
G37*
G04 #@! TD.AperFunction*
G04 #@! TA.AperFunction,Conductor*
G36*
X13763963Y-8204460D02*
G01*
X13767556Y-8212896D01*
X13767556Y-8490974D01*
X13764129Y-8499247D01*
X13757694Y-8502529D01*
X13712086Y-8509783D01*
X13690339Y-8513241D01*
X13689204Y-8514084D01*
X13689202Y-8514085D01*
X13671119Y-8527517D01*
X13645111Y-8546836D01*
X13614414Y-8596871D01*
X13614339Y-8597009D01*
X13581262Y-8657607D01*
X13580169Y-8659258D01*
X13534908Y-8716494D01*
X13527089Y-8720858D01*
X13518474Y-8718414D01*
X13517481Y-8717533D01*
X13352371Y-8553352D01*
X13352565Y-8553157D01*
X13348730Y-8549341D01*
X13348307Y-8548309D01*
X13348112Y-8547834D01*
X13348112Y-8547832D01*
X13258730Y-8329767D01*
X13258763Y-8320813D01*
X13265030Y-8314541D01*
X13375687Y-8268121D01*
X13376000Y-8267995D01*
X13463615Y-8234180D01*
X13464886Y-8233771D01*
X13542381Y-8213714D01*
X13544064Y-8213409D01*
X13635915Y-8203620D01*
X13636921Y-8203556D01*
X13755624Y-8201198D01*
X13763963Y-8204460D01*
G37*
G04 #@! TD.AperFunction*
G04 #@! TA.AperFunction,Conductor*
G36*
X5302890Y-16650207D02*
G01*
X5312674Y-16654302D01*
X5520885Y-16741450D01*
X5527193Y-16747805D01*
X5527440Y-16756019D01*
X5496911Y-16845518D01*
X5487126Y-16874204D01*
X5481678Y-16898214D01*
X5465012Y-16971662D01*
X5464911Y-16972071D01*
X5443375Y-17053311D01*
X5442465Y-17055675D01*
X5400542Y-17136982D01*
X5399044Y-17139214D01*
X5322360Y-17229070D01*
X5314385Y-17233138D01*
X5305867Y-17230374D01*
X5305189Y-17229747D01*
X5038437Y-16962995D01*
X5035010Y-16954722D01*
X5037312Y-16947753D01*
X5074846Y-16897154D01*
X5084684Y-16845518D01*
X5074619Y-16792648D01*
X5058674Y-16731086D01*
X5058364Y-16729380D01*
X5051358Y-16662889D01*
X5053899Y-16654302D01*
X5061768Y-16650027D01*
X5062952Y-16649963D01*
X5199589Y-16649578D01*
X5298340Y-16649300D01*
X5302890Y-16650207D01*
G37*
G04 #@! TD.AperFunction*
G04 #@! TA.AperFunction,Conductor*
G36*
X18378671Y-9752643D02*
G01*
X18453855Y-9775555D01*
X18453861Y-9775557D01*
X18454000Y-9775599D01*
X18537999Y-9796399D01*
X18538163Y-9796430D01*
X18538171Y-9796432D01*
X18576199Y-9803675D01*
X18622000Y-9812399D01*
X18622174Y-9812422D01*
X18622179Y-9812423D01*
X18705824Y-9823576D01*
X18705839Y-9823578D01*
X18706000Y-9823599D01*
X18725000Y-9825047D01*
X18725001Y-9825047D01*
X18790000Y-9830000D01*
X18790000Y-10230000D01*
X18712166Y-10235929D01*
X18706168Y-10236386D01*
X18706161Y-10236387D01*
X18706000Y-10236399D01*
X18640790Y-10245094D01*
X18622178Y-10247575D01*
X18622173Y-10247576D01*
X18621999Y-10247599D01*
X18538000Y-10263599D01*
X18454000Y-10284399D01*
X18453861Y-10284441D01*
X18453855Y-10284443D01*
X18378671Y-10307357D01*
X18369758Y-10306491D01*
X18365275Y-10302263D01*
X18202724Y-10036098D01*
X18201336Y-10027251D01*
X18202723Y-10023905D01*
X18365275Y-9757737D01*
X18372511Y-9752462D01*
X18378671Y-9752643D01*
G37*
G04 #@! TD.AperFunction*
G04 #@! TA.AperFunction,Conductor*
G36*
X19080242Y-9753509D02*
G01*
X19084725Y-9757737D01*
X19247276Y-10023902D01*
X19248664Y-10032749D01*
X19247276Y-10036098D01*
X19084725Y-10302263D01*
X19077489Y-10307538D01*
X19071329Y-10307357D01*
X18996145Y-10284443D01*
X18996139Y-10284441D01*
X18996000Y-10284399D01*
X18911999Y-10263599D01*
X18828000Y-10247599D01*
X18827826Y-10247576D01*
X18827821Y-10247575D01*
X18801885Y-10244117D01*
X18744000Y-10236399D01*
X18743839Y-10236387D01*
X18743832Y-10236386D01*
X18737834Y-10235929D01*
X18660000Y-10230000D01*
X18660000Y-9830000D01*
X18724999Y-9825047D01*
X18725000Y-9825047D01*
X18744000Y-9823599D01*
X18744161Y-9823578D01*
X18744176Y-9823576D01*
X18827820Y-9812423D01*
X18827824Y-9812422D01*
X18827999Y-9812399D01*
X18873800Y-9803675D01*
X18911828Y-9796432D01*
X18911836Y-9796430D01*
X18912000Y-9796399D01*
X18996000Y-9775599D01*
X18996139Y-9775557D01*
X18996145Y-9775555D01*
X19071329Y-9752643D01*
X19080242Y-9753509D01*
G37*
G04 #@! TD.AperFunction*
G04 #@! TA.AperFunction,Conductor*
G36*
X17797052Y-5903427D02*
G01*
X17800469Y-5911210D01*
X17805200Y-6024358D01*
X17817600Y-6112179D01*
X17817630Y-6112330D01*
X17832340Y-6187513D01*
X17832443Y-6188124D01*
X17844719Y-6275066D01*
X17844824Y-6276213D01*
X17849980Y-6399511D01*
X17849980Y-6400000D01*
X17600000Y-6401000D01*
X17350020Y-6400000D01*
X17350020Y-6399511D01*
X17355176Y-6276213D01*
X17355281Y-6275066D01*
X17367557Y-6188124D01*
X17367660Y-6187513D01*
X17382370Y-6112330D01*
X17382400Y-6112179D01*
X17394800Y-6024358D01*
X17399531Y-5911210D01*
X17403301Y-5903088D01*
X17411221Y-5900000D01*
X17788779Y-5900000D01*
X17797052Y-5903427D01*
G37*
G04 #@! TD.AperFunction*
G04 #@! TA.AperFunction,Conductor*
G36*
X15391242Y-10803427D02*
G01*
X15394669Y-10811700D01*
X15394669Y-10989824D01*
X15391242Y-10998097D01*
X15384592Y-11001411D01*
X15312570Y-11011497D01*
X15312568Y-11011498D01*
X15311331Y-11011671D01*
X15310275Y-11012342D01*
X15310274Y-11012342D01*
X15261216Y-11043501D01*
X15260295Y-11044086D01*
X15224140Y-11093342D01*
X15185847Y-11154887D01*
X15184956Y-11156128D01*
X15143463Y-11206515D01*
X15134946Y-11216857D01*
X15127041Y-11221065D01*
X15118476Y-11218451D01*
X15117664Y-11217715D01*
X14952470Y-11053450D01*
X14949020Y-11045107D01*
X14949953Y-10811653D01*
X14953413Y-10803394D01*
X14961653Y-10800000D01*
X15382969Y-10800000D01*
X15391242Y-10803427D01*
G37*
G04 #@! TD.AperFunction*
G04 #@! TA.AperFunction,Conductor*
G36*
X17858797Y-14179967D02*
G01*
X17859481Y-14181340D01*
X17950000Y-14397611D01*
X17949420Y-14397854D01*
X17950994Y-14401608D01*
X17950981Y-14404733D01*
X17950976Y-14405860D01*
X17950976Y-14405862D01*
X17950409Y-14547765D01*
X17950071Y-14632400D01*
X17950049Y-14637826D01*
X17946589Y-14646085D01*
X17937838Y-14649468D01*
X17831658Y-14644826D01*
X17830460Y-14644711D01*
X17779366Y-14637165D01*
X17747426Y-14632447D01*
X17746803Y-14632338D01*
X17714464Y-14625717D01*
X17674973Y-14617632D01*
X17674961Y-14617630D01*
X17674815Y-14617600D01*
X17590861Y-14605200D01*
X17590561Y-14605187D01*
X17590552Y-14605186D01*
X17483112Y-14600489D01*
X17474996Y-14596704D01*
X17471923Y-14588800D01*
X17471923Y-14410080D01*
X17475350Y-14401807D01*
X17481892Y-14398509D01*
X17515915Y-14393420D01*
X17577656Y-14384185D01*
X17643592Y-14343317D01*
X17694721Y-14287456D01*
X17695102Y-14287060D01*
X17755696Y-14226927D01*
X17758047Y-14225123D01*
X17842798Y-14175748D01*
X17851672Y-14174544D01*
X17858797Y-14179967D01*
G37*
G04 #@! TD.AperFunction*
G04 #@! TA.AperFunction,Conductor*
G36*
X17981913Y-9770977D02*
G01*
X18144609Y-9963329D01*
X18194655Y-10022498D01*
X18197381Y-10031028D01*
X18194709Y-10037546D01*
X18017374Y-10250230D01*
X17983162Y-10291262D01*
X17975232Y-10295421D01*
X17967676Y-10293497D01*
X17903402Y-10250550D01*
X17903397Y-10250547D01*
X17903138Y-10250374D01*
X17829854Y-10212205D01*
X17815247Y-10206750D01*
X17756929Y-10184970D01*
X17756923Y-10184968D01*
X17756569Y-10184836D01*
X17728323Y-10178450D01*
X17683697Y-10168361D01*
X17683692Y-10168360D01*
X17683284Y-10168268D01*
X17620781Y-10163349D01*
X17612803Y-10159284D01*
X17610000Y-10151685D01*
X17610000Y-9971602D01*
X17613427Y-9963329D01*
X17618821Y-9960261D01*
X17682870Y-9944008D01*
X17755741Y-9914716D01*
X17789498Y-9896144D01*
X17828331Y-9874779D01*
X17828336Y-9874776D01*
X17828612Y-9874624D01*
X17901482Y-9823732D01*
X17901680Y-9823564D01*
X17901687Y-9823559D01*
X17965420Y-9769603D01*
X17973949Y-9766873D01*
X17981913Y-9770977D01*
G37*
G04 #@! TD.AperFunction*
G04 #@! TA.AperFunction,Conductor*
G36*
X17849980Y-6400000D02*
G01*
X17849980Y-6400489D01*
X17844824Y-6523785D01*
X17844719Y-6524932D01*
X17832443Y-6611875D01*
X17832340Y-6612483D01*
X17817600Y-6687820D01*
X17805200Y-6775640D01*
X17805189Y-6775914D01*
X17805188Y-6775920D01*
X17800469Y-6888789D01*
X17796699Y-6896912D01*
X17788779Y-6900000D01*
X17411221Y-6900000D01*
X17402948Y-6896573D01*
X17399531Y-6888789D01*
X17394812Y-6775920D01*
X17394811Y-6775914D01*
X17394800Y-6775640D01*
X17382400Y-6687820D01*
X17367660Y-6612483D01*
X17367557Y-6611875D01*
X17355281Y-6524932D01*
X17355176Y-6523785D01*
X17350020Y-6400489D01*
X17350020Y-6400000D01*
X17600000Y-6399000D01*
X17849980Y-6400000D01*
G37*
G04 #@! TD.AperFunction*
G04 #@! TA.AperFunction,Conductor*
G36*
X17802379Y-7367247D02*
G01*
X17803508Y-7368557D01*
X17838798Y-7416211D01*
X17877597Y-7464402D01*
X17916396Y-7508394D01*
X17955195Y-7548186D01*
X17955311Y-7548293D01*
X17955325Y-7548306D01*
X17987572Y-7577887D01*
X17991352Y-7586005D01*
X17990188Y-7591618D01*
X17840000Y-7901000D01*
X17570000Y-7958572D01*
X17535999Y-7831221D01*
X17501999Y-7708070D01*
X17467999Y-7589120D01*
X17466417Y-7583778D01*
X17433999Y-7474370D01*
X17404656Y-7378959D01*
X17405499Y-7370044D01*
X17412400Y-7364337D01*
X17415839Y-7363820D01*
X17794106Y-7363820D01*
X17802379Y-7367247D01*
G37*
G04 #@! TD.AperFunction*
G04 #@! TA.AperFunction,Conductor*
G36*
X4759893Y-16837768D02*
G01*
X4765257Y-16842286D01*
X4816283Y-16922531D01*
X4872567Y-17006242D01*
X4928851Y-17085154D01*
X4985135Y-17159266D01*
X5034770Y-17220389D01*
X5037326Y-17228971D01*
X5033961Y-17236037D01*
X4766079Y-17503919D01*
X4757806Y-17507346D01*
X4750380Y-17504687D01*
X4685779Y-17451628D01*
X4685666Y-17451535D01*
X4612754Y-17396451D01*
X4612666Y-17396390D01*
X4612649Y-17396378D01*
X4539947Y-17346239D01*
X4539935Y-17346231D01*
X4539842Y-17346167D01*
X4466931Y-17300683D01*
X4402029Y-17264469D01*
X4396474Y-17257445D01*
X4396447Y-17251155D01*
X4400597Y-17236037D01*
X4477772Y-16954835D01*
X4483266Y-16947764D01*
X4484611Y-16947109D01*
X4544195Y-16922641D01*
X4750939Y-16837741D01*
X4759893Y-16837768D01*
G37*
G04 #@! TD.AperFunction*
G04 #@! TA.AperFunction,Conductor*
G36*
X13479236Y-15608743D02*
G01*
X13485487Y-15614961D01*
X13494788Y-15636851D01*
X13495576Y-15643256D01*
X13494508Y-15650000D01*
X13514354Y-15775304D01*
X13527728Y-15801552D01*
X13528673Y-15804111D01*
X13532970Y-15821927D01*
X13537726Y-15832217D01*
X13551362Y-15855971D01*
X13552893Y-15858164D01*
X13552994Y-15858314D01*
X13568010Y-15880789D01*
X13568705Y-15881975D01*
X13571950Y-15888342D01*
X13574473Y-15890865D01*
X13575928Y-15892638D01*
X13588195Y-15910997D01*
X13589942Y-15915213D01*
X13590422Y-15917626D01*
X13590559Y-15918487D01*
X13596851Y-15969933D01*
X13596935Y-15971060D01*
X13599707Y-16084462D01*
X13596483Y-16092816D01*
X13588010Y-16096448D01*
X13409203Y-16096448D01*
X13400930Y-16093021D01*
X13397832Y-16087504D01*
X13379889Y-16013471D01*
X13379379Y-16011366D01*
X13325067Y-15974166D01*
X13323957Y-15973925D01*
X13323956Y-15973925D01*
X13293002Y-15967214D01*
X13248656Y-15957598D01*
X13248138Y-15957474D01*
X13162493Y-15934666D01*
X13159083Y-15933141D01*
X13085206Y-15884643D01*
X13080171Y-15877238D01*
X13081846Y-15868441D01*
X13083331Y-15866612D01*
X13175030Y-15774394D01*
X13248332Y-15700677D01*
X13252189Y-15698103D01*
X13470282Y-15608710D01*
X13479236Y-15608743D01*
G37*
G04 #@! TD.AperFunction*
G04 #@! TA.AperFunction,Conductor*
G36*
X19659014Y-7680224D02*
G01*
X19699653Y-7777319D01*
X19749109Y-7895483D01*
X19749109Y-7904517D01*
X19673046Y-8086252D01*
X19659015Y-8119775D01*
X19652660Y-8126084D01*
X19643314Y-8125879D01*
X19620183Y-8115189D01*
X19557549Y-8086242D01*
X19557035Y-8085987D01*
X19516207Y-8064426D01*
X19488569Y-8049830D01*
X19488558Y-8049825D01*
X19488392Y-8049737D01*
X19427582Y-8022680D01*
X19354804Y-8005813D01*
X19250000Y-8000000D01*
X19250000Y-7800000D01*
X19354804Y-7794186D01*
X19427582Y-7777319D01*
X19432790Y-7775002D01*
X19488210Y-7750343D01*
X19488211Y-7750343D01*
X19488392Y-7750262D01*
X19488558Y-7750174D01*
X19488569Y-7750169D01*
X19516207Y-7735573D01*
X19557035Y-7714012D01*
X19557549Y-7713757D01*
X19630106Y-7680225D01*
X19643314Y-7674121D01*
X19652261Y-7673761D01*
X19659014Y-7680224D01*
G37*
G04 #@! TD.AperFunction*
G04 #@! TA.AperFunction,Conductor*
G36*
X19106226Y-7637892D02*
G01*
X19157737Y-7684201D01*
X19157745Y-7684207D01*
X19157958Y-7684399D01*
X19218468Y-7728599D01*
X19218766Y-7728767D01*
X19218770Y-7728769D01*
X19247347Y-7744826D01*
X19278978Y-7762599D01*
X19339489Y-7786399D01*
X19400000Y-7800000D01*
X19400000Y-8000000D01*
X19356233Y-8009836D01*
X19339932Y-8013499D01*
X19339927Y-8013501D01*
X19339489Y-8013599D01*
X19278978Y-8037399D01*
X19247347Y-8055172D01*
X19218770Y-8071229D01*
X19218766Y-8071231D01*
X19218468Y-8071399D01*
X19157958Y-8115599D01*
X19157738Y-8115797D01*
X19106226Y-8162108D01*
X19097783Y-8165090D01*
X19089634Y-8161152D01*
X18865840Y-7907745D01*
X18862932Y-7899275D01*
X18865840Y-7892255D01*
X19089634Y-7638848D01*
X19097679Y-7634915D01*
X19106226Y-7637892D01*
G37*
G04 #@! TD.AperFunction*
G04 #@! TA.AperFunction,Conductor*
G36*
X14329718Y-15608710D02*
G01*
X14396397Y-15636041D01*
X14547811Y-15698103D01*
X14551668Y-15700677D01*
X14624970Y-15774394D01*
X14716669Y-15866612D01*
X14720073Y-15874895D01*
X14716623Y-15883158D01*
X14714794Y-15884643D01*
X14640915Y-15933141D01*
X14637505Y-15934666D01*
X14551860Y-15957474D01*
X14551342Y-15957598D01*
X14506557Y-15967309D01*
X14489225Y-15971067D01*
X14474932Y-15974166D01*
X14420620Y-16011366D01*
X14420110Y-16013471D01*
X14402168Y-16087504D01*
X14396889Y-16094737D01*
X14390797Y-16096448D01*
X14211990Y-16096448D01*
X14203717Y-16093021D01*
X14200293Y-16084462D01*
X14202973Y-15974808D01*
X14203065Y-15971060D01*
X14203148Y-15969933D01*
X14204656Y-15957600D01*
X14209438Y-15918495D01*
X14209573Y-15917654D01*
X14210059Y-15915212D01*
X14211805Y-15910997D01*
X14224072Y-15892638D01*
X14225527Y-15890865D01*
X14228050Y-15888342D01*
X14228467Y-15887524D01*
X14228469Y-15887521D01*
X14231296Y-15881972D01*
X14231993Y-15880783D01*
X14247009Y-15858310D01*
X14247142Y-15858115D01*
X14248495Y-15856176D01*
X14248650Y-15855954D01*
X14262279Y-15832209D01*
X14267034Y-15821920D01*
X14270989Y-15804833D01*
X14271963Y-15802161D01*
X14285227Y-15776127D01*
X14285228Y-15776125D01*
X14285646Y-15775304D01*
X14305492Y-15650000D01*
X14304424Y-15643255D01*
X14305212Y-15636849D01*
X14314513Y-15614960D01*
X14320902Y-15608686D01*
X14329718Y-15608710D01*
G37*
G04 #@! TD.AperFunction*
G04 #@! TA.AperFunction,Conductor*
G36*
X14016446Y-15697738D02*
G01*
X14119776Y-15740986D01*
X14126084Y-15747340D01*
X14125879Y-15756686D01*
X14121124Y-15766975D01*
X14119462Y-15769357D01*
X14119399Y-15769399D01*
X14100462Y-15797741D01*
X14064034Y-15852259D01*
X14063809Y-15853392D01*
X14054068Y-15902363D01*
X14052939Y-15905543D01*
X14049737Y-15911607D01*
X14022680Y-15972416D01*
X14005813Y-16045195D01*
X14005785Y-16045697D01*
X14005785Y-16045698D01*
X14000613Y-16138948D01*
X13996733Y-16147019D01*
X13988931Y-16150000D01*
X13811069Y-16150000D01*
X13802796Y-16146573D01*
X13799387Y-16138948D01*
X13794214Y-16045698D01*
X13794214Y-16045697D01*
X13794186Y-16045195D01*
X13777319Y-15972416D01*
X13750262Y-15911607D01*
X13747061Y-15905546D01*
X13745933Y-15902367D01*
X13736191Y-15853390D01*
X13736191Y-15853389D01*
X13735966Y-15852260D01*
X13680601Y-15769399D01*
X13680539Y-15769357D01*
X13678878Y-15766977D01*
X13674122Y-15756687D01*
X13673761Y-15747739D01*
X13680224Y-15740986D01*
X13783554Y-15697738D01*
X13895483Y-15650891D01*
X13904517Y-15650891D01*
X14016446Y-15697738D01*
G37*
G04 #@! TD.AperFunction*
G04 #@! TA.AperFunction,Conductor*
G36*
X11998406Y-6372966D02*
G01*
X12001411Y-6375823D01*
X12054143Y-6447755D01*
X12111318Y-6513918D01*
X12168492Y-6568249D01*
X12225667Y-6610750D01*
X12226037Y-6610949D01*
X12226041Y-6610951D01*
X12240394Y-6618650D01*
X12268964Y-6633976D01*
X12274633Y-6640905D01*
X12273742Y-6649816D01*
X12271705Y-6652558D01*
X12145472Y-6778791D01*
X12137199Y-6782218D01*
X12135739Y-6782127D01*
X12083573Y-6775565D01*
X12083136Y-6775510D01*
X12061031Y-6776098D01*
X12025288Y-6777048D01*
X12025283Y-6777049D01*
X12024852Y-6777060D01*
X11966568Y-6787492D01*
X11966175Y-6787622D01*
X11966172Y-6787623D01*
X11908651Y-6806683D01*
X11908646Y-6806685D01*
X11908284Y-6806805D01*
X11907935Y-6806974D01*
X11854981Y-6832590D01*
X11846041Y-6833108D01*
X11844978Y-6832679D01*
X11231543Y-6549196D01*
X11225470Y-6542614D01*
X11225830Y-6533667D01*
X11232412Y-6527594D01*
X11234086Y-6527116D01*
X11377195Y-6497599D01*
X11989612Y-6371281D01*
X11998406Y-6372966D01*
G37*
G04 #@! TD.AperFunction*
G04 #@! TA.AperFunction,Conductor*
G36*
X12558249Y-5517753D02*
G01*
X12632307Y-5600109D01*
X12633481Y-5601656D01*
X12669248Y-5657952D01*
X12679722Y-5674438D01*
X12680721Y-5676395D01*
X12709136Y-5747973D01*
X12709413Y-5748749D01*
X12714427Y-5764540D01*
X12737101Y-5835956D01*
X12752133Y-5876518D01*
X12777069Y-5943804D01*
X12776730Y-5952753D01*
X12770615Y-5958663D01*
X12555211Y-6048822D01*
X12546200Y-6048832D01*
X12331189Y-5959387D01*
X12324867Y-5953045D01*
X12324880Y-5944090D01*
X12325481Y-5942858D01*
X12362014Y-5877892D01*
X12362919Y-5876518D01*
X12408937Y-5816379D01*
X12409074Y-5816200D01*
X12442990Y-5763371D01*
X12448161Y-5710650D01*
X12413769Y-5657952D01*
X12412117Y-5649151D01*
X12415294Y-5643285D01*
X12541276Y-5517303D01*
X12549549Y-5513876D01*
X12558249Y-5517753D01*
G37*
G04 #@! TD.AperFunction*
G04 #@! TA.AperFunction,Conductor*
G36*
X11957832Y-5011955D02*
G01*
X11961212Y-5014480D01*
X12022300Y-5080310D01*
X12088534Y-5139686D01*
X12154768Y-5187062D01*
X12221002Y-5222438D01*
X12269731Y-5239636D01*
X12276391Y-5245620D01*
X12276869Y-5254562D01*
X12274109Y-5258941D01*
X12147748Y-5385302D01*
X12143223Y-5388112D01*
X12108295Y-5399924D01*
X12108292Y-5399925D01*
X12107864Y-5400070D01*
X12069914Y-5419870D01*
X12031964Y-5446636D01*
X12031720Y-5446853D01*
X11994227Y-5480179D01*
X11994221Y-5480185D01*
X11994015Y-5480368D01*
X11961222Y-5515536D01*
X11953075Y-5519250D01*
X11948907Y-5518637D01*
X11737342Y-5446853D01*
X11232038Y-5275404D01*
X11225305Y-5269500D01*
X11224718Y-5260565D01*
X11230622Y-5253831D01*
X11232057Y-5253238D01*
X11948897Y-5011353D01*
X11957832Y-5011955D01*
G37*
G04 #@! TD.AperFunction*
G04 #@! TA.AperFunction,Conductor*
G36*
X11996283Y-10556979D02*
G01*
X11999707Y-10565538D01*
X11997011Y-10675832D01*
X11996935Y-10678931D01*
X11996851Y-10680058D01*
X11992352Y-10716857D01*
X11986111Y-10767891D01*
X11985759Y-10769642D01*
X11984220Y-10775105D01*
X11964894Y-10843693D01*
X11964483Y-10844899D01*
X11930574Y-10928921D01*
X11930492Y-10929117D01*
X11885487Y-11035039D01*
X11879098Y-11041314D01*
X11870282Y-11041290D01*
X11803603Y-11013959D01*
X11652189Y-10951897D01*
X11648331Y-10949322D01*
X11628240Y-10929117D01*
X11483329Y-10783387D01*
X11479926Y-10775105D01*
X11483376Y-10766842D01*
X11485205Y-10765357D01*
X11559083Y-10716857D01*
X11562493Y-10715332D01*
X11587153Y-10708765D01*
X11648138Y-10692524D01*
X11648656Y-10692400D01*
X11725067Y-10675832D01*
X11779379Y-10638633D01*
X11797832Y-10562495D01*
X11803111Y-10555263D01*
X11809203Y-10553552D01*
X11988010Y-10553552D01*
X11996283Y-10556979D01*
G37*
G04 #@! TD.AperFunction*
D32*
X2000000Y0D02*
X23000000Y0D01*
X25000000Y-2000000D02*
G75*
G03*
X23000000Y0I-2000000J0D01*
G01*
X2000000Y0D02*
G75*
G03*
X0Y-2000000I-1J-1999999D01*
G01*
X23000000Y-25000000D02*
G75*
G03*
X25000000Y-23000000I0J2000000D01*
G01*
X25000000Y-2000000D02*
X25000000Y-23000000D01*
X2000000Y-25000000D02*
X23000000Y-25000000D01*
X0Y-23000000D02*
G75*
G03*
X2000000Y-25000000I1999995J-5D01*
G01*
X0Y-23000000D02*
X0Y-2000000D01*
M02*
